M48
; DRILL file {KiCad (7.0.0)} date Thu Feb  8 18:30:58 2024
; FORMAT={-:-/ absolute / metric / decimal}
; #@! TF.CreationDate,2024-02-08T18:30:58+01:00
; #@! TF.GenerationSoftware,Kicad,Pcbnew,(7.0.0)
; #@! TF.FileFunction,Plated,1,2,PTH
FMAT,2
METRIC
; #@! TA.AperFunction,Plated,PTH,ViaDrill
T1C0.300
; #@! TA.AperFunction,Plated,PTH,ViaDrill
T2C0.400
; #@! TA.AperFunction,Plated,PTH,ComponentDrill
T3C0.950
; #@! TA.AperFunction,Plated,PTH,ComponentDrill
T4C1.000
; #@! TA.AperFunction,Plated,PTH,ComponentDrill
T5C1.016
; #@! TA.AperFunction,Plated,PTH,ComponentDrill
T6C1.100
%
G90
G05
T1
X27.656Y34.343
X27.656Y21.843
X30.156Y29.343
X30.156Y26.843
X37.657Y36.843
X47.657Y41.843
X55.156Y39.343
X77.656Y34.343
X80.156Y94.343
X80.156Y51.843
X82.656Y71.843
X87.656Y79.343
X87.656Y59.343
X100.0Y87.0
T2
X5.0Y19.5
X7.5Y122.0
X7.5Y114.5
X7.5Y92.0
X7.5Y64.5
X10.0Y107.0
X12.5Y14.5
X15.0Y112.0
X15.0Y34.5
X15.156Y12.343
X20.0Y119.5
X22.5Y137.0
X25.0Y99.5
X25.0Y87.0
X25.0Y67.0
X27.5Y127.0
X27.5Y74.5
X30.0Y119.5
X32.5Y97.0
X32.5Y19.5
X35.0Y89.5
X35.0Y67.0
X35.157Y56.843
X35.157Y12.343
X37.5Y137.0
X37.5Y119.5
X40.0Y82.0
X42.5Y97.0
X45.0Y117.0
X47.5Y92.0
X47.5Y19.5
X50.0Y119.5
X50.0Y87.0
X50.0Y77.0
X52.5Y97.0
X52.5Y22.0
X57.5Y119.5
X57.5Y82.0
X57.656Y69.343
X60.0Y89.5
X60.156Y12.343
X62.5Y117.0
X62.5Y94.5
X65.0Y129.5
X67.5Y137.0
X70.0Y122.0
X72.5Y79.5
X72.5Y24.5
X75.0Y49.5
X75.0Y37.0
X77.5Y109.5
X77.656Y12.343
X80.0Y122.0
X80.0Y119.5
X80.0Y87.0
X80.0Y62.0
X82.5Y92.0
X85.0Y129.5
X87.5Y137.0
X87.5Y107.0
X90.0Y22.0
X90.0Y17.0
X90.156Y12.343
X92.5Y119.5
X92.5Y74.5
X92.5Y59.5
X92.5Y57.587
X92.5Y47.0
X95.0Y97.0
X95.0Y92.0
X97.5Y112.0
X97.5Y92.0
X97.5Y87.0
X97.5Y82.0
X97.5Y79.5
X97.5Y62.0
X97.5Y22.0
X100.0Y54.5
X101.7Y117.0
X102.5Y137.0
X102.5Y69.5
X102.5Y17.0
X102.656Y44.343
X105.0Y129.5
X105.0Y67.0
X107.5Y94.5
X107.5Y74.5
X110.0Y119.5
X110.0Y104.5
X112.5Y79.5
X112.5Y64.5
X114.656Y42.843
X114.656Y17.843
X115.0Y99.5
X115.5Y30.0
X125.0Y109.5
X125.0Y89.5
T3
X72.5Y129.5
X75.0Y129.5
X77.5Y129.5
X80.0Y129.5
X92.5Y129.5
X95.0Y129.5
X97.5Y129.5
X100.0Y129.5
T4
X10.156Y31.843
X10.156Y29.303
X10.156Y26.764
X10.156Y24.223
X12.656Y46.883
X12.656Y44.343
X12.656Y41.803
X17.5Y129.5
X20.0Y129.5
X109.898Y89.187
X109.898Y86.647
X110.0Y59.227
X110.0Y56.687
X110.0Y54.147
X110.0Y51.607
X112.616Y129.344
X115.156Y129.344
X117.697Y129.344
T5
X19.877Y99.263
X19.877Y96.724
X19.877Y94.183
X19.877Y91.643
X19.877Y89.103
X19.877Y86.563
X19.877Y84.023
X19.877Y81.483
X19.877Y76.403
X19.877Y73.864
X19.877Y71.323
X19.877Y68.784
X19.877Y66.243
X19.877Y63.703
X19.877Y61.163
X19.877Y58.623
X19.877Y53.543
X19.877Y51.003
X19.877Y48.463
X19.877Y45.923
X19.877Y43.383
X19.877Y40.843
X19.877Y38.303
X19.877Y35.764
X24.956Y104.343
X24.956Y101.803
X27.496Y104.343
X27.496Y101.803
X30.037Y104.343
X30.037Y101.803
X32.576Y104.343
X32.576Y101.803
X35.116Y104.343
X35.116Y101.803
X37.657Y104.343
X37.657Y101.803
X40.197Y104.343
X40.197Y101.803
X42.736Y104.343
X42.736Y101.803
X42.736Y73.99
X42.736Y71.45
X45.276Y104.343
X45.276Y101.803
X45.276Y73.99
X45.276Y71.45
X47.816Y104.343
X47.816Y101.803
X47.816Y73.99
X47.816Y71.45
X50.356Y104.343
X50.356Y101.803
X52.896Y104.343
X52.896Y101.803
X55.436Y104.343
X55.436Y101.803
X57.976Y104.343
X57.976Y101.803
X60.517Y104.343
X60.517Y101.803
X63.056Y104.343
X63.056Y101.803
X65.596Y104.343
X65.596Y101.803
X68.136Y104.343
X68.136Y101.803
X68.136Y94.183
X68.136Y91.643
X68.136Y89.103
X68.136Y86.563
X68.136Y84.023
X68.136Y81.483
X68.136Y78.944
X68.136Y76.403
X68.136Y71.323
X68.136Y68.784
X68.136Y66.243
X68.136Y63.703
X68.136Y61.163
X68.136Y58.623
X68.136Y56.084
X68.136Y53.543
X68.136Y49.479
X68.136Y46.939
X68.136Y44.399
X68.136Y41.859
X68.136Y39.319
X68.136Y36.779
X68.136Y34.239
X68.136Y31.699
X68.136Y29.159
X68.136Y26.619
T6
X52.42Y129.5
X54.96Y129.5
X57.5Y129.5
T0
M30
