%TF.GenerationSoftware,KiCad,Pcbnew,(7.0.0)*%
%TF.CreationDate,2024-02-08T18:30:53+01:00*%
%TF.ProjectId,AbuDhabi_ElectronBeam,41627544-6861-4626-995f-456c65637472,rev?*%
%TF.SameCoordinates,PXa6e49c0PYcef2840*%
%TF.FileFunction,Legend,Bot*%
%TF.FilePolarity,Positive*%
%FSLAX46Y46*%
G04 Gerber Fmt 4.6, Leading zero omitted, Abs format (unit mm)*
G04 Created by KiCad (PCBNEW (7.0.0)) date 2024-02-08 18:30:53*
%MOMM*%
%LPD*%
G01*
G04 APERTURE LIST*
%ADD10C,0.150000*%
%ADD11C,0.120000*%
G04 APERTURE END LIST*
D10*
%TO.C,C9*%
X62823166Y55501358D02*
X62870785Y55453739D01*
X62870785Y55453739D02*
X63013642Y55406120D01*
X63013642Y55406120D02*
X63108880Y55406120D01*
X63108880Y55406120D02*
X63251737Y55453739D01*
X63251737Y55453739D02*
X63346975Y55548977D01*
X63346975Y55548977D02*
X63394594Y55644215D01*
X63394594Y55644215D02*
X63442213Y55834691D01*
X63442213Y55834691D02*
X63442213Y55977548D01*
X63442213Y55977548D02*
X63394594Y56168024D01*
X63394594Y56168024D02*
X63346975Y56263262D01*
X63346975Y56263262D02*
X63251737Y56358500D01*
X63251737Y56358500D02*
X63108880Y56406120D01*
X63108880Y56406120D02*
X63013642Y56406120D01*
X63013642Y56406120D02*
X62870785Y56358500D01*
X62870785Y56358500D02*
X62823166Y56310881D01*
X62346975Y55406120D02*
X62156499Y55406120D01*
X62156499Y55406120D02*
X62061261Y55453739D01*
X62061261Y55453739D02*
X62013642Y55501358D01*
X62013642Y55501358D02*
X61918404Y55644215D01*
X61918404Y55644215D02*
X61870785Y55834691D01*
X61870785Y55834691D02*
X61870785Y56215643D01*
X61870785Y56215643D02*
X61918404Y56310881D01*
X61918404Y56310881D02*
X61966023Y56358500D01*
X61966023Y56358500D02*
X62061261Y56406120D01*
X62061261Y56406120D02*
X62251737Y56406120D01*
X62251737Y56406120D02*
X62346975Y56358500D01*
X62346975Y56358500D02*
X62394594Y56310881D01*
X62394594Y56310881D02*
X62442213Y56215643D01*
X62442213Y56215643D02*
X62442213Y55977548D01*
X62442213Y55977548D02*
X62394594Y55882310D01*
X62394594Y55882310D02*
X62346975Y55834691D01*
X62346975Y55834691D02*
X62251737Y55787072D01*
X62251737Y55787072D02*
X62061261Y55787072D01*
X62061261Y55787072D02*
X61966023Y55834691D01*
X61966023Y55834691D02*
X61918404Y55882310D01*
X61918404Y55882310D02*
X61870785Y55977548D01*
%TO.C,C8*%
X62048166Y50501358D02*
X62095785Y50453739D01*
X62095785Y50453739D02*
X62238642Y50406120D01*
X62238642Y50406120D02*
X62333880Y50406120D01*
X62333880Y50406120D02*
X62476737Y50453739D01*
X62476737Y50453739D02*
X62571975Y50548977D01*
X62571975Y50548977D02*
X62619594Y50644215D01*
X62619594Y50644215D02*
X62667213Y50834691D01*
X62667213Y50834691D02*
X62667213Y50977548D01*
X62667213Y50977548D02*
X62619594Y51168024D01*
X62619594Y51168024D02*
X62571975Y51263262D01*
X62571975Y51263262D02*
X62476737Y51358500D01*
X62476737Y51358500D02*
X62333880Y51406120D01*
X62333880Y51406120D02*
X62238642Y51406120D01*
X62238642Y51406120D02*
X62095785Y51358500D01*
X62095785Y51358500D02*
X62048166Y51310881D01*
X61476737Y50977548D02*
X61571975Y51025167D01*
X61571975Y51025167D02*
X61619594Y51072786D01*
X61619594Y51072786D02*
X61667213Y51168024D01*
X61667213Y51168024D02*
X61667213Y51215643D01*
X61667213Y51215643D02*
X61619594Y51310881D01*
X61619594Y51310881D02*
X61571975Y51358500D01*
X61571975Y51358500D02*
X61476737Y51406120D01*
X61476737Y51406120D02*
X61286261Y51406120D01*
X61286261Y51406120D02*
X61191023Y51358500D01*
X61191023Y51358500D02*
X61143404Y51310881D01*
X61143404Y51310881D02*
X61095785Y51215643D01*
X61095785Y51215643D02*
X61095785Y51168024D01*
X61095785Y51168024D02*
X61143404Y51072786D01*
X61143404Y51072786D02*
X61191023Y51025167D01*
X61191023Y51025167D02*
X61286261Y50977548D01*
X61286261Y50977548D02*
X61476737Y50977548D01*
X61476737Y50977548D02*
X61571975Y50929929D01*
X61571975Y50929929D02*
X61619594Y50882310D01*
X61619594Y50882310D02*
X61667213Y50787072D01*
X61667213Y50787072D02*
X61667213Y50596596D01*
X61667213Y50596596D02*
X61619594Y50501358D01*
X61619594Y50501358D02*
X61571975Y50453739D01*
X61571975Y50453739D02*
X61476737Y50406120D01*
X61476737Y50406120D02*
X61286261Y50406120D01*
X61286261Y50406120D02*
X61191023Y50453739D01*
X61191023Y50453739D02*
X61143404Y50501358D01*
X61143404Y50501358D02*
X61095785Y50596596D01*
X61095785Y50596596D02*
X61095785Y50787072D01*
X61095785Y50787072D02*
X61143404Y50882310D01*
X61143404Y50882310D02*
X61191023Y50929929D01*
X61191023Y50929929D02*
X61286261Y50977548D01*
%TO.C,R19*%
X63299357Y45406120D02*
X63632690Y45882310D01*
X63870785Y45406120D02*
X63870785Y46406120D01*
X63870785Y46406120D02*
X63489833Y46406120D01*
X63489833Y46406120D02*
X63394595Y46358500D01*
X63394595Y46358500D02*
X63346976Y46310881D01*
X63346976Y46310881D02*
X63299357Y46215643D01*
X63299357Y46215643D02*
X63299357Y46072786D01*
X63299357Y46072786D02*
X63346976Y45977548D01*
X63346976Y45977548D02*
X63394595Y45929929D01*
X63394595Y45929929D02*
X63489833Y45882310D01*
X63489833Y45882310D02*
X63870785Y45882310D01*
X62346976Y45406120D02*
X62918404Y45406120D01*
X62632690Y45406120D02*
X62632690Y46406120D01*
X62632690Y46406120D02*
X62727928Y46263262D01*
X62727928Y46263262D02*
X62823166Y46168024D01*
X62823166Y46168024D02*
X62918404Y46120405D01*
X61870785Y45406120D02*
X61680309Y45406120D01*
X61680309Y45406120D02*
X61585071Y45453739D01*
X61585071Y45453739D02*
X61537452Y45501358D01*
X61537452Y45501358D02*
X61442214Y45644215D01*
X61442214Y45644215D02*
X61394595Y45834691D01*
X61394595Y45834691D02*
X61394595Y46215643D01*
X61394595Y46215643D02*
X61442214Y46310881D01*
X61442214Y46310881D02*
X61489833Y46358500D01*
X61489833Y46358500D02*
X61585071Y46406120D01*
X61585071Y46406120D02*
X61775547Y46406120D01*
X61775547Y46406120D02*
X61870785Y46358500D01*
X61870785Y46358500D02*
X61918404Y46310881D01*
X61918404Y46310881D02*
X61966023Y46215643D01*
X61966023Y46215643D02*
X61966023Y45977548D01*
X61966023Y45977548D02*
X61918404Y45882310D01*
X61918404Y45882310D02*
X61870785Y45834691D01*
X61870785Y45834691D02*
X61775547Y45787072D01*
X61775547Y45787072D02*
X61585071Y45787072D01*
X61585071Y45787072D02*
X61489833Y45834691D01*
X61489833Y45834691D02*
X61442214Y45882310D01*
X61442214Y45882310D02*
X61394595Y45977548D01*
%TO.C,R18*%
X58299357Y63976120D02*
X58632690Y64452310D01*
X58870785Y63976120D02*
X58870785Y64976120D01*
X58870785Y64976120D02*
X58489833Y64976120D01*
X58489833Y64976120D02*
X58394595Y64928500D01*
X58394595Y64928500D02*
X58346976Y64880881D01*
X58346976Y64880881D02*
X58299357Y64785643D01*
X58299357Y64785643D02*
X58299357Y64642786D01*
X58299357Y64642786D02*
X58346976Y64547548D01*
X58346976Y64547548D02*
X58394595Y64499929D01*
X58394595Y64499929D02*
X58489833Y64452310D01*
X58489833Y64452310D02*
X58870785Y64452310D01*
X57346976Y63976120D02*
X57918404Y63976120D01*
X57632690Y63976120D02*
X57632690Y64976120D01*
X57632690Y64976120D02*
X57727928Y64833262D01*
X57727928Y64833262D02*
X57823166Y64738024D01*
X57823166Y64738024D02*
X57918404Y64690405D01*
X56775547Y64547548D02*
X56870785Y64595167D01*
X56870785Y64595167D02*
X56918404Y64642786D01*
X56918404Y64642786D02*
X56966023Y64738024D01*
X56966023Y64738024D02*
X56966023Y64785643D01*
X56966023Y64785643D02*
X56918404Y64880881D01*
X56918404Y64880881D02*
X56870785Y64928500D01*
X56870785Y64928500D02*
X56775547Y64976120D01*
X56775547Y64976120D02*
X56585071Y64976120D01*
X56585071Y64976120D02*
X56489833Y64928500D01*
X56489833Y64928500D02*
X56442214Y64880881D01*
X56442214Y64880881D02*
X56394595Y64785643D01*
X56394595Y64785643D02*
X56394595Y64738024D01*
X56394595Y64738024D02*
X56442214Y64642786D01*
X56442214Y64642786D02*
X56489833Y64595167D01*
X56489833Y64595167D02*
X56585071Y64547548D01*
X56585071Y64547548D02*
X56775547Y64547548D01*
X56775547Y64547548D02*
X56870785Y64499929D01*
X56870785Y64499929D02*
X56918404Y64452310D01*
X56918404Y64452310D02*
X56966023Y64357072D01*
X56966023Y64357072D02*
X56966023Y64166596D01*
X56966023Y64166596D02*
X56918404Y64071358D01*
X56918404Y64071358D02*
X56870785Y64023739D01*
X56870785Y64023739D02*
X56775547Y63976120D01*
X56775547Y63976120D02*
X56585071Y63976120D01*
X56585071Y63976120D02*
X56489833Y64023739D01*
X56489833Y64023739D02*
X56442214Y64071358D01*
X56442214Y64071358D02*
X56394595Y64166596D01*
X56394595Y64166596D02*
X56394595Y64357072D01*
X56394595Y64357072D02*
X56442214Y64452310D01*
X56442214Y64452310D02*
X56489833Y64499929D01*
X56489833Y64499929D02*
X56585071Y64547548D01*
%TO.C,R20*%
X63299357Y57546120D02*
X63632690Y58022310D01*
X63870785Y57546120D02*
X63870785Y58546120D01*
X63870785Y58546120D02*
X63489833Y58546120D01*
X63489833Y58546120D02*
X63394595Y58498500D01*
X63394595Y58498500D02*
X63346976Y58450881D01*
X63346976Y58450881D02*
X63299357Y58355643D01*
X63299357Y58355643D02*
X63299357Y58212786D01*
X63299357Y58212786D02*
X63346976Y58117548D01*
X63346976Y58117548D02*
X63394595Y58069929D01*
X63394595Y58069929D02*
X63489833Y58022310D01*
X63489833Y58022310D02*
X63870785Y58022310D01*
X62918404Y58450881D02*
X62870785Y58498500D01*
X62870785Y58498500D02*
X62775547Y58546120D01*
X62775547Y58546120D02*
X62537452Y58546120D01*
X62537452Y58546120D02*
X62442214Y58498500D01*
X62442214Y58498500D02*
X62394595Y58450881D01*
X62394595Y58450881D02*
X62346976Y58355643D01*
X62346976Y58355643D02*
X62346976Y58260405D01*
X62346976Y58260405D02*
X62394595Y58117548D01*
X62394595Y58117548D02*
X62966023Y57546120D01*
X62966023Y57546120D02*
X62346976Y57546120D01*
X61727928Y58546120D02*
X61632690Y58546120D01*
X61632690Y58546120D02*
X61537452Y58498500D01*
X61537452Y58498500D02*
X61489833Y58450881D01*
X61489833Y58450881D02*
X61442214Y58355643D01*
X61442214Y58355643D02*
X61394595Y58165167D01*
X61394595Y58165167D02*
X61394595Y57927072D01*
X61394595Y57927072D02*
X61442214Y57736596D01*
X61442214Y57736596D02*
X61489833Y57641358D01*
X61489833Y57641358D02*
X61537452Y57593739D01*
X61537452Y57593739D02*
X61632690Y57546120D01*
X61632690Y57546120D02*
X61727928Y57546120D01*
X61727928Y57546120D02*
X61823166Y57593739D01*
X61823166Y57593739D02*
X61870785Y57641358D01*
X61870785Y57641358D02*
X61918404Y57736596D01*
X61918404Y57736596D02*
X61966023Y57927072D01*
X61966023Y57927072D02*
X61966023Y58165167D01*
X61966023Y58165167D02*
X61918404Y58355643D01*
X61918404Y58355643D02*
X61870785Y58450881D01*
X61870785Y58450881D02*
X61823166Y58498500D01*
X61823166Y58498500D02*
X61727928Y58546120D01*
%TO.C,C7*%
X62048166Y68001358D02*
X62095785Y67953739D01*
X62095785Y67953739D02*
X62238642Y67906120D01*
X62238642Y67906120D02*
X62333880Y67906120D01*
X62333880Y67906120D02*
X62476737Y67953739D01*
X62476737Y67953739D02*
X62571975Y68048977D01*
X62571975Y68048977D02*
X62619594Y68144215D01*
X62619594Y68144215D02*
X62667213Y68334691D01*
X62667213Y68334691D02*
X62667213Y68477548D01*
X62667213Y68477548D02*
X62619594Y68668024D01*
X62619594Y68668024D02*
X62571975Y68763262D01*
X62571975Y68763262D02*
X62476737Y68858500D01*
X62476737Y68858500D02*
X62333880Y68906120D01*
X62333880Y68906120D02*
X62238642Y68906120D01*
X62238642Y68906120D02*
X62095785Y68858500D01*
X62095785Y68858500D02*
X62048166Y68810881D01*
X61714832Y68906120D02*
X61048166Y68906120D01*
X61048166Y68906120D02*
X61476737Y67906120D01*
%TO.C,U6*%
X30943404Y23386120D02*
X30943404Y22576596D01*
X30943404Y22576596D02*
X30895785Y22481358D01*
X30895785Y22481358D02*
X30848166Y22433739D01*
X30848166Y22433739D02*
X30752928Y22386120D01*
X30752928Y22386120D02*
X30562452Y22386120D01*
X30562452Y22386120D02*
X30467214Y22433739D01*
X30467214Y22433739D02*
X30419595Y22481358D01*
X30419595Y22481358D02*
X30371976Y22576596D01*
X30371976Y22576596D02*
X30371976Y23386120D01*
X29467214Y23386120D02*
X29657690Y23386120D01*
X29657690Y23386120D02*
X29752928Y23338500D01*
X29752928Y23338500D02*
X29800547Y23290881D01*
X29800547Y23290881D02*
X29895785Y23148024D01*
X29895785Y23148024D02*
X29943404Y22957548D01*
X29943404Y22957548D02*
X29943404Y22576596D01*
X29943404Y22576596D02*
X29895785Y22481358D01*
X29895785Y22481358D02*
X29848166Y22433739D01*
X29848166Y22433739D02*
X29752928Y22386120D01*
X29752928Y22386120D02*
X29562452Y22386120D01*
X29562452Y22386120D02*
X29467214Y22433739D01*
X29467214Y22433739D02*
X29419595Y22481358D01*
X29419595Y22481358D02*
X29371976Y22576596D01*
X29371976Y22576596D02*
X29371976Y22814691D01*
X29371976Y22814691D02*
X29419595Y22909929D01*
X29419595Y22909929D02*
X29467214Y22957548D01*
X29467214Y22957548D02*
X29562452Y23005167D01*
X29562452Y23005167D02*
X29752928Y23005167D01*
X29752928Y23005167D02*
X29848166Y22957548D01*
X29848166Y22957548D02*
X29895785Y22909929D01*
X29895785Y22909929D02*
X29943404Y22814691D01*
%TO.C,J16*%
X110707523Y84509620D02*
X110707523Y83795334D01*
X110707523Y83795334D02*
X110755142Y83652477D01*
X110755142Y83652477D02*
X110850380Y83557239D01*
X110850380Y83557239D02*
X110993237Y83509620D01*
X110993237Y83509620D02*
X111088475Y83509620D01*
X109707523Y83509620D02*
X110278951Y83509620D01*
X109993237Y83509620D02*
X109993237Y84509620D01*
X109993237Y84509620D02*
X110088475Y84366762D01*
X110088475Y84366762D02*
X110183713Y84271524D01*
X110183713Y84271524D02*
X110278951Y84223905D01*
X108850380Y84509620D02*
X109040856Y84509620D01*
X109040856Y84509620D02*
X109136094Y84462000D01*
X109136094Y84462000D02*
X109183713Y84414381D01*
X109183713Y84414381D02*
X109278951Y84271524D01*
X109278951Y84271524D02*
X109326570Y84081048D01*
X109326570Y84081048D02*
X109326570Y83700096D01*
X109326570Y83700096D02*
X109278951Y83604858D01*
X109278951Y83604858D02*
X109231332Y83557239D01*
X109231332Y83557239D02*
X109136094Y83509620D01*
X109136094Y83509620D02*
X108945618Y83509620D01*
X108945618Y83509620D02*
X108850380Y83557239D01*
X108850380Y83557239D02*
X108802761Y83604858D01*
X108802761Y83604858D02*
X108755142Y83700096D01*
X108755142Y83700096D02*
X108755142Y83938191D01*
X108755142Y83938191D02*
X108802761Y84033429D01*
X108802761Y84033429D02*
X108850380Y84081048D01*
X108850380Y84081048D02*
X108945618Y84128667D01*
X108945618Y84128667D02*
X109136094Y84128667D01*
X109136094Y84128667D02*
X109231332Y84081048D01*
X109231332Y84081048D02*
X109278951Y84033429D01*
X109278951Y84033429D02*
X109326570Y83938191D01*
%TO.C,J18*%
X10966023Y35246120D02*
X10966023Y34531834D01*
X10966023Y34531834D02*
X11013642Y34388977D01*
X11013642Y34388977D02*
X11108880Y34293739D01*
X11108880Y34293739D02*
X11251737Y34246120D01*
X11251737Y34246120D02*
X11346975Y34246120D01*
X9966023Y34246120D02*
X10537451Y34246120D01*
X10251737Y34246120D02*
X10251737Y35246120D01*
X10251737Y35246120D02*
X10346975Y35103262D01*
X10346975Y35103262D02*
X10442213Y35008024D01*
X10442213Y35008024D02*
X10537451Y34960405D01*
X9394594Y34817548D02*
X9489832Y34865167D01*
X9489832Y34865167D02*
X9537451Y34912786D01*
X9537451Y34912786D02*
X9585070Y35008024D01*
X9585070Y35008024D02*
X9585070Y35055643D01*
X9585070Y35055643D02*
X9537451Y35150881D01*
X9537451Y35150881D02*
X9489832Y35198500D01*
X9489832Y35198500D02*
X9394594Y35246120D01*
X9394594Y35246120D02*
X9204118Y35246120D01*
X9204118Y35246120D02*
X9108880Y35198500D01*
X9108880Y35198500D02*
X9061261Y35150881D01*
X9061261Y35150881D02*
X9013642Y35055643D01*
X9013642Y35055643D02*
X9013642Y35008024D01*
X9013642Y35008024D02*
X9061261Y34912786D01*
X9061261Y34912786D02*
X9108880Y34865167D01*
X9108880Y34865167D02*
X9204118Y34817548D01*
X9204118Y34817548D02*
X9394594Y34817548D01*
X9394594Y34817548D02*
X9489832Y34769929D01*
X9489832Y34769929D02*
X9537451Y34722310D01*
X9537451Y34722310D02*
X9585070Y34627072D01*
X9585070Y34627072D02*
X9585070Y34436596D01*
X9585070Y34436596D02*
X9537451Y34341358D01*
X9537451Y34341358D02*
X9489832Y34293739D01*
X9489832Y34293739D02*
X9394594Y34246120D01*
X9394594Y34246120D02*
X9204118Y34246120D01*
X9204118Y34246120D02*
X9108880Y34293739D01*
X9108880Y34293739D02*
X9061261Y34341358D01*
X9061261Y34341358D02*
X9013642Y34436596D01*
X9013642Y34436596D02*
X9013642Y34627072D01*
X9013642Y34627072D02*
X9061261Y34722310D01*
X9061261Y34722310D02*
X9108880Y34769929D01*
X9108880Y34769929D02*
X9204118Y34817548D01*
%TO.C,U1*%
X49243880Y35105405D02*
X50053404Y35105405D01*
X50053404Y35105405D02*
X50148642Y35057786D01*
X50148642Y35057786D02*
X50196261Y35010167D01*
X50196261Y35010167D02*
X50243880Y34914929D01*
X50243880Y34914929D02*
X50243880Y34724453D01*
X50243880Y34724453D02*
X50196261Y34629215D01*
X50196261Y34629215D02*
X50148642Y34581596D01*
X50148642Y34581596D02*
X50053404Y34533977D01*
X50053404Y34533977D02*
X49243880Y34533977D01*
X50243880Y33533977D02*
X50243880Y34105405D01*
X50243880Y33819691D02*
X49243880Y33819691D01*
X49243880Y33819691D02*
X49386738Y33914929D01*
X49386738Y33914929D02*
X49481976Y34010167D01*
X49481976Y34010167D02*
X49529595Y34105405D01*
%TO.C,A3*%
X65864119Y70585406D02*
X66864119Y70585406D01*
X66864119Y70585406D02*
X66864119Y70823501D01*
X66864119Y70823501D02*
X66816500Y70966358D01*
X66816500Y70966358D02*
X66721261Y71061596D01*
X66721261Y71061596D02*
X66626023Y71109215D01*
X66626023Y71109215D02*
X66435547Y71156834D01*
X66435547Y71156834D02*
X66292690Y71156834D01*
X66292690Y71156834D02*
X66102214Y71109215D01*
X66102214Y71109215D02*
X66006976Y71061596D01*
X66006976Y71061596D02*
X65911738Y70966358D01*
X65911738Y70966358D02*
X65864119Y70823501D01*
X65864119Y70823501D02*
X65864119Y70585406D01*
X66864119Y71775882D02*
X66864119Y71871120D01*
X66864119Y71871120D02*
X66816500Y71966358D01*
X66816500Y71966358D02*
X66768880Y72013977D01*
X66768880Y72013977D02*
X66673642Y72061596D01*
X66673642Y72061596D02*
X66483166Y72109215D01*
X66483166Y72109215D02*
X66245071Y72109215D01*
X66245071Y72109215D02*
X66054595Y72061596D01*
X66054595Y72061596D02*
X65959357Y72013977D01*
X65959357Y72013977D02*
X65911738Y71966358D01*
X65911738Y71966358D02*
X65864119Y71871120D01*
X65864119Y71871120D02*
X65864119Y71775882D01*
X65864119Y71775882D02*
X65911738Y71680644D01*
X65911738Y71680644D02*
X65959357Y71633025D01*
X65959357Y71633025D02*
X66054595Y71585406D01*
X66054595Y71585406D02*
X66245071Y71537787D01*
X66245071Y71537787D02*
X66483166Y71537787D01*
X66483166Y71537787D02*
X66673642Y71585406D01*
X66673642Y71585406D02*
X66768880Y71633025D01*
X66768880Y71633025D02*
X66816500Y71680644D01*
X66816500Y71680644D02*
X66864119Y71775882D01*
X49612642Y70307500D02*
X49660261Y70259881D01*
X49660261Y70259881D02*
X49707880Y70307500D01*
X49707880Y70307500D02*
X49660261Y70355119D01*
X49660261Y70355119D02*
X49612642Y70307500D01*
X49612642Y70307500D02*
X49707880Y70307500D01*
D11*
%TO.C,C9*%
X62797080Y53833500D02*
X62515920Y53833500D01*
X62797080Y54853500D02*
X62515920Y54853500D01*
%TO.C,C8*%
X62022080Y48833500D02*
X61740920Y48833500D01*
X62022080Y49853500D02*
X61740920Y49853500D01*
%TO.C,R19*%
X62893758Y43821000D02*
X62419242Y43821000D01*
X62893758Y44866000D02*
X62419242Y44866000D01*
%TO.C,R18*%
X61594242Y64866000D02*
X62068758Y64866000D01*
X61594242Y63821000D02*
X62068758Y63821000D01*
%TO.C,R20*%
X62419242Y59866000D02*
X62893758Y59866000D01*
X62419242Y58821000D02*
X62893758Y58821000D01*
%TO.C,C7*%
X62022080Y66333500D02*
X61740920Y66333500D01*
X62022080Y67353500D02*
X61740920Y67353500D01*
%TO.C,U6*%
X30181500Y32468500D02*
X28231500Y32468500D01*
X30181500Y32468500D02*
X32131500Y32468500D01*
X30181500Y23598500D02*
X26731500Y23598500D01*
X30181500Y23598500D02*
X32131500Y23598500D01*
%TO.C,J16*%
X108568000Y90517000D02*
X111228000Y90517000D01*
X108568000Y87917000D02*
X108568000Y90517000D01*
X108568000Y87917000D02*
X111228000Y87917000D01*
X109898000Y85317000D02*
X111228000Y85317000D01*
X111228000Y87917000D02*
X111228000Y90517000D01*
X111228000Y85317000D02*
X111228000Y86647000D01*
%TO.C,J18*%
X11486500Y22893500D02*
X8826500Y22893500D01*
X11486500Y30573500D02*
X11486500Y22893500D01*
X11486500Y30573500D02*
X8826500Y30573500D01*
X10156500Y33173500D02*
X8826500Y33173500D01*
X8826500Y30573500D02*
X8826500Y22893500D01*
X8826500Y33173500D02*
X8826500Y31843500D01*
%TO.C,U1*%
X59591500Y34343500D02*
X59591500Y36293500D01*
X59591500Y34343500D02*
X59591500Y32393500D01*
X50721500Y34343500D02*
X50721500Y37793500D01*
X50721500Y34343500D02*
X50721500Y32393500D01*
%TD*%
M02*
