%TF.GenerationSoftware,KiCad,Pcbnew,(7.0.0)*%
%TF.CreationDate,2024-02-08T18:30:53+01:00*%
%TF.ProjectId,AbuDhabi_ElectronBeam,41627544-6861-4626-995f-456c65637472,rev?*%
%TF.SameCoordinates,PXa6e49c0PYcef2840*%
%TF.FileFunction,Legend,Top*%
%TF.FilePolarity,Positive*%
%FSLAX46Y46*%
G04 Gerber Fmt 4.6, Leading zero omitted, Abs format (unit mm)*
G04 Created by KiCad (PCBNEW (7.0.0)) date 2024-02-08 18:30:53*
%MOMM*%
%LPD*%
G01*
G04 APERTURE LIST*
%ADD10C,0.150000*%
%ADD11C,0.100000*%
%ADD12C,0.120000*%
%ADD13C,0.127000*%
%ADD14C,0.200000*%
G04 APERTURE END LIST*
D10*
X14496666Y56877477D02*
X14496666Y57353667D01*
X14782380Y56782239D02*
X13782380Y57115572D01*
X13782380Y57115572D02*
X14782380Y57448905D01*
X14782380Y57782239D02*
X14115714Y57782239D01*
X14306190Y57782239D02*
X14210952Y57829858D01*
X14210952Y57829858D02*
X14163333Y57877477D01*
X14163333Y57877477D02*
X14115714Y57972715D01*
X14115714Y57972715D02*
X14115714Y58067953D01*
X14782380Y58829858D02*
X13782380Y58829858D01*
X14734761Y58829858D02*
X14782380Y58734620D01*
X14782380Y58734620D02*
X14782380Y58544144D01*
X14782380Y58544144D02*
X14734761Y58448906D01*
X14734761Y58448906D02*
X14687142Y58401287D01*
X14687142Y58401287D02*
X14591904Y58353668D01*
X14591904Y58353668D02*
X14306190Y58353668D01*
X14306190Y58353668D02*
X14210952Y58401287D01*
X14210952Y58401287D02*
X14163333Y58448906D01*
X14163333Y58448906D02*
X14115714Y58544144D01*
X14115714Y58544144D02*
X14115714Y58734620D01*
X14115714Y58734620D02*
X14163333Y58829858D01*
X14115714Y59734620D02*
X14782380Y59734620D01*
X14115714Y59306049D02*
X14639523Y59306049D01*
X14639523Y59306049D02*
X14734761Y59353668D01*
X14734761Y59353668D02*
X14782380Y59448906D01*
X14782380Y59448906D02*
X14782380Y59591763D01*
X14782380Y59591763D02*
X14734761Y59687001D01*
X14734761Y59687001D02*
X14687142Y59734620D01*
X14782380Y60210811D02*
X14115714Y60210811D01*
X13782380Y60210811D02*
X13830000Y60163192D01*
X13830000Y60163192D02*
X13877619Y60210811D01*
X13877619Y60210811D02*
X13830000Y60258430D01*
X13830000Y60258430D02*
X13782380Y60210811D01*
X13782380Y60210811D02*
X13877619Y60210811D01*
X14115714Y60687001D02*
X14782380Y60687001D01*
X14210952Y60687001D02*
X14163333Y60734620D01*
X14163333Y60734620D02*
X14115714Y60829858D01*
X14115714Y60829858D02*
X14115714Y60972715D01*
X14115714Y60972715D02*
X14163333Y61067953D01*
X14163333Y61067953D02*
X14258571Y61115572D01*
X14258571Y61115572D02*
X14782380Y61115572D01*
X14782380Y61734620D02*
X14734761Y61639382D01*
X14734761Y61639382D02*
X14687142Y61591763D01*
X14687142Y61591763D02*
X14591904Y61544144D01*
X14591904Y61544144D02*
X14306190Y61544144D01*
X14306190Y61544144D02*
X14210952Y61591763D01*
X14210952Y61591763D02*
X14163333Y61639382D01*
X14163333Y61639382D02*
X14115714Y61734620D01*
X14115714Y61734620D02*
X14115714Y61877477D01*
X14115714Y61877477D02*
X14163333Y61972715D01*
X14163333Y61972715D02*
X14210952Y62020334D01*
X14210952Y62020334D02*
X14306190Y62067953D01*
X14306190Y62067953D02*
X14591904Y62067953D01*
X14591904Y62067953D02*
X14687142Y62020334D01*
X14687142Y62020334D02*
X14734761Y61972715D01*
X14734761Y61972715D02*
X14782380Y61877477D01*
X14782380Y61877477D02*
X14782380Y61734620D01*
X5142857Y33077620D02*
X5761904Y33077620D01*
X5761904Y33077620D02*
X5428571Y32696667D01*
X5428571Y32696667D02*
X5571428Y32696667D01*
X5571428Y32696667D02*
X5666666Y32649048D01*
X5666666Y32649048D02*
X5714285Y32601429D01*
X5714285Y32601429D02*
X5761904Y32506191D01*
X5761904Y32506191D02*
X5761904Y32268096D01*
X5761904Y32268096D02*
X5714285Y32172858D01*
X5714285Y32172858D02*
X5666666Y32125239D01*
X5666666Y32125239D02*
X5571428Y32077620D01*
X5571428Y32077620D02*
X5285714Y32077620D01*
X5285714Y32077620D02*
X5190476Y32125239D01*
X5190476Y32125239D02*
X5142857Y32172858D01*
X5190476Y31362381D02*
X5238095Y31410000D01*
X5238095Y31410000D02*
X5333333Y31457620D01*
X5333333Y31457620D02*
X5571428Y31457620D01*
X5571428Y31457620D02*
X5666666Y31410000D01*
X5666666Y31410000D02*
X5714285Y31362381D01*
X5714285Y31362381D02*
X5761904Y31267143D01*
X5761904Y31267143D02*
X5761904Y31171905D01*
X5761904Y31171905D02*
X5714285Y31029048D01*
X5714285Y31029048D02*
X5142857Y30457620D01*
X5142857Y30457620D02*
X5761904Y30457620D01*
X5761904Y28837620D02*
X5190476Y28837620D01*
X5476190Y28837620D02*
X5476190Y29837620D01*
X5476190Y29837620D02*
X5380952Y29694762D01*
X5380952Y29694762D02*
X5285714Y29599524D01*
X5285714Y29599524D02*
X5190476Y29551905D01*
X5428571Y28217620D02*
X5523809Y28217620D01*
X5523809Y28217620D02*
X5619047Y28170000D01*
X5619047Y28170000D02*
X5666666Y28122381D01*
X5666666Y28122381D02*
X5714285Y28027143D01*
X5714285Y28027143D02*
X5761904Y27836667D01*
X5761904Y27836667D02*
X5761904Y27598572D01*
X5761904Y27598572D02*
X5714285Y27408096D01*
X5714285Y27408096D02*
X5666666Y27312858D01*
X5666666Y27312858D02*
X5619047Y27265239D01*
X5619047Y27265239D02*
X5523809Y27217620D01*
X5523809Y27217620D02*
X5428571Y27217620D01*
X5428571Y27217620D02*
X5333333Y27265239D01*
X5333333Y27265239D02*
X5285714Y27312858D01*
X5285714Y27312858D02*
X5238095Y27408096D01*
X5238095Y27408096D02*
X5190476Y27598572D01*
X5190476Y27598572D02*
X5190476Y27836667D01*
X5190476Y27836667D02*
X5238095Y28027143D01*
X5238095Y28027143D02*
X5285714Y28122381D01*
X5285714Y28122381D02*
X5333333Y28170000D01*
X5333333Y28170000D02*
X5428571Y28217620D01*
X72595238Y98217620D02*
X73166666Y98217620D01*
X72880952Y97217620D02*
X72880952Y98217620D01*
X73404762Y97217620D02*
X73928571Y97884286D01*
X73404762Y97884286D02*
X73928571Y97217620D01*
X74261905Y98122381D02*
X74309524Y98170000D01*
X74309524Y98170000D02*
X74404762Y98217620D01*
X74404762Y98217620D02*
X74642857Y98217620D01*
X74642857Y98217620D02*
X74738095Y98170000D01*
X74738095Y98170000D02*
X74785714Y98122381D01*
X74785714Y98122381D02*
X74833333Y98027143D01*
X74833333Y98027143D02*
X74833333Y97931905D01*
X74833333Y97931905D02*
X74785714Y97789048D01*
X74785714Y97789048D02*
X74214286Y97217620D01*
X74214286Y97217620D02*
X74833333Y97217620D01*
D11*
X73147619Y62174096D02*
X72880952Y62555048D01*
X72690476Y62174096D02*
X72690476Y62974096D01*
X72690476Y62974096D02*
X72995238Y62974096D01*
X72995238Y62974096D02*
X73071428Y62936000D01*
X73071428Y62936000D02*
X73109523Y62897905D01*
X73109523Y62897905D02*
X73147619Y62821715D01*
X73147619Y62821715D02*
X73147619Y62707429D01*
X73147619Y62707429D02*
X73109523Y62631239D01*
X73109523Y62631239D02*
X73071428Y62593143D01*
X73071428Y62593143D02*
X72995238Y62555048D01*
X72995238Y62555048D02*
X72690476Y62555048D01*
X73414285Y62174096D02*
X73833333Y62707429D01*
X73414285Y62707429D02*
X73833333Y62174096D01*
X74061904Y62974096D02*
X74557142Y62974096D01*
X74557142Y62974096D02*
X74290476Y62669334D01*
X74290476Y62669334D02*
X74404761Y62669334D01*
X74404761Y62669334D02*
X74480952Y62631239D01*
X74480952Y62631239D02*
X74519047Y62593143D01*
X74519047Y62593143D02*
X74557142Y62516953D01*
X74557142Y62516953D02*
X74557142Y62326477D01*
X74557142Y62326477D02*
X74519047Y62250286D01*
X74519047Y62250286D02*
X74480952Y62212191D01*
X74480952Y62212191D02*
X74404761Y62174096D01*
X74404761Y62174096D02*
X74176190Y62174096D01*
X74176190Y62174096D02*
X74099999Y62212191D01*
X74099999Y62212191D02*
X74061904Y62250286D01*
D10*
X3033166Y39533977D02*
X3033166Y40010167D01*
X3318880Y39438739D02*
X2318880Y39772072D01*
X2318880Y39772072D02*
X3318880Y40105405D01*
X3318880Y40438739D02*
X2652214Y40438739D01*
X2842690Y40438739D02*
X2747452Y40486358D01*
X2747452Y40486358D02*
X2699833Y40533977D01*
X2699833Y40533977D02*
X2652214Y40629215D01*
X2652214Y40629215D02*
X2652214Y40724453D01*
X3318880Y41486358D02*
X2318880Y41486358D01*
X3271261Y41486358D02*
X3318880Y41391120D01*
X3318880Y41391120D02*
X3318880Y41200644D01*
X3318880Y41200644D02*
X3271261Y41105406D01*
X3271261Y41105406D02*
X3223642Y41057787D01*
X3223642Y41057787D02*
X3128404Y41010168D01*
X3128404Y41010168D02*
X2842690Y41010168D01*
X2842690Y41010168D02*
X2747452Y41057787D01*
X2747452Y41057787D02*
X2699833Y41105406D01*
X2699833Y41105406D02*
X2652214Y41200644D01*
X2652214Y41200644D02*
X2652214Y41391120D01*
X2652214Y41391120D02*
X2699833Y41486358D01*
X3223642Y41962549D02*
X3271261Y42010168D01*
X3271261Y42010168D02*
X3318880Y41962549D01*
X3318880Y41962549D02*
X3271261Y41914930D01*
X3271261Y41914930D02*
X3223642Y41962549D01*
X3223642Y41962549D02*
X3318880Y41962549D01*
X2652214Y43038739D02*
X3652214Y43038739D01*
X2699833Y43038739D02*
X2652214Y43133977D01*
X2652214Y43133977D02*
X2652214Y43324453D01*
X2652214Y43324453D02*
X2699833Y43419691D01*
X2699833Y43419691D02*
X2747452Y43467310D01*
X2747452Y43467310D02*
X2842690Y43514929D01*
X2842690Y43514929D02*
X3128404Y43514929D01*
X3128404Y43514929D02*
X3223642Y43467310D01*
X3223642Y43467310D02*
X3271261Y43419691D01*
X3271261Y43419691D02*
X3318880Y43324453D01*
X3318880Y43324453D02*
X3318880Y43133977D01*
X3318880Y43133977D02*
X3271261Y43038739D01*
X3318880Y44086358D02*
X3271261Y43991120D01*
X3271261Y43991120D02*
X3223642Y43943501D01*
X3223642Y43943501D02*
X3128404Y43895882D01*
X3128404Y43895882D02*
X2842690Y43895882D01*
X2842690Y43895882D02*
X2747452Y43943501D01*
X2747452Y43943501D02*
X2699833Y43991120D01*
X2699833Y43991120D02*
X2652214Y44086358D01*
X2652214Y44086358D02*
X2652214Y44229215D01*
X2652214Y44229215D02*
X2699833Y44324453D01*
X2699833Y44324453D02*
X2747452Y44372072D01*
X2747452Y44372072D02*
X2842690Y44419691D01*
X2842690Y44419691D02*
X3128404Y44419691D01*
X3128404Y44419691D02*
X3223642Y44372072D01*
X3223642Y44372072D02*
X3271261Y44324453D01*
X3271261Y44324453D02*
X3318880Y44229215D01*
X3318880Y44229215D02*
X3318880Y44086358D01*
X2652214Y44753025D02*
X3318880Y44943501D01*
X3318880Y44943501D02*
X2842690Y45133977D01*
X2842690Y45133977D02*
X3318880Y45324453D01*
X3318880Y45324453D02*
X2652214Y45514929D01*
X3271261Y46276834D02*
X3318880Y46181596D01*
X3318880Y46181596D02*
X3318880Y45991120D01*
X3318880Y45991120D02*
X3271261Y45895882D01*
X3271261Y45895882D02*
X3176023Y45848263D01*
X3176023Y45848263D02*
X2795071Y45848263D01*
X2795071Y45848263D02*
X2699833Y45895882D01*
X2699833Y45895882D02*
X2652214Y45991120D01*
X2652214Y45991120D02*
X2652214Y46181596D01*
X2652214Y46181596D02*
X2699833Y46276834D01*
X2699833Y46276834D02*
X2795071Y46324453D01*
X2795071Y46324453D02*
X2890309Y46324453D01*
X2890309Y46324453D02*
X2985547Y45848263D01*
X3318880Y46753025D02*
X2652214Y46753025D01*
X2842690Y46753025D02*
X2747452Y46800644D01*
X2747452Y46800644D02*
X2699833Y46848263D01*
X2699833Y46848263D02*
X2652214Y46943501D01*
X2652214Y46943501D02*
X2652214Y47038739D01*
X3318880Y48114930D02*
X3271261Y48019692D01*
X3271261Y48019692D02*
X3223642Y47972073D01*
X3223642Y47972073D02*
X3128404Y47924454D01*
X3128404Y47924454D02*
X2842690Y47924454D01*
X2842690Y47924454D02*
X2747452Y47972073D01*
X2747452Y47972073D02*
X2699833Y48019692D01*
X2699833Y48019692D02*
X2652214Y48114930D01*
X2652214Y48114930D02*
X2652214Y48257787D01*
X2652214Y48257787D02*
X2699833Y48353025D01*
X2699833Y48353025D02*
X2747452Y48400644D01*
X2747452Y48400644D02*
X2842690Y48448263D01*
X2842690Y48448263D02*
X3128404Y48448263D01*
X3128404Y48448263D02*
X3223642Y48400644D01*
X3223642Y48400644D02*
X3271261Y48353025D01*
X3271261Y48353025D02*
X3318880Y48257787D01*
X3318880Y48257787D02*
X3318880Y48114930D01*
X2652214Y49305406D02*
X3318880Y49305406D01*
X2652214Y48876835D02*
X3176023Y48876835D01*
X3176023Y48876835D02*
X3271261Y48924454D01*
X3271261Y48924454D02*
X3318880Y49019692D01*
X3318880Y49019692D02*
X3318880Y49162549D01*
X3318880Y49162549D02*
X3271261Y49257787D01*
X3271261Y49257787D02*
X3223642Y49305406D01*
X2652214Y49638740D02*
X2652214Y50019692D01*
X2318880Y49781597D02*
X3176023Y49781597D01*
X3176023Y49781597D02*
X3271261Y49829216D01*
X3271261Y49829216D02*
X3318880Y49924454D01*
X3318880Y49924454D02*
X3318880Y50019692D01*
X2652214Y50353026D02*
X3652214Y50353026D01*
X2699833Y50353026D02*
X2652214Y50448264D01*
X2652214Y50448264D02*
X2652214Y50638740D01*
X2652214Y50638740D02*
X2699833Y50733978D01*
X2699833Y50733978D02*
X2747452Y50781597D01*
X2747452Y50781597D02*
X2842690Y50829216D01*
X2842690Y50829216D02*
X3128404Y50829216D01*
X3128404Y50829216D02*
X3223642Y50781597D01*
X3223642Y50781597D02*
X3271261Y50733978D01*
X3271261Y50733978D02*
X3318880Y50638740D01*
X3318880Y50638740D02*
X3318880Y50448264D01*
X3318880Y50448264D02*
X3271261Y50353026D01*
X2652214Y51686359D02*
X3318880Y51686359D01*
X2652214Y51257788D02*
X3176023Y51257788D01*
X3176023Y51257788D02*
X3271261Y51305407D01*
X3271261Y51305407D02*
X3318880Y51400645D01*
X3318880Y51400645D02*
X3318880Y51543502D01*
X3318880Y51543502D02*
X3271261Y51638740D01*
X3271261Y51638740D02*
X3223642Y51686359D01*
X2652214Y52019693D02*
X2652214Y52400645D01*
X2318880Y52162550D02*
X3176023Y52162550D01*
X3176023Y52162550D02*
X3271261Y52210169D01*
X3271261Y52210169D02*
X3318880Y52305407D01*
X3318880Y52305407D02*
X3318880Y52400645D01*
X3986500Y40105405D02*
X3938880Y40010167D01*
X3938880Y40010167D02*
X3938880Y39867310D01*
X3938880Y39867310D02*
X3986500Y39724453D01*
X3986500Y39724453D02*
X4081738Y39629215D01*
X4081738Y39629215D02*
X4176976Y39581596D01*
X4176976Y39581596D02*
X4367452Y39533977D01*
X4367452Y39533977D02*
X4510309Y39533977D01*
X4510309Y39533977D02*
X4700785Y39581596D01*
X4700785Y39581596D02*
X4796023Y39629215D01*
X4796023Y39629215D02*
X4891261Y39724453D01*
X4891261Y39724453D02*
X4938880Y39867310D01*
X4938880Y39867310D02*
X4938880Y39962548D01*
X4938880Y39962548D02*
X4891261Y40105405D01*
X4891261Y40105405D02*
X4843642Y40153024D01*
X4843642Y40153024D02*
X4510309Y40153024D01*
X4510309Y40153024D02*
X4510309Y39962548D01*
X4938880Y40581596D02*
X3938880Y40581596D01*
X3938880Y40581596D02*
X4938880Y41153024D01*
X4938880Y41153024D02*
X3938880Y41153024D01*
X4938880Y41629215D02*
X3938880Y41629215D01*
X3938880Y41629215D02*
X3938880Y41867310D01*
X3938880Y41867310D02*
X3986500Y42010167D01*
X3986500Y42010167D02*
X4081738Y42105405D01*
X4081738Y42105405D02*
X4176976Y42153024D01*
X4176976Y42153024D02*
X4367452Y42200643D01*
X4367452Y42200643D02*
X4510309Y42200643D01*
X4510309Y42200643D02*
X4700785Y42153024D01*
X4700785Y42153024D02*
X4796023Y42105405D01*
X4796023Y42105405D02*
X4891261Y42010167D01*
X4891261Y42010167D02*
X4938880Y41867310D01*
X4938880Y41867310D02*
X4938880Y41629215D01*
X4557928Y42629215D02*
X4557928Y43391119D01*
X3938880Y43772072D02*
X3938880Y44391119D01*
X3938880Y44391119D02*
X4319833Y44057786D01*
X4319833Y44057786D02*
X4319833Y44200643D01*
X4319833Y44200643D02*
X4367452Y44295881D01*
X4367452Y44295881D02*
X4415071Y44343500D01*
X4415071Y44343500D02*
X4510309Y44391119D01*
X4510309Y44391119D02*
X4748404Y44391119D01*
X4748404Y44391119D02*
X4843642Y44343500D01*
X4843642Y44343500D02*
X4891261Y44295881D01*
X4891261Y44295881D02*
X4938880Y44200643D01*
X4938880Y44200643D02*
X4938880Y43914929D01*
X4938880Y43914929D02*
X4891261Y43819691D01*
X4891261Y43819691D02*
X4843642Y43772072D01*
X4843642Y44819691D02*
X4891261Y44867310D01*
X4891261Y44867310D02*
X4938880Y44819691D01*
X4938880Y44819691D02*
X4891261Y44772072D01*
X4891261Y44772072D02*
X4843642Y44819691D01*
X4843642Y44819691D02*
X4938880Y44819691D01*
X3938880Y45200643D02*
X3938880Y45819690D01*
X3938880Y45819690D02*
X4319833Y45486357D01*
X4319833Y45486357D02*
X4319833Y45629214D01*
X4319833Y45629214D02*
X4367452Y45724452D01*
X4367452Y45724452D02*
X4415071Y45772071D01*
X4415071Y45772071D02*
X4510309Y45819690D01*
X4510309Y45819690D02*
X4748404Y45819690D01*
X4748404Y45819690D02*
X4843642Y45772071D01*
X4843642Y45772071D02*
X4891261Y45724452D01*
X4891261Y45724452D02*
X4938880Y45629214D01*
X4938880Y45629214D02*
X4938880Y45343500D01*
X4938880Y45343500D02*
X4891261Y45248262D01*
X4891261Y45248262D02*
X4843642Y45200643D01*
X3938880Y46105405D02*
X4938880Y46438738D01*
X4938880Y46438738D02*
X3938880Y46772071D01*
X4557928Y47105405D02*
X4557928Y47867309D01*
X3938880Y48819690D02*
X3938880Y48343500D01*
X3938880Y48343500D02*
X4415071Y48295881D01*
X4415071Y48295881D02*
X4367452Y48343500D01*
X4367452Y48343500D02*
X4319833Y48438738D01*
X4319833Y48438738D02*
X4319833Y48676833D01*
X4319833Y48676833D02*
X4367452Y48772071D01*
X4367452Y48772071D02*
X4415071Y48819690D01*
X4415071Y48819690D02*
X4510309Y48867309D01*
X4510309Y48867309D02*
X4748404Y48867309D01*
X4748404Y48867309D02*
X4843642Y48819690D01*
X4843642Y48819690D02*
X4891261Y48772071D01*
X4891261Y48772071D02*
X4938880Y48676833D01*
X4938880Y48676833D02*
X4938880Y48438738D01*
X4938880Y48438738D02*
X4891261Y48343500D01*
X4891261Y48343500D02*
X4843642Y48295881D01*
X3938880Y49153024D02*
X4938880Y49486357D01*
X4938880Y49486357D02*
X3938880Y49819690D01*
D11*
X75076190Y57974096D02*
X75533333Y57974096D01*
X75304761Y57174096D02*
X75304761Y57974096D01*
X75723809Y57174096D02*
X76142857Y57707429D01*
X75723809Y57707429D02*
X76142857Y57174096D01*
X76371428Y57974096D02*
X76866666Y57974096D01*
X76866666Y57974096D02*
X76600000Y57669334D01*
X76600000Y57669334D02*
X76714285Y57669334D01*
X76714285Y57669334D02*
X76790476Y57631239D01*
X76790476Y57631239D02*
X76828571Y57593143D01*
X76828571Y57593143D02*
X76866666Y57516953D01*
X76866666Y57516953D02*
X76866666Y57326477D01*
X76866666Y57326477D02*
X76828571Y57250286D01*
X76828571Y57250286D02*
X76790476Y57212191D01*
X76790476Y57212191D02*
X76714285Y57174096D01*
X76714285Y57174096D02*
X76485714Y57174096D01*
X76485714Y57174096D02*
X76409523Y57212191D01*
X76409523Y57212191D02*
X76371428Y57250286D01*
D10*
X15190476Y124742381D02*
X15238095Y124790000D01*
X15238095Y124790000D02*
X15333333Y124837620D01*
X15333333Y124837620D02*
X15571428Y124837620D01*
X15571428Y124837620D02*
X15666666Y124790000D01*
X15666666Y124790000D02*
X15714285Y124742381D01*
X15714285Y124742381D02*
X15761904Y124647143D01*
X15761904Y124647143D02*
X15761904Y124551905D01*
X15761904Y124551905D02*
X15714285Y124409048D01*
X15714285Y124409048D02*
X15142857Y123837620D01*
X15142857Y123837620D02*
X15761904Y123837620D01*
X16619047Y124504286D02*
X16619047Y123837620D01*
X16380952Y124885239D02*
X16142857Y124170953D01*
X16142857Y124170953D02*
X16761904Y124170953D01*
X17000000Y124837620D02*
X17333333Y123837620D01*
X17333333Y123837620D02*
X17666666Y124837620D01*
X18600000Y123837620D02*
X18600000Y124504286D01*
X18600000Y124837620D02*
X18552381Y124790000D01*
X18552381Y124790000D02*
X18600000Y124742381D01*
X18600000Y124742381D02*
X18647619Y124790000D01*
X18647619Y124790000D02*
X18600000Y124837620D01*
X18600000Y124837620D02*
X18600000Y124742381D01*
X19076190Y124504286D02*
X19076190Y123837620D01*
X19076190Y124409048D02*
X19123809Y124456667D01*
X19123809Y124456667D02*
X19219047Y124504286D01*
X19219047Y124504286D02*
X19361904Y124504286D01*
X19361904Y124504286D02*
X19457142Y124456667D01*
X19457142Y124456667D02*
X19504761Y124361429D01*
X19504761Y124361429D02*
X19504761Y123837620D01*
X19980952Y124504286D02*
X19980952Y123504286D01*
X19980952Y124456667D02*
X20076190Y124504286D01*
X20076190Y124504286D02*
X20266666Y124504286D01*
X20266666Y124504286D02*
X20361904Y124456667D01*
X20361904Y124456667D02*
X20409523Y124409048D01*
X20409523Y124409048D02*
X20457142Y124313810D01*
X20457142Y124313810D02*
X20457142Y124028096D01*
X20457142Y124028096D02*
X20409523Y123932858D01*
X20409523Y123932858D02*
X20361904Y123885239D01*
X20361904Y123885239D02*
X20266666Y123837620D01*
X20266666Y123837620D02*
X20076190Y123837620D01*
X20076190Y123837620D02*
X19980952Y123885239D01*
X21314285Y124504286D02*
X21314285Y123837620D01*
X20885714Y124504286D02*
X20885714Y123980477D01*
X20885714Y123980477D02*
X20933333Y123885239D01*
X20933333Y123885239D02*
X21028571Y123837620D01*
X21028571Y123837620D02*
X21171428Y123837620D01*
X21171428Y123837620D02*
X21266666Y123885239D01*
X21266666Y123885239D02*
X21314285Y123932858D01*
X21647619Y124504286D02*
X22028571Y124504286D01*
X21790476Y124837620D02*
X21790476Y123980477D01*
X21790476Y123980477D02*
X21838095Y123885239D01*
X21838095Y123885239D02*
X21933333Y123837620D01*
X21933333Y123837620D02*
X22028571Y123837620D01*
X15190476Y123122381D02*
X15238095Y123170000D01*
X15238095Y123170000D02*
X15333333Y123217620D01*
X15333333Y123217620D02*
X15571428Y123217620D01*
X15571428Y123217620D02*
X15666666Y123170000D01*
X15666666Y123170000D02*
X15714285Y123122381D01*
X15714285Y123122381D02*
X15761904Y123027143D01*
X15761904Y123027143D02*
X15761904Y122931905D01*
X15761904Y122931905D02*
X15714285Y122789048D01*
X15714285Y122789048D02*
X15142857Y122217620D01*
X15142857Y122217620D02*
X15761904Y122217620D01*
X16619047Y122884286D02*
X16619047Y122217620D01*
X16380952Y123265239D02*
X16142857Y122550953D01*
X16142857Y122550953D02*
X16761904Y122550953D01*
X17000000Y123217620D02*
X17333333Y122217620D01*
X17333333Y122217620D02*
X17666666Y123217620D01*
X18000000Y122598572D02*
X18761905Y122598572D01*
X19761904Y123170000D02*
X19666666Y123217620D01*
X19666666Y123217620D02*
X19523809Y123217620D01*
X19523809Y123217620D02*
X19380952Y123170000D01*
X19380952Y123170000D02*
X19285714Y123074762D01*
X19285714Y123074762D02*
X19238095Y122979524D01*
X19238095Y122979524D02*
X19190476Y122789048D01*
X19190476Y122789048D02*
X19190476Y122646191D01*
X19190476Y122646191D02*
X19238095Y122455715D01*
X19238095Y122455715D02*
X19285714Y122360477D01*
X19285714Y122360477D02*
X19380952Y122265239D01*
X19380952Y122265239D02*
X19523809Y122217620D01*
X19523809Y122217620D02*
X19619047Y122217620D01*
X19619047Y122217620D02*
X19761904Y122265239D01*
X19761904Y122265239D02*
X19809523Y122312858D01*
X19809523Y122312858D02*
X19809523Y122646191D01*
X19809523Y122646191D02*
X19619047Y122646191D01*
X20238095Y122217620D02*
X20238095Y123217620D01*
X20238095Y123217620D02*
X20809523Y122217620D01*
X20809523Y122217620D02*
X20809523Y123217620D01*
X21285714Y122217620D02*
X21285714Y123217620D01*
X21285714Y123217620D02*
X21523809Y123217620D01*
X21523809Y123217620D02*
X21666666Y123170000D01*
X21666666Y123170000D02*
X21761904Y123074762D01*
X21761904Y123074762D02*
X21809523Y122979524D01*
X21809523Y122979524D02*
X21857142Y122789048D01*
X21857142Y122789048D02*
X21857142Y122646191D01*
X21857142Y122646191D02*
X21809523Y122455715D01*
X21809523Y122455715D02*
X21761904Y122360477D01*
X21761904Y122360477D02*
X21666666Y122265239D01*
X21666666Y122265239D02*
X21523809Y122217620D01*
X21523809Y122217620D02*
X21285714Y122217620D01*
X113214285Y89837620D02*
X112738095Y89837620D01*
X112738095Y89837620D02*
X112690476Y89361429D01*
X112690476Y89361429D02*
X112738095Y89409048D01*
X112738095Y89409048D02*
X112833333Y89456667D01*
X112833333Y89456667D02*
X113071428Y89456667D01*
X113071428Y89456667D02*
X113166666Y89409048D01*
X113166666Y89409048D02*
X113214285Y89361429D01*
X113214285Y89361429D02*
X113261904Y89266191D01*
X113261904Y89266191D02*
X113261904Y89028096D01*
X113261904Y89028096D02*
X113214285Y88932858D01*
X113214285Y88932858D02*
X113166666Y88885239D01*
X113166666Y88885239D02*
X113071428Y88837620D01*
X113071428Y88837620D02*
X112833333Y88837620D01*
X112833333Y88837620D02*
X112738095Y88885239D01*
X112738095Y88885239D02*
X112690476Y88932858D01*
X113547619Y89837620D02*
X113880952Y88837620D01*
X113880952Y88837620D02*
X114214285Y89837620D01*
X113261904Y88170000D02*
X113166666Y88217620D01*
X113166666Y88217620D02*
X113023809Y88217620D01*
X113023809Y88217620D02*
X112880952Y88170000D01*
X112880952Y88170000D02*
X112785714Y88074762D01*
X112785714Y88074762D02*
X112738095Y87979524D01*
X112738095Y87979524D02*
X112690476Y87789048D01*
X112690476Y87789048D02*
X112690476Y87646191D01*
X112690476Y87646191D02*
X112738095Y87455715D01*
X112738095Y87455715D02*
X112785714Y87360477D01*
X112785714Y87360477D02*
X112880952Y87265239D01*
X112880952Y87265239D02*
X113023809Y87217620D01*
X113023809Y87217620D02*
X113119047Y87217620D01*
X113119047Y87217620D02*
X113261904Y87265239D01*
X113261904Y87265239D02*
X113309523Y87312858D01*
X113309523Y87312858D02*
X113309523Y87646191D01*
X113309523Y87646191D02*
X113119047Y87646191D01*
X113738095Y87217620D02*
X113738095Y88217620D01*
X113738095Y88217620D02*
X114309523Y87217620D01*
X114309523Y87217620D02*
X114309523Y88217620D01*
X114785714Y87217620D02*
X114785714Y88217620D01*
X114785714Y88217620D02*
X115023809Y88217620D01*
X115023809Y88217620D02*
X115166666Y88170000D01*
X115166666Y88170000D02*
X115261904Y88074762D01*
X115261904Y88074762D02*
X115309523Y87979524D01*
X115309523Y87979524D02*
X115357142Y87789048D01*
X115357142Y87789048D02*
X115357142Y87646191D01*
X115357142Y87646191D02*
X115309523Y87455715D01*
X115309523Y87455715D02*
X115261904Y87360477D01*
X115261904Y87360477D02*
X115166666Y87265239D01*
X115166666Y87265239D02*
X115023809Y87217620D01*
X115023809Y87217620D02*
X114785714Y87217620D01*
X80714285Y50404620D02*
X80238095Y50404620D01*
X80238095Y50404620D02*
X80190476Y49928429D01*
X80190476Y49928429D02*
X80238095Y49976048D01*
X80238095Y49976048D02*
X80333333Y50023667D01*
X80333333Y50023667D02*
X80571428Y50023667D01*
X80571428Y50023667D02*
X80666666Y49976048D01*
X80666666Y49976048D02*
X80714285Y49928429D01*
X80714285Y49928429D02*
X80761904Y49833191D01*
X80761904Y49833191D02*
X80761904Y49595096D01*
X80761904Y49595096D02*
X80714285Y49499858D01*
X80714285Y49499858D02*
X80666666Y49452239D01*
X80666666Y49452239D02*
X80571428Y49404620D01*
X80571428Y49404620D02*
X80333333Y49404620D01*
X80333333Y49404620D02*
X80238095Y49452239D01*
X80238095Y49452239D02*
X80190476Y49499858D01*
X81047619Y50404620D02*
X81380952Y49404620D01*
X81380952Y49404620D02*
X81714285Y50404620D01*
X83076190Y49404620D02*
X83076190Y49928429D01*
X83076190Y49928429D02*
X83028571Y50023667D01*
X83028571Y50023667D02*
X82933333Y50071286D01*
X82933333Y50071286D02*
X82742857Y50071286D01*
X82742857Y50071286D02*
X82647619Y50023667D01*
X83076190Y49452239D02*
X82980952Y49404620D01*
X82980952Y49404620D02*
X82742857Y49404620D01*
X82742857Y49404620D02*
X82647619Y49452239D01*
X82647619Y49452239D02*
X82600000Y49547477D01*
X82600000Y49547477D02*
X82600000Y49642715D01*
X82600000Y49642715D02*
X82647619Y49737953D01*
X82647619Y49737953D02*
X82742857Y49785572D01*
X82742857Y49785572D02*
X82980952Y49785572D01*
X82980952Y49785572D02*
X83076190Y49833191D01*
X83552381Y49404620D02*
X83552381Y50071286D01*
X83552381Y49880810D02*
X83600000Y49976048D01*
X83600000Y49976048D02*
X83647619Y50023667D01*
X83647619Y50023667D02*
X83742857Y50071286D01*
X83742857Y50071286D02*
X83838095Y50071286D01*
X84600000Y49404620D02*
X84600000Y50404620D01*
X84600000Y49452239D02*
X84504762Y49404620D01*
X84504762Y49404620D02*
X84314286Y49404620D01*
X84314286Y49404620D02*
X84219048Y49452239D01*
X84219048Y49452239D02*
X84171429Y49499858D01*
X84171429Y49499858D02*
X84123810Y49595096D01*
X84123810Y49595096D02*
X84123810Y49880810D01*
X84123810Y49880810D02*
X84171429Y49976048D01*
X84171429Y49976048D02*
X84219048Y50023667D01*
X84219048Y50023667D02*
X84314286Y50071286D01*
X84314286Y50071286D02*
X84504762Y50071286D01*
X84504762Y50071286D02*
X84600000Y50023667D01*
X85819048Y49404620D02*
X85723810Y49452239D01*
X85723810Y49452239D02*
X85676191Y49499858D01*
X85676191Y49499858D02*
X85628572Y49595096D01*
X85628572Y49595096D02*
X85628572Y49880810D01*
X85628572Y49880810D02*
X85676191Y49976048D01*
X85676191Y49976048D02*
X85723810Y50023667D01*
X85723810Y50023667D02*
X85819048Y50071286D01*
X85819048Y50071286D02*
X85961905Y50071286D01*
X85961905Y50071286D02*
X86057143Y50023667D01*
X86057143Y50023667D02*
X86104762Y49976048D01*
X86104762Y49976048D02*
X86152381Y49880810D01*
X86152381Y49880810D02*
X86152381Y49595096D01*
X86152381Y49595096D02*
X86104762Y49499858D01*
X86104762Y49499858D02*
X86057143Y49452239D01*
X86057143Y49452239D02*
X85961905Y49404620D01*
X85961905Y49404620D02*
X85819048Y49404620D01*
X87009524Y50071286D02*
X87009524Y49404620D01*
X86580953Y50071286D02*
X86580953Y49547477D01*
X86580953Y49547477D02*
X86628572Y49452239D01*
X86628572Y49452239D02*
X86723810Y49404620D01*
X86723810Y49404620D02*
X86866667Y49404620D01*
X86866667Y49404620D02*
X86961905Y49452239D01*
X86961905Y49452239D02*
X87009524Y49499858D01*
X87342858Y50071286D02*
X87723810Y50071286D01*
X87485715Y50404620D02*
X87485715Y49547477D01*
X87485715Y49547477D02*
X87533334Y49452239D01*
X87533334Y49452239D02*
X87628572Y49404620D01*
X87628572Y49404620D02*
X87723810Y49404620D01*
X88057144Y50071286D02*
X88057144Y49071286D01*
X88057144Y50023667D02*
X88152382Y50071286D01*
X88152382Y50071286D02*
X88342858Y50071286D01*
X88342858Y50071286D02*
X88438096Y50023667D01*
X88438096Y50023667D02*
X88485715Y49976048D01*
X88485715Y49976048D02*
X88533334Y49880810D01*
X88533334Y49880810D02*
X88533334Y49595096D01*
X88533334Y49595096D02*
X88485715Y49499858D01*
X88485715Y49499858D02*
X88438096Y49452239D01*
X88438096Y49452239D02*
X88342858Y49404620D01*
X88342858Y49404620D02*
X88152382Y49404620D01*
X88152382Y49404620D02*
X88057144Y49452239D01*
X89390477Y50071286D02*
X89390477Y49404620D01*
X88961906Y50071286D02*
X88961906Y49547477D01*
X88961906Y49547477D02*
X89009525Y49452239D01*
X89009525Y49452239D02*
X89104763Y49404620D01*
X89104763Y49404620D02*
X89247620Y49404620D01*
X89247620Y49404620D02*
X89342858Y49452239D01*
X89342858Y49452239D02*
X89390477Y49499858D01*
X89723811Y50071286D02*
X90104763Y50071286D01*
X89866668Y50404620D02*
X89866668Y49547477D01*
X89866668Y49547477D02*
X89914287Y49452239D01*
X89914287Y49452239D02*
X90009525Y49404620D01*
X90009525Y49404620D02*
X90104763Y49404620D01*
X92690476Y137265239D02*
X92833333Y137217620D01*
X92833333Y137217620D02*
X93071428Y137217620D01*
X93071428Y137217620D02*
X93166666Y137265239D01*
X93166666Y137265239D02*
X93214285Y137312858D01*
X93214285Y137312858D02*
X93261904Y137408096D01*
X93261904Y137408096D02*
X93261904Y137503334D01*
X93261904Y137503334D02*
X93214285Y137598572D01*
X93214285Y137598572D02*
X93166666Y137646191D01*
X93166666Y137646191D02*
X93071428Y137693810D01*
X93071428Y137693810D02*
X92880952Y137741429D01*
X92880952Y137741429D02*
X92785714Y137789048D01*
X92785714Y137789048D02*
X92738095Y137836667D01*
X92738095Y137836667D02*
X92690476Y137931905D01*
X92690476Y137931905D02*
X92690476Y138027143D01*
X92690476Y138027143D02*
X92738095Y138122381D01*
X92738095Y138122381D02*
X92785714Y138170000D01*
X92785714Y138170000D02*
X92880952Y138217620D01*
X92880952Y138217620D02*
X93119047Y138217620D01*
X93119047Y138217620D02*
X93261904Y138170000D01*
X94071428Y137265239D02*
X93976190Y137217620D01*
X93976190Y137217620D02*
X93785714Y137217620D01*
X93785714Y137217620D02*
X93690476Y137265239D01*
X93690476Y137265239D02*
X93642857Y137360477D01*
X93642857Y137360477D02*
X93642857Y137741429D01*
X93642857Y137741429D02*
X93690476Y137836667D01*
X93690476Y137836667D02*
X93785714Y137884286D01*
X93785714Y137884286D02*
X93976190Y137884286D01*
X93976190Y137884286D02*
X94071428Y137836667D01*
X94071428Y137836667D02*
X94119047Y137741429D01*
X94119047Y137741429D02*
X94119047Y137646191D01*
X94119047Y137646191D02*
X93642857Y137550953D01*
X94547619Y137884286D02*
X94547619Y137217620D01*
X94547619Y137789048D02*
X94595238Y137836667D01*
X94595238Y137836667D02*
X94690476Y137884286D01*
X94690476Y137884286D02*
X94833333Y137884286D01*
X94833333Y137884286D02*
X94928571Y137836667D01*
X94928571Y137836667D02*
X94976190Y137741429D01*
X94976190Y137741429D02*
X94976190Y137217620D01*
X95404762Y137265239D02*
X95500000Y137217620D01*
X95500000Y137217620D02*
X95690476Y137217620D01*
X95690476Y137217620D02*
X95785714Y137265239D01*
X95785714Y137265239D02*
X95833333Y137360477D01*
X95833333Y137360477D02*
X95833333Y137408096D01*
X95833333Y137408096D02*
X95785714Y137503334D01*
X95785714Y137503334D02*
X95690476Y137550953D01*
X95690476Y137550953D02*
X95547619Y137550953D01*
X95547619Y137550953D02*
X95452381Y137598572D01*
X95452381Y137598572D02*
X95404762Y137693810D01*
X95404762Y137693810D02*
X95404762Y137741429D01*
X95404762Y137741429D02*
X95452381Y137836667D01*
X95452381Y137836667D02*
X95547619Y137884286D01*
X95547619Y137884286D02*
X95690476Y137884286D01*
X95690476Y137884286D02*
X95785714Y137836667D01*
X96404762Y137217620D02*
X96309524Y137265239D01*
X96309524Y137265239D02*
X96261905Y137312858D01*
X96261905Y137312858D02*
X96214286Y137408096D01*
X96214286Y137408096D02*
X96214286Y137693810D01*
X96214286Y137693810D02*
X96261905Y137789048D01*
X96261905Y137789048D02*
X96309524Y137836667D01*
X96309524Y137836667D02*
X96404762Y137884286D01*
X96404762Y137884286D02*
X96547619Y137884286D01*
X96547619Y137884286D02*
X96642857Y137836667D01*
X96642857Y137836667D02*
X96690476Y137789048D01*
X96690476Y137789048D02*
X96738095Y137693810D01*
X96738095Y137693810D02*
X96738095Y137408096D01*
X96738095Y137408096D02*
X96690476Y137312858D01*
X96690476Y137312858D02*
X96642857Y137265239D01*
X96642857Y137265239D02*
X96547619Y137217620D01*
X96547619Y137217620D02*
X96404762Y137217620D01*
X97166667Y137217620D02*
X97166667Y137884286D01*
X97166667Y137693810D02*
X97214286Y137789048D01*
X97214286Y137789048D02*
X97261905Y137836667D01*
X97261905Y137836667D02*
X97357143Y137884286D01*
X97357143Y137884286D02*
X97452381Y137884286D01*
X112738095Y126861429D02*
X113071428Y126861429D01*
X113214285Y126337620D02*
X112738095Y126337620D01*
X112738095Y126337620D02*
X112738095Y127337620D01*
X112738095Y127337620D02*
X113214285Y127337620D01*
X113547619Y126337620D02*
X114071428Y127004286D01*
X113547619Y127004286D02*
X114071428Y126337620D01*
X114309524Y127004286D02*
X114690476Y127004286D01*
X114452381Y127337620D02*
X114452381Y126480477D01*
X114452381Y126480477D02*
X114500000Y126385239D01*
X114500000Y126385239D02*
X114595238Y126337620D01*
X114595238Y126337620D02*
X114690476Y126337620D01*
X115023810Y126432858D02*
X115071429Y126385239D01*
X115071429Y126385239D02*
X115023810Y126337620D01*
X115023810Y126337620D02*
X114976191Y126385239D01*
X114976191Y126385239D02*
X115023810Y126432858D01*
X115023810Y126432858D02*
X115023810Y126337620D01*
X116100000Y127004286D02*
X116100000Y126004286D01*
X116100000Y126956667D02*
X116195238Y127004286D01*
X116195238Y127004286D02*
X116385714Y127004286D01*
X116385714Y127004286D02*
X116480952Y126956667D01*
X116480952Y126956667D02*
X116528571Y126909048D01*
X116528571Y126909048D02*
X116576190Y126813810D01*
X116576190Y126813810D02*
X116576190Y126528096D01*
X116576190Y126528096D02*
X116528571Y126432858D01*
X116528571Y126432858D02*
X116480952Y126385239D01*
X116480952Y126385239D02*
X116385714Y126337620D01*
X116385714Y126337620D02*
X116195238Y126337620D01*
X116195238Y126337620D02*
X116100000Y126385239D01*
X117147619Y126337620D02*
X117052381Y126385239D01*
X117052381Y126385239D02*
X117004762Y126432858D01*
X117004762Y126432858D02*
X116957143Y126528096D01*
X116957143Y126528096D02*
X116957143Y126813810D01*
X116957143Y126813810D02*
X117004762Y126909048D01*
X117004762Y126909048D02*
X117052381Y126956667D01*
X117052381Y126956667D02*
X117147619Y127004286D01*
X117147619Y127004286D02*
X117290476Y127004286D01*
X117290476Y127004286D02*
X117385714Y126956667D01*
X117385714Y126956667D02*
X117433333Y126909048D01*
X117433333Y126909048D02*
X117480952Y126813810D01*
X117480952Y126813810D02*
X117480952Y126528096D01*
X117480952Y126528096D02*
X117433333Y126432858D01*
X117433333Y126432858D02*
X117385714Y126385239D01*
X117385714Y126385239D02*
X117290476Y126337620D01*
X117290476Y126337620D02*
X117147619Y126337620D01*
X117814286Y127004286D02*
X118004762Y126337620D01*
X118004762Y126337620D02*
X118195238Y126813810D01*
X118195238Y126813810D02*
X118385714Y126337620D01*
X118385714Y126337620D02*
X118576190Y127004286D01*
X119338095Y126385239D02*
X119242857Y126337620D01*
X119242857Y126337620D02*
X119052381Y126337620D01*
X119052381Y126337620D02*
X118957143Y126385239D01*
X118957143Y126385239D02*
X118909524Y126480477D01*
X118909524Y126480477D02*
X118909524Y126861429D01*
X118909524Y126861429D02*
X118957143Y126956667D01*
X118957143Y126956667D02*
X119052381Y127004286D01*
X119052381Y127004286D02*
X119242857Y127004286D01*
X119242857Y127004286D02*
X119338095Y126956667D01*
X119338095Y126956667D02*
X119385714Y126861429D01*
X119385714Y126861429D02*
X119385714Y126766191D01*
X119385714Y126766191D02*
X118909524Y126670953D01*
X119814286Y126337620D02*
X119814286Y127004286D01*
X119814286Y126813810D02*
X119861905Y126909048D01*
X119861905Y126909048D02*
X119909524Y126956667D01*
X119909524Y126956667D02*
X120004762Y127004286D01*
X120004762Y127004286D02*
X120100000Y127004286D01*
X121176191Y126337620D02*
X121080953Y126385239D01*
X121080953Y126385239D02*
X121033334Y126432858D01*
X121033334Y126432858D02*
X120985715Y126528096D01*
X120985715Y126528096D02*
X120985715Y126813810D01*
X120985715Y126813810D02*
X121033334Y126909048D01*
X121033334Y126909048D02*
X121080953Y126956667D01*
X121080953Y126956667D02*
X121176191Y127004286D01*
X121176191Y127004286D02*
X121319048Y127004286D01*
X121319048Y127004286D02*
X121414286Y126956667D01*
X121414286Y126956667D02*
X121461905Y126909048D01*
X121461905Y126909048D02*
X121509524Y126813810D01*
X121509524Y126813810D02*
X121509524Y126528096D01*
X121509524Y126528096D02*
X121461905Y126432858D01*
X121461905Y126432858D02*
X121414286Y126385239D01*
X121414286Y126385239D02*
X121319048Y126337620D01*
X121319048Y126337620D02*
X121176191Y126337620D01*
X122366667Y127004286D02*
X122366667Y126337620D01*
X121938096Y127004286D02*
X121938096Y126480477D01*
X121938096Y126480477D02*
X121985715Y126385239D01*
X121985715Y126385239D02*
X122080953Y126337620D01*
X122080953Y126337620D02*
X122223810Y126337620D01*
X122223810Y126337620D02*
X122319048Y126385239D01*
X122319048Y126385239D02*
X122366667Y126432858D01*
X122700001Y127004286D02*
X123080953Y127004286D01*
X122842858Y127337620D02*
X122842858Y126480477D01*
X122842858Y126480477D02*
X122890477Y126385239D01*
X122890477Y126385239D02*
X122985715Y126337620D01*
X122985715Y126337620D02*
X123080953Y126337620D01*
X123414287Y127004286D02*
X123414287Y126004286D01*
X123414287Y126956667D02*
X123509525Y127004286D01*
X123509525Y127004286D02*
X123700001Y127004286D01*
X123700001Y127004286D02*
X123795239Y126956667D01*
X123795239Y126956667D02*
X123842858Y126909048D01*
X123842858Y126909048D02*
X123890477Y126813810D01*
X123890477Y126813810D02*
X123890477Y126528096D01*
X123890477Y126528096D02*
X123842858Y126432858D01*
X123842858Y126432858D02*
X123795239Y126385239D01*
X123795239Y126385239D02*
X123700001Y126337620D01*
X123700001Y126337620D02*
X123509525Y126337620D01*
X123509525Y126337620D02*
X123414287Y126385239D01*
X124747620Y127004286D02*
X124747620Y126337620D01*
X124319049Y127004286D02*
X124319049Y126480477D01*
X124319049Y126480477D02*
X124366668Y126385239D01*
X124366668Y126385239D02*
X124461906Y126337620D01*
X124461906Y126337620D02*
X124604763Y126337620D01*
X124604763Y126337620D02*
X124700001Y126385239D01*
X124700001Y126385239D02*
X124747620Y126432858D01*
X125080954Y127004286D02*
X125461906Y127004286D01*
X125223811Y127337620D02*
X125223811Y126480477D01*
X125223811Y126480477D02*
X125271430Y126385239D01*
X125271430Y126385239D02*
X125366668Y126337620D01*
X125366668Y126337620D02*
X125461906Y126337620D01*
X113214285Y125717620D02*
X112738095Y125717620D01*
X112738095Y125717620D02*
X112690476Y125241429D01*
X112690476Y125241429D02*
X112738095Y125289048D01*
X112738095Y125289048D02*
X112833333Y125336667D01*
X112833333Y125336667D02*
X113071428Y125336667D01*
X113071428Y125336667D02*
X113166666Y125289048D01*
X113166666Y125289048D02*
X113214285Y125241429D01*
X113214285Y125241429D02*
X113261904Y125146191D01*
X113261904Y125146191D02*
X113261904Y124908096D01*
X113261904Y124908096D02*
X113214285Y124812858D01*
X113214285Y124812858D02*
X113166666Y124765239D01*
X113166666Y124765239D02*
X113071428Y124717620D01*
X113071428Y124717620D02*
X112833333Y124717620D01*
X112833333Y124717620D02*
X112738095Y124765239D01*
X112738095Y124765239D02*
X112690476Y124812858D01*
X113547619Y125717620D02*
X113880952Y124717620D01*
X113880952Y124717620D02*
X114214285Y125717620D01*
X114547619Y125098572D02*
X115309524Y125098572D01*
X115738095Y125622381D02*
X115785714Y125670000D01*
X115785714Y125670000D02*
X115880952Y125717620D01*
X115880952Y125717620D02*
X116119047Y125717620D01*
X116119047Y125717620D02*
X116214285Y125670000D01*
X116214285Y125670000D02*
X116261904Y125622381D01*
X116261904Y125622381D02*
X116309523Y125527143D01*
X116309523Y125527143D02*
X116309523Y125431905D01*
X116309523Y125431905D02*
X116261904Y125289048D01*
X116261904Y125289048D02*
X115690476Y124717620D01*
X115690476Y124717620D02*
X116309523Y124717620D01*
X117166666Y125384286D02*
X117166666Y124717620D01*
X116928571Y125765239D02*
X116690476Y125050953D01*
X116690476Y125050953D02*
X117309523Y125050953D01*
X117547619Y125717620D02*
X117880952Y124717620D01*
X117880952Y124717620D02*
X118214285Y125717620D01*
X118547619Y125098572D02*
X119309524Y125098572D01*
X120309523Y125670000D02*
X120214285Y125717620D01*
X120214285Y125717620D02*
X120071428Y125717620D01*
X120071428Y125717620D02*
X119928571Y125670000D01*
X119928571Y125670000D02*
X119833333Y125574762D01*
X119833333Y125574762D02*
X119785714Y125479524D01*
X119785714Y125479524D02*
X119738095Y125289048D01*
X119738095Y125289048D02*
X119738095Y125146191D01*
X119738095Y125146191D02*
X119785714Y124955715D01*
X119785714Y124955715D02*
X119833333Y124860477D01*
X119833333Y124860477D02*
X119928571Y124765239D01*
X119928571Y124765239D02*
X120071428Y124717620D01*
X120071428Y124717620D02*
X120166666Y124717620D01*
X120166666Y124717620D02*
X120309523Y124765239D01*
X120309523Y124765239D02*
X120357142Y124812858D01*
X120357142Y124812858D02*
X120357142Y125146191D01*
X120357142Y125146191D02*
X120166666Y125146191D01*
X120785714Y124717620D02*
X120785714Y125717620D01*
X120785714Y125717620D02*
X121357142Y124717620D01*
X121357142Y124717620D02*
X121357142Y125717620D01*
X121833333Y124717620D02*
X121833333Y125717620D01*
X121833333Y125717620D02*
X122071428Y125717620D01*
X122071428Y125717620D02*
X122214285Y125670000D01*
X122214285Y125670000D02*
X122309523Y125574762D01*
X122309523Y125574762D02*
X122357142Y125479524D01*
X122357142Y125479524D02*
X122404761Y125289048D01*
X122404761Y125289048D02*
X122404761Y125146191D01*
X122404761Y125146191D02*
X122357142Y124955715D01*
X122357142Y124955715D02*
X122309523Y124860477D01*
X122309523Y124860477D02*
X122214285Y124765239D01*
X122214285Y124765239D02*
X122071428Y124717620D01*
X122071428Y124717620D02*
X121833333Y124717620D01*
X115190476Y59625239D02*
X115333333Y59577620D01*
X115333333Y59577620D02*
X115571428Y59577620D01*
X115571428Y59577620D02*
X115666666Y59625239D01*
X115666666Y59625239D02*
X115714285Y59672858D01*
X115714285Y59672858D02*
X115761904Y59768096D01*
X115761904Y59768096D02*
X115761904Y59863334D01*
X115761904Y59863334D02*
X115714285Y59958572D01*
X115714285Y59958572D02*
X115666666Y60006191D01*
X115666666Y60006191D02*
X115571428Y60053810D01*
X115571428Y60053810D02*
X115380952Y60101429D01*
X115380952Y60101429D02*
X115285714Y60149048D01*
X115285714Y60149048D02*
X115238095Y60196667D01*
X115238095Y60196667D02*
X115190476Y60291905D01*
X115190476Y60291905D02*
X115190476Y60387143D01*
X115190476Y60387143D02*
X115238095Y60482381D01*
X115238095Y60482381D02*
X115285714Y60530000D01*
X115285714Y60530000D02*
X115380952Y60577620D01*
X115380952Y60577620D02*
X115619047Y60577620D01*
X115619047Y60577620D02*
X115761904Y60530000D01*
X116190476Y59577620D02*
X116190476Y60577620D01*
X116190476Y60577620D02*
X116428571Y60577620D01*
X116428571Y60577620D02*
X116571428Y60530000D01*
X116571428Y60530000D02*
X116666666Y60434762D01*
X116666666Y60434762D02*
X116714285Y60339524D01*
X116714285Y60339524D02*
X116761904Y60149048D01*
X116761904Y60149048D02*
X116761904Y60006191D01*
X116761904Y60006191D02*
X116714285Y59815715D01*
X116714285Y59815715D02*
X116666666Y59720477D01*
X116666666Y59720477D02*
X116571428Y59625239D01*
X116571428Y59625239D02*
X116428571Y59577620D01*
X116428571Y59577620D02*
X116190476Y59577620D01*
X117142857Y59863334D02*
X117619047Y59863334D01*
X117047619Y59577620D02*
X117380952Y60577620D01*
X117380952Y60577620D02*
X117714285Y59577620D01*
X115190476Y58005239D02*
X115333333Y57957620D01*
X115333333Y57957620D02*
X115571428Y57957620D01*
X115571428Y57957620D02*
X115666666Y58005239D01*
X115666666Y58005239D02*
X115714285Y58052858D01*
X115714285Y58052858D02*
X115761904Y58148096D01*
X115761904Y58148096D02*
X115761904Y58243334D01*
X115761904Y58243334D02*
X115714285Y58338572D01*
X115714285Y58338572D02*
X115666666Y58386191D01*
X115666666Y58386191D02*
X115571428Y58433810D01*
X115571428Y58433810D02*
X115380952Y58481429D01*
X115380952Y58481429D02*
X115285714Y58529048D01*
X115285714Y58529048D02*
X115238095Y58576667D01*
X115238095Y58576667D02*
X115190476Y58671905D01*
X115190476Y58671905D02*
X115190476Y58767143D01*
X115190476Y58767143D02*
X115238095Y58862381D01*
X115238095Y58862381D02*
X115285714Y58910000D01*
X115285714Y58910000D02*
X115380952Y58957620D01*
X115380952Y58957620D02*
X115619047Y58957620D01*
X115619047Y58957620D02*
X115761904Y58910000D01*
X116761904Y58052858D02*
X116714285Y58005239D01*
X116714285Y58005239D02*
X116571428Y57957620D01*
X116571428Y57957620D02*
X116476190Y57957620D01*
X116476190Y57957620D02*
X116333333Y58005239D01*
X116333333Y58005239D02*
X116238095Y58100477D01*
X116238095Y58100477D02*
X116190476Y58195715D01*
X116190476Y58195715D02*
X116142857Y58386191D01*
X116142857Y58386191D02*
X116142857Y58529048D01*
X116142857Y58529048D02*
X116190476Y58719524D01*
X116190476Y58719524D02*
X116238095Y58814762D01*
X116238095Y58814762D02*
X116333333Y58910000D01*
X116333333Y58910000D02*
X116476190Y58957620D01*
X116476190Y58957620D02*
X116571428Y58957620D01*
X116571428Y58957620D02*
X116714285Y58910000D01*
X116714285Y58910000D02*
X116761904Y58862381D01*
X117666666Y57957620D02*
X117190476Y57957620D01*
X117190476Y57957620D02*
X117190476Y58957620D01*
X115809523Y56337620D02*
X115476190Y56813810D01*
X115238095Y56337620D02*
X115238095Y57337620D01*
X115238095Y57337620D02*
X115619047Y57337620D01*
X115619047Y57337620D02*
X115714285Y57290000D01*
X115714285Y57290000D02*
X115761904Y57242381D01*
X115761904Y57242381D02*
X115809523Y57147143D01*
X115809523Y57147143D02*
X115809523Y57004286D01*
X115809523Y57004286D02*
X115761904Y56909048D01*
X115761904Y56909048D02*
X115714285Y56861429D01*
X115714285Y56861429D02*
X115619047Y56813810D01*
X115619047Y56813810D02*
X115238095Y56813810D01*
X116238095Y56861429D02*
X116571428Y56861429D01*
X116714285Y56337620D02*
X116238095Y56337620D01*
X116238095Y56337620D02*
X116238095Y57337620D01*
X116238095Y57337620D02*
X116714285Y57337620D01*
X117095238Y56385239D02*
X117238095Y56337620D01*
X117238095Y56337620D02*
X117476190Y56337620D01*
X117476190Y56337620D02*
X117571428Y56385239D01*
X117571428Y56385239D02*
X117619047Y56432858D01*
X117619047Y56432858D02*
X117666666Y56528096D01*
X117666666Y56528096D02*
X117666666Y56623334D01*
X117666666Y56623334D02*
X117619047Y56718572D01*
X117619047Y56718572D02*
X117571428Y56766191D01*
X117571428Y56766191D02*
X117476190Y56813810D01*
X117476190Y56813810D02*
X117285714Y56861429D01*
X117285714Y56861429D02*
X117190476Y56909048D01*
X117190476Y56909048D02*
X117142857Y56956667D01*
X117142857Y56956667D02*
X117095238Y57051905D01*
X117095238Y57051905D02*
X117095238Y57147143D01*
X117095238Y57147143D02*
X117142857Y57242381D01*
X117142857Y57242381D02*
X117190476Y57290000D01*
X117190476Y57290000D02*
X117285714Y57337620D01*
X117285714Y57337620D02*
X117523809Y57337620D01*
X117523809Y57337620D02*
X117666666Y57290000D01*
X115190476Y54765239D02*
X115333333Y54717620D01*
X115333333Y54717620D02*
X115571428Y54717620D01*
X115571428Y54717620D02*
X115666666Y54765239D01*
X115666666Y54765239D02*
X115714285Y54812858D01*
X115714285Y54812858D02*
X115761904Y54908096D01*
X115761904Y54908096D02*
X115761904Y55003334D01*
X115761904Y55003334D02*
X115714285Y55098572D01*
X115714285Y55098572D02*
X115666666Y55146191D01*
X115666666Y55146191D02*
X115571428Y55193810D01*
X115571428Y55193810D02*
X115380952Y55241429D01*
X115380952Y55241429D02*
X115285714Y55289048D01*
X115285714Y55289048D02*
X115238095Y55336667D01*
X115238095Y55336667D02*
X115190476Y55431905D01*
X115190476Y55431905D02*
X115190476Y55527143D01*
X115190476Y55527143D02*
X115238095Y55622381D01*
X115238095Y55622381D02*
X115285714Y55670000D01*
X115285714Y55670000D02*
X115380952Y55717620D01*
X115380952Y55717620D02*
X115619047Y55717620D01*
X115619047Y55717620D02*
X115761904Y55670000D01*
X116142857Y55003334D02*
X116619047Y55003334D01*
X116047619Y54717620D02*
X116380952Y55717620D01*
X116380952Y55717620D02*
X116714285Y54717620D01*
X117238095Y55717620D02*
X117333333Y55717620D01*
X117333333Y55717620D02*
X117428571Y55670000D01*
X117428571Y55670000D02*
X117476190Y55622381D01*
X117476190Y55622381D02*
X117523809Y55527143D01*
X117523809Y55527143D02*
X117571428Y55336667D01*
X117571428Y55336667D02*
X117571428Y55098572D01*
X117571428Y55098572D02*
X117523809Y54908096D01*
X117523809Y54908096D02*
X117476190Y54812858D01*
X117476190Y54812858D02*
X117428571Y54765239D01*
X117428571Y54765239D02*
X117333333Y54717620D01*
X117333333Y54717620D02*
X117238095Y54717620D01*
X117238095Y54717620D02*
X117142857Y54765239D01*
X117142857Y54765239D02*
X117095238Y54812858D01*
X117095238Y54812858D02*
X117047619Y54908096D01*
X117047619Y54908096D02*
X117000000Y55098572D01*
X117000000Y55098572D02*
X117000000Y55336667D01*
X117000000Y55336667D02*
X117047619Y55527143D01*
X117047619Y55527143D02*
X117095238Y55622381D01*
X117095238Y55622381D02*
X117142857Y55670000D01*
X117142857Y55670000D02*
X117238095Y55717620D01*
X70095238Y125717620D02*
X70428571Y124717620D01*
X70428571Y124717620D02*
X70761904Y125717620D01*
X71666666Y124812858D02*
X71619047Y124765239D01*
X71619047Y124765239D02*
X71476190Y124717620D01*
X71476190Y124717620D02*
X71380952Y124717620D01*
X71380952Y124717620D02*
X71238095Y124765239D01*
X71238095Y124765239D02*
X71142857Y124860477D01*
X71142857Y124860477D02*
X71095238Y124955715D01*
X71095238Y124955715D02*
X71047619Y125146191D01*
X71047619Y125146191D02*
X71047619Y125289048D01*
X71047619Y125289048D02*
X71095238Y125479524D01*
X71095238Y125479524D02*
X71142857Y125574762D01*
X71142857Y125574762D02*
X71238095Y125670000D01*
X71238095Y125670000D02*
X71380952Y125717620D01*
X71380952Y125717620D02*
X71476190Y125717620D01*
X71476190Y125717620D02*
X71619047Y125670000D01*
X71619047Y125670000D02*
X71666666Y125622381D01*
X72666666Y124812858D02*
X72619047Y124765239D01*
X72619047Y124765239D02*
X72476190Y124717620D01*
X72476190Y124717620D02*
X72380952Y124717620D01*
X72380952Y124717620D02*
X72238095Y124765239D01*
X72238095Y124765239D02*
X72142857Y124860477D01*
X72142857Y124860477D02*
X72095238Y124955715D01*
X72095238Y124955715D02*
X72047619Y125146191D01*
X72047619Y125146191D02*
X72047619Y125289048D01*
X72047619Y125289048D02*
X72095238Y125479524D01*
X72095238Y125479524D02*
X72142857Y125574762D01*
X72142857Y125574762D02*
X72238095Y125670000D01*
X72238095Y125670000D02*
X72380952Y125717620D01*
X72380952Y125717620D02*
X72476190Y125717620D01*
X72476190Y125717620D02*
X72619047Y125670000D01*
X72619047Y125670000D02*
X72666666Y125622381D01*
X73695238Y124717620D02*
X73695238Y125717620D01*
X73695238Y125717620D02*
X73933333Y125717620D01*
X73933333Y125717620D02*
X74076190Y125670000D01*
X74076190Y125670000D02*
X74171428Y125574762D01*
X74171428Y125574762D02*
X74219047Y125479524D01*
X74219047Y125479524D02*
X74266666Y125289048D01*
X74266666Y125289048D02*
X74266666Y125146191D01*
X74266666Y125146191D02*
X74219047Y124955715D01*
X74219047Y124955715D02*
X74171428Y124860477D01*
X74171428Y124860477D02*
X74076190Y124765239D01*
X74076190Y124765239D02*
X73933333Y124717620D01*
X73933333Y124717620D02*
X73695238Y124717620D01*
X74695238Y125098572D02*
X75457143Y125098572D01*
X76533333Y124717620D02*
X76533333Y125717620D01*
X76533333Y125717620D02*
X76771428Y125717620D01*
X76771428Y125717620D02*
X76914285Y125670000D01*
X76914285Y125670000D02*
X77009523Y125574762D01*
X77009523Y125574762D02*
X77057142Y125479524D01*
X77057142Y125479524D02*
X77104761Y125289048D01*
X77104761Y125289048D02*
X77104761Y125146191D01*
X77104761Y125146191D02*
X77057142Y124955715D01*
X77057142Y124955715D02*
X77009523Y124860477D01*
X77009523Y124860477D02*
X76914285Y124765239D01*
X76914285Y124765239D02*
X76771428Y124717620D01*
X76771428Y124717620D02*
X76533333Y124717620D01*
X77533333Y125098572D02*
X78295238Y125098572D01*
X77914285Y124717620D02*
X77914285Y125479524D01*
X79895237Y125670000D02*
X79799999Y125717620D01*
X79799999Y125717620D02*
X79657142Y125717620D01*
X79657142Y125717620D02*
X79514285Y125670000D01*
X79514285Y125670000D02*
X79419047Y125574762D01*
X79419047Y125574762D02*
X79371428Y125479524D01*
X79371428Y125479524D02*
X79323809Y125289048D01*
X79323809Y125289048D02*
X79323809Y125146191D01*
X79323809Y125146191D02*
X79371428Y124955715D01*
X79371428Y124955715D02*
X79419047Y124860477D01*
X79419047Y124860477D02*
X79514285Y124765239D01*
X79514285Y124765239D02*
X79657142Y124717620D01*
X79657142Y124717620D02*
X79752380Y124717620D01*
X79752380Y124717620D02*
X79895237Y124765239D01*
X79895237Y124765239D02*
X79942856Y124812858D01*
X79942856Y124812858D02*
X79942856Y125146191D01*
X79942856Y125146191D02*
X79752380Y125146191D01*
X80371428Y124717620D02*
X80371428Y125717620D01*
X80371428Y125717620D02*
X80942856Y124717620D01*
X80942856Y124717620D02*
X80942856Y125717620D01*
X81419047Y124717620D02*
X81419047Y125717620D01*
X81419047Y125717620D02*
X81657142Y125717620D01*
X81657142Y125717620D02*
X81799999Y125670000D01*
X81799999Y125670000D02*
X81895237Y125574762D01*
X81895237Y125574762D02*
X81942856Y125479524D01*
X81942856Y125479524D02*
X81990475Y125289048D01*
X81990475Y125289048D02*
X81990475Y125146191D01*
X81990475Y125146191D02*
X81942856Y124955715D01*
X81942856Y124955715D02*
X81895237Y124860477D01*
X81895237Y124860477D02*
X81799999Y124765239D01*
X81799999Y124765239D02*
X81657142Y124717620D01*
X81657142Y124717620D02*
X81419047Y124717620D01*
X33214285Y125717620D02*
X32738095Y125717620D01*
X32738095Y125717620D02*
X32690476Y125241429D01*
X32690476Y125241429D02*
X32738095Y125289048D01*
X32738095Y125289048D02*
X32833333Y125336667D01*
X32833333Y125336667D02*
X33071428Y125336667D01*
X33071428Y125336667D02*
X33166666Y125289048D01*
X33166666Y125289048D02*
X33214285Y125241429D01*
X33214285Y125241429D02*
X33261904Y125146191D01*
X33261904Y125146191D02*
X33261904Y124908096D01*
X33261904Y124908096D02*
X33214285Y124812858D01*
X33214285Y124812858D02*
X33166666Y124765239D01*
X33166666Y124765239D02*
X33071428Y124717620D01*
X33071428Y124717620D02*
X32833333Y124717620D01*
X32833333Y124717620D02*
X32738095Y124765239D01*
X32738095Y124765239D02*
X32690476Y124812858D01*
X33547619Y125717620D02*
X33880952Y124717620D01*
X33880952Y124717620D02*
X34214285Y125717620D01*
X35576190Y124765239D02*
X35480952Y124717620D01*
X35480952Y124717620D02*
X35290476Y124717620D01*
X35290476Y124717620D02*
X35195238Y124765239D01*
X35195238Y124765239D02*
X35147619Y124812858D01*
X35147619Y124812858D02*
X35100000Y124908096D01*
X35100000Y124908096D02*
X35100000Y125193810D01*
X35100000Y125193810D02*
X35147619Y125289048D01*
X35147619Y125289048D02*
X35195238Y125336667D01*
X35195238Y125336667D02*
X35290476Y125384286D01*
X35290476Y125384286D02*
X35480952Y125384286D01*
X35480952Y125384286D02*
X35576190Y125336667D01*
X36147619Y124717620D02*
X36052381Y124765239D01*
X36052381Y124765239D02*
X36004762Y124812858D01*
X36004762Y124812858D02*
X35957143Y124908096D01*
X35957143Y124908096D02*
X35957143Y125193810D01*
X35957143Y125193810D02*
X36004762Y125289048D01*
X36004762Y125289048D02*
X36052381Y125336667D01*
X36052381Y125336667D02*
X36147619Y125384286D01*
X36147619Y125384286D02*
X36290476Y125384286D01*
X36290476Y125384286D02*
X36385714Y125336667D01*
X36385714Y125336667D02*
X36433333Y125289048D01*
X36433333Y125289048D02*
X36480952Y125193810D01*
X36480952Y125193810D02*
X36480952Y124908096D01*
X36480952Y124908096D02*
X36433333Y124812858D01*
X36433333Y124812858D02*
X36385714Y124765239D01*
X36385714Y124765239D02*
X36290476Y124717620D01*
X36290476Y124717620D02*
X36147619Y124717620D01*
X36909524Y125384286D02*
X36909524Y124717620D01*
X36909524Y125289048D02*
X36957143Y125336667D01*
X36957143Y125336667D02*
X37052381Y125384286D01*
X37052381Y125384286D02*
X37195238Y125384286D01*
X37195238Y125384286D02*
X37290476Y125336667D01*
X37290476Y125336667D02*
X37338095Y125241429D01*
X37338095Y125241429D02*
X37338095Y124717620D01*
X37719048Y125384286D02*
X37957143Y124717620D01*
X37957143Y124717620D02*
X38195238Y125384286D01*
X38957143Y124765239D02*
X38861905Y124717620D01*
X38861905Y124717620D02*
X38671429Y124717620D01*
X38671429Y124717620D02*
X38576191Y124765239D01*
X38576191Y124765239D02*
X38528572Y124860477D01*
X38528572Y124860477D02*
X38528572Y125241429D01*
X38528572Y125241429D02*
X38576191Y125336667D01*
X38576191Y125336667D02*
X38671429Y125384286D01*
X38671429Y125384286D02*
X38861905Y125384286D01*
X38861905Y125384286D02*
X38957143Y125336667D01*
X38957143Y125336667D02*
X39004762Y125241429D01*
X39004762Y125241429D02*
X39004762Y125146191D01*
X39004762Y125146191D02*
X38528572Y125050953D01*
X39433334Y124717620D02*
X39433334Y125384286D01*
X39433334Y125193810D02*
X39480953Y125289048D01*
X39480953Y125289048D02*
X39528572Y125336667D01*
X39528572Y125336667D02*
X39623810Y125384286D01*
X39623810Y125384286D02*
X39719048Y125384286D01*
X40004763Y124765239D02*
X40100001Y124717620D01*
X40100001Y124717620D02*
X40290477Y124717620D01*
X40290477Y124717620D02*
X40385715Y124765239D01*
X40385715Y124765239D02*
X40433334Y124860477D01*
X40433334Y124860477D02*
X40433334Y124908096D01*
X40433334Y124908096D02*
X40385715Y125003334D01*
X40385715Y125003334D02*
X40290477Y125050953D01*
X40290477Y125050953D02*
X40147620Y125050953D01*
X40147620Y125050953D02*
X40052382Y125098572D01*
X40052382Y125098572D02*
X40004763Y125193810D01*
X40004763Y125193810D02*
X40004763Y125241429D01*
X40004763Y125241429D02*
X40052382Y125336667D01*
X40052382Y125336667D02*
X40147620Y125384286D01*
X40147620Y125384286D02*
X40290477Y125384286D01*
X40290477Y125384286D02*
X40385715Y125336667D01*
X40861906Y124717620D02*
X40861906Y125384286D01*
X40861906Y125717620D02*
X40814287Y125670000D01*
X40814287Y125670000D02*
X40861906Y125622381D01*
X40861906Y125622381D02*
X40909525Y125670000D01*
X40909525Y125670000D02*
X40861906Y125717620D01*
X40861906Y125717620D02*
X40861906Y125622381D01*
X41480953Y124717620D02*
X41385715Y124765239D01*
X41385715Y124765239D02*
X41338096Y124812858D01*
X41338096Y124812858D02*
X41290477Y124908096D01*
X41290477Y124908096D02*
X41290477Y125193810D01*
X41290477Y125193810D02*
X41338096Y125289048D01*
X41338096Y125289048D02*
X41385715Y125336667D01*
X41385715Y125336667D02*
X41480953Y125384286D01*
X41480953Y125384286D02*
X41623810Y125384286D01*
X41623810Y125384286D02*
X41719048Y125336667D01*
X41719048Y125336667D02*
X41766667Y125289048D01*
X41766667Y125289048D02*
X41814286Y125193810D01*
X41814286Y125193810D02*
X41814286Y124908096D01*
X41814286Y124908096D02*
X41766667Y124812858D01*
X41766667Y124812858D02*
X41719048Y124765239D01*
X41719048Y124765239D02*
X41623810Y124717620D01*
X41623810Y124717620D02*
X41480953Y124717620D01*
X42242858Y125384286D02*
X42242858Y124717620D01*
X42242858Y125289048D02*
X42290477Y125336667D01*
X42290477Y125336667D02*
X42385715Y125384286D01*
X42385715Y125384286D02*
X42528572Y125384286D01*
X42528572Y125384286D02*
X42623810Y125336667D01*
X42623810Y125336667D02*
X42671429Y125241429D01*
X42671429Y125241429D02*
X42671429Y124717620D01*
X75238095Y137217620D02*
X75238095Y138217620D01*
X75238095Y138217620D02*
X75619047Y138217620D01*
X75619047Y138217620D02*
X75714285Y138170000D01*
X75714285Y138170000D02*
X75761904Y138122381D01*
X75761904Y138122381D02*
X75809523Y138027143D01*
X75809523Y138027143D02*
X75809523Y137884286D01*
X75809523Y137884286D02*
X75761904Y137789048D01*
X75761904Y137789048D02*
X75714285Y137741429D01*
X75714285Y137741429D02*
X75619047Y137693810D01*
X75619047Y137693810D02*
X75238095Y137693810D01*
X76666666Y137884286D02*
X76666666Y137217620D01*
X76238095Y137884286D02*
X76238095Y137360477D01*
X76238095Y137360477D02*
X76285714Y137265239D01*
X76285714Y137265239D02*
X76380952Y137217620D01*
X76380952Y137217620D02*
X76523809Y137217620D01*
X76523809Y137217620D02*
X76619047Y137265239D01*
X76619047Y137265239D02*
X76666666Y137312858D01*
X77142857Y137217620D02*
X77142857Y137884286D01*
X77142857Y137789048D02*
X77190476Y137836667D01*
X77190476Y137836667D02*
X77285714Y137884286D01*
X77285714Y137884286D02*
X77428571Y137884286D01*
X77428571Y137884286D02*
X77523809Y137836667D01*
X77523809Y137836667D02*
X77571428Y137741429D01*
X77571428Y137741429D02*
X77571428Y137217620D01*
X77571428Y137741429D02*
X77619047Y137836667D01*
X77619047Y137836667D02*
X77714285Y137884286D01*
X77714285Y137884286D02*
X77857142Y137884286D01*
X77857142Y137884286D02*
X77952381Y137836667D01*
X77952381Y137836667D02*
X78000000Y137741429D01*
X78000000Y137741429D02*
X78000000Y137217620D01*
X78476190Y137884286D02*
X78476190Y136884286D01*
X78476190Y137836667D02*
X78571428Y137884286D01*
X78571428Y137884286D02*
X78761904Y137884286D01*
X78761904Y137884286D02*
X78857142Y137836667D01*
X78857142Y137836667D02*
X78904761Y137789048D01*
X78904761Y137789048D02*
X78952380Y137693810D01*
X78952380Y137693810D02*
X78952380Y137408096D01*
X78952380Y137408096D02*
X78904761Y137312858D01*
X78904761Y137312858D02*
X78857142Y137265239D01*
X78857142Y137265239D02*
X78761904Y137217620D01*
X78761904Y137217620D02*
X78571428Y137217620D01*
X78571428Y137217620D02*
X78476190Y137265239D01*
X90095238Y125717620D02*
X90428571Y124717620D01*
X90428571Y124717620D02*
X90761904Y125717620D01*
X91666666Y124812858D02*
X91619047Y124765239D01*
X91619047Y124765239D02*
X91476190Y124717620D01*
X91476190Y124717620D02*
X91380952Y124717620D01*
X91380952Y124717620D02*
X91238095Y124765239D01*
X91238095Y124765239D02*
X91142857Y124860477D01*
X91142857Y124860477D02*
X91095238Y124955715D01*
X91095238Y124955715D02*
X91047619Y125146191D01*
X91047619Y125146191D02*
X91047619Y125289048D01*
X91047619Y125289048D02*
X91095238Y125479524D01*
X91095238Y125479524D02*
X91142857Y125574762D01*
X91142857Y125574762D02*
X91238095Y125670000D01*
X91238095Y125670000D02*
X91380952Y125717620D01*
X91380952Y125717620D02*
X91476190Y125717620D01*
X91476190Y125717620D02*
X91619047Y125670000D01*
X91619047Y125670000D02*
X91666666Y125622381D01*
X92666666Y124812858D02*
X92619047Y124765239D01*
X92619047Y124765239D02*
X92476190Y124717620D01*
X92476190Y124717620D02*
X92380952Y124717620D01*
X92380952Y124717620D02*
X92238095Y124765239D01*
X92238095Y124765239D02*
X92142857Y124860477D01*
X92142857Y124860477D02*
X92095238Y124955715D01*
X92095238Y124955715D02*
X92047619Y125146191D01*
X92047619Y125146191D02*
X92047619Y125289048D01*
X92047619Y125289048D02*
X92095238Y125479524D01*
X92095238Y125479524D02*
X92142857Y125574762D01*
X92142857Y125574762D02*
X92238095Y125670000D01*
X92238095Y125670000D02*
X92380952Y125717620D01*
X92380952Y125717620D02*
X92476190Y125717620D01*
X92476190Y125717620D02*
X92619047Y125670000D01*
X92619047Y125670000D02*
X92666666Y125622381D01*
X94266666Y124717620D02*
X93933333Y125193810D01*
X93695238Y124717620D02*
X93695238Y125717620D01*
X93695238Y125717620D02*
X94076190Y125717620D01*
X94076190Y125717620D02*
X94171428Y125670000D01*
X94171428Y125670000D02*
X94219047Y125622381D01*
X94219047Y125622381D02*
X94266666Y125527143D01*
X94266666Y125527143D02*
X94266666Y125384286D01*
X94266666Y125384286D02*
X94219047Y125289048D01*
X94219047Y125289048D02*
X94171428Y125241429D01*
X94171428Y125241429D02*
X94076190Y125193810D01*
X94076190Y125193810D02*
X93695238Y125193810D01*
X94600000Y124717620D02*
X95123809Y125384286D01*
X94600000Y125384286D02*
X95123809Y124717620D01*
X95961905Y125717620D02*
X96533333Y125717620D01*
X96247619Y124717620D02*
X96247619Y125717620D01*
X96771429Y124717620D02*
X97295238Y125384286D01*
X96771429Y125384286D02*
X97295238Y124717620D01*
X98800000Y125670000D02*
X98704762Y125717620D01*
X98704762Y125717620D02*
X98561905Y125717620D01*
X98561905Y125717620D02*
X98419048Y125670000D01*
X98419048Y125670000D02*
X98323810Y125574762D01*
X98323810Y125574762D02*
X98276191Y125479524D01*
X98276191Y125479524D02*
X98228572Y125289048D01*
X98228572Y125289048D02*
X98228572Y125146191D01*
X98228572Y125146191D02*
X98276191Y124955715D01*
X98276191Y124955715D02*
X98323810Y124860477D01*
X98323810Y124860477D02*
X98419048Y124765239D01*
X98419048Y124765239D02*
X98561905Y124717620D01*
X98561905Y124717620D02*
X98657143Y124717620D01*
X98657143Y124717620D02*
X98800000Y124765239D01*
X98800000Y124765239D02*
X98847619Y124812858D01*
X98847619Y124812858D02*
X98847619Y125146191D01*
X98847619Y125146191D02*
X98657143Y125146191D01*
X99276191Y124717620D02*
X99276191Y125717620D01*
X99276191Y125717620D02*
X99847619Y124717620D01*
X99847619Y124717620D02*
X99847619Y125717620D01*
X100323810Y124717620D02*
X100323810Y125717620D01*
X100323810Y125717620D02*
X100561905Y125717620D01*
X100561905Y125717620D02*
X100704762Y125670000D01*
X100704762Y125670000D02*
X100800000Y125574762D01*
X100800000Y125574762D02*
X100847619Y125479524D01*
X100847619Y125479524D02*
X100895238Y125289048D01*
X100895238Y125289048D02*
X100895238Y125146191D01*
X100895238Y125146191D02*
X100847619Y124955715D01*
X100847619Y124955715D02*
X100800000Y124860477D01*
X100800000Y124860477D02*
X100704762Y124765239D01*
X100704762Y124765239D02*
X100561905Y124717620D01*
X100561905Y124717620D02*
X100323810Y124717620D01*
D11*
X77690476Y67593143D02*
X77957142Y67593143D01*
X78071428Y67174096D02*
X77690476Y67174096D01*
X77690476Y67174096D02*
X77690476Y67974096D01*
X77690476Y67974096D02*
X78071428Y67974096D01*
X78414286Y67707429D02*
X78414286Y67174096D01*
X78414286Y67631239D02*
X78452381Y67669334D01*
X78452381Y67669334D02*
X78528571Y67707429D01*
X78528571Y67707429D02*
X78642857Y67707429D01*
X78642857Y67707429D02*
X78719048Y67669334D01*
X78719048Y67669334D02*
X78757143Y67593143D01*
X78757143Y67593143D02*
X78757143Y67174096D01*
D10*
X7642857Y55717620D02*
X8261904Y55717620D01*
X8261904Y55717620D02*
X7928571Y55336667D01*
X7928571Y55336667D02*
X8071428Y55336667D01*
X8071428Y55336667D02*
X8166666Y55289048D01*
X8166666Y55289048D02*
X8214285Y55241429D01*
X8214285Y55241429D02*
X8261904Y55146191D01*
X8261904Y55146191D02*
X8261904Y54908096D01*
X8261904Y54908096D02*
X8214285Y54812858D01*
X8214285Y54812858D02*
X8166666Y54765239D01*
X8166666Y54765239D02*
X8071428Y54717620D01*
X8071428Y54717620D02*
X7785714Y54717620D01*
X7785714Y54717620D02*
X7690476Y54765239D01*
X7690476Y54765239D02*
X7642857Y54812858D01*
X8690476Y54812858D02*
X8738095Y54765239D01*
X8738095Y54765239D02*
X8690476Y54717620D01*
X8690476Y54717620D02*
X8642857Y54765239D01*
X8642857Y54765239D02*
X8690476Y54812858D01*
X8690476Y54812858D02*
X8690476Y54717620D01*
X9071428Y55717620D02*
X9690475Y55717620D01*
X9690475Y55717620D02*
X9357142Y55336667D01*
X9357142Y55336667D02*
X9499999Y55336667D01*
X9499999Y55336667D02*
X9595237Y55289048D01*
X9595237Y55289048D02*
X9642856Y55241429D01*
X9642856Y55241429D02*
X9690475Y55146191D01*
X9690475Y55146191D02*
X9690475Y54908096D01*
X9690475Y54908096D02*
X9642856Y54812858D01*
X9642856Y54812858D02*
X9595237Y54765239D01*
X9595237Y54765239D02*
X9499999Y54717620D01*
X9499999Y54717620D02*
X9214285Y54717620D01*
X9214285Y54717620D02*
X9119047Y54765239D01*
X9119047Y54765239D02*
X9071428Y54812858D01*
X9976190Y55717620D02*
X10309523Y54717620D01*
X10309523Y54717620D02*
X10642856Y55717620D01*
X11719047Y54717620D02*
X11623809Y54765239D01*
X11623809Y54765239D02*
X11576190Y54812858D01*
X11576190Y54812858D02*
X11528571Y54908096D01*
X11528571Y54908096D02*
X11528571Y55193810D01*
X11528571Y55193810D02*
X11576190Y55289048D01*
X11576190Y55289048D02*
X11623809Y55336667D01*
X11623809Y55336667D02*
X11719047Y55384286D01*
X11719047Y55384286D02*
X11861904Y55384286D01*
X11861904Y55384286D02*
X11957142Y55336667D01*
X11957142Y55336667D02*
X12004761Y55289048D01*
X12004761Y55289048D02*
X12052380Y55193810D01*
X12052380Y55193810D02*
X12052380Y54908096D01*
X12052380Y54908096D02*
X12004761Y54812858D01*
X12004761Y54812858D02*
X11957142Y54765239D01*
X11957142Y54765239D02*
X11861904Y54717620D01*
X11861904Y54717620D02*
X11719047Y54717620D01*
X12909523Y55384286D02*
X12909523Y54717620D01*
X12480952Y55384286D02*
X12480952Y54860477D01*
X12480952Y54860477D02*
X12528571Y54765239D01*
X12528571Y54765239D02*
X12623809Y54717620D01*
X12623809Y54717620D02*
X12766666Y54717620D01*
X12766666Y54717620D02*
X12861904Y54765239D01*
X12861904Y54765239D02*
X12909523Y54812858D01*
X13242857Y55384286D02*
X13623809Y55384286D01*
X13385714Y55717620D02*
X13385714Y54860477D01*
X13385714Y54860477D02*
X13433333Y54765239D01*
X13433333Y54765239D02*
X13528571Y54717620D01*
X13528571Y54717620D02*
X13623809Y54717620D01*
X95809523Y102217620D02*
X95476190Y102693810D01*
X95238095Y102217620D02*
X95238095Y103217620D01*
X95238095Y103217620D02*
X95619047Y103217620D01*
X95619047Y103217620D02*
X95714285Y103170000D01*
X95714285Y103170000D02*
X95761904Y103122381D01*
X95761904Y103122381D02*
X95809523Y103027143D01*
X95809523Y103027143D02*
X95809523Y102884286D01*
X95809523Y102884286D02*
X95761904Y102789048D01*
X95761904Y102789048D02*
X95714285Y102741429D01*
X95714285Y102741429D02*
X95619047Y102693810D01*
X95619047Y102693810D02*
X95238095Y102693810D01*
X96142857Y102217620D02*
X96666666Y102884286D01*
X96142857Y102884286D02*
X96666666Y102217620D01*
X97000000Y103122381D02*
X97047619Y103170000D01*
X97047619Y103170000D02*
X97142857Y103217620D01*
X97142857Y103217620D02*
X97380952Y103217620D01*
X97380952Y103217620D02*
X97476190Y103170000D01*
X97476190Y103170000D02*
X97523809Y103122381D01*
X97523809Y103122381D02*
X97571428Y103027143D01*
X97571428Y103027143D02*
X97571428Y102931905D01*
X97571428Y102931905D02*
X97523809Y102789048D01*
X97523809Y102789048D02*
X96952381Y102217620D01*
X96952381Y102217620D02*
X97571428Y102217620D01*
X50095238Y138217620D02*
X50666666Y138217620D01*
X50380952Y137217620D02*
X50380952Y138217620D01*
X50952381Y137265239D02*
X51095238Y137217620D01*
X51095238Y137217620D02*
X51333333Y137217620D01*
X51333333Y137217620D02*
X51428571Y137265239D01*
X51428571Y137265239D02*
X51476190Y137312858D01*
X51476190Y137312858D02*
X51523809Y137408096D01*
X51523809Y137408096D02*
X51523809Y137503334D01*
X51523809Y137503334D02*
X51476190Y137598572D01*
X51476190Y137598572D02*
X51428571Y137646191D01*
X51428571Y137646191D02*
X51333333Y137693810D01*
X51333333Y137693810D02*
X51142857Y137741429D01*
X51142857Y137741429D02*
X51047619Y137789048D01*
X51047619Y137789048D02*
X51000000Y137836667D01*
X51000000Y137836667D02*
X50952381Y137931905D01*
X50952381Y137931905D02*
X50952381Y138027143D01*
X50952381Y138027143D02*
X51000000Y138122381D01*
X51000000Y138122381D02*
X51047619Y138170000D01*
X51047619Y138170000D02*
X51142857Y138217620D01*
X51142857Y138217620D02*
X51380952Y138217620D01*
X51380952Y138217620D02*
X51523809Y138170000D01*
X52523809Y137217620D02*
X52190476Y137693810D01*
X51952381Y137217620D02*
X51952381Y138217620D01*
X51952381Y138217620D02*
X52333333Y138217620D01*
X52333333Y138217620D02*
X52428571Y138170000D01*
X52428571Y138170000D02*
X52476190Y138122381D01*
X52476190Y138122381D02*
X52523809Y138027143D01*
X52523809Y138027143D02*
X52523809Y137884286D01*
X52523809Y137884286D02*
X52476190Y137789048D01*
X52476190Y137789048D02*
X52428571Y137741429D01*
X52428571Y137741429D02*
X52333333Y137693810D01*
X52333333Y137693810D02*
X51952381Y137693810D01*
X52952381Y137217620D02*
X52952381Y138217620D01*
X52952381Y138217620D02*
X53523809Y137217620D01*
X53523809Y137217620D02*
X53523809Y138217620D01*
X55123809Y137217620D02*
X54552381Y137217620D01*
X54838095Y137217620D02*
X54838095Y138217620D01*
X54838095Y138217620D02*
X54742857Y138074762D01*
X54742857Y138074762D02*
X54647619Y137979524D01*
X54647619Y137979524D02*
X54552381Y137931905D01*
X55552381Y137598572D02*
X56314286Y137598572D01*
X56742857Y138122381D02*
X56790476Y138170000D01*
X56790476Y138170000D02*
X56885714Y138217620D01*
X56885714Y138217620D02*
X57123809Y138217620D01*
X57123809Y138217620D02*
X57219047Y138170000D01*
X57219047Y138170000D02*
X57266666Y138122381D01*
X57266666Y138122381D02*
X57314285Y138027143D01*
X57314285Y138027143D02*
X57314285Y137931905D01*
X57314285Y137931905D02*
X57266666Y137789048D01*
X57266666Y137789048D02*
X56695238Y137217620D01*
X56695238Y137217620D02*
X57314285Y137217620D01*
X58171428Y137884286D02*
X58171428Y137217620D01*
X57933333Y138265239D02*
X57695238Y137550953D01*
X57695238Y137550953D02*
X58314285Y137550953D01*
X59171428Y138217620D02*
X58695238Y138217620D01*
X58695238Y138217620D02*
X58647619Y137741429D01*
X58647619Y137741429D02*
X58695238Y137789048D01*
X58695238Y137789048D02*
X58790476Y137836667D01*
X58790476Y137836667D02*
X59028571Y137836667D01*
X59028571Y137836667D02*
X59123809Y137789048D01*
X59123809Y137789048D02*
X59171428Y137741429D01*
X59171428Y137741429D02*
X59219047Y137646191D01*
X59219047Y137646191D02*
X59219047Y137408096D01*
X59219047Y137408096D02*
X59171428Y137312858D01*
X59171428Y137312858D02*
X59123809Y137265239D01*
X59123809Y137265239D02*
X59028571Y137217620D01*
X59028571Y137217620D02*
X58790476Y137217620D01*
X58790476Y137217620D02*
X58695238Y137265239D01*
X58695238Y137265239D02*
X58647619Y137312858D01*
X59838095Y138217620D02*
X59933333Y138217620D01*
X59933333Y138217620D02*
X60028571Y138170000D01*
X60028571Y138170000D02*
X60076190Y138122381D01*
X60076190Y138122381D02*
X60123809Y138027143D01*
X60123809Y138027143D02*
X60171428Y137836667D01*
X60171428Y137836667D02*
X60171428Y137598572D01*
X60171428Y137598572D02*
X60123809Y137408096D01*
X60123809Y137408096D02*
X60076190Y137312858D01*
X60076190Y137312858D02*
X60028571Y137265239D01*
X60028571Y137265239D02*
X59933333Y137217620D01*
X59933333Y137217620D02*
X59838095Y137217620D01*
X59838095Y137217620D02*
X59742857Y137265239D01*
X59742857Y137265239D02*
X59695238Y137312858D01*
X59695238Y137312858D02*
X59647619Y137408096D01*
X59647619Y137408096D02*
X59600000Y137598572D01*
X59600000Y137598572D02*
X59600000Y137836667D01*
X59600000Y137836667D02*
X59647619Y138027143D01*
X59647619Y138027143D02*
X59695238Y138122381D01*
X59695238Y138122381D02*
X59742857Y138170000D01*
X59742857Y138170000D02*
X59838095Y138217620D01*
%TO.C,J19*%
X17940476Y127332620D02*
X17940476Y126618334D01*
X17940476Y126618334D02*
X17892857Y126475477D01*
X17892857Y126475477D02*
X17797619Y126380239D01*
X17797619Y126380239D02*
X17654762Y126332620D01*
X17654762Y126332620D02*
X17559524Y126332620D01*
X18940476Y126332620D02*
X18369048Y126332620D01*
X18654762Y126332620D02*
X18654762Y127332620D01*
X18654762Y127332620D02*
X18559524Y127189762D01*
X18559524Y127189762D02*
X18464286Y127094524D01*
X18464286Y127094524D02*
X18369048Y127046905D01*
X19416667Y126332620D02*
X19607143Y126332620D01*
X19607143Y126332620D02*
X19702381Y126380239D01*
X19702381Y126380239D02*
X19750000Y126427858D01*
X19750000Y126427858D02*
X19845238Y126570715D01*
X19845238Y126570715D02*
X19892857Y126761191D01*
X19892857Y126761191D02*
X19892857Y127142143D01*
X19892857Y127142143D02*
X19845238Y127237381D01*
X19845238Y127237381D02*
X19797619Y127285000D01*
X19797619Y127285000D02*
X19702381Y127332620D01*
X19702381Y127332620D02*
X19511905Y127332620D01*
X19511905Y127332620D02*
X19416667Y127285000D01*
X19416667Y127285000D02*
X19369048Y127237381D01*
X19369048Y127237381D02*
X19321429Y127142143D01*
X19321429Y127142143D02*
X19321429Y126904048D01*
X19321429Y126904048D02*
X19369048Y126808810D01*
X19369048Y126808810D02*
X19416667Y126761191D01*
X19416667Y126761191D02*
X19511905Y126713572D01*
X19511905Y126713572D02*
X19702381Y126713572D01*
X19702381Y126713572D02*
X19797619Y126761191D01*
X19797619Y126761191D02*
X19845238Y126808810D01*
X19845238Y126808810D02*
X19892857Y126904048D01*
%TO.C,U2*%
X54198095Y134402620D02*
X54198095Y133593096D01*
X54198095Y133593096D02*
X54245714Y133497858D01*
X54245714Y133497858D02*
X54293333Y133450239D01*
X54293333Y133450239D02*
X54388571Y133402620D01*
X54388571Y133402620D02*
X54579047Y133402620D01*
X54579047Y133402620D02*
X54674285Y133450239D01*
X54674285Y133450239D02*
X54721904Y133497858D01*
X54721904Y133497858D02*
X54769523Y133593096D01*
X54769523Y133593096D02*
X54769523Y134402620D01*
X55198095Y134307381D02*
X55245714Y134355000D01*
X55245714Y134355000D02*
X55340952Y134402620D01*
X55340952Y134402620D02*
X55579047Y134402620D01*
X55579047Y134402620D02*
X55674285Y134355000D01*
X55674285Y134355000D02*
X55721904Y134307381D01*
X55721904Y134307381D02*
X55769523Y134212143D01*
X55769523Y134212143D02*
X55769523Y134116905D01*
X55769523Y134116905D02*
X55721904Y133974048D01*
X55721904Y133974048D02*
X55150476Y133402620D01*
X55150476Y133402620D02*
X55769523Y133402620D01*
%TO.C,R13*%
X98507142Y62389620D02*
X98173809Y62865810D01*
X97935714Y62389620D02*
X97935714Y63389620D01*
X97935714Y63389620D02*
X98316666Y63389620D01*
X98316666Y63389620D02*
X98411904Y63342000D01*
X98411904Y63342000D02*
X98459523Y63294381D01*
X98459523Y63294381D02*
X98507142Y63199143D01*
X98507142Y63199143D02*
X98507142Y63056286D01*
X98507142Y63056286D02*
X98459523Y62961048D01*
X98459523Y62961048D02*
X98411904Y62913429D01*
X98411904Y62913429D02*
X98316666Y62865810D01*
X98316666Y62865810D02*
X97935714Y62865810D01*
X99459523Y62389620D02*
X98888095Y62389620D01*
X99173809Y62389620D02*
X99173809Y63389620D01*
X99173809Y63389620D02*
X99078571Y63246762D01*
X99078571Y63246762D02*
X98983333Y63151524D01*
X98983333Y63151524D02*
X98888095Y63103905D01*
X99792857Y63389620D02*
X100411904Y63389620D01*
X100411904Y63389620D02*
X100078571Y63008667D01*
X100078571Y63008667D02*
X100221428Y63008667D01*
X100221428Y63008667D02*
X100316666Y62961048D01*
X100316666Y62961048D02*
X100364285Y62913429D01*
X100364285Y62913429D02*
X100411904Y62818191D01*
X100411904Y62818191D02*
X100411904Y62580096D01*
X100411904Y62580096D02*
X100364285Y62484858D01*
X100364285Y62484858D02*
X100316666Y62437239D01*
X100316666Y62437239D02*
X100221428Y62389620D01*
X100221428Y62389620D02*
X99935714Y62389620D01*
X99935714Y62389620D02*
X99840476Y62437239D01*
X99840476Y62437239D02*
X99792857Y62484858D01*
%TO.C,J12*%
X95440476Y127332620D02*
X95440476Y126618334D01*
X95440476Y126618334D02*
X95392857Y126475477D01*
X95392857Y126475477D02*
X95297619Y126380239D01*
X95297619Y126380239D02*
X95154762Y126332620D01*
X95154762Y126332620D02*
X95059524Y126332620D01*
X96440476Y126332620D02*
X95869048Y126332620D01*
X96154762Y126332620D02*
X96154762Y127332620D01*
X96154762Y127332620D02*
X96059524Y127189762D01*
X96059524Y127189762D02*
X95964286Y127094524D01*
X95964286Y127094524D02*
X95869048Y127046905D01*
X96821429Y127237381D02*
X96869048Y127285000D01*
X96869048Y127285000D02*
X96964286Y127332620D01*
X96964286Y127332620D02*
X97202381Y127332620D01*
X97202381Y127332620D02*
X97297619Y127285000D01*
X97297619Y127285000D02*
X97345238Y127237381D01*
X97345238Y127237381D02*
X97392857Y127142143D01*
X97392857Y127142143D02*
X97392857Y127046905D01*
X97392857Y127046905D02*
X97345238Y126904048D01*
X97345238Y126904048D02*
X96773810Y126332620D01*
X96773810Y126332620D02*
X97392857Y126332620D01*
%TO.C,D7*%
X32636905Y130202620D02*
X32636905Y131202620D01*
X32636905Y131202620D02*
X32875000Y131202620D01*
X32875000Y131202620D02*
X33017857Y131155000D01*
X33017857Y131155000D02*
X33113095Y131059762D01*
X33113095Y131059762D02*
X33160714Y130964524D01*
X33160714Y130964524D02*
X33208333Y130774048D01*
X33208333Y130774048D02*
X33208333Y130631191D01*
X33208333Y130631191D02*
X33160714Y130440715D01*
X33160714Y130440715D02*
X33113095Y130345477D01*
X33113095Y130345477D02*
X33017857Y130250239D01*
X33017857Y130250239D02*
X32875000Y130202620D01*
X32875000Y130202620D02*
X32636905Y130202620D01*
X33541667Y131202620D02*
X34208333Y131202620D01*
X34208333Y131202620D02*
X33779762Y130202620D01*
%TO.C,R6*%
X89989833Y97546120D02*
X89656500Y98022310D01*
X89418405Y97546120D02*
X89418405Y98546120D01*
X89418405Y98546120D02*
X89799357Y98546120D01*
X89799357Y98546120D02*
X89894595Y98498500D01*
X89894595Y98498500D02*
X89942214Y98450881D01*
X89942214Y98450881D02*
X89989833Y98355643D01*
X89989833Y98355643D02*
X89989833Y98212786D01*
X89989833Y98212786D02*
X89942214Y98117548D01*
X89942214Y98117548D02*
X89894595Y98069929D01*
X89894595Y98069929D02*
X89799357Y98022310D01*
X89799357Y98022310D02*
X89418405Y98022310D01*
X90846976Y98546120D02*
X90656500Y98546120D01*
X90656500Y98546120D02*
X90561262Y98498500D01*
X90561262Y98498500D02*
X90513643Y98450881D01*
X90513643Y98450881D02*
X90418405Y98308024D01*
X90418405Y98308024D02*
X90370786Y98117548D01*
X90370786Y98117548D02*
X90370786Y97736596D01*
X90370786Y97736596D02*
X90418405Y97641358D01*
X90418405Y97641358D02*
X90466024Y97593739D01*
X90466024Y97593739D02*
X90561262Y97546120D01*
X90561262Y97546120D02*
X90751738Y97546120D01*
X90751738Y97546120D02*
X90846976Y97593739D01*
X90846976Y97593739D02*
X90894595Y97641358D01*
X90894595Y97641358D02*
X90942214Y97736596D01*
X90942214Y97736596D02*
X90942214Y97974691D01*
X90942214Y97974691D02*
X90894595Y98069929D01*
X90894595Y98069929D02*
X90846976Y98117548D01*
X90846976Y98117548D02*
X90751738Y98165167D01*
X90751738Y98165167D02*
X90561262Y98165167D01*
X90561262Y98165167D02*
X90466024Y98117548D01*
X90466024Y98117548D02*
X90418405Y98069929D01*
X90418405Y98069929D02*
X90370786Y97974691D01*
%TO.C,D6*%
X95293405Y100406120D02*
X95293405Y101406120D01*
X95293405Y101406120D02*
X95531500Y101406120D01*
X95531500Y101406120D02*
X95674357Y101358500D01*
X95674357Y101358500D02*
X95769595Y101263262D01*
X95769595Y101263262D02*
X95817214Y101168024D01*
X95817214Y101168024D02*
X95864833Y100977548D01*
X95864833Y100977548D02*
X95864833Y100834691D01*
X95864833Y100834691D02*
X95817214Y100644215D01*
X95817214Y100644215D02*
X95769595Y100548977D01*
X95769595Y100548977D02*
X95674357Y100453739D01*
X95674357Y100453739D02*
X95531500Y100406120D01*
X95531500Y100406120D02*
X95293405Y100406120D01*
X96721976Y101406120D02*
X96531500Y101406120D01*
X96531500Y101406120D02*
X96436262Y101358500D01*
X96436262Y101358500D02*
X96388643Y101310881D01*
X96388643Y101310881D02*
X96293405Y101168024D01*
X96293405Y101168024D02*
X96245786Y100977548D01*
X96245786Y100977548D02*
X96245786Y100596596D01*
X96245786Y100596596D02*
X96293405Y100501358D01*
X96293405Y100501358D02*
X96341024Y100453739D01*
X96341024Y100453739D02*
X96436262Y100406120D01*
X96436262Y100406120D02*
X96626738Y100406120D01*
X96626738Y100406120D02*
X96721976Y100453739D01*
X96721976Y100453739D02*
X96769595Y100501358D01*
X96769595Y100501358D02*
X96817214Y100596596D01*
X96817214Y100596596D02*
X96817214Y100834691D01*
X96817214Y100834691D02*
X96769595Y100929929D01*
X96769595Y100929929D02*
X96721976Y100977548D01*
X96721976Y100977548D02*
X96626738Y101025167D01*
X96626738Y101025167D02*
X96436262Y101025167D01*
X96436262Y101025167D02*
X96341024Y100977548D01*
X96341024Y100977548D02*
X96293405Y100929929D01*
X96293405Y100929929D02*
X96245786Y100834691D01*
%TO.C,C5*%
X81367142Y89655334D02*
X81414761Y89607715D01*
X81414761Y89607715D02*
X81462380Y89464858D01*
X81462380Y89464858D02*
X81462380Y89369620D01*
X81462380Y89369620D02*
X81414761Y89226763D01*
X81414761Y89226763D02*
X81319523Y89131525D01*
X81319523Y89131525D02*
X81224285Y89083906D01*
X81224285Y89083906D02*
X81033809Y89036287D01*
X81033809Y89036287D02*
X80890952Y89036287D01*
X80890952Y89036287D02*
X80700476Y89083906D01*
X80700476Y89083906D02*
X80605238Y89131525D01*
X80605238Y89131525D02*
X80510000Y89226763D01*
X80510000Y89226763D02*
X80462380Y89369620D01*
X80462380Y89369620D02*
X80462380Y89464858D01*
X80462380Y89464858D02*
X80510000Y89607715D01*
X80510000Y89607715D02*
X80557619Y89655334D01*
X80462380Y90560096D02*
X80462380Y90083906D01*
X80462380Y90083906D02*
X80938571Y90036287D01*
X80938571Y90036287D02*
X80890952Y90083906D01*
X80890952Y90083906D02*
X80843333Y90179144D01*
X80843333Y90179144D02*
X80843333Y90417239D01*
X80843333Y90417239D02*
X80890952Y90512477D01*
X80890952Y90512477D02*
X80938571Y90560096D01*
X80938571Y90560096D02*
X81033809Y90607715D01*
X81033809Y90607715D02*
X81271904Y90607715D01*
X81271904Y90607715D02*
X81367142Y90560096D01*
X81367142Y90560096D02*
X81414761Y90512477D01*
X81414761Y90512477D02*
X81462380Y90417239D01*
X81462380Y90417239D02*
X81462380Y90179144D01*
X81462380Y90179144D02*
X81414761Y90083906D01*
X81414761Y90083906D02*
X81367142Y90036287D01*
%TO.C,D3*%
X78386905Y44889620D02*
X78386905Y45889620D01*
X78386905Y45889620D02*
X78625000Y45889620D01*
X78625000Y45889620D02*
X78767857Y45842000D01*
X78767857Y45842000D02*
X78863095Y45746762D01*
X78863095Y45746762D02*
X78910714Y45651524D01*
X78910714Y45651524D02*
X78958333Y45461048D01*
X78958333Y45461048D02*
X78958333Y45318191D01*
X78958333Y45318191D02*
X78910714Y45127715D01*
X78910714Y45127715D02*
X78863095Y45032477D01*
X78863095Y45032477D02*
X78767857Y44937239D01*
X78767857Y44937239D02*
X78625000Y44889620D01*
X78625000Y44889620D02*
X78386905Y44889620D01*
X79291667Y45889620D02*
X79910714Y45889620D01*
X79910714Y45889620D02*
X79577381Y45508667D01*
X79577381Y45508667D02*
X79720238Y45508667D01*
X79720238Y45508667D02*
X79815476Y45461048D01*
X79815476Y45461048D02*
X79863095Y45413429D01*
X79863095Y45413429D02*
X79910714Y45318191D01*
X79910714Y45318191D02*
X79910714Y45080096D01*
X79910714Y45080096D02*
X79863095Y44984858D01*
X79863095Y44984858D02*
X79815476Y44937239D01*
X79815476Y44937239D02*
X79720238Y44889620D01*
X79720238Y44889620D02*
X79434524Y44889620D01*
X79434524Y44889620D02*
X79339286Y44937239D01*
X79339286Y44937239D02*
X79291667Y44984858D01*
%TO.C,R4*%
X14989833Y51476120D02*
X14656500Y51952310D01*
X14418405Y51476120D02*
X14418405Y52476120D01*
X14418405Y52476120D02*
X14799357Y52476120D01*
X14799357Y52476120D02*
X14894595Y52428500D01*
X14894595Y52428500D02*
X14942214Y52380881D01*
X14942214Y52380881D02*
X14989833Y52285643D01*
X14989833Y52285643D02*
X14989833Y52142786D01*
X14989833Y52142786D02*
X14942214Y52047548D01*
X14942214Y52047548D02*
X14894595Y51999929D01*
X14894595Y51999929D02*
X14799357Y51952310D01*
X14799357Y51952310D02*
X14418405Y51952310D01*
X15846976Y52142786D02*
X15846976Y51476120D01*
X15608881Y52523739D02*
X15370786Y51809453D01*
X15370786Y51809453D02*
X15989833Y51809453D01*
%TO.C,C1*%
X84227142Y94655334D02*
X84274761Y94607715D01*
X84274761Y94607715D02*
X84322380Y94464858D01*
X84322380Y94464858D02*
X84322380Y94369620D01*
X84322380Y94369620D02*
X84274761Y94226763D01*
X84274761Y94226763D02*
X84179523Y94131525D01*
X84179523Y94131525D02*
X84084285Y94083906D01*
X84084285Y94083906D02*
X83893809Y94036287D01*
X83893809Y94036287D02*
X83750952Y94036287D01*
X83750952Y94036287D02*
X83560476Y94083906D01*
X83560476Y94083906D02*
X83465238Y94131525D01*
X83465238Y94131525D02*
X83370000Y94226763D01*
X83370000Y94226763D02*
X83322380Y94369620D01*
X83322380Y94369620D02*
X83322380Y94464858D01*
X83322380Y94464858D02*
X83370000Y94607715D01*
X83370000Y94607715D02*
X83417619Y94655334D01*
X84322380Y95607715D02*
X84322380Y95036287D01*
X84322380Y95322001D02*
X83322380Y95322001D01*
X83322380Y95322001D02*
X83465238Y95226763D01*
X83465238Y95226763D02*
X83560476Y95131525D01*
X83560476Y95131525D02*
X83608095Y95036287D01*
%TO.C,U3*%
X89238095Y93219620D02*
X89238095Y92410096D01*
X89238095Y92410096D02*
X89285714Y92314858D01*
X89285714Y92314858D02*
X89333333Y92267239D01*
X89333333Y92267239D02*
X89428571Y92219620D01*
X89428571Y92219620D02*
X89619047Y92219620D01*
X89619047Y92219620D02*
X89714285Y92267239D01*
X89714285Y92267239D02*
X89761904Y92314858D01*
X89761904Y92314858D02*
X89809523Y92410096D01*
X89809523Y92410096D02*
X89809523Y93219620D01*
X90190476Y93219620D02*
X90809523Y93219620D01*
X90809523Y93219620D02*
X90476190Y92838667D01*
X90476190Y92838667D02*
X90619047Y92838667D01*
X90619047Y92838667D02*
X90714285Y92791048D01*
X90714285Y92791048D02*
X90761904Y92743429D01*
X90761904Y92743429D02*
X90809523Y92648191D01*
X90809523Y92648191D02*
X90809523Y92410096D01*
X90809523Y92410096D02*
X90761904Y92314858D01*
X90761904Y92314858D02*
X90714285Y92267239D01*
X90714285Y92267239D02*
X90619047Y92219620D01*
X90619047Y92219620D02*
X90333333Y92219620D01*
X90333333Y92219620D02*
X90238095Y92267239D01*
X90238095Y92267239D02*
X90190476Y92314858D01*
%TO.C,D11*%
X76260714Y61754620D02*
X76260714Y62754620D01*
X76260714Y62754620D02*
X76498809Y62754620D01*
X76498809Y62754620D02*
X76641666Y62707000D01*
X76641666Y62707000D02*
X76736904Y62611762D01*
X76736904Y62611762D02*
X76784523Y62516524D01*
X76784523Y62516524D02*
X76832142Y62326048D01*
X76832142Y62326048D02*
X76832142Y62183191D01*
X76832142Y62183191D02*
X76784523Y61992715D01*
X76784523Y61992715D02*
X76736904Y61897477D01*
X76736904Y61897477D02*
X76641666Y61802239D01*
X76641666Y61802239D02*
X76498809Y61754620D01*
X76498809Y61754620D02*
X76260714Y61754620D01*
X77784523Y61754620D02*
X77213095Y61754620D01*
X77498809Y61754620D02*
X77498809Y62754620D01*
X77498809Y62754620D02*
X77403571Y62611762D01*
X77403571Y62611762D02*
X77308333Y62516524D01*
X77308333Y62516524D02*
X77213095Y62468905D01*
X78736904Y61754620D02*
X78165476Y61754620D01*
X78451190Y61754620D02*
X78451190Y62754620D01*
X78451190Y62754620D02*
X78355952Y62611762D01*
X78355952Y62611762D02*
X78260714Y62516524D01*
X78260714Y62516524D02*
X78165476Y62468905D01*
%TO.C,R3*%
X84833333Y47749620D02*
X84500000Y48225810D01*
X84261905Y47749620D02*
X84261905Y48749620D01*
X84261905Y48749620D02*
X84642857Y48749620D01*
X84642857Y48749620D02*
X84738095Y48702000D01*
X84738095Y48702000D02*
X84785714Y48654381D01*
X84785714Y48654381D02*
X84833333Y48559143D01*
X84833333Y48559143D02*
X84833333Y48416286D01*
X84833333Y48416286D02*
X84785714Y48321048D01*
X84785714Y48321048D02*
X84738095Y48273429D01*
X84738095Y48273429D02*
X84642857Y48225810D01*
X84642857Y48225810D02*
X84261905Y48225810D01*
X85166667Y48749620D02*
X85785714Y48749620D01*
X85785714Y48749620D02*
X85452381Y48368667D01*
X85452381Y48368667D02*
X85595238Y48368667D01*
X85595238Y48368667D02*
X85690476Y48321048D01*
X85690476Y48321048D02*
X85738095Y48273429D01*
X85738095Y48273429D02*
X85785714Y48178191D01*
X85785714Y48178191D02*
X85785714Y47940096D01*
X85785714Y47940096D02*
X85738095Y47844858D01*
X85738095Y47844858D02*
X85690476Y47797239D01*
X85690476Y47797239D02*
X85595238Y47749620D01*
X85595238Y47749620D02*
X85309524Y47749620D01*
X85309524Y47749620D02*
X85214286Y47797239D01*
X85214286Y47797239D02*
X85166667Y47844858D01*
%TO.C,R14*%
X97682142Y75249620D02*
X97348809Y75725810D01*
X97110714Y75249620D02*
X97110714Y76249620D01*
X97110714Y76249620D02*
X97491666Y76249620D01*
X97491666Y76249620D02*
X97586904Y76202000D01*
X97586904Y76202000D02*
X97634523Y76154381D01*
X97634523Y76154381D02*
X97682142Y76059143D01*
X97682142Y76059143D02*
X97682142Y75916286D01*
X97682142Y75916286D02*
X97634523Y75821048D01*
X97634523Y75821048D02*
X97586904Y75773429D01*
X97586904Y75773429D02*
X97491666Y75725810D01*
X97491666Y75725810D02*
X97110714Y75725810D01*
X98634523Y75249620D02*
X98063095Y75249620D01*
X98348809Y75249620D02*
X98348809Y76249620D01*
X98348809Y76249620D02*
X98253571Y76106762D01*
X98253571Y76106762D02*
X98158333Y76011524D01*
X98158333Y76011524D02*
X98063095Y75963905D01*
X99491666Y75916286D02*
X99491666Y75249620D01*
X99253571Y76297239D02*
X99015476Y75582953D01*
X99015476Y75582953D02*
X99634523Y75582953D01*
%TO.C,R9*%
X83314833Y75406120D02*
X82981500Y75882310D01*
X82743405Y75406120D02*
X82743405Y76406120D01*
X82743405Y76406120D02*
X83124357Y76406120D01*
X83124357Y76406120D02*
X83219595Y76358500D01*
X83219595Y76358500D02*
X83267214Y76310881D01*
X83267214Y76310881D02*
X83314833Y76215643D01*
X83314833Y76215643D02*
X83314833Y76072786D01*
X83314833Y76072786D02*
X83267214Y75977548D01*
X83267214Y75977548D02*
X83219595Y75929929D01*
X83219595Y75929929D02*
X83124357Y75882310D01*
X83124357Y75882310D02*
X82743405Y75882310D01*
X83791024Y75406120D02*
X83981500Y75406120D01*
X83981500Y75406120D02*
X84076738Y75453739D01*
X84076738Y75453739D02*
X84124357Y75501358D01*
X84124357Y75501358D02*
X84219595Y75644215D01*
X84219595Y75644215D02*
X84267214Y75834691D01*
X84267214Y75834691D02*
X84267214Y76215643D01*
X84267214Y76215643D02*
X84219595Y76310881D01*
X84219595Y76310881D02*
X84171976Y76358500D01*
X84171976Y76358500D02*
X84076738Y76406120D01*
X84076738Y76406120D02*
X83886262Y76406120D01*
X83886262Y76406120D02*
X83791024Y76358500D01*
X83791024Y76358500D02*
X83743405Y76310881D01*
X83743405Y76310881D02*
X83695786Y76215643D01*
X83695786Y76215643D02*
X83695786Y75977548D01*
X83695786Y75977548D02*
X83743405Y75882310D01*
X83743405Y75882310D02*
X83791024Y75834691D01*
X83791024Y75834691D02*
X83886262Y75787072D01*
X83886262Y75787072D02*
X84076738Y75787072D01*
X84076738Y75787072D02*
X84171976Y75834691D01*
X84171976Y75834691D02*
X84219595Y75882310D01*
X84219595Y75882310D02*
X84267214Y75977548D01*
%TO.C,R1*%
X34870833Y127702620D02*
X34537500Y128178810D01*
X34299405Y127702620D02*
X34299405Y128702620D01*
X34299405Y128702620D02*
X34680357Y128702620D01*
X34680357Y128702620D02*
X34775595Y128655000D01*
X34775595Y128655000D02*
X34823214Y128607381D01*
X34823214Y128607381D02*
X34870833Y128512143D01*
X34870833Y128512143D02*
X34870833Y128369286D01*
X34870833Y128369286D02*
X34823214Y128274048D01*
X34823214Y128274048D02*
X34775595Y128226429D01*
X34775595Y128226429D02*
X34680357Y128178810D01*
X34680357Y128178810D02*
X34299405Y128178810D01*
X35823214Y127702620D02*
X35251786Y127702620D01*
X35537500Y127702620D02*
X35537500Y128702620D01*
X35537500Y128702620D02*
X35442262Y128559762D01*
X35442262Y128559762D02*
X35347024Y128464524D01*
X35347024Y128464524D02*
X35251786Y128416905D01*
%TO.C,R8*%
X99833333Y82702620D02*
X99500000Y83178810D01*
X99261905Y82702620D02*
X99261905Y83702620D01*
X99261905Y83702620D02*
X99642857Y83702620D01*
X99642857Y83702620D02*
X99738095Y83655000D01*
X99738095Y83655000D02*
X99785714Y83607381D01*
X99785714Y83607381D02*
X99833333Y83512143D01*
X99833333Y83512143D02*
X99833333Y83369286D01*
X99833333Y83369286D02*
X99785714Y83274048D01*
X99785714Y83274048D02*
X99738095Y83226429D01*
X99738095Y83226429D02*
X99642857Y83178810D01*
X99642857Y83178810D02*
X99261905Y83178810D01*
X100404762Y83274048D02*
X100309524Y83321667D01*
X100309524Y83321667D02*
X100261905Y83369286D01*
X100261905Y83369286D02*
X100214286Y83464524D01*
X100214286Y83464524D02*
X100214286Y83512143D01*
X100214286Y83512143D02*
X100261905Y83607381D01*
X100261905Y83607381D02*
X100309524Y83655000D01*
X100309524Y83655000D02*
X100404762Y83702620D01*
X100404762Y83702620D02*
X100595238Y83702620D01*
X100595238Y83702620D02*
X100690476Y83655000D01*
X100690476Y83655000D02*
X100738095Y83607381D01*
X100738095Y83607381D02*
X100785714Y83512143D01*
X100785714Y83512143D02*
X100785714Y83464524D01*
X100785714Y83464524D02*
X100738095Y83369286D01*
X100738095Y83369286D02*
X100690476Y83321667D01*
X100690476Y83321667D02*
X100595238Y83274048D01*
X100595238Y83274048D02*
X100404762Y83274048D01*
X100404762Y83274048D02*
X100309524Y83226429D01*
X100309524Y83226429D02*
X100261905Y83178810D01*
X100261905Y83178810D02*
X100214286Y83083572D01*
X100214286Y83083572D02*
X100214286Y82893096D01*
X100214286Y82893096D02*
X100261905Y82797858D01*
X100261905Y82797858D02*
X100309524Y82750239D01*
X100309524Y82750239D02*
X100404762Y82702620D01*
X100404762Y82702620D02*
X100595238Y82702620D01*
X100595238Y82702620D02*
X100690476Y82750239D01*
X100690476Y82750239D02*
X100738095Y82797858D01*
X100738095Y82797858D02*
X100785714Y82893096D01*
X100785714Y82893096D02*
X100785714Y83083572D01*
X100785714Y83083572D02*
X100738095Y83178810D01*
X100738095Y83178810D02*
X100690476Y83226429D01*
X100690476Y83226429D02*
X100595238Y83274048D01*
%TO.C,D5*%
X73630905Y95406120D02*
X73630905Y96406120D01*
X73630905Y96406120D02*
X73869000Y96406120D01*
X73869000Y96406120D02*
X74011857Y96358500D01*
X74011857Y96358500D02*
X74107095Y96263262D01*
X74107095Y96263262D02*
X74154714Y96168024D01*
X74154714Y96168024D02*
X74202333Y95977548D01*
X74202333Y95977548D02*
X74202333Y95834691D01*
X74202333Y95834691D02*
X74154714Y95644215D01*
X74154714Y95644215D02*
X74107095Y95548977D01*
X74107095Y95548977D02*
X74011857Y95453739D01*
X74011857Y95453739D02*
X73869000Y95406120D01*
X73869000Y95406120D02*
X73630905Y95406120D01*
X75107095Y96406120D02*
X74630905Y96406120D01*
X74630905Y96406120D02*
X74583286Y95929929D01*
X74583286Y95929929D02*
X74630905Y95977548D01*
X74630905Y95977548D02*
X74726143Y96025167D01*
X74726143Y96025167D02*
X74964238Y96025167D01*
X74964238Y96025167D02*
X75059476Y95977548D01*
X75059476Y95977548D02*
X75107095Y95929929D01*
X75107095Y95929929D02*
X75154714Y95834691D01*
X75154714Y95834691D02*
X75154714Y95596596D01*
X75154714Y95596596D02*
X75107095Y95501358D01*
X75107095Y95501358D02*
X75059476Y95453739D01*
X75059476Y95453739D02*
X74964238Y95406120D01*
X74964238Y95406120D02*
X74726143Y95406120D01*
X74726143Y95406120D02*
X74630905Y95453739D01*
X74630905Y95453739D02*
X74583286Y95501358D01*
%TO.C,R11*%
X81832142Y64614620D02*
X81498809Y65090810D01*
X81260714Y64614620D02*
X81260714Y65614620D01*
X81260714Y65614620D02*
X81641666Y65614620D01*
X81641666Y65614620D02*
X81736904Y65567000D01*
X81736904Y65567000D02*
X81784523Y65519381D01*
X81784523Y65519381D02*
X81832142Y65424143D01*
X81832142Y65424143D02*
X81832142Y65281286D01*
X81832142Y65281286D02*
X81784523Y65186048D01*
X81784523Y65186048D02*
X81736904Y65138429D01*
X81736904Y65138429D02*
X81641666Y65090810D01*
X81641666Y65090810D02*
X81260714Y65090810D01*
X82784523Y64614620D02*
X82213095Y64614620D01*
X82498809Y64614620D02*
X82498809Y65614620D01*
X82498809Y65614620D02*
X82403571Y65471762D01*
X82403571Y65471762D02*
X82308333Y65376524D01*
X82308333Y65376524D02*
X82213095Y65328905D01*
X83736904Y64614620D02*
X83165476Y64614620D01*
X83451190Y64614620D02*
X83451190Y65614620D01*
X83451190Y65614620D02*
X83355952Y65471762D01*
X83355952Y65471762D02*
X83260714Y65376524D01*
X83260714Y65376524D02*
X83165476Y65328905D01*
%TO.C,D10*%
X78942214Y57546120D02*
X78942214Y58546120D01*
X78942214Y58546120D02*
X79180309Y58546120D01*
X79180309Y58546120D02*
X79323166Y58498500D01*
X79323166Y58498500D02*
X79418404Y58403262D01*
X79418404Y58403262D02*
X79466023Y58308024D01*
X79466023Y58308024D02*
X79513642Y58117548D01*
X79513642Y58117548D02*
X79513642Y57974691D01*
X79513642Y57974691D02*
X79466023Y57784215D01*
X79466023Y57784215D02*
X79418404Y57688977D01*
X79418404Y57688977D02*
X79323166Y57593739D01*
X79323166Y57593739D02*
X79180309Y57546120D01*
X79180309Y57546120D02*
X78942214Y57546120D01*
X80466023Y57546120D02*
X79894595Y57546120D01*
X80180309Y57546120D02*
X80180309Y58546120D01*
X80180309Y58546120D02*
X80085071Y58403262D01*
X80085071Y58403262D02*
X79989833Y58308024D01*
X79989833Y58308024D02*
X79894595Y58260405D01*
X81085071Y58546120D02*
X81180309Y58546120D01*
X81180309Y58546120D02*
X81275547Y58498500D01*
X81275547Y58498500D02*
X81323166Y58450881D01*
X81323166Y58450881D02*
X81370785Y58355643D01*
X81370785Y58355643D02*
X81418404Y58165167D01*
X81418404Y58165167D02*
X81418404Y57927072D01*
X81418404Y57927072D02*
X81370785Y57736596D01*
X81370785Y57736596D02*
X81323166Y57641358D01*
X81323166Y57641358D02*
X81275547Y57593739D01*
X81275547Y57593739D02*
X81180309Y57546120D01*
X81180309Y57546120D02*
X81085071Y57546120D01*
X81085071Y57546120D02*
X80989833Y57593739D01*
X80989833Y57593739D02*
X80942214Y57641358D01*
X80942214Y57641358D02*
X80894595Y57736596D01*
X80894595Y57736596D02*
X80846976Y57927072D01*
X80846976Y57927072D02*
X80846976Y58165167D01*
X80846976Y58165167D02*
X80894595Y58355643D01*
X80894595Y58355643D02*
X80942214Y58450881D01*
X80942214Y58450881D02*
X80989833Y58498500D01*
X80989833Y58498500D02*
X81085071Y58546120D01*
%TO.C,J2*%
X119833880Y129010167D02*
X120548166Y129010167D01*
X120548166Y129010167D02*
X120691023Y128962548D01*
X120691023Y128962548D02*
X120786261Y128867310D01*
X120786261Y128867310D02*
X120833880Y128724453D01*
X120833880Y128724453D02*
X120833880Y128629215D01*
X119929119Y129438739D02*
X119881500Y129486358D01*
X119881500Y129486358D02*
X119833880Y129581596D01*
X119833880Y129581596D02*
X119833880Y129819691D01*
X119833880Y129819691D02*
X119881500Y129914929D01*
X119881500Y129914929D02*
X119929119Y129962548D01*
X119929119Y129962548D02*
X120024357Y130010167D01*
X120024357Y130010167D02*
X120119595Y130010167D01*
X120119595Y130010167D02*
X120262452Y129962548D01*
X120262452Y129962548D02*
X120833880Y129391120D01*
X120833880Y129391120D02*
X120833880Y130010167D01*
%TO.C,C2*%
X91342142Y94333334D02*
X91389761Y94285715D01*
X91389761Y94285715D02*
X91437380Y94142858D01*
X91437380Y94142858D02*
X91437380Y94047620D01*
X91437380Y94047620D02*
X91389761Y93904763D01*
X91389761Y93904763D02*
X91294523Y93809525D01*
X91294523Y93809525D02*
X91199285Y93761906D01*
X91199285Y93761906D02*
X91008809Y93714287D01*
X91008809Y93714287D02*
X90865952Y93714287D01*
X90865952Y93714287D02*
X90675476Y93761906D01*
X90675476Y93761906D02*
X90580238Y93809525D01*
X90580238Y93809525D02*
X90485000Y93904763D01*
X90485000Y93904763D02*
X90437380Y94047620D01*
X90437380Y94047620D02*
X90437380Y94142858D01*
X90437380Y94142858D02*
X90485000Y94285715D01*
X90485000Y94285715D02*
X90532619Y94333334D01*
X90532619Y94714287D02*
X90485000Y94761906D01*
X90485000Y94761906D02*
X90437380Y94857144D01*
X90437380Y94857144D02*
X90437380Y95095239D01*
X90437380Y95095239D02*
X90485000Y95190477D01*
X90485000Y95190477D02*
X90532619Y95238096D01*
X90532619Y95238096D02*
X90627857Y95285715D01*
X90627857Y95285715D02*
X90723095Y95285715D01*
X90723095Y95285715D02*
X90865952Y95238096D01*
X90865952Y95238096D02*
X91437380Y94666668D01*
X91437380Y94666668D02*
X91437380Y95285715D01*
%TO.C,D1*%
X39261905Y130562620D02*
X39261905Y131562620D01*
X39261905Y131562620D02*
X39500000Y131562620D01*
X39500000Y131562620D02*
X39642857Y131515000D01*
X39642857Y131515000D02*
X39738095Y131419762D01*
X39738095Y131419762D02*
X39785714Y131324524D01*
X39785714Y131324524D02*
X39833333Y131134048D01*
X39833333Y131134048D02*
X39833333Y130991191D01*
X39833333Y130991191D02*
X39785714Y130800715D01*
X39785714Y130800715D02*
X39738095Y130705477D01*
X39738095Y130705477D02*
X39642857Y130610239D01*
X39642857Y130610239D02*
X39500000Y130562620D01*
X39500000Y130562620D02*
X39261905Y130562620D01*
X40785714Y130562620D02*
X40214286Y130562620D01*
X40500000Y130562620D02*
X40500000Y131562620D01*
X40500000Y131562620D02*
X40404762Y131419762D01*
X40404762Y131419762D02*
X40309524Y131324524D01*
X40309524Y131324524D02*
X40214286Y131276905D01*
%TO.C,R12*%
X81832142Y70249620D02*
X81498809Y70725810D01*
X81260714Y70249620D02*
X81260714Y71249620D01*
X81260714Y71249620D02*
X81641666Y71249620D01*
X81641666Y71249620D02*
X81736904Y71202000D01*
X81736904Y71202000D02*
X81784523Y71154381D01*
X81784523Y71154381D02*
X81832142Y71059143D01*
X81832142Y71059143D02*
X81832142Y70916286D01*
X81832142Y70916286D02*
X81784523Y70821048D01*
X81784523Y70821048D02*
X81736904Y70773429D01*
X81736904Y70773429D02*
X81641666Y70725810D01*
X81641666Y70725810D02*
X81260714Y70725810D01*
X82784523Y70249620D02*
X82213095Y70249620D01*
X82498809Y70249620D02*
X82498809Y71249620D01*
X82498809Y71249620D02*
X82403571Y71106762D01*
X82403571Y71106762D02*
X82308333Y71011524D01*
X82308333Y71011524D02*
X82213095Y70963905D01*
X83165476Y71154381D02*
X83213095Y71202000D01*
X83213095Y71202000D02*
X83308333Y71249620D01*
X83308333Y71249620D02*
X83546428Y71249620D01*
X83546428Y71249620D02*
X83641666Y71202000D01*
X83641666Y71202000D02*
X83689285Y71154381D01*
X83689285Y71154381D02*
X83736904Y71059143D01*
X83736904Y71059143D02*
X83736904Y70963905D01*
X83736904Y70963905D02*
X83689285Y70821048D01*
X83689285Y70821048D02*
X83117857Y70249620D01*
X83117857Y70249620D02*
X83736904Y70249620D01*
%TO.C,R10*%
X84513642Y60406120D02*
X84180309Y60882310D01*
X83942214Y60406120D02*
X83942214Y61406120D01*
X83942214Y61406120D02*
X84323166Y61406120D01*
X84323166Y61406120D02*
X84418404Y61358500D01*
X84418404Y61358500D02*
X84466023Y61310881D01*
X84466023Y61310881D02*
X84513642Y61215643D01*
X84513642Y61215643D02*
X84513642Y61072786D01*
X84513642Y61072786D02*
X84466023Y60977548D01*
X84466023Y60977548D02*
X84418404Y60929929D01*
X84418404Y60929929D02*
X84323166Y60882310D01*
X84323166Y60882310D02*
X83942214Y60882310D01*
X85466023Y60406120D02*
X84894595Y60406120D01*
X85180309Y60406120D02*
X85180309Y61406120D01*
X85180309Y61406120D02*
X85085071Y61263262D01*
X85085071Y61263262D02*
X84989833Y61168024D01*
X84989833Y61168024D02*
X84894595Y61120405D01*
X86085071Y61406120D02*
X86180309Y61406120D01*
X86180309Y61406120D02*
X86275547Y61358500D01*
X86275547Y61358500D02*
X86323166Y61310881D01*
X86323166Y61310881D02*
X86370785Y61215643D01*
X86370785Y61215643D02*
X86418404Y61025167D01*
X86418404Y61025167D02*
X86418404Y60787072D01*
X86418404Y60787072D02*
X86370785Y60596596D01*
X86370785Y60596596D02*
X86323166Y60501358D01*
X86323166Y60501358D02*
X86275547Y60453739D01*
X86275547Y60453739D02*
X86180309Y60406120D01*
X86180309Y60406120D02*
X86085071Y60406120D01*
X86085071Y60406120D02*
X85989833Y60453739D01*
X85989833Y60453739D02*
X85942214Y60501358D01*
X85942214Y60501358D02*
X85894595Y60596596D01*
X85894595Y60596596D02*
X85846976Y60787072D01*
X85846976Y60787072D02*
X85846976Y61025167D01*
X85846976Y61025167D02*
X85894595Y61215643D01*
X85894595Y61215643D02*
X85942214Y61310881D01*
X85942214Y61310881D02*
X85989833Y61358500D01*
X85989833Y61358500D02*
X86085071Y61406120D01*
%TO.C,J3*%
X12323166Y39666120D02*
X12323166Y38951834D01*
X12323166Y38951834D02*
X12275547Y38808977D01*
X12275547Y38808977D02*
X12180309Y38713739D01*
X12180309Y38713739D02*
X12037452Y38666120D01*
X12037452Y38666120D02*
X11942214Y38666120D01*
X12704119Y39666120D02*
X13323166Y39666120D01*
X13323166Y39666120D02*
X12989833Y39285167D01*
X12989833Y39285167D02*
X13132690Y39285167D01*
X13132690Y39285167D02*
X13227928Y39237548D01*
X13227928Y39237548D02*
X13275547Y39189929D01*
X13275547Y39189929D02*
X13323166Y39094691D01*
X13323166Y39094691D02*
X13323166Y38856596D01*
X13323166Y38856596D02*
X13275547Y38761358D01*
X13275547Y38761358D02*
X13227928Y38713739D01*
X13227928Y38713739D02*
X13132690Y38666120D01*
X13132690Y38666120D02*
X12846976Y38666120D01*
X12846976Y38666120D02*
X12751738Y38713739D01*
X12751738Y38713739D02*
X12704119Y38761358D01*
%TO.C,C6*%
X91317142Y70885334D02*
X91364761Y70837715D01*
X91364761Y70837715D02*
X91412380Y70694858D01*
X91412380Y70694858D02*
X91412380Y70599620D01*
X91412380Y70599620D02*
X91364761Y70456763D01*
X91364761Y70456763D02*
X91269523Y70361525D01*
X91269523Y70361525D02*
X91174285Y70313906D01*
X91174285Y70313906D02*
X90983809Y70266287D01*
X90983809Y70266287D02*
X90840952Y70266287D01*
X90840952Y70266287D02*
X90650476Y70313906D01*
X90650476Y70313906D02*
X90555238Y70361525D01*
X90555238Y70361525D02*
X90460000Y70456763D01*
X90460000Y70456763D02*
X90412380Y70599620D01*
X90412380Y70599620D02*
X90412380Y70694858D01*
X90412380Y70694858D02*
X90460000Y70837715D01*
X90460000Y70837715D02*
X90507619Y70885334D01*
X90412380Y71742477D02*
X90412380Y71552001D01*
X90412380Y71552001D02*
X90460000Y71456763D01*
X90460000Y71456763D02*
X90507619Y71409144D01*
X90507619Y71409144D02*
X90650476Y71313906D01*
X90650476Y71313906D02*
X90840952Y71266287D01*
X90840952Y71266287D02*
X91221904Y71266287D01*
X91221904Y71266287D02*
X91317142Y71313906D01*
X91317142Y71313906D02*
X91364761Y71361525D01*
X91364761Y71361525D02*
X91412380Y71456763D01*
X91412380Y71456763D02*
X91412380Y71647239D01*
X91412380Y71647239D02*
X91364761Y71742477D01*
X91364761Y71742477D02*
X91317142Y71790096D01*
X91317142Y71790096D02*
X91221904Y71837715D01*
X91221904Y71837715D02*
X90983809Y71837715D01*
X90983809Y71837715D02*
X90888571Y71790096D01*
X90888571Y71790096D02*
X90840952Y71742477D01*
X90840952Y71742477D02*
X90793333Y71647239D01*
X90793333Y71647239D02*
X90793333Y71456763D01*
X90793333Y71456763D02*
X90840952Y71361525D01*
X90840952Y71361525D02*
X90888571Y71313906D01*
X90888571Y71313906D02*
X90983809Y71266287D01*
%TO.C,J1*%
X109666666Y49469620D02*
X109666666Y48755334D01*
X109666666Y48755334D02*
X109619047Y48612477D01*
X109619047Y48612477D02*
X109523809Y48517239D01*
X109523809Y48517239D02*
X109380952Y48469620D01*
X109380952Y48469620D02*
X109285714Y48469620D01*
X110666666Y48469620D02*
X110095238Y48469620D01*
X110380952Y48469620D02*
X110380952Y49469620D01*
X110380952Y49469620D02*
X110285714Y49326762D01*
X110285714Y49326762D02*
X110190476Y49231524D01*
X110190476Y49231524D02*
X110095238Y49183905D01*
%TO.C,D9*%
X76918405Y72546120D02*
X76918405Y73546120D01*
X76918405Y73546120D02*
X77156500Y73546120D01*
X77156500Y73546120D02*
X77299357Y73498500D01*
X77299357Y73498500D02*
X77394595Y73403262D01*
X77394595Y73403262D02*
X77442214Y73308024D01*
X77442214Y73308024D02*
X77489833Y73117548D01*
X77489833Y73117548D02*
X77489833Y72974691D01*
X77489833Y72974691D02*
X77442214Y72784215D01*
X77442214Y72784215D02*
X77394595Y72688977D01*
X77394595Y72688977D02*
X77299357Y72593739D01*
X77299357Y72593739D02*
X77156500Y72546120D01*
X77156500Y72546120D02*
X76918405Y72546120D01*
X77966024Y72546120D02*
X78156500Y72546120D01*
X78156500Y72546120D02*
X78251738Y72593739D01*
X78251738Y72593739D02*
X78299357Y72641358D01*
X78299357Y72641358D02*
X78394595Y72784215D01*
X78394595Y72784215D02*
X78442214Y72974691D01*
X78442214Y72974691D02*
X78442214Y73355643D01*
X78442214Y73355643D02*
X78394595Y73450881D01*
X78394595Y73450881D02*
X78346976Y73498500D01*
X78346976Y73498500D02*
X78251738Y73546120D01*
X78251738Y73546120D02*
X78061262Y73546120D01*
X78061262Y73546120D02*
X77966024Y73498500D01*
X77966024Y73498500D02*
X77918405Y73450881D01*
X77918405Y73450881D02*
X77870786Y73355643D01*
X77870786Y73355643D02*
X77870786Y73117548D01*
X77870786Y73117548D02*
X77918405Y73022310D01*
X77918405Y73022310D02*
X77966024Y72974691D01*
X77966024Y72974691D02*
X78061262Y72927072D01*
X78061262Y72927072D02*
X78251738Y72927072D01*
X78251738Y72927072D02*
X78346976Y72974691D01*
X78346976Y72974691D02*
X78394595Y73022310D01*
X78394595Y73022310D02*
X78442214Y73117548D01*
%TO.C,D4*%
X4418405Y51476120D02*
X4418405Y52476120D01*
X4418405Y52476120D02*
X4656500Y52476120D01*
X4656500Y52476120D02*
X4799357Y52428500D01*
X4799357Y52428500D02*
X4894595Y52333262D01*
X4894595Y52333262D02*
X4942214Y52238024D01*
X4942214Y52238024D02*
X4989833Y52047548D01*
X4989833Y52047548D02*
X4989833Y51904691D01*
X4989833Y51904691D02*
X4942214Y51714215D01*
X4942214Y51714215D02*
X4894595Y51618977D01*
X4894595Y51618977D02*
X4799357Y51523739D01*
X4799357Y51523739D02*
X4656500Y51476120D01*
X4656500Y51476120D02*
X4418405Y51476120D01*
X5846976Y52142786D02*
X5846976Y51476120D01*
X5608881Y52523739D02*
X5370786Y51809453D01*
X5370786Y51809453D02*
X5989833Y51809453D01*
%TO.C,R7*%
X102358333Y88024620D02*
X102025000Y88500810D01*
X101786905Y88024620D02*
X101786905Y89024620D01*
X101786905Y89024620D02*
X102167857Y89024620D01*
X102167857Y89024620D02*
X102263095Y88977000D01*
X102263095Y88977000D02*
X102310714Y88929381D01*
X102310714Y88929381D02*
X102358333Y88834143D01*
X102358333Y88834143D02*
X102358333Y88691286D01*
X102358333Y88691286D02*
X102310714Y88596048D01*
X102310714Y88596048D02*
X102263095Y88548429D01*
X102263095Y88548429D02*
X102167857Y88500810D01*
X102167857Y88500810D02*
X101786905Y88500810D01*
X102691667Y89024620D02*
X103358333Y89024620D01*
X103358333Y89024620D02*
X102929762Y88024620D01*
%TO.C,D2*%
X8937380Y132136906D02*
X7937380Y132136906D01*
X7937380Y132136906D02*
X7937380Y132375001D01*
X7937380Y132375001D02*
X7985000Y132517858D01*
X7985000Y132517858D02*
X8080238Y132613096D01*
X8080238Y132613096D02*
X8175476Y132660715D01*
X8175476Y132660715D02*
X8365952Y132708334D01*
X8365952Y132708334D02*
X8508809Y132708334D01*
X8508809Y132708334D02*
X8699285Y132660715D01*
X8699285Y132660715D02*
X8794523Y132613096D01*
X8794523Y132613096D02*
X8889761Y132517858D01*
X8889761Y132517858D02*
X8937380Y132375001D01*
X8937380Y132375001D02*
X8937380Y132136906D01*
X8032619Y133089287D02*
X7985000Y133136906D01*
X7985000Y133136906D02*
X7937380Y133232144D01*
X7937380Y133232144D02*
X7937380Y133470239D01*
X7937380Y133470239D02*
X7985000Y133565477D01*
X7985000Y133565477D02*
X8032619Y133613096D01*
X8032619Y133613096D02*
X8127857Y133660715D01*
X8127857Y133660715D02*
X8223095Y133660715D01*
X8223095Y133660715D02*
X8365952Y133613096D01*
X8365952Y133613096D02*
X8937380Y133041668D01*
X8937380Y133041668D02*
X8937380Y133660715D01*
%TO.C,R2*%
X11797380Y128508334D02*
X11321190Y128175001D01*
X11797380Y127936906D02*
X10797380Y127936906D01*
X10797380Y127936906D02*
X10797380Y128317858D01*
X10797380Y128317858D02*
X10845000Y128413096D01*
X10845000Y128413096D02*
X10892619Y128460715D01*
X10892619Y128460715D02*
X10987857Y128508334D01*
X10987857Y128508334D02*
X11130714Y128508334D01*
X11130714Y128508334D02*
X11225952Y128460715D01*
X11225952Y128460715D02*
X11273571Y128413096D01*
X11273571Y128413096D02*
X11321190Y128317858D01*
X11321190Y128317858D02*
X11321190Y127936906D01*
X10892619Y128889287D02*
X10845000Y128936906D01*
X10845000Y128936906D02*
X10797380Y129032144D01*
X10797380Y129032144D02*
X10797380Y129270239D01*
X10797380Y129270239D02*
X10845000Y129365477D01*
X10845000Y129365477D02*
X10892619Y129413096D01*
X10892619Y129413096D02*
X10987857Y129460715D01*
X10987857Y129460715D02*
X11083095Y129460715D01*
X11083095Y129460715D02*
X11225952Y129413096D01*
X11225952Y129413096D02*
X11797380Y128841668D01*
X11797380Y128841668D02*
X11797380Y129460715D01*
%TO.C,C4*%
X84227142Y79655334D02*
X84274761Y79607715D01*
X84274761Y79607715D02*
X84322380Y79464858D01*
X84322380Y79464858D02*
X84322380Y79369620D01*
X84322380Y79369620D02*
X84274761Y79226763D01*
X84274761Y79226763D02*
X84179523Y79131525D01*
X84179523Y79131525D02*
X84084285Y79083906D01*
X84084285Y79083906D02*
X83893809Y79036287D01*
X83893809Y79036287D02*
X83750952Y79036287D01*
X83750952Y79036287D02*
X83560476Y79083906D01*
X83560476Y79083906D02*
X83465238Y79131525D01*
X83465238Y79131525D02*
X83370000Y79226763D01*
X83370000Y79226763D02*
X83322380Y79369620D01*
X83322380Y79369620D02*
X83322380Y79464858D01*
X83322380Y79464858D02*
X83370000Y79607715D01*
X83370000Y79607715D02*
X83417619Y79655334D01*
X83655714Y80512477D02*
X84322380Y80512477D01*
X83274761Y80274382D02*
X83989047Y80036287D01*
X83989047Y80036287D02*
X83989047Y80655334D01*
%TO.C,U4*%
X88443095Y68151620D02*
X88443095Y67342096D01*
X88443095Y67342096D02*
X88490714Y67246858D01*
X88490714Y67246858D02*
X88538333Y67199239D01*
X88538333Y67199239D02*
X88633571Y67151620D01*
X88633571Y67151620D02*
X88824047Y67151620D01*
X88824047Y67151620D02*
X88919285Y67199239D01*
X88919285Y67199239D02*
X88966904Y67246858D01*
X88966904Y67246858D02*
X89014523Y67342096D01*
X89014523Y67342096D02*
X89014523Y68151620D01*
X89919285Y67818286D02*
X89919285Y67151620D01*
X89681190Y68199239D02*
X89443095Y67484953D01*
X89443095Y67484953D02*
X90062142Y67484953D01*
%TO.C,R17*%
X106772380Y60409143D02*
X106296190Y60075810D01*
X106772380Y59837715D02*
X105772380Y59837715D01*
X105772380Y59837715D02*
X105772380Y60218667D01*
X105772380Y60218667D02*
X105820000Y60313905D01*
X105820000Y60313905D02*
X105867619Y60361524D01*
X105867619Y60361524D02*
X105962857Y60409143D01*
X105962857Y60409143D02*
X106105714Y60409143D01*
X106105714Y60409143D02*
X106200952Y60361524D01*
X106200952Y60361524D02*
X106248571Y60313905D01*
X106248571Y60313905D02*
X106296190Y60218667D01*
X106296190Y60218667D02*
X106296190Y59837715D01*
X106772380Y61361524D02*
X106772380Y60790096D01*
X106772380Y61075810D02*
X105772380Y61075810D01*
X105772380Y61075810D02*
X105915238Y60980572D01*
X105915238Y60980572D02*
X106010476Y60885334D01*
X106010476Y60885334D02*
X106058095Y60790096D01*
X105772380Y61694858D02*
X105772380Y62361524D01*
X105772380Y62361524D02*
X106772380Y61932953D01*
%TO.C,R5*%
X74989833Y87546120D02*
X74656500Y88022310D01*
X74418405Y87546120D02*
X74418405Y88546120D01*
X74418405Y88546120D02*
X74799357Y88546120D01*
X74799357Y88546120D02*
X74894595Y88498500D01*
X74894595Y88498500D02*
X74942214Y88450881D01*
X74942214Y88450881D02*
X74989833Y88355643D01*
X74989833Y88355643D02*
X74989833Y88212786D01*
X74989833Y88212786D02*
X74942214Y88117548D01*
X74942214Y88117548D02*
X74894595Y88069929D01*
X74894595Y88069929D02*
X74799357Y88022310D01*
X74799357Y88022310D02*
X74418405Y88022310D01*
X75894595Y88546120D02*
X75418405Y88546120D01*
X75418405Y88546120D02*
X75370786Y88069929D01*
X75370786Y88069929D02*
X75418405Y88117548D01*
X75418405Y88117548D02*
X75513643Y88165167D01*
X75513643Y88165167D02*
X75751738Y88165167D01*
X75751738Y88165167D02*
X75846976Y88117548D01*
X75846976Y88117548D02*
X75894595Y88069929D01*
X75894595Y88069929D02*
X75942214Y87974691D01*
X75942214Y87974691D02*
X75942214Y87736596D01*
X75942214Y87736596D02*
X75894595Y87641358D01*
X75894595Y87641358D02*
X75846976Y87593739D01*
X75846976Y87593739D02*
X75751738Y87546120D01*
X75751738Y87546120D02*
X75513643Y87546120D01*
X75513643Y87546120D02*
X75418405Y87593739D01*
X75418405Y87593739D02*
X75370786Y87641358D01*
%TO.C,R16*%
X97657142Y66754620D02*
X97323809Y67230810D01*
X97085714Y66754620D02*
X97085714Y67754620D01*
X97085714Y67754620D02*
X97466666Y67754620D01*
X97466666Y67754620D02*
X97561904Y67707000D01*
X97561904Y67707000D02*
X97609523Y67659381D01*
X97609523Y67659381D02*
X97657142Y67564143D01*
X97657142Y67564143D02*
X97657142Y67421286D01*
X97657142Y67421286D02*
X97609523Y67326048D01*
X97609523Y67326048D02*
X97561904Y67278429D01*
X97561904Y67278429D02*
X97466666Y67230810D01*
X97466666Y67230810D02*
X97085714Y67230810D01*
X98609523Y66754620D02*
X98038095Y66754620D01*
X98323809Y66754620D02*
X98323809Y67754620D01*
X98323809Y67754620D02*
X98228571Y67611762D01*
X98228571Y67611762D02*
X98133333Y67516524D01*
X98133333Y67516524D02*
X98038095Y67468905D01*
X99466666Y67754620D02*
X99276190Y67754620D01*
X99276190Y67754620D02*
X99180952Y67707000D01*
X99180952Y67707000D02*
X99133333Y67659381D01*
X99133333Y67659381D02*
X99038095Y67516524D01*
X99038095Y67516524D02*
X98990476Y67326048D01*
X98990476Y67326048D02*
X98990476Y66945096D01*
X98990476Y66945096D02*
X99038095Y66849858D01*
X99038095Y66849858D02*
X99085714Y66802239D01*
X99085714Y66802239D02*
X99180952Y66754620D01*
X99180952Y66754620D02*
X99371428Y66754620D01*
X99371428Y66754620D02*
X99466666Y66802239D01*
X99466666Y66802239D02*
X99514285Y66849858D01*
X99514285Y66849858D02*
X99561904Y66945096D01*
X99561904Y66945096D02*
X99561904Y67183191D01*
X99561904Y67183191D02*
X99514285Y67278429D01*
X99514285Y67278429D02*
X99466666Y67326048D01*
X99466666Y67326048D02*
X99371428Y67373667D01*
X99371428Y67373667D02*
X99180952Y67373667D01*
X99180952Y67373667D02*
X99085714Y67326048D01*
X99085714Y67326048D02*
X99038095Y67278429D01*
X99038095Y67278429D02*
X98990476Y67183191D01*
%TO.C,R15*%
X98532142Y57749620D02*
X98198809Y58225810D01*
X97960714Y57749620D02*
X97960714Y58749620D01*
X97960714Y58749620D02*
X98341666Y58749620D01*
X98341666Y58749620D02*
X98436904Y58702000D01*
X98436904Y58702000D02*
X98484523Y58654381D01*
X98484523Y58654381D02*
X98532142Y58559143D01*
X98532142Y58559143D02*
X98532142Y58416286D01*
X98532142Y58416286D02*
X98484523Y58321048D01*
X98484523Y58321048D02*
X98436904Y58273429D01*
X98436904Y58273429D02*
X98341666Y58225810D01*
X98341666Y58225810D02*
X97960714Y58225810D01*
X99484523Y57749620D02*
X98913095Y57749620D01*
X99198809Y57749620D02*
X99198809Y58749620D01*
X99198809Y58749620D02*
X99103571Y58606762D01*
X99103571Y58606762D02*
X99008333Y58511524D01*
X99008333Y58511524D02*
X98913095Y58463905D01*
X100389285Y58749620D02*
X99913095Y58749620D01*
X99913095Y58749620D02*
X99865476Y58273429D01*
X99865476Y58273429D02*
X99913095Y58321048D01*
X99913095Y58321048D02*
X100008333Y58368667D01*
X100008333Y58368667D02*
X100246428Y58368667D01*
X100246428Y58368667D02*
X100341666Y58321048D01*
X100341666Y58321048D02*
X100389285Y58273429D01*
X100389285Y58273429D02*
X100436904Y58178191D01*
X100436904Y58178191D02*
X100436904Y57940096D01*
X100436904Y57940096D02*
X100389285Y57844858D01*
X100389285Y57844858D02*
X100341666Y57797239D01*
X100341666Y57797239D02*
X100246428Y57749620D01*
X100246428Y57749620D02*
X100008333Y57749620D01*
X100008333Y57749620D02*
X99913095Y57797239D01*
X99913095Y57797239D02*
X99865476Y57844858D01*
%TO.C,C3*%
X84227142Y84655334D02*
X84274761Y84607715D01*
X84274761Y84607715D02*
X84322380Y84464858D01*
X84322380Y84464858D02*
X84322380Y84369620D01*
X84322380Y84369620D02*
X84274761Y84226763D01*
X84274761Y84226763D02*
X84179523Y84131525D01*
X84179523Y84131525D02*
X84084285Y84083906D01*
X84084285Y84083906D02*
X83893809Y84036287D01*
X83893809Y84036287D02*
X83750952Y84036287D01*
X83750952Y84036287D02*
X83560476Y84083906D01*
X83560476Y84083906D02*
X83465238Y84131525D01*
X83465238Y84131525D02*
X83370000Y84226763D01*
X83370000Y84226763D02*
X83322380Y84369620D01*
X83322380Y84369620D02*
X83322380Y84464858D01*
X83322380Y84464858D02*
X83370000Y84607715D01*
X83370000Y84607715D02*
X83417619Y84655334D01*
X83322380Y84988668D02*
X83322380Y85607715D01*
X83322380Y85607715D02*
X83703333Y85274382D01*
X83703333Y85274382D02*
X83703333Y85417239D01*
X83703333Y85417239D02*
X83750952Y85512477D01*
X83750952Y85512477D02*
X83798571Y85560096D01*
X83798571Y85560096D02*
X83893809Y85607715D01*
X83893809Y85607715D02*
X84131904Y85607715D01*
X84131904Y85607715D02*
X84227142Y85560096D01*
X84227142Y85560096D02*
X84274761Y85512477D01*
X84274761Y85512477D02*
X84322380Y85417239D01*
X84322380Y85417239D02*
X84322380Y85131525D01*
X84322380Y85131525D02*
X84274761Y85036287D01*
X84274761Y85036287D02*
X84227142Y84988668D01*
%TO.C,J13*%
X75440476Y127332620D02*
X75440476Y126618334D01*
X75440476Y126618334D02*
X75392857Y126475477D01*
X75392857Y126475477D02*
X75297619Y126380239D01*
X75297619Y126380239D02*
X75154762Y126332620D01*
X75154762Y126332620D02*
X75059524Y126332620D01*
X76440476Y126332620D02*
X75869048Y126332620D01*
X76154762Y126332620D02*
X76154762Y127332620D01*
X76154762Y127332620D02*
X76059524Y127189762D01*
X76059524Y127189762D02*
X75964286Y127094524D01*
X75964286Y127094524D02*
X75869048Y127046905D01*
X76773810Y127332620D02*
X77392857Y127332620D01*
X77392857Y127332620D02*
X77059524Y126951667D01*
X77059524Y126951667D02*
X77202381Y126951667D01*
X77202381Y126951667D02*
X77297619Y126904048D01*
X77297619Y126904048D02*
X77345238Y126856429D01*
X77345238Y126856429D02*
X77392857Y126761191D01*
X77392857Y126761191D02*
X77392857Y126523096D01*
X77392857Y126523096D02*
X77345238Y126427858D01*
X77345238Y126427858D02*
X77297619Y126380239D01*
X77297619Y126380239D02*
X77202381Y126332620D01*
X77202381Y126332620D02*
X76916667Y126332620D01*
X76916667Y126332620D02*
X76821429Y126380239D01*
X76821429Y126380239D02*
X76773810Y126427858D01*
%TO.C,A3*%
X71774166Y9649215D02*
X71774166Y10125405D01*
X72059880Y9553977D02*
X71059880Y9887310D01*
X71059880Y9887310D02*
X72059880Y10220643D01*
X71059880Y10458739D02*
X71059880Y11077786D01*
X71059880Y11077786D02*
X71440833Y10744453D01*
X71440833Y10744453D02*
X71440833Y10887310D01*
X71440833Y10887310D02*
X71488452Y10982548D01*
X71488452Y10982548D02*
X71536071Y11030167D01*
X71536071Y11030167D02*
X71631309Y11077786D01*
X71631309Y11077786D02*
X71869404Y11077786D01*
X71869404Y11077786D02*
X71964642Y11030167D01*
X71964642Y11030167D02*
X72012261Y10982548D01*
X72012261Y10982548D02*
X72059880Y10887310D01*
X72059880Y10887310D02*
X72059880Y10601596D01*
X72059880Y10601596D02*
X72012261Y10506358D01*
X72012261Y10506358D02*
X71964642Y10458739D01*
X49612642Y70307500D02*
X49660261Y70259881D01*
X49660261Y70259881D02*
X49707880Y70307500D01*
X49707880Y70307500D02*
X49660261Y70355119D01*
X49660261Y70355119D02*
X49612642Y70307500D01*
X49612642Y70307500D02*
X49707880Y70307500D01*
X65864119Y72061595D02*
X66864119Y72061595D01*
X66864119Y72061595D02*
X66864119Y71823500D01*
X66864119Y71823500D02*
X66816500Y71680643D01*
X66816500Y71680643D02*
X66721261Y71585405D01*
X66721261Y71585405D02*
X66626023Y71537786D01*
X66626023Y71537786D02*
X66435547Y71490167D01*
X66435547Y71490167D02*
X66292690Y71490167D01*
X66292690Y71490167D02*
X66102214Y71537786D01*
X66102214Y71537786D02*
X66006976Y71585405D01*
X66006976Y71585405D02*
X65911738Y71680643D01*
X65911738Y71680643D02*
X65864119Y71823500D01*
X65864119Y71823500D02*
X65864119Y72061595D01*
X66864119Y70871119D02*
X66864119Y70775881D01*
X66864119Y70775881D02*
X66816500Y70680643D01*
X66816500Y70680643D02*
X66768880Y70633024D01*
X66768880Y70633024D02*
X66673642Y70585405D01*
X66673642Y70585405D02*
X66483166Y70537786D01*
X66483166Y70537786D02*
X66245071Y70537786D01*
X66245071Y70537786D02*
X66054595Y70585405D01*
X66054595Y70585405D02*
X65959357Y70633024D01*
X65959357Y70633024D02*
X65911738Y70680643D01*
X65911738Y70680643D02*
X65864119Y70775881D01*
X65864119Y70775881D02*
X65864119Y70871119D01*
X65864119Y70871119D02*
X65911738Y70966357D01*
X65911738Y70966357D02*
X65959357Y71013976D01*
X65959357Y71013976D02*
X66054595Y71061595D01*
X66054595Y71061595D02*
X66245071Y71109214D01*
X66245071Y71109214D02*
X66483166Y71109214D01*
X66483166Y71109214D02*
X66673642Y71061595D01*
X66673642Y71061595D02*
X66768880Y71013976D01*
X66768880Y71013976D02*
X66816500Y70966357D01*
X66816500Y70966357D02*
X66864119Y70871119D01*
D12*
%TO.C,J19*%
X22910000Y129610000D02*
X22910000Y132110000D01*
X22910000Y132110000D02*
X20410000Y132110000D01*
X22610000Y127790000D02*
X22610000Y131810000D01*
X22610000Y129500000D02*
X22110000Y129500000D01*
X22610000Y130310000D02*
X21610000Y130310000D01*
X22610000Y131810000D02*
X14890000Y131810000D01*
X22110000Y128290000D02*
X15390000Y128290000D01*
X22110000Y129500000D02*
X22110000Y128290000D01*
X21610000Y130310000D02*
X21610000Y131810000D01*
X15890000Y130310000D02*
X15890000Y131810000D01*
X15390000Y128290000D02*
X15390000Y129500000D01*
X15390000Y129500000D02*
X14890000Y129500000D01*
X14890000Y127790000D02*
X22610000Y127790000D01*
X14890000Y130310000D02*
X15890000Y130310000D01*
X14890000Y131810000D02*
X14890000Y127790000D01*
%TO.C,U2*%
X49840000Y132770000D02*
X49840000Y128129000D01*
X49840000Y132770000D02*
X60080000Y132770000D01*
X49840000Y131260000D02*
X60080000Y131260000D01*
X49840000Y128129000D02*
X60080000Y128129000D01*
X53110000Y132770000D02*
X53110000Y131260000D01*
X56811000Y132770000D02*
X56811000Y131260000D01*
X60080000Y132770000D02*
X60080000Y128129000D01*
%TO.C,R13*%
X99387258Y63664500D02*
X98912742Y63664500D01*
X99387258Y64709500D02*
X98912742Y64709500D01*
%TO.C,J12*%
X102910000Y129610000D02*
X102910000Y132110000D01*
X102910000Y132110000D02*
X100410000Y132110000D01*
X102610000Y127790000D02*
X102610000Y131810000D01*
X102610000Y129500000D02*
X102110000Y129500000D01*
X102610000Y130310000D02*
X101610000Y130310000D01*
X102610000Y131810000D02*
X89890000Y131810000D01*
X102110000Y128290000D02*
X90390000Y128290000D01*
X102110000Y129500000D02*
X102110000Y128290000D01*
X101610000Y130310000D02*
X101610000Y131810000D01*
X90890000Y130310000D02*
X90890000Y131810000D01*
X90390000Y128290000D02*
X90390000Y129500000D01*
X90390000Y129500000D02*
X89890000Y129500000D01*
X89890000Y127790000D02*
X102610000Y127790000D01*
X89890000Y130310000D02*
X90890000Y130310000D01*
X89890000Y131810000D02*
X89890000Y127790000D01*
%TO.C,D7*%
X35035000Y131265000D02*
X35035000Y132735000D01*
X35035000Y132735000D02*
X32575000Y132735000D01*
X32575000Y131265000D02*
X35035000Y131265000D01*
%TO.C,R6*%
X90393758Y98821000D02*
X89919242Y98821000D01*
X90393758Y99866000D02*
X89919242Y99866000D01*
%TO.C,D6*%
X94371500Y100078500D02*
X94371500Y98608500D01*
X94371500Y98608500D02*
X96831500Y98608500D01*
X96831500Y100078500D02*
X94371500Y100078500D01*
%TO.C,C5*%
X82015000Y89681420D02*
X82015000Y89962580D01*
X83035000Y89681420D02*
X83035000Y89962580D01*
%TO.C,D3*%
X80785000Y45952000D02*
X80785000Y47422000D01*
X80785000Y47422000D02*
X78325000Y47422000D01*
X78325000Y45952000D02*
X80785000Y45952000D01*
%TO.C,R4*%
X12401776Y52366000D02*
X12911224Y52366000D01*
X12401776Y51321000D02*
X12911224Y51321000D01*
%TO.C,C1*%
X83035000Y94962580D02*
X83035000Y94681420D01*
X82015000Y94962580D02*
X82015000Y94681420D01*
%TO.C,U3*%
X90000000Y91747000D02*
X86550000Y91747000D01*
X90000000Y91747000D02*
X91950000Y91747000D01*
X90000000Y81627000D02*
X88050000Y81627000D01*
X90000000Y81627000D02*
X91950000Y81627000D01*
%TO.C,D11*%
X78960000Y62817000D02*
X78960000Y64287000D01*
X78960000Y64287000D02*
X76675000Y64287000D01*
X76675000Y62817000D02*
X78960000Y62817000D01*
%TO.C,R3*%
X84745276Y47209500D02*
X85254724Y47209500D01*
X84745276Y46164500D02*
X85254724Y46164500D01*
%TO.C,R14*%
X98087742Y74709500D02*
X98562258Y74709500D01*
X98087742Y73664500D02*
X98562258Y73664500D01*
%TO.C,R9*%
X83244242Y74866000D02*
X83718758Y74866000D01*
X83244242Y73821000D02*
X83718758Y73821000D01*
%TO.C,R1*%
X35292224Y128977500D02*
X34782776Y128977500D01*
X35292224Y130022500D02*
X34782776Y130022500D01*
%TO.C,R8*%
X100237258Y83977500D02*
X99762742Y83977500D01*
X100237258Y85022500D02*
X99762742Y85022500D01*
%TO.C,D5*%
X72884000Y95078500D02*
X72884000Y93608500D01*
X72884000Y93608500D02*
X75169000Y93608500D01*
X75169000Y95078500D02*
X72884000Y95078500D01*
%TO.C,R11*%
X82237742Y64074500D02*
X82712258Y64074500D01*
X82237742Y63029500D02*
X82712258Y63029500D01*
%TO.C,D10*%
X81641500Y58608500D02*
X81641500Y60078500D01*
X81641500Y60078500D02*
X79356500Y60078500D01*
X79356500Y58608500D02*
X81641500Y58608500D01*
%TO.C,J2*%
X116426500Y130673500D02*
X111286500Y130673500D01*
X116426500Y130673500D02*
X116426500Y128013500D01*
X111286500Y130673500D02*
X111286500Y128013500D01*
X119026500Y129343500D02*
X119026500Y128013500D01*
X119026500Y128013500D02*
X117696500Y128013500D01*
X116426500Y128013500D02*
X111286500Y128013500D01*
%TO.C,C2*%
X91990000Y93584420D02*
X91990000Y93865580D01*
X93010000Y93584420D02*
X93010000Y93865580D01*
%TO.C,D1*%
X38340000Y130235000D02*
X38340000Y128765000D01*
X38340000Y128765000D02*
X40800000Y128765000D01*
X40800000Y130235000D02*
X38340000Y130235000D01*
%TO.C,R12*%
X82237742Y69709500D02*
X82712258Y69709500D01*
X82237742Y68664500D02*
X82712258Y68664500D01*
%TO.C,R10*%
X84919242Y59866000D02*
X85393758Y59866000D01*
X84919242Y58821000D02*
X85393758Y58821000D01*
%TO.C,J3*%
X13986500Y43073500D02*
X13986500Y48213500D01*
X13986500Y43073500D02*
X11326500Y43073500D01*
X13986500Y48213500D02*
X11326500Y48213500D01*
X12656500Y40473500D02*
X11326500Y40473500D01*
X11326500Y40473500D02*
X11326500Y41803500D01*
X11326500Y43073500D02*
X11326500Y48213500D01*
%TO.C,C6*%
X91965000Y70911420D02*
X91965000Y71192580D01*
X92985000Y70911420D02*
X92985000Y71192580D01*
%TO.C,J1*%
X111330000Y52877000D02*
X111330000Y60557000D01*
X111330000Y52877000D02*
X108670000Y52877000D01*
X111330000Y60557000D02*
X108670000Y60557000D01*
X110000000Y50277000D02*
X108670000Y50277000D01*
X108670000Y50277000D02*
X108670000Y51607000D01*
X108670000Y52877000D02*
X108670000Y60557000D01*
%TO.C,D9*%
X79141500Y73608500D02*
X79141500Y75078500D01*
X79141500Y75078500D02*
X76856500Y75078500D01*
X76856500Y73608500D02*
X79141500Y73608500D01*
%TO.C,D4*%
X10191500Y51108500D02*
X10191500Y52578500D01*
X10191500Y52578500D02*
X7731500Y52578500D01*
X7731500Y51108500D02*
X10191500Y51108500D01*
%TO.C,R7*%
X102762258Y89299500D02*
X102287742Y89299500D01*
X102762258Y90344500D02*
X102287742Y90344500D01*
%TO.C,D2*%
X9265000Y131215000D02*
X10735000Y131215000D01*
X10735000Y131215000D02*
X10735000Y133675000D01*
X9265000Y133675000D02*
X9265000Y131215000D01*
%TO.C,R2*%
X10522500Y128912258D02*
X10522500Y128437742D01*
X9477500Y128912258D02*
X9477500Y128437742D01*
%TO.C,C4*%
X83035000Y79962580D02*
X83035000Y79681420D01*
X82015000Y79962580D02*
X82015000Y79681420D01*
D13*
%TO.C,U4*%
X88000000Y66707000D02*
X92000000Y66707000D01*
X88000000Y61667000D02*
X92000000Y61667000D01*
D14*
X85655000Y66682000D02*
G75*
G03*
X85655000Y66682000I-100000J0D01*
G01*
D12*
%TO.C,R17*%
X105497500Y61289258D02*
X105497500Y60814742D01*
X104452500Y61289258D02*
X104452500Y60814742D01*
%TO.C,R5*%
X75393758Y88821000D02*
X74919242Y88821000D01*
X75393758Y89866000D02*
X74919242Y89866000D01*
%TO.C,R16*%
X98537258Y68029500D02*
X98062742Y68029500D01*
X98537258Y69074500D02*
X98062742Y69074500D01*
%TO.C,R15*%
X98937742Y57209500D02*
X99412258Y57209500D01*
X98937742Y56164500D02*
X99412258Y56164500D01*
%TO.C,C3*%
X83035000Y84962580D02*
X83035000Y84681420D01*
X82015000Y84962580D02*
X82015000Y84681420D01*
%TO.C,J13*%
X82910000Y129610000D02*
X82910000Y132110000D01*
X82910000Y132110000D02*
X80410000Y132110000D01*
X82610000Y127790000D02*
X82610000Y131810000D01*
X82610000Y129500000D02*
X82110000Y129500000D01*
X82610000Y130310000D02*
X81610000Y130310000D01*
X82610000Y131810000D02*
X69890000Y131810000D01*
X82110000Y128290000D02*
X70390000Y128290000D01*
X82110000Y129500000D02*
X82110000Y128290000D01*
X81610000Y130310000D02*
X81610000Y131810000D01*
X70890000Y130310000D02*
X70890000Y131810000D01*
X70390000Y128290000D02*
X70390000Y129500000D01*
X70390000Y129500000D02*
X69890000Y129500000D01*
X69890000Y127790000D02*
X82610000Y127790000D01*
X69890000Y130310000D02*
X70890000Y130310000D01*
X69890000Y131810000D02*
X69890000Y127790000D01*
D10*
%TO.C,A3*%
X17336500Y7823500D02*
X17336500Y106883500D01*
X70676500Y7823500D02*
X17336500Y7823500D01*
X70676500Y7823500D02*
X70676500Y105359500D01*
X70676500Y105359500D02*
X69152500Y106883500D01*
X17336500Y106883500D02*
X18606500Y106883500D01*
X18606500Y106883500D02*
X21146500Y109423500D01*
X57976500Y106883500D02*
X69152500Y106883500D01*
X21146500Y109423500D02*
X55436500Y109423500D01*
X55436500Y109423500D02*
X57976500Y106883500D01*
%TD*%
M02*
