%TF.GenerationSoftware,KiCad,Pcbnew,8.0.4*%
%TF.CreationDate,2024-11-05T13:43:52+01:00*%
%TF.ProjectId,Nutzen,4e75747a-656e-42e6-9b69-6361645f7063,rev?*%
%TF.SameCoordinates,PX791ddc0PY78a3ca0*%
%TF.FileFunction,Copper,L2,Bot*%
%TF.FilePolarity,Positive*%
%FSLAX46Y46*%
G04 Gerber Fmt 4.6, Leading zero omitted, Abs format (unit mm)*
G04 Created by KiCad (PCBNEW 8.0.4) date 2024-11-05 13:43:52*
%MOMM*%
%LPD*%
G01*
G04 APERTURE LIST*
G04 Aperture macros list*
%AMRoundRect*
0 Rectangle with rounded corners*
0 $1 Rounding radius*
0 $2 $3 $4 $5 $6 $7 $8 $9 X,Y pos of 4 corners*
0 Add a 4 corners polygon primitive as box body*
4,1,4,$2,$3,$4,$5,$6,$7,$8,$9,$2,$3,0*
0 Add four circle primitives for the rounded corners*
1,1,$1+$1,$2,$3*
1,1,$1+$1,$4,$5*
1,1,$1+$1,$6,$7*
1,1,$1+$1,$8,$9*
0 Add four rect primitives between the rounded corners*
20,1,$1+$1,$2,$3,$4,$5,0*
20,1,$1+$1,$4,$5,$6,$7,0*
20,1,$1+$1,$6,$7,$8,$9,0*
20,1,$1+$1,$8,$9,$2,$3,0*%
G04 Aperture macros list end*
%TA.AperFunction,Conductor*%
%ADD10C,0.200000*%
%TD*%
%TA.AperFunction,ComponentPad*%
%ADD11RoundRect,0.250000X0.725000X-0.600000X0.725000X0.600000X-0.725000X0.600000X-0.725000X-0.600000X0*%
%TD*%
%TA.AperFunction,ComponentPad*%
%ADD12O,1.950000X1.700000*%
%TD*%
%TA.AperFunction,SMDPad,CuDef*%
%ADD13RoundRect,0.237500X-0.237500X0.300000X-0.237500X-0.300000X0.237500X-0.300000X0.237500X0.300000X0*%
%TD*%
%TA.AperFunction,SMDPad,CuDef*%
%ADD14R,2.000000X1.780000*%
%TD*%
%TA.AperFunction,ComponentPad*%
%ADD15R,1.000000X1.000000*%
%TD*%
%TA.AperFunction,ComponentPad*%
%ADD16O,1.000000X1.000000*%
%TD*%
%TA.AperFunction,ViaPad*%
%ADD17C,0.700000*%
%TD*%
%TA.AperFunction,ViaPad*%
%ADD18C,0.600000*%
%TD*%
%TA.AperFunction,Conductor*%
%ADD19C,0.400000*%
%TD*%
%TA.AperFunction,Conductor*%
%ADD20C,0.500000*%
%TD*%
%TA.AperFunction,Conductor*%
%ADD21C,0.600000*%
%TD*%
G04 APERTURE END LIST*
D10*
%TO.N,/analog_inp_3*%
X57649730Y9845000D02*
X57649730Y10595000D01*
%TD*%
D11*
%TO.P,J1,1,Pin_1*%
%TO.N,GNDD*%
X5520000Y12270000D03*
D12*
%TO.P,J1,2,Pin_2*%
%TO.N,GNDA*%
X5520000Y14770000D03*
%TO.P,J1,3,Pin_3*%
%TO.N,+3.3VD*%
X5520000Y17270000D03*
%TO.P,J1,4,Pin_4*%
%TO.N,/Out2*%
X5520000Y19770000D03*
%TO.P,J1,5,Pin_5*%
%TO.N,/Out1*%
X5520000Y22270000D03*
%TO.P,J1,6,Pin_6*%
%TO.N,/Out3*%
X5520000Y24770000D03*
%TD*%
D13*
%TO.P,C7,1*%
%TO.N,GNDD*%
X25300000Y19062500D03*
%TO.P,C7,2*%
%TO.N,+3.3VD*%
X25300000Y17337500D03*
%TD*%
D14*
%TO.P,U1,1,-Vin*%
%TO.N,GNDD*%
X22590000Y19560000D03*
%TO.P,U1,2,+Vin*%
%TO.N,+3.3VD*%
X22590000Y17020000D03*
%TO.P,U1,3,NA*%
%TO.N,unconnected-(U1-NA-Pad3)*%
X22590000Y14480000D03*
%TO.P,U1,4,-Vout*%
%TO.N,GNDA*%
X22590000Y11940000D03*
%TO.P,U1,5,+Vout*%
%TO.N,+3.3VA*%
X13060000Y11940000D03*
%TO.P,U1,6,NA*%
%TO.N,unconnected-(U1-NA-Pad6)*%
X13060000Y14480000D03*
%TO.P,U1,7,NA*%
%TO.N,unconnected-(U1-NA-Pad7)*%
X13060000Y17020000D03*
%TO.P,U1,8,NA*%
%TO.N,unconnected-(U1-NA-Pad8)*%
X13060000Y19560000D03*
%TD*%
D13*
%TO.P,C8,1*%
%TO.N,GNDA*%
X10400000Y14062500D03*
%TO.P,C8,2*%
%TO.N,+3.3VA*%
X10400000Y12337500D03*
%TD*%
D15*
%TO.P,J3,1,Pin_1*%
%TO.N,unconnected-(J3-Pin_1-Pad1)*%
X52559730Y950000D03*
D16*
%TO.P,J3,2,Pin_2*%
%TO.N,unconnected-(J3-Pin_2-Pad2)*%
X53829730Y950000D03*
%TO.P,J3,3,Pin_3*%
%TO.N,unconnected-(J3-Pin_3-Pad3)*%
X55099730Y950000D03*
%TO.P,J3,4,Pin_4*%
%TO.N,unconnected-(J3-Pin_4-Pad4)*%
X56369730Y950000D03*
%TD*%
D17*
%TO.N,GNDD*%
X33500000Y26200000D03*
X6600000Y29900000D03*
X20350000Y18525000D03*
X31800000Y25000000D03*
X8000000Y29900000D03*
X21450000Y2850000D03*
X21200000Y5500000D03*
X33500000Y25000000D03*
X6600000Y28700000D03*
X31800000Y26200000D03*
X8000000Y28700000D03*
%TO.N,/Out2*%
X27980000Y11560000D03*
X8500000Y8100000D03*
%TO.N,/Out3*%
X25515000Y24480000D03*
%TO.N,+3.3VD*%
X10500000Y22300000D03*
X8100000Y18890000D03*
X20325000Y16600000D03*
X28700000Y17270000D03*
%TO.N,+3.3VA*%
X28680000Y16020000D03*
%TO.N,GNDA*%
X28550000Y19350000D03*
%TO.N,/data_in1*%
X15570000Y8310000D03*
X28550000Y13360000D03*
D18*
%TO.N,/analog_inp_1*%
X42699730Y19920000D03*
%TO.N,/analog_inp_2*%
X42649730Y14720000D03*
%TO.N,/analog_inp_3*%
X45899730Y5820000D03*
%TD*%
D19*
%TO.N,GNDD*%
X22285000Y19560000D02*
X21250000Y18525000D01*
D20*
X21200000Y3100000D02*
X21450000Y2850000D01*
X21200000Y5500000D02*
X21200000Y3100000D01*
D19*
X22590000Y19560000D02*
X22285000Y19560000D01*
X21250000Y18525000D02*
X20350000Y18525000D01*
D20*
%TO.N,/Out2*%
X13840000Y7000000D02*
X12740000Y8100000D01*
X25100000Y7000000D02*
X13840000Y7000000D01*
X27890000Y11470000D02*
X27890000Y9790000D01*
X12740000Y8100000D02*
X8500000Y8100000D01*
D19*
X27980000Y11560000D02*
X27890000Y11470000D01*
D20*
X27890000Y9790000D02*
X25100000Y7000000D01*
%TO.N,/Out3*%
X25515000Y24480000D02*
X25515000Y24235000D01*
X25250000Y23970000D02*
X7660000Y23970000D01*
X25515000Y24235000D02*
X25250000Y23970000D01*
X7660000Y23970000D02*
X6860000Y24770000D01*
X6860000Y24770000D02*
X5520000Y24770000D01*
D19*
%TO.N,+3.3VD*%
X21370000Y17020000D02*
X22590000Y17020000D01*
D20*
X25367500Y17270000D02*
X25300000Y17337500D01*
D19*
X20325000Y16600000D02*
X20950000Y16600000D01*
X20950000Y16600000D02*
X21370000Y17020000D01*
D20*
X9600000Y22300000D02*
X8100000Y20800000D01*
X28700000Y17270000D02*
X25367500Y17270000D01*
D19*
X22907500Y17337500D02*
X25300000Y17337500D01*
X22590000Y17020000D02*
X22907500Y17337500D01*
D20*
X8100000Y20800000D02*
X8100000Y18890000D01*
X10500000Y22300000D02*
X9600000Y22300000D01*
D21*
%TO.N,+3.3VA*%
X13060000Y11940000D02*
X10797500Y11940000D01*
X28680000Y16020000D02*
X27620000Y16020000D01*
X24800000Y11200000D02*
X23725000Y10125000D01*
X10797500Y11940000D02*
X10400000Y12337500D01*
X24800000Y13200000D02*
X24800000Y11200000D01*
X27620000Y16020000D02*
X24800000Y13200000D01*
X23725000Y10125000D02*
X14875000Y10125000D01*
X14875000Y10125000D02*
X13060000Y11940000D01*
D20*
%TO.N,GNDA*%
X11800000Y21600000D02*
X10900000Y20700000D01*
X26300000Y21600000D02*
X20600000Y21600000D01*
X8570000Y14770000D02*
X5520000Y14770000D01*
X28550000Y19350000D02*
X26300000Y21600000D01*
X10900000Y17100000D02*
X8570000Y14770000D01*
X20600000Y21600000D02*
X11800000Y21600000D01*
X10900000Y20700000D02*
X10900000Y17100000D01*
X18400000Y21600000D02*
X16500000Y19700000D01*
X16500000Y19700000D02*
X16500000Y14800000D01*
D19*
%TO.N,/data_in1*%
X26400000Y10750000D02*
X26400000Y12500000D01*
X26400000Y12500000D02*
X27260000Y13360000D01*
X23960000Y8310000D02*
X26400000Y10750000D01*
X15570000Y8310000D02*
X23960000Y8310000D01*
X27260000Y13360000D02*
X28550000Y13360000D01*
%TD*%
%TA.AperFunction,Conductor*%
%TO.N,GNDA*%
G36*
X4400227Y15580315D02*
G01*
X4445982Y15527511D01*
X4455926Y15458353D01*
X4433507Y15403116D01*
X4411433Y15372734D01*
X4329252Y15211448D01*
X4329251Y15211445D01*
X4273317Y15039294D01*
X4254423Y14920000D01*
X5068436Y14920000D01*
X5045000Y14832535D01*
X5045000Y14707465D01*
X5068436Y14620000D01*
X4254423Y14620000D01*
X4273317Y14500707D01*
X4329251Y14328556D01*
X4329252Y14328553D01*
X4411434Y14167266D01*
X4517823Y14020831D01*
X4645830Y13892824D01*
X4792265Y13786435D01*
X4953552Y13704253D01*
X4953555Y13704252D01*
X5125706Y13648318D01*
X5304494Y13620000D01*
X5370000Y13620000D01*
X5370000Y14318436D01*
X5457465Y14295000D01*
X5582535Y14295000D01*
X5670000Y14318436D01*
X5670000Y13620000D01*
X5735506Y13620000D01*
X5914293Y13648318D01*
X6086444Y13704252D01*
X6086447Y13704253D01*
X6247734Y13786435D01*
X6394169Y13892824D01*
X6522176Y14020831D01*
X6628565Y14167266D01*
X6710747Y14328553D01*
X6710748Y14328556D01*
X6735447Y14404572D01*
X9625000Y14404572D01*
X9625000Y14212500D01*
X10250000Y14212500D01*
X10550000Y14212500D01*
X11175000Y14212500D01*
X11175000Y14404572D01*
X11164626Y14490959D01*
X11110423Y14628408D01*
X11110420Y14628414D01*
X11021143Y14746144D01*
X10903413Y14835421D01*
X10903407Y14835424D01*
X10765958Y14889627D01*
X10679572Y14900000D01*
X10550000Y14900000D01*
X10550000Y14212500D01*
X10250000Y14212500D01*
X10250000Y14900000D01*
X10120428Y14900000D01*
X10034041Y14889627D01*
X9896592Y14835424D01*
X9896586Y14835421D01*
X9778856Y14746144D01*
X9689579Y14628414D01*
X9689576Y14628408D01*
X9635373Y14490959D01*
X9625000Y14404572D01*
X6735447Y14404572D01*
X6766682Y14500707D01*
X6785577Y14620000D01*
X5971564Y14620000D01*
X5995000Y14707465D01*
X5995000Y14832535D01*
X5971564Y14920000D01*
X6785577Y14920000D01*
X6766682Y15039294D01*
X6710748Y15211445D01*
X6710747Y15211448D01*
X6628566Y15372734D01*
X6606493Y15403116D01*
X6583014Y15468922D01*
X6598840Y15536976D01*
X6648946Y15585670D01*
X6706812Y15600000D01*
X11750227Y15600000D01*
X11817266Y15580315D01*
X11863021Y15527511D01*
X11872965Y15458353D01*
X11871844Y15451809D01*
X11859500Y15389753D01*
X11859500Y13570248D01*
X11871131Y13511771D01*
X11871132Y13511770D01*
X11915447Y13445448D01*
X11981769Y13401133D01*
X11981770Y13401132D01*
X12040247Y13389501D01*
X12040250Y13389500D01*
X12040252Y13389500D01*
X14079750Y13389500D01*
X14079751Y13389501D01*
X14098289Y13393188D01*
X14138229Y13401132D01*
X14138229Y13401133D01*
X14138231Y13401133D01*
X14204552Y13445448D01*
X14248867Y13511769D01*
X14248867Y13511771D01*
X14248868Y13511771D01*
X14260499Y13570248D01*
X14260500Y13570250D01*
X14260500Y15389751D01*
X14260499Y15389753D01*
X14248156Y15451809D01*
X14254383Y15521400D01*
X14297246Y15576578D01*
X14363136Y15599822D01*
X14369773Y15600000D01*
X21280227Y15600000D01*
X21347266Y15580315D01*
X21393021Y15527511D01*
X21402965Y15458353D01*
X21401844Y15451809D01*
X21389500Y15389753D01*
X21389500Y13570248D01*
X21401131Y13511771D01*
X21401132Y13511770D01*
X21445447Y13445448D01*
X21511769Y13401133D01*
X21511770Y13401132D01*
X21570247Y13389501D01*
X21570250Y13389500D01*
X21570252Y13389500D01*
X23609750Y13389500D01*
X23609751Y13389501D01*
X23628289Y13393188D01*
X23668229Y13401132D01*
X23668229Y13401133D01*
X23668231Y13401133D01*
X23734552Y13445448D01*
X23778867Y13511769D01*
X23778867Y13511771D01*
X23778868Y13511771D01*
X23790499Y13570248D01*
X23790500Y13570250D01*
X23790500Y15389751D01*
X23790499Y15389753D01*
X23778156Y15451809D01*
X23784383Y15521400D01*
X23827246Y15576578D01*
X23893136Y15599822D01*
X23899773Y15600000D01*
X26192824Y15600000D01*
X26259863Y15580315D01*
X26305618Y15527511D01*
X26315562Y15458353D01*
X26286537Y15394797D01*
X26280509Y15388325D01*
X25370528Y14478343D01*
X24475245Y13583060D01*
X24475244Y13583060D01*
X24475245Y13583059D01*
X24399500Y13507314D01*
X24333608Y13393188D01*
X24299500Y13265892D01*
X24299500Y11458677D01*
X24279815Y11391638D01*
X24263181Y11370996D01*
X24101681Y11209496D01*
X24040358Y11176011D01*
X23970666Y11180995D01*
X23914733Y11222867D01*
X23890316Y11288331D01*
X23890000Y11297177D01*
X23890000Y11790000D01*
X21290001Y11790000D01*
X21290001Y11005215D01*
X21290002Y11005192D01*
X21292908Y10980131D01*
X21292909Y10980127D01*
X21338211Y10877526D01*
X21338214Y10877521D01*
X21378554Y10837181D01*
X21412039Y10775858D01*
X21407055Y10706166D01*
X21365183Y10650233D01*
X21299719Y10625816D01*
X21290873Y10625500D01*
X15133676Y10625500D01*
X15066637Y10645185D01*
X15045995Y10661819D01*
X14296819Y11410995D01*
X14263334Y11472318D01*
X14260500Y11498676D01*
X14260500Y12849751D01*
X14260499Y12849753D01*
X14255518Y12874795D01*
X21290000Y12874795D01*
X21290000Y12090000D01*
X22440000Y12090000D01*
X22740000Y12090000D01*
X23889999Y12090000D01*
X23889999Y12874786D01*
X23889997Y12874809D01*
X23887091Y12899870D01*
X23887090Y12899874D01*
X23841788Y13002475D01*
X23841785Y13002480D01*
X23762479Y13081786D01*
X23762474Y13081789D01*
X23659876Y13127090D01*
X23634794Y13130000D01*
X22740000Y13130000D01*
X22740000Y12090000D01*
X22440000Y12090000D01*
X22440000Y13130000D01*
X21545214Y13130000D01*
X21545191Y13129998D01*
X21520130Y13127092D01*
X21520126Y13127091D01*
X21417525Y13081789D01*
X21417520Y13081786D01*
X21338214Y13002480D01*
X21338211Y13002475D01*
X21292910Y12899878D01*
X21292910Y12899876D01*
X21290000Y12874795D01*
X14255518Y12874795D01*
X14248868Y12908230D01*
X14248867Y12908231D01*
X14204552Y12974553D01*
X14138230Y13018868D01*
X14138229Y13018869D01*
X14079752Y13030500D01*
X14079748Y13030500D01*
X12040252Y13030500D01*
X12040247Y13030500D01*
X11981770Y13018869D01*
X11981769Y13018868D01*
X11915447Y12974553D01*
X11871132Y12908231D01*
X11871131Y12908230D01*
X11859500Y12849753D01*
X11859500Y12564500D01*
X11839815Y12497461D01*
X11787011Y12451706D01*
X11735500Y12440500D01*
X11199500Y12440500D01*
X11132461Y12460185D01*
X11086706Y12512989D01*
X11075500Y12564500D01*
X11075500Y12690261D01*
X11072725Y12719850D01*
X11049251Y12786933D01*
X11029116Y12844475D01*
X11025224Y12849748D01*
X10950711Y12950711D01*
X10950710Y12950712D01*
X10844477Y13029115D01*
X10844475Y13029116D01*
X10840391Y13030545D01*
X10836527Y13033317D01*
X10836260Y13033458D01*
X10836279Y13033495D01*
X10783618Y13071267D01*
X10757872Y13136220D01*
X10771329Y13204781D01*
X10819717Y13255183D01*
X10835860Y13262940D01*
X10903413Y13289580D01*
X11021143Y13378857D01*
X11110420Y13496587D01*
X11110423Y13496593D01*
X11164626Y13634042D01*
X11175000Y13720429D01*
X11175000Y13912500D01*
X9625000Y13912500D01*
X9625000Y13720429D01*
X9635373Y13634042D01*
X9689576Y13496593D01*
X9689579Y13496587D01*
X9778856Y13378857D01*
X9896586Y13289580D01*
X9896592Y13289577D01*
X9964139Y13262939D01*
X10019283Y13220033D01*
X10042476Y13154125D01*
X10026355Y13086141D01*
X9976038Y13037665D01*
X9959608Y13030545D01*
X9955524Y13029116D01*
X9955523Y13029116D01*
X9849289Y12950712D01*
X9849288Y12950711D01*
X9770884Y12844477D01*
X9727274Y12719850D01*
X9724500Y12690261D01*
X9724500Y11984740D01*
X9727274Y11955151D01*
X9770884Y11830524D01*
X9849288Y11724290D01*
X9849289Y11724289D01*
X9955523Y11645885D01*
X9955524Y11645885D01*
X9955525Y11645884D01*
X10080151Y11602275D01*
X10080150Y11602275D01*
X10109740Y11599500D01*
X10109744Y11599500D01*
X10378824Y11599500D01*
X10445863Y11579815D01*
X10466505Y11563181D01*
X10490186Y11539500D01*
X10604314Y11473608D01*
X10731608Y11439500D01*
X10863393Y11439500D01*
X11735500Y11439500D01*
X11802539Y11419815D01*
X11848294Y11367011D01*
X11859500Y11315500D01*
X11859500Y11030248D01*
X11871131Y10971771D01*
X11871132Y10971770D01*
X11915447Y10905448D01*
X11981769Y10861133D01*
X11981770Y10861132D01*
X12040247Y10849501D01*
X12040250Y10849500D01*
X12040252Y10849500D01*
X13391324Y10849500D01*
X13458363Y10829815D01*
X13479005Y10813181D01*
X14567686Y9724500D01*
X14681814Y9658608D01*
X14809108Y9624500D01*
X14809110Y9624500D01*
X23790890Y9624500D01*
X23790892Y9624500D01*
X23918186Y9658608D01*
X24032314Y9724500D01*
X25200500Y10892686D01*
X25266392Y11006814D01*
X25300500Y11134108D01*
X25300500Y11265893D01*
X25300500Y12941325D01*
X25320185Y13008364D01*
X25336819Y13029006D01*
X27790994Y15483181D01*
X27852317Y15516666D01*
X27878675Y15519500D01*
X28425124Y15519500D01*
X28472572Y15510063D01*
X28536291Y15483670D01*
X28632097Y15471057D01*
X28679999Y15464750D01*
X28680000Y15464750D01*
X28680001Y15464750D01*
X28694977Y15466722D01*
X28823709Y15483670D01*
X28957625Y15539139D01*
X28991000Y15564750D01*
X29003547Y15574376D01*
X29068716Y15599570D01*
X29079033Y15600000D01*
X35375500Y15600000D01*
X35442539Y15580315D01*
X35488294Y15527511D01*
X35499500Y15476000D01*
X35499500Y12156137D01*
X35500000Y12148511D01*
X35500000Y11251487D01*
X35499500Y11243860D01*
X35499500Y2404052D01*
X35499234Y2395942D01*
X35482069Y2134071D01*
X35479952Y2117990D01*
X35429546Y1864580D01*
X35425348Y1848912D01*
X35342298Y1604255D01*
X35336091Y1589270D01*
X35221814Y1357540D01*
X35213704Y1343494D01*
X35070160Y1128664D01*
X35060286Y1115795D01*
X34889929Y921540D01*
X34878460Y910071D01*
X34684205Y739714D01*
X34671336Y729840D01*
X34456506Y586296D01*
X34442460Y578186D01*
X34210730Y463909D01*
X34195745Y457702D01*
X33951088Y374652D01*
X33935420Y370454D01*
X33682010Y320048D01*
X33665929Y317931D01*
X33404058Y300766D01*
X33395948Y300500D01*
X2404052Y300500D01*
X2395942Y300766D01*
X2134070Y317931D01*
X2117989Y320048D01*
X1864579Y370454D01*
X1848911Y374652D01*
X1604254Y457702D01*
X1589269Y463909D01*
X1357539Y578186D01*
X1343493Y586296D01*
X1128663Y729840D01*
X1115794Y739714D01*
X921539Y910071D01*
X910070Y921540D01*
X739713Y1115795D01*
X729839Y1128664D01*
X586295Y1343494D01*
X578185Y1357540D01*
X463908Y1589270D01*
X457704Y1604248D01*
X374648Y1848923D01*
X370453Y1864580D01*
X354071Y1946937D01*
X320046Y2117995D01*
X317931Y2134051D01*
X300764Y2395972D01*
X300500Y2404052D01*
X300500Y2612352D01*
X1149500Y2612352D01*
X1149500Y2407649D01*
X1181522Y2205466D01*
X1244781Y2010777D01*
X1337715Y1828387D01*
X1458028Y1662787D01*
X1602786Y1518029D01*
X1757749Y1405444D01*
X1768390Y1397713D01*
X1874801Y1343494D01*
X1950776Y1304782D01*
X1950778Y1304782D01*
X1950781Y1304780D01*
X2055137Y1270873D01*
X2145465Y1241523D01*
X2208602Y1231523D01*
X2347648Y1209500D01*
X2347649Y1209500D01*
X2552351Y1209500D01*
X2552352Y1209500D01*
X2754534Y1241523D01*
X2949219Y1304780D01*
X3131610Y1397713D01*
X3224590Y1465268D01*
X3297213Y1518029D01*
X3297215Y1518032D01*
X3297219Y1518034D01*
X3441966Y1662781D01*
X3441968Y1662785D01*
X3441971Y1662787D01*
X3555019Y1818387D01*
X3562287Y1828390D01*
X3655220Y2010781D01*
X3718477Y2205466D01*
X3750500Y2407648D01*
X3750500Y2612352D01*
X3735622Y2706288D01*
X3718477Y2814535D01*
X3674355Y2950328D01*
X3655220Y3009219D01*
X3655218Y3009222D01*
X3655218Y3009224D01*
X3594889Y3127625D01*
X3562287Y3191610D01*
X3525226Y3242621D01*
X3441971Y3357214D01*
X3297213Y3501972D01*
X3131613Y3622285D01*
X3131612Y3622286D01*
X3131610Y3622287D01*
X3074653Y3651309D01*
X2949223Y3715219D01*
X2754534Y3778478D01*
X2579995Y3806122D01*
X2552352Y3810500D01*
X2347648Y3810500D01*
X2323329Y3806649D01*
X2145465Y3778478D01*
X1950776Y3715219D01*
X1768386Y3622285D01*
X1602786Y3501972D01*
X1458028Y3357214D01*
X1337715Y3191614D01*
X1244781Y3009224D01*
X1181522Y2814535D01*
X1149500Y2612352D01*
X300500Y2612352D01*
X300500Y5500001D01*
X20644750Y5500001D01*
X20644750Y5500000D01*
X20663670Y5356292D01*
X20663671Y5356288D01*
X20719137Y5222378D01*
X20719138Y5222376D01*
X20719139Y5222375D01*
X20723875Y5216202D01*
X20749070Y5151035D01*
X20749500Y5140716D01*
X20749500Y3040692D01*
X20773712Y2950328D01*
X20780200Y2926115D01*
X20780200Y2926114D01*
X20780201Y2926113D01*
X20839511Y2823386D01*
X20839513Y2823384D01*
X20877396Y2785501D01*
X20910881Y2724178D01*
X20912654Y2714009D01*
X20913670Y2706290D01*
X20969137Y2572378D01*
X20969138Y2572376D01*
X20969139Y2572375D01*
X21057379Y2457379D01*
X21172375Y2369139D01*
X21306291Y2313670D01*
X21433280Y2296952D01*
X21449999Y2294750D01*
X21450000Y2294750D01*
X21450001Y2294750D01*
X21464977Y2296722D01*
X21593709Y2313670D01*
X21727625Y2369139D01*
X21842621Y2457379D01*
X21930861Y2572375D01*
X21943278Y2602352D01*
X31999500Y2602352D01*
X31999500Y2397649D01*
X32031522Y2195466D01*
X32094781Y2000777D01*
X32158691Y1875347D01*
X32182619Y1828387D01*
X32187715Y1818387D01*
X32308028Y1652787D01*
X32452786Y1508029D01*
X32604622Y1397716D01*
X32618390Y1387713D01*
X32705175Y1343494D01*
X32800776Y1294782D01*
X32800778Y1294782D01*
X32800781Y1294780D01*
X32905137Y1260873D01*
X32995465Y1231523D01*
X33096557Y1215512D01*
X33197648Y1199500D01*
X33197649Y1199500D01*
X33402351Y1199500D01*
X33402352Y1199500D01*
X33604534Y1231523D01*
X33799219Y1294780D01*
X33981610Y1387713D01*
X34074590Y1455268D01*
X34147213Y1508029D01*
X34147215Y1508032D01*
X34147219Y1508034D01*
X34291966Y1652781D01*
X34291968Y1652785D01*
X34291971Y1652787D01*
X34344732Y1725410D01*
X34412287Y1818390D01*
X34505220Y2000781D01*
X34568477Y2195466D01*
X34600500Y2397648D01*
X34600500Y2602352D01*
X34568477Y2804534D01*
X34565227Y2814535D01*
X34539127Y2894863D01*
X34505220Y2999219D01*
X34505218Y2999222D01*
X34505218Y2999224D01*
X34471503Y3065393D01*
X34412287Y3181610D01*
X34404556Y3192251D01*
X34291971Y3347214D01*
X34147213Y3491972D01*
X33981613Y3612285D01*
X33981612Y3612286D01*
X33981610Y3612287D01*
X33924653Y3641309D01*
X33799223Y3705219D01*
X33604534Y3768478D01*
X33429995Y3796122D01*
X33402352Y3800500D01*
X33197648Y3800500D01*
X33173329Y3796649D01*
X32995465Y3768478D01*
X32800776Y3705219D01*
X32618386Y3612285D01*
X32452786Y3491972D01*
X32308028Y3347214D01*
X32187715Y3181614D01*
X32094781Y2999224D01*
X32031522Y2804535D01*
X31999500Y2602352D01*
X21943278Y2602352D01*
X21986330Y2706291D01*
X22005250Y2850000D01*
X21986330Y2993709D01*
X21930861Y3127625D01*
X21842621Y3242621D01*
X21727625Y3330861D01*
X21727624Y3330862D01*
X21727622Y3330863D01*
X21727039Y3331104D01*
X21726622Y3331441D01*
X21720586Y3334925D01*
X21721129Y3335867D01*
X21672639Y3374949D01*
X21650579Y3441245D01*
X21650500Y3445662D01*
X21650500Y5140716D01*
X21670185Y5207755D01*
X21676116Y5216192D01*
X21680861Y5222375D01*
X21736330Y5356291D01*
X21755250Y5500000D01*
X21736330Y5643709D01*
X21680861Y5777625D01*
X21592621Y5892621D01*
X21477625Y5980861D01*
X21477624Y5980862D01*
X21477622Y5980863D01*
X21343712Y6036329D01*
X21343710Y6036330D01*
X21343709Y6036330D01*
X21271854Y6045790D01*
X21200001Y6055250D01*
X21199999Y6055250D01*
X21056291Y6036330D01*
X21056287Y6036329D01*
X20922377Y5980863D01*
X20807379Y5892621D01*
X20719137Y5777623D01*
X20663671Y5643713D01*
X20663670Y5643709D01*
X20644750Y5500001D01*
X300500Y5500001D01*
X300500Y8100001D01*
X7944750Y8100001D01*
X7944750Y8100000D01*
X7963670Y7956292D01*
X7963671Y7956288D01*
X8019137Y7822378D01*
X8019138Y7822376D01*
X8019139Y7822375D01*
X8107379Y7707379D01*
X8222375Y7619139D01*
X8356291Y7563670D01*
X8483280Y7546952D01*
X8499999Y7544750D01*
X8500000Y7544750D01*
X8500001Y7544750D01*
X8514977Y7546722D01*
X8643709Y7563670D01*
X8777625Y7619139D01*
X8777629Y7619142D01*
X8783801Y7623877D01*
X8848970Y7649070D01*
X8859285Y7649500D01*
X12502035Y7649500D01*
X12569074Y7629815D01*
X12589716Y7613181D01*
X13563386Y6639511D01*
X13666113Y6580201D01*
X13690321Y6573716D01*
X13690324Y6573714D01*
X13690325Y6573714D01*
X13720447Y6565643D01*
X13780691Y6549500D01*
X13780693Y6549500D01*
X25159308Y6549500D01*
X25159309Y6549500D01*
X25249673Y6573714D01*
X25273887Y6580201D01*
X25376614Y6639511D01*
X28250490Y9513386D01*
X28309799Y9616113D01*
X28321185Y9658608D01*
X28340500Y9730691D01*
X28340500Y11083895D01*
X28360185Y11150934D01*
X28368023Y11160662D01*
X28367673Y11160930D01*
X28414805Y11222354D01*
X28460861Y11282375D01*
X28516330Y11416291D01*
X28535250Y11560000D01*
X28516330Y11703709D01*
X28460861Y11837625D01*
X28372621Y11952621D01*
X28257625Y12040861D01*
X28257624Y12040862D01*
X28257622Y12040863D01*
X28123712Y12096329D01*
X28123710Y12096330D01*
X28123709Y12096330D01*
X28051854Y12105790D01*
X27980001Y12115250D01*
X27979999Y12115250D01*
X27836291Y12096330D01*
X27836287Y12096329D01*
X27702377Y12040863D01*
X27587379Y11952621D01*
X27499137Y11837623D01*
X27443671Y11703713D01*
X27443670Y11703709D01*
X27424750Y11560000D01*
X27438439Y11456024D01*
X27439500Y11439838D01*
X27439500Y10027966D01*
X27419815Y9960927D01*
X27403181Y9940285D01*
X24949716Y7486819D01*
X24888393Y7453334D01*
X24862035Y7450500D01*
X14077965Y7450500D01*
X14010926Y7470185D01*
X13990284Y7486819D01*
X13167102Y8310001D01*
X15014750Y8310001D01*
X15014750Y8310000D01*
X15033670Y8166292D01*
X15033671Y8166288D01*
X15089137Y8032378D01*
X15089138Y8032376D01*
X15089139Y8032375D01*
X15177379Y7917379D01*
X15292375Y7829139D01*
X15292376Y7829139D01*
X15292377Y7829138D01*
X15308705Y7822375D01*
X15426291Y7773670D01*
X15553280Y7756952D01*
X15569999Y7754750D01*
X15570000Y7754750D01*
X15570001Y7754750D01*
X15584977Y7756722D01*
X15713709Y7773670D01*
X15847625Y7829139D01*
X15894280Y7864940D01*
X15918960Y7883876D01*
X15984129Y7909070D01*
X15994446Y7909500D01*
X24012725Y7909500D01*
X24012727Y7909500D01*
X24114588Y7936793D01*
X24205913Y7989520D01*
X26720480Y10504087D01*
X26773207Y10595412D01*
X26800500Y10697273D01*
X26800500Y10802727D01*
X26800500Y12282746D01*
X26820185Y12349785D01*
X26836819Y12370427D01*
X27389573Y12923181D01*
X27450896Y12956666D01*
X27477254Y12959500D01*
X28125554Y12959500D01*
X28192593Y12939815D01*
X28201040Y12933876D01*
X28245350Y12899876D01*
X28272375Y12879139D01*
X28406291Y12823670D01*
X28533280Y12806952D01*
X28549999Y12804750D01*
X28550000Y12804750D01*
X28550001Y12804750D01*
X28564977Y12806722D01*
X28693709Y12823670D01*
X28827625Y12879139D01*
X28942621Y12967379D01*
X29030861Y13082375D01*
X29086330Y13216291D01*
X29105250Y13360000D01*
X29086330Y13503709D01*
X29043996Y13605913D01*
X29030862Y13637623D01*
X29030861Y13637624D01*
X29030861Y13637625D01*
X28942621Y13752621D01*
X28827625Y13840861D01*
X28827624Y13840862D01*
X28827622Y13840863D01*
X28693712Y13896329D01*
X28693710Y13896330D01*
X28693709Y13896330D01*
X28621854Y13905790D01*
X28550001Y13915250D01*
X28549999Y13915250D01*
X28406291Y13896330D01*
X28406287Y13896329D01*
X28272376Y13840862D01*
X28272374Y13840861D01*
X28201040Y13786124D01*
X28135871Y13760930D01*
X28125554Y13760500D01*
X27320339Y13760500D01*
X27320323Y13760501D01*
X27312727Y13760501D01*
X27207273Y13760501D01*
X27139366Y13742305D01*
X27105412Y13733207D01*
X27014084Y13680478D01*
X26079522Y12745916D01*
X26079518Y12745910D01*
X26026792Y12654588D01*
X26026793Y12654587D01*
X25999500Y12552727D01*
X25999500Y10967255D01*
X25979815Y10900216D01*
X25963181Y10879574D01*
X23830426Y8746819D01*
X23769103Y8713334D01*
X23742745Y8710500D01*
X15994446Y8710500D01*
X15927407Y8730185D01*
X15918960Y8736124D01*
X15847625Y8790861D01*
X15847623Y8790862D01*
X15713712Y8846329D01*
X15713710Y8846330D01*
X15713709Y8846330D01*
X15641854Y8855790D01*
X15570001Y8865250D01*
X15569999Y8865250D01*
X15426291Y8846330D01*
X15426287Y8846329D01*
X15292377Y8790863D01*
X15177379Y8702621D01*
X15089137Y8587623D01*
X15033671Y8453713D01*
X15033670Y8453709D01*
X15014750Y8310001D01*
X13167102Y8310001D01*
X13016616Y8460487D01*
X13016614Y8460489D01*
X12960960Y8492621D01*
X12913888Y8519799D01*
X12901780Y8523043D01*
X12889673Y8526287D01*
X12889670Y8526288D01*
X12851478Y8536522D01*
X12799309Y8550500D01*
X12799308Y8550500D01*
X8859285Y8550500D01*
X8792246Y8570185D01*
X8783801Y8576123D01*
X8777629Y8580859D01*
X8777623Y8580862D01*
X8643712Y8636329D01*
X8643710Y8636330D01*
X8643709Y8636330D01*
X8571854Y8645790D01*
X8500001Y8655250D01*
X8499999Y8655250D01*
X8356291Y8636330D01*
X8356287Y8636329D01*
X8222377Y8580863D01*
X8107379Y8492621D01*
X8019137Y8377623D01*
X7963671Y8243713D01*
X7963670Y8243709D01*
X7944750Y8100001D01*
X300500Y8100001D01*
X300500Y12924270D01*
X4344500Y12924270D01*
X4344500Y11615731D01*
X4347353Y11585301D01*
X4347353Y11585299D01*
X4386888Y11472318D01*
X4392207Y11457118D01*
X4472850Y11347850D01*
X4582118Y11267207D01*
X4624845Y11252256D01*
X4710299Y11222354D01*
X4740730Y11219500D01*
X4740734Y11219500D01*
X6299270Y11219500D01*
X6329699Y11222354D01*
X6329701Y11222354D01*
X6393790Y11244781D01*
X6457882Y11267207D01*
X6567150Y11347850D01*
X6647793Y11457118D01*
X6683793Y11560000D01*
X6692646Y11585299D01*
X6692646Y11585301D01*
X6695500Y11615731D01*
X6695500Y12924270D01*
X6692646Y12954700D01*
X6692646Y12954702D01*
X6650376Y13075500D01*
X6647793Y13082882D01*
X6567150Y13192150D01*
X6457882Y13272793D01*
X6457880Y13272794D01*
X6329700Y13317647D01*
X6299270Y13320500D01*
X6299266Y13320500D01*
X4740734Y13320500D01*
X4740730Y13320500D01*
X4710300Y13317647D01*
X4710298Y13317647D01*
X4582119Y13272794D01*
X4582117Y13272793D01*
X4472850Y13192150D01*
X4392207Y13082883D01*
X4392206Y13082881D01*
X4347353Y12954702D01*
X4347353Y12954700D01*
X4344500Y12924270D01*
X300500Y12924270D01*
X300500Y15476000D01*
X320185Y15543039D01*
X372989Y15588794D01*
X424500Y15600000D01*
X4333188Y15600000D01*
X4400227Y15580315D01*
G37*
%TD.AperFunction*%
%TD*%
%TA.AperFunction,Conductor*%
%TO.N,/analog_inp_3*%
G36*
X66914952Y10701093D02*
G01*
X66950916Y10651593D01*
X66950916Y10590407D01*
X66949439Y10586192D01*
X66883798Y10411540D01*
X66871674Y10379280D01*
X66869920Y10374931D01*
X66581942Y9706662D01*
X66579689Y9701800D01*
X66256142Y9050430D01*
X66253629Y9045697D01*
X65895306Y8412780D01*
X65892541Y8408190D01*
X65500490Y7795578D01*
X65497480Y7791144D01*
X65072866Y7200658D01*
X65069621Y7196393D01*
X64613662Y6629728D01*
X64610191Y6625646D01*
X64124253Y6084498D01*
X64120566Y6080609D01*
X63606046Y5566535D01*
X63602154Y5562852D01*
X63060595Y5077392D01*
X63056510Y5073924D01*
X62489450Y4618457D01*
X62485182Y4615215D01*
X61894313Y4191102D01*
X61889877Y4188097D01*
X61276951Y3796593D01*
X61272358Y3793831D01*
X60639109Y3436045D01*
X60634374Y3433536D01*
X59982700Y3110542D01*
X59977836Y3108294D01*
X59309677Y2821050D01*
X59304699Y2819067D01*
X58621931Y2568382D01*
X58616852Y2566672D01*
X57921549Y2353305D01*
X57916386Y2351872D01*
X57210532Y2176435D01*
X57205298Y2175284D01*
X56491018Y2038303D01*
X56485730Y2037436D01*
X55765052Y1939301D01*
X55759724Y1938722D01*
X55034810Y1879727D01*
X55029459Y1879437D01*
X54302409Y1859752D01*
X54297051Y1859752D01*
X53570000Y1879437D01*
X53564649Y1879727D01*
X52839735Y1938722D01*
X52834407Y1939301D01*
X52113729Y2037436D01*
X52108441Y2038303D01*
X51394161Y2175284D01*
X51388927Y2176435D01*
X50683073Y2351872D01*
X50677910Y2353305D01*
X49982607Y2566672D01*
X49977528Y2568382D01*
X49294760Y2819067D01*
X49289782Y2821050D01*
X48621623Y3108294D01*
X48616759Y3110542D01*
X47965085Y3433536D01*
X47960350Y3436045D01*
X47327101Y3793831D01*
X47322508Y3796593D01*
X46709582Y4188097D01*
X46705146Y4191102D01*
X46114277Y4615215D01*
X46110009Y4618457D01*
X45542949Y5073924D01*
X45538864Y5077392D01*
X44997305Y5562852D01*
X44993413Y5566535D01*
X44478893Y6080609D01*
X44475206Y6084498D01*
X43989268Y6625646D01*
X43985797Y6629728D01*
X43529838Y7196393D01*
X43526602Y7200647D01*
X43101975Y7791149D01*
X43098969Y7795578D01*
X42706918Y8408190D01*
X42704153Y8412780D01*
X42345830Y9045697D01*
X42343317Y9050430D01*
X42019770Y9701800D01*
X42017517Y9706662D01*
X41729539Y10374931D01*
X41727792Y10379262D01*
X41650027Y10586172D01*
X41647254Y10647293D01*
X41680937Y10698373D01*
X41738211Y10719898D01*
X41742699Y10720000D01*
X66856761Y10720000D01*
X66914952Y10701093D01*
G37*
%TD.AperFunction*%
%TD*%
%TA.AperFunction,Conductor*%
%TO.N,/analog_inp_1*%
G36*
X55029476Y27660564D02*
G01*
X55034793Y27660275D01*
X55759735Y27601278D01*
X55765042Y27600702D01*
X56485754Y27502561D01*
X56490993Y27501702D01*
X57205316Y27364713D01*
X57210515Y27363570D01*
X57916412Y27188122D01*
X57921524Y27186703D01*
X58583321Y26983619D01*
X58616852Y26973329D01*
X58621932Y26971619D01*
X59304719Y26720926D01*
X59309658Y26718959D01*
X59977836Y26431707D01*
X59982697Y26429461D01*
X60634388Y26106458D01*
X60639109Y26103956D01*
X61272358Y25746170D01*
X61276935Y25743418D01*
X61889892Y25351894D01*
X61894298Y25348909D01*
X62449702Y24950253D01*
X62485182Y24924786D01*
X62489450Y24921544D01*
X63056510Y24466077D01*
X63060595Y24462609D01*
X63602154Y23977149D01*
X63606046Y23973466D01*
X64120566Y23459392D01*
X64124253Y23455503D01*
X64610191Y22914355D01*
X64613662Y22910273D01*
X65069621Y22343608D01*
X65072866Y22339343D01*
X65497480Y21748857D01*
X65500490Y21744423D01*
X65892541Y21131811D01*
X65895306Y21127221D01*
X66253629Y20494304D01*
X66256142Y20489571D01*
X66579689Y19838201D01*
X66581942Y19833339D01*
X66869920Y19165070D01*
X66871674Y19160720D01*
X66949432Y18953829D01*
X66952206Y18892707D01*
X66918523Y18841628D01*
X66861249Y18820102D01*
X66856761Y18820000D01*
X41742699Y18820000D01*
X41684508Y18838907D01*
X41648544Y18888407D01*
X41648544Y18949593D01*
X41650028Y18953829D01*
X41727798Y19160753D01*
X41729539Y19165070D01*
X42017517Y19833339D01*
X42019762Y19838184D01*
X42343322Y20489582D01*
X42345830Y20494304D01*
X42704153Y21127221D01*
X42706918Y21131811D01*
X43098984Y21744446D01*
X43101963Y21748835D01*
X43526615Y22339373D01*
X43529816Y22343580D01*
X43985799Y22910277D01*
X43989268Y22914355D01*
X44475218Y23455516D01*
X44478881Y23459380D01*
X44993438Y23973491D01*
X44997279Y23977125D01*
X45538889Y24462631D01*
X45542924Y24466057D01*
X46110025Y24921557D01*
X46114260Y24924774D01*
X46705178Y25348921D01*
X46709549Y25351883D01*
X47322540Y25743428D01*
X47327083Y25746160D01*
X47960362Y26103963D01*
X47965056Y26106450D01*
X48616776Y26429468D01*
X48621605Y26431699D01*
X49289814Y26718964D01*
X49294728Y26720922D01*
X49977538Y26971623D01*
X49982597Y26973326D01*
X50677945Y27186706D01*
X50683037Y27188120D01*
X51388952Y27363572D01*
X51394135Y27364712D01*
X52108471Y27501704D01*
X52113699Y27502561D01*
X52834421Y27600702D01*
X52839720Y27601278D01*
X53564668Y27660276D01*
X53569981Y27660564D01*
X54297071Y27680249D01*
X54302389Y27680249D01*
X55029476Y27660564D01*
G37*
%TD.AperFunction*%
%TD*%
%TA.AperFunction,Conductor*%
%TO.N,/analog_inp_2*%
G36*
X41742699Y18614500D02*
G01*
X41742700Y18614500D01*
X66856722Y18614500D01*
X66856761Y18614500D01*
X66861430Y18614553D01*
X66865918Y18614655D01*
X66868543Y18615163D01*
X66869629Y18615054D01*
X66870066Y18615100D01*
X66870075Y18615008D01*
X66925247Y18609431D01*
X66932560Y18606402D01*
X66979083Y18566662D01*
X66986131Y18552830D01*
X66992193Y18538195D01*
X66999730Y18500309D01*
X66999730Y11039692D01*
X66992193Y11001803D01*
X66986132Y10987172D01*
X66946393Y10940648D01*
X66932555Y10933597D01*
X66923246Y10929741D01*
X66869875Y10923424D01*
X66856761Y10925500D01*
X41742699Y10925500D01*
X41738146Y10925449D01*
X41738029Y10925447D01*
X41733537Y10925345D01*
X41730898Y10924834D01*
X41729808Y10924945D01*
X41729396Y10924900D01*
X41729386Y10924987D01*
X41674209Y10930571D01*
X41669063Y10932703D01*
X41666899Y10933599D01*
X41620376Y10973339D01*
X41613327Y10987172D01*
X41607264Y11001810D01*
X41599730Y11039692D01*
X41599730Y18500309D01*
X41607264Y18538190D01*
X41613326Y18552827D01*
X41653061Y18599350D01*
X41666895Y18606400D01*
X41676216Y18610261D01*
X41729585Y18616577D01*
X41742699Y18614500D01*
G37*
%TD.AperFunction*%
%TD*%
%TA.AperFunction,Conductor*%
%TO.N,GNDD*%
G36*
X33404028Y32199236D02*
G01*
X33665949Y32182069D01*
X33682005Y32179954D01*
X33935426Y32129546D01*
X33951077Y32125352D01*
X34195752Y32042296D01*
X34210730Y32036092D01*
X34442460Y31921815D01*
X34456506Y31913705D01*
X34671336Y31770161D01*
X34684205Y31760287D01*
X34878460Y31589930D01*
X34889929Y31578461D01*
X35045996Y31400500D01*
X35060286Y31384206D01*
X35070160Y31371337D01*
X35213704Y31156507D01*
X35221814Y31142461D01*
X35336091Y30910731D01*
X35342298Y30895746D01*
X35425348Y30651089D01*
X35429546Y30635421D01*
X35479952Y30382011D01*
X35482069Y30365930D01*
X35499234Y30104059D01*
X35499500Y30095949D01*
X35499500Y21156137D01*
X35500000Y21148511D01*
X35500000Y20251487D01*
X35499500Y20243860D01*
X35499500Y16124000D01*
X35479815Y16056961D01*
X35427011Y16011206D01*
X35375500Y16000000D01*
X29346628Y16000000D01*
X29279589Y16019685D01*
X29233834Y16072489D01*
X29223689Y16107814D01*
X29221558Y16124000D01*
X29216330Y16163709D01*
X29160861Y16297625D01*
X29072621Y16412621D01*
X28957625Y16500861D01*
X28896213Y16526299D01*
X28841812Y16570137D01*
X28819747Y16636431D01*
X28837026Y16704130D01*
X28888162Y16751741D01*
X28896187Y16755408D01*
X28977625Y16789139D01*
X29092621Y16877379D01*
X29180861Y16992375D01*
X29236330Y17126291D01*
X29255250Y17270000D01*
X29236330Y17413709D01*
X29180861Y17547625D01*
X29092621Y17662621D01*
X28977625Y17750861D01*
X28977624Y17750862D01*
X28977622Y17750863D01*
X28843712Y17806329D01*
X28843710Y17806330D01*
X28843709Y17806330D01*
X28771854Y17815790D01*
X28700001Y17825250D01*
X28699999Y17825250D01*
X28556291Y17806330D01*
X28556287Y17806329D01*
X28422376Y17750862D01*
X28422370Y17750859D01*
X28416199Y17746123D01*
X28351030Y17720930D01*
X28340715Y17720500D01*
X26060479Y17720500D01*
X25993440Y17740185D01*
X25947685Y17792989D01*
X25943442Y17803532D01*
X25929116Y17844475D01*
X25850711Y17950711D01*
X25850710Y17950712D01*
X25744477Y18029115D01*
X25744475Y18029116D01*
X25740391Y18030545D01*
X25736527Y18033317D01*
X25736260Y18033458D01*
X25736279Y18033495D01*
X25683618Y18071267D01*
X25657872Y18136220D01*
X25671329Y18204781D01*
X25719717Y18255183D01*
X25735860Y18262940D01*
X25803413Y18289580D01*
X25921143Y18378857D01*
X26010420Y18496587D01*
X26010423Y18496593D01*
X26064626Y18634042D01*
X26075000Y18720429D01*
X26075000Y18912500D01*
X24525000Y18912500D01*
X24525000Y18720429D01*
X24535373Y18634042D01*
X24589576Y18496593D01*
X24589579Y18496587D01*
X24678856Y18378857D01*
X24796586Y18289580D01*
X24796592Y18289577D01*
X24864139Y18262939D01*
X24919283Y18220033D01*
X24942476Y18154125D01*
X24926355Y18086141D01*
X24876038Y18037665D01*
X24859608Y18030545D01*
X24855524Y18029116D01*
X24855523Y18029116D01*
X24749289Y17950712D01*
X24749288Y17950711D01*
X24670884Y17844477D01*
X24662685Y17821044D01*
X24621963Y17764269D01*
X24557010Y17738522D01*
X24545644Y17738000D01*
X23914500Y17738000D01*
X23847461Y17757685D01*
X23801706Y17810489D01*
X23790500Y17862000D01*
X23790500Y17929751D01*
X23790499Y17929753D01*
X23778868Y17988230D01*
X23778867Y17988231D01*
X23734552Y18054553D01*
X23668230Y18098868D01*
X23668229Y18098869D01*
X23609752Y18110500D01*
X23609748Y18110500D01*
X21570252Y18110500D01*
X21570247Y18110500D01*
X21511770Y18098869D01*
X21511769Y18098868D01*
X21445447Y18054553D01*
X21401132Y17988231D01*
X21401131Y17988230D01*
X21389500Y17929753D01*
X21389500Y17535003D01*
X21369815Y17467964D01*
X21317011Y17422209D01*
X21297595Y17415229D01*
X21228857Y17396811D01*
X21228858Y17396810D01*
X21215416Y17393208D01*
X21215410Y17393206D01*
X21124085Y17340479D01*
X21049518Y17265911D01*
X20827677Y17044071D01*
X20766354Y17010586D01*
X20696662Y17015570D01*
X20664510Y17033375D01*
X20650570Y17044071D01*
X20602625Y17080861D01*
X20602621Y17080863D01*
X20468712Y17136329D01*
X20468710Y17136330D01*
X20468709Y17136330D01*
X20396854Y17145790D01*
X20325001Y17155250D01*
X20324999Y17155250D01*
X20181291Y17136330D01*
X20181287Y17136329D01*
X20047377Y17080863D01*
X19932379Y16992621D01*
X19844137Y16877623D01*
X19788671Y16743713D01*
X19788670Y16743709D01*
X19770050Y16602275D01*
X19769750Y16600000D01*
X19779453Y16526296D01*
X19788670Y16456292D01*
X19788671Y16456288D01*
X19844137Y16322378D01*
X19844138Y16322376D01*
X19844139Y16322375D01*
X19932379Y16207379D01*
X19932381Y16207378D01*
X19937327Y16200932D01*
X19934944Y16199104D01*
X19961562Y16150358D01*
X19956578Y16080666D01*
X19914706Y16024733D01*
X19849242Y16000316D01*
X19840396Y16000000D01*
X17074500Y16000000D01*
X17007461Y16019685D01*
X16961706Y16072489D01*
X16950500Y16124000D01*
X16950500Y18625215D01*
X21290001Y18625215D01*
X21290002Y18625192D01*
X21292908Y18600131D01*
X21292909Y18600127D01*
X21338211Y18497526D01*
X21338214Y18497521D01*
X21417520Y18418215D01*
X21417525Y18418212D01*
X21520123Y18372911D01*
X21545206Y18370001D01*
X22439999Y18370001D01*
X22740000Y18370001D01*
X23634786Y18370001D01*
X23634808Y18370003D01*
X23659869Y18372909D01*
X23659873Y18372910D01*
X23762474Y18418212D01*
X23762479Y18418215D01*
X23841785Y18497521D01*
X23841788Y18497526D01*
X23887089Y18600123D01*
X23887089Y18600125D01*
X23889999Y18625206D01*
X23890000Y18625209D01*
X23890000Y19404572D01*
X24525000Y19404572D01*
X24525000Y19212500D01*
X25150000Y19212500D01*
X25450000Y19212500D01*
X26075000Y19212500D01*
X26075000Y19404572D01*
X26064626Y19490959D01*
X26010423Y19628408D01*
X26010420Y19628414D01*
X25921143Y19746144D01*
X25803413Y19835421D01*
X25803407Y19835424D01*
X25665958Y19889627D01*
X25579572Y19900000D01*
X25450000Y19900000D01*
X25450000Y19212500D01*
X25150000Y19212500D01*
X25150000Y19900000D01*
X25020428Y19900000D01*
X24934041Y19889627D01*
X24796592Y19835424D01*
X24796586Y19835421D01*
X24678856Y19746144D01*
X24589579Y19628414D01*
X24589576Y19628408D01*
X24535373Y19490959D01*
X24525000Y19404572D01*
X23890000Y19404572D01*
X23890000Y19410000D01*
X22740000Y19410000D01*
X22740000Y18370001D01*
X22439999Y18370001D01*
X22440000Y18370002D01*
X22440000Y19410000D01*
X21290001Y19410000D01*
X21290001Y18625215D01*
X16950500Y18625215D01*
X16950500Y19462035D01*
X16970185Y19529074D01*
X16986819Y19549716D01*
X17931899Y20494795D01*
X21290000Y20494795D01*
X21290000Y19710000D01*
X22440000Y19710000D01*
X22740000Y19710000D01*
X23889999Y19710000D01*
X23889999Y20494786D01*
X23889997Y20494809D01*
X23887091Y20519870D01*
X23887090Y20519874D01*
X23841788Y20622475D01*
X23841785Y20622480D01*
X23762479Y20701786D01*
X23762474Y20701789D01*
X23659876Y20747090D01*
X23634794Y20750000D01*
X22740000Y20750000D01*
X22740000Y19710000D01*
X22440000Y19710000D01*
X22440000Y20750000D01*
X21545214Y20750000D01*
X21545191Y20749998D01*
X21520130Y20747092D01*
X21520126Y20747091D01*
X21417525Y20701789D01*
X21417520Y20701786D01*
X21338214Y20622480D01*
X21338211Y20622475D01*
X21292910Y20519878D01*
X21292910Y20519876D01*
X21290000Y20494795D01*
X17931899Y20494795D01*
X18550285Y21113181D01*
X18611608Y21146666D01*
X18637966Y21149500D01*
X20540691Y21149500D01*
X26062035Y21149500D01*
X26129074Y21129815D01*
X26149716Y21113181D01*
X27977396Y19285501D01*
X28010881Y19224178D01*
X28012654Y19214009D01*
X28013670Y19206290D01*
X28069137Y19072378D01*
X28069138Y19072376D01*
X28069139Y19072375D01*
X28157379Y18957379D01*
X28272375Y18869139D01*
X28406291Y18813670D01*
X28533280Y18796952D01*
X28549999Y18794750D01*
X28550000Y18794750D01*
X28550001Y18794750D01*
X28564977Y18796722D01*
X28693709Y18813670D01*
X28827625Y18869139D01*
X28942621Y18957379D01*
X29030861Y19072375D01*
X29086330Y19206291D01*
X29105250Y19350000D01*
X29086330Y19493709D01*
X29030861Y19627625D01*
X28942621Y19742621D01*
X28827625Y19830861D01*
X28827624Y19830862D01*
X28827622Y19830863D01*
X28693710Y19886330D01*
X28690002Y19886818D01*
X28685990Y19887347D01*
X28622096Y19915615D01*
X28614499Y19922604D01*
X26576616Y21960487D01*
X26576614Y21960489D01*
X26525250Y21990144D01*
X26473888Y22019799D01*
X26461780Y22023043D01*
X26449673Y22026287D01*
X26449670Y22026288D01*
X26411478Y22036522D01*
X26359309Y22050500D01*
X20659309Y22050500D01*
X11740691Y22050500D01*
X11650325Y22026287D01*
X11650324Y22026288D01*
X11626116Y22019801D01*
X11626113Y22019800D01*
X11523386Y21960489D01*
X11523383Y21960487D01*
X10539513Y20976617D01*
X10539509Y20976611D01*
X10480201Y20873888D01*
X10480200Y20873883D01*
X10449500Y20759309D01*
X10449500Y17337966D01*
X10429815Y17270927D01*
X10413180Y17250285D01*
X9362001Y16199104D01*
X9199216Y16036319D01*
X9137893Y16002834D01*
X9111535Y16000000D01*
X5903958Y16000000D01*
X5836919Y16019685D01*
X5791164Y16072489D01*
X5781220Y16141647D01*
X5810245Y16205203D01*
X5869023Y16242977D01*
X5879767Y16245617D01*
X5909677Y16251567D01*
X5951420Y16259870D01*
X6142598Y16339059D01*
X6314655Y16454023D01*
X6460977Y16600345D01*
X6575941Y16772402D01*
X6655130Y16963580D01*
X6695500Y17166535D01*
X6695500Y17373465D01*
X6655130Y17576420D01*
X6575941Y17767598D01*
X6460977Y17939655D01*
X6460975Y17939658D01*
X6314657Y18085976D01*
X6228626Y18143459D01*
X6142598Y18200941D01*
X6133327Y18204781D01*
X5951420Y18280130D01*
X5951412Y18280132D01*
X5748469Y18320500D01*
X5748465Y18320500D01*
X5291535Y18320500D01*
X5291530Y18320500D01*
X5088587Y18280132D01*
X5088579Y18280130D01*
X4897403Y18200942D01*
X4725342Y18085976D01*
X4579024Y17939658D01*
X4464058Y17767597D01*
X4384870Y17576421D01*
X4384868Y17576413D01*
X4344500Y17373470D01*
X4344500Y17166531D01*
X4384868Y16963588D01*
X4384870Y16963580D01*
X4447911Y16811385D01*
X4464059Y16772402D01*
X4475406Y16755420D01*
X4579024Y16600343D01*
X4725342Y16454025D01*
X4725345Y16454023D01*
X4897402Y16339059D01*
X5088580Y16259870D01*
X5123032Y16253018D01*
X5160233Y16245617D01*
X5222144Y16213232D01*
X5256718Y16152517D01*
X5252979Y16082747D01*
X5212113Y16026075D01*
X5147095Y16000494D01*
X5136042Y16000000D01*
X424500Y16000000D01*
X357461Y16019685D01*
X311706Y16072489D01*
X300500Y16124000D01*
X300500Y19873470D01*
X4344500Y19873470D01*
X4344500Y19666531D01*
X4384868Y19463588D01*
X4384870Y19463580D01*
X4464058Y19272404D01*
X4579024Y19100343D01*
X4725342Y18954025D01*
X4725345Y18954023D01*
X4897402Y18839059D01*
X5088580Y18759870D01*
X5286865Y18720429D01*
X5291530Y18719501D01*
X5291534Y18719500D01*
X5291535Y18719500D01*
X5748466Y18719500D01*
X5748467Y18719501D01*
X5951420Y18759870D01*
X6142598Y18839059D01*
X6218837Y18890000D01*
X7544750Y18890000D01*
X7561882Y18759869D01*
X7563670Y18746292D01*
X7563671Y18746288D01*
X7619137Y18612378D01*
X7619138Y18612376D01*
X7619139Y18612375D01*
X7707379Y18497379D01*
X7822375Y18409139D01*
X7956291Y18353670D01*
X8083280Y18336952D01*
X8099999Y18334750D01*
X8100000Y18334750D01*
X8100001Y18334750D01*
X8114977Y18336722D01*
X8243709Y18353670D01*
X8377625Y18409139D01*
X8492621Y18497379D01*
X8580861Y18612375D01*
X8636330Y18746291D01*
X8655250Y18890000D01*
X8636330Y19033709D01*
X8580861Y19167625D01*
X8576123Y19173800D01*
X8550930Y19238969D01*
X8550500Y19249285D01*
X8550500Y20562035D01*
X8570185Y20629074D01*
X8586819Y20649716D01*
X9750284Y21813181D01*
X9811607Y21846666D01*
X9837965Y21849500D01*
X10140715Y21849500D01*
X10207754Y21829815D01*
X10216199Y21823877D01*
X10222370Y21819142D01*
X10222373Y21819141D01*
X10222375Y21819139D01*
X10356291Y21763670D01*
X10483280Y21746952D01*
X10499999Y21744750D01*
X10500000Y21744750D01*
X10500001Y21744750D01*
X10514977Y21746722D01*
X10643709Y21763670D01*
X10777625Y21819139D01*
X10892621Y21907379D01*
X10980861Y22022375D01*
X11036330Y22156291D01*
X11055250Y22300000D01*
X11036330Y22443709D01*
X10980861Y22577625D01*
X10892621Y22692621D01*
X10777625Y22780861D01*
X10777624Y22780862D01*
X10777622Y22780863D01*
X10643712Y22836329D01*
X10643710Y22836330D01*
X10643709Y22836330D01*
X10571854Y22845790D01*
X10500001Y22855250D01*
X10499999Y22855250D01*
X10356291Y22836330D01*
X10356287Y22836329D01*
X10222376Y22780862D01*
X10222370Y22780859D01*
X10216199Y22776123D01*
X10151030Y22750930D01*
X10140715Y22750500D01*
X9540691Y22750500D01*
X9426114Y22719799D01*
X9426112Y22719799D01*
X9426112Y22719798D01*
X9401334Y22705492D01*
X9401333Y22705492D01*
X9323389Y22660492D01*
X9323384Y22660488D01*
X7739513Y21076617D01*
X7739509Y21076611D01*
X7680201Y20973888D01*
X7680200Y20973883D01*
X7649500Y20859309D01*
X7649500Y19249285D01*
X7629815Y19182246D01*
X7623877Y19173800D01*
X7619138Y19167625D01*
X7563671Y19033713D01*
X7563670Y19033709D01*
X7544750Y18890000D01*
X6218837Y18890000D01*
X6314655Y18954023D01*
X6460977Y19100345D01*
X6575941Y19272402D01*
X6655130Y19463580D01*
X6695500Y19666535D01*
X6695500Y19873465D01*
X6655130Y20076420D01*
X6575941Y20267598D01*
X6460977Y20439655D01*
X6460975Y20439658D01*
X6314657Y20585976D01*
X6218089Y20650500D01*
X6142598Y20700941D01*
X5951420Y20780130D01*
X5951412Y20780132D01*
X5748469Y20820500D01*
X5748465Y20820500D01*
X5291535Y20820500D01*
X5291530Y20820500D01*
X5088587Y20780132D01*
X5088579Y20780130D01*
X4897403Y20700942D01*
X4725342Y20585976D01*
X4579024Y20439658D01*
X4464058Y20267597D01*
X4384870Y20076421D01*
X4384868Y20076413D01*
X4344500Y19873470D01*
X300500Y19873470D01*
X300500Y22373470D01*
X4344500Y22373470D01*
X4344500Y22166531D01*
X4384868Y21963588D01*
X4384870Y21963580D01*
X4444698Y21819142D01*
X4464059Y21772402D01*
X4521541Y21686374D01*
X4579024Y21600343D01*
X4725342Y21454025D01*
X4725345Y21454023D01*
X4897402Y21339059D01*
X5088580Y21259870D01*
X5291530Y21219501D01*
X5291534Y21219500D01*
X5291535Y21219500D01*
X5748466Y21219500D01*
X5748467Y21219501D01*
X5951420Y21259870D01*
X6142598Y21339059D01*
X6314655Y21454023D01*
X6460977Y21600345D01*
X6575941Y21772402D01*
X6655130Y21963580D01*
X6695500Y22166535D01*
X6695500Y22373465D01*
X6655130Y22576420D01*
X6575941Y22767598D01*
X6460977Y22939655D01*
X6460975Y22939658D01*
X6314657Y23085976D01*
X6228626Y23143459D01*
X6142598Y23200941D01*
X5951420Y23280130D01*
X5951412Y23280132D01*
X5748469Y23320500D01*
X5748465Y23320500D01*
X5291535Y23320500D01*
X5291530Y23320500D01*
X5088587Y23280132D01*
X5088579Y23280130D01*
X4897403Y23200942D01*
X4725342Y23085976D01*
X4579024Y22939658D01*
X4464058Y22767597D01*
X4384870Y22576421D01*
X4384868Y22576413D01*
X4344500Y22373470D01*
X300500Y22373470D01*
X300500Y24873470D01*
X4344500Y24873470D01*
X4344500Y24666531D01*
X4384868Y24463588D01*
X4384870Y24463580D01*
X4461644Y24278231D01*
X4464059Y24272402D01*
X4510849Y24202376D01*
X4579024Y24100343D01*
X4725342Y23954025D01*
X4725345Y23954023D01*
X4897402Y23839059D01*
X5088580Y23759870D01*
X5291530Y23719501D01*
X5291534Y23719500D01*
X5291535Y23719500D01*
X5748466Y23719500D01*
X5748467Y23719501D01*
X5951420Y23759870D01*
X6142598Y23839059D01*
X6314655Y23954023D01*
X6460977Y24100345D01*
X6549898Y24233427D01*
X6603509Y24278231D01*
X6672834Y24286938D01*
X6735862Y24256784D01*
X6740679Y24252218D01*
X7383386Y23609510D01*
X7486113Y23550201D01*
X7510321Y23543716D01*
X7510324Y23543714D01*
X7510325Y23543714D01*
X7540447Y23535643D01*
X7600691Y23519500D01*
X7600693Y23519500D01*
X25309308Y23519500D01*
X25309309Y23519500D01*
X25399673Y23543714D01*
X25423887Y23550201D01*
X25526614Y23609511D01*
X25875490Y23958386D01*
X25934799Y24061114D01*
X25938388Y24074508D01*
X25953812Y24132075D01*
X25975211Y24175466D01*
X25995861Y24202375D01*
X26051330Y24336291D01*
X26070250Y24480000D01*
X26051330Y24623709D01*
X25995861Y24757625D01*
X25907621Y24872621D01*
X25792625Y24960861D01*
X25792624Y24960862D01*
X25792622Y24960863D01*
X25658712Y25016329D01*
X25658710Y25016330D01*
X25658709Y25016330D01*
X25586854Y25025790D01*
X25515001Y25035250D01*
X25514999Y25035250D01*
X25371291Y25016330D01*
X25371287Y25016329D01*
X25237377Y24960863D01*
X25122379Y24872621D01*
X25034137Y24757623D01*
X24978671Y24623713D01*
X24978670Y24623709D01*
X24966111Y24528314D01*
X24937844Y24464418D01*
X24879520Y24425947D01*
X24843172Y24420500D01*
X7897966Y24420500D01*
X7830927Y24440185D01*
X7810285Y24456819D01*
X7136616Y25130487D01*
X7136614Y25130489D01*
X7085250Y25160144D01*
X7033888Y25189799D01*
X7021780Y25193043D01*
X7009673Y25196287D01*
X7009670Y25196288D01*
X6971478Y25206522D01*
X6919309Y25220500D01*
X6919308Y25220500D01*
X6673691Y25220500D01*
X6606652Y25240185D01*
X6570589Y25275609D01*
X6460977Y25439656D01*
X6314657Y25585976D01*
X6228626Y25643459D01*
X6142598Y25700941D01*
X5951420Y25780130D01*
X5951412Y25780132D01*
X5748469Y25820500D01*
X5748465Y25820500D01*
X5291535Y25820500D01*
X5291530Y25820500D01*
X5088587Y25780132D01*
X5088579Y25780130D01*
X4897403Y25700942D01*
X4725342Y25585976D01*
X4579024Y25439658D01*
X4464058Y25267597D01*
X4384870Y25076421D01*
X4384868Y25076413D01*
X4344500Y24873470D01*
X300500Y24873470D01*
X300500Y30095949D01*
X300763Y30104028D01*
X307208Y30202352D01*
X1099500Y30202352D01*
X1099500Y29997649D01*
X1131522Y29795466D01*
X1194781Y29600777D01*
X1287715Y29418387D01*
X1408028Y29252787D01*
X1552786Y29108029D01*
X1690420Y29008034D01*
X1718390Y28987713D01*
X1834607Y28928497D01*
X1900776Y28894782D01*
X1900778Y28894782D01*
X1900781Y28894780D01*
X2005137Y28860873D01*
X2095465Y28831523D01*
X2196557Y28815512D01*
X2297648Y28799500D01*
X2297649Y28799500D01*
X2502351Y28799500D01*
X2502352Y28799500D01*
X2704534Y28831523D01*
X2899219Y28894780D01*
X3081610Y28987713D01*
X3174590Y29055268D01*
X3247213Y29108029D01*
X3247215Y29108032D01*
X3247219Y29108034D01*
X3391966Y29252781D01*
X3391968Y29252785D01*
X3391971Y29252787D01*
X3444732Y29325410D01*
X3512287Y29418390D01*
X3605220Y29600781D01*
X3668477Y29795466D01*
X3700500Y29997648D01*
X3700500Y30102352D01*
X31999500Y30102352D01*
X31999500Y29897649D01*
X32031522Y29695466D01*
X32094781Y29500777D01*
X32187715Y29318387D01*
X32308028Y29152787D01*
X32452786Y29008029D01*
X32607749Y28895444D01*
X32618390Y28887713D01*
X32728669Y28831523D01*
X32800776Y28794782D01*
X32800778Y28794782D01*
X32800781Y28794780D01*
X32905137Y28760873D01*
X32995465Y28731523D01*
X33096557Y28715512D01*
X33197648Y28699500D01*
X33197649Y28699500D01*
X33402351Y28699500D01*
X33402352Y28699500D01*
X33604534Y28731523D01*
X33799219Y28794780D01*
X33981610Y28887713D01*
X34074590Y28955268D01*
X34147213Y29008029D01*
X34147215Y29008032D01*
X34147219Y29008034D01*
X34291966Y29152781D01*
X34291968Y29152785D01*
X34291971Y29152787D01*
X34344732Y29225410D01*
X34412287Y29318390D01*
X34505220Y29500781D01*
X34568477Y29695466D01*
X34600500Y29897648D01*
X34600500Y30102352D01*
X34568477Y30304534D01*
X34505220Y30499219D01*
X34505218Y30499222D01*
X34505218Y30499224D01*
X34454265Y30599224D01*
X34412287Y30681610D01*
X34404556Y30692251D01*
X34291971Y30847214D01*
X34147213Y30991972D01*
X33981613Y31112285D01*
X33981612Y31112286D01*
X33981610Y31112287D01*
X33908085Y31149750D01*
X33799223Y31205219D01*
X33604534Y31268478D01*
X33429995Y31296122D01*
X33402352Y31300500D01*
X33197648Y31300500D01*
X33173329Y31296649D01*
X32995465Y31268478D01*
X32800776Y31205219D01*
X32618386Y31112285D01*
X32452786Y30991972D01*
X32308028Y30847214D01*
X32187715Y30681614D01*
X32094781Y30499224D01*
X32031522Y30304535D01*
X31999500Y30102352D01*
X3700500Y30102352D01*
X3700500Y30202352D01*
X3668477Y30404534D01*
X3605220Y30599219D01*
X3605218Y30599222D01*
X3605218Y30599224D01*
X3571503Y30665393D01*
X3512287Y30781610D01*
X3504556Y30792251D01*
X3391971Y30947214D01*
X3247213Y31091972D01*
X3081613Y31212285D01*
X3081612Y31212286D01*
X3081610Y31212287D01*
X3024653Y31241309D01*
X2899223Y31305219D01*
X2704534Y31368478D01*
X2529995Y31396122D01*
X2502352Y31400500D01*
X2297648Y31400500D01*
X2273329Y31396649D01*
X2095465Y31368478D01*
X1900776Y31305219D01*
X1718386Y31212285D01*
X1552786Y31091972D01*
X1408028Y30947214D01*
X1287715Y30781614D01*
X1194781Y30599224D01*
X1131522Y30404535D01*
X1099500Y30202352D01*
X307208Y30202352D01*
X317931Y30365952D01*
X320045Y30382004D01*
X370455Y30635431D01*
X374646Y30651074D01*
X457705Y30895758D01*
X463905Y30910724D01*
X578188Y31142467D01*
X586295Y31156507D01*
X661111Y31268478D01*
X729842Y31371342D01*
X739704Y31384196D01*
X910075Y31578467D01*
X921533Y31589925D01*
X1115804Y31760296D01*
X1128658Y31770158D01*
X1343493Y31913705D01*
X1357533Y31921812D01*
X1589276Y32036095D01*
X1604242Y32042295D01*
X1848926Y32125354D01*
X1864569Y32129545D01*
X2117996Y32179955D01*
X2134048Y32182069D01*
X2395971Y32199236D01*
X2404052Y32199500D01*
X2447595Y32199500D01*
X33352405Y32199500D01*
X33395948Y32199500D01*
X33404028Y32199236D01*
G37*
%TD.AperFunction*%
%TD*%
M02*
