%TF.GenerationSoftware,KiCad,Pcbnew,8.0.4*%
%TF.CreationDate,2024-11-05T13:43:53+01:00*%
%TF.ProjectId,Nutzen,4e75747a-656e-42e6-9b69-6361645f7063,rev?*%
%TF.SameCoordinates,PX791ddc0PY78a3ca0*%
%TF.FileFunction,Profile,NP*%
%FSLAX46Y46*%
G04 Gerber Fmt 4.6, Leading zero omitted, Abs format (unit mm)*
G04 Created by KiCad (PCBNEW 8.0.4) date 2024-11-05 13:43:53*
%MOMM*%
%LPD*%
G01*
G04 APERTURE LIST*
%TA.AperFunction,Profile*%
%ADD10C,0.100000*%
%TD*%
G04 APERTURE END LIST*
D10*
X35800000Y20200000D02*
X35800000Y12200000D01*
X35800000Y11200000D02*
X35800000Y2400000D01*
X2400000Y0D02*
G75*
G02*
X0Y2400000I0J2400000D01*
G01*
X35800000Y2400000D02*
G75*
G02*
X33400000Y0I-2400000J0D01*
G01*
X0Y30100000D02*
G75*
G02*
X2400000Y32500000I2400000J0D01*
G01*
X33400000Y32500000D02*
G75*
G02*
X35800000Y30100000I0J-2400000D01*
G01*
X0Y2400000D02*
X0Y30100000D01*
X33400000Y0D02*
X2400000Y0D01*
X2400000Y32500000D02*
X33400000Y32500000D01*
X38590268Y11200000D02*
X38753115Y10707056D01*
X38590268Y11200000D02*
X35800000Y11200000D01*
X38297222Y12200000D02*
X35800000Y12200000D01*
X70409731Y16200000D02*
X70409731Y16200000D01*
X70390091Y15399958D02*
X70409731Y16200000D01*
X70331219Y14601844D02*
X70390091Y15399958D01*
X70233255Y13807579D02*
X70331219Y14601844D01*
X70096438Y13019078D02*
X70233255Y13807579D01*
X69921095Y12238241D02*
X70096438Y13019078D01*
X69707649Y11466947D02*
X69921095Y12238241D01*
X69456615Y10707056D02*
X69707649Y11466947D01*
X69168597Y9960398D02*
X69456615Y10707056D01*
X68844289Y9228771D02*
X69168597Y9960398D01*
X68484473Y8513939D02*
X68844289Y9228771D01*
X68090015Y7817624D02*
X68484473Y8513939D01*
X67661866Y7141502D02*
X68090015Y7817624D01*
X67201056Y6487203D02*
X67661866Y7141502D01*
X66708697Y5856303D02*
X67201056Y6487203D01*
X66185974Y5250321D02*
X66708697Y5856303D01*
X65634146Y4670719D02*
X66185974Y5250321D01*
X65054544Y4118891D02*
X65634146Y4670719D01*
X64448562Y3596168D02*
X65054544Y4118891D01*
X63817662Y3103809D02*
X64448562Y3596168D01*
X63163363Y2642999D02*
X63817662Y3103809D01*
X62487241Y2214850D02*
X63163363Y2642999D01*
X61790926Y1820392D02*
X62487241Y2214850D01*
X61076094Y1460576D02*
X61790926Y1820392D01*
X60344467Y1136268D02*
X61076094Y1460576D01*
X59597809Y848250D02*
X60344467Y1136268D01*
X58837918Y597216D02*
X59597809Y848250D01*
X58066624Y383770D02*
X58837918Y597216D01*
X57285787Y208427D02*
X58066624Y383770D01*
X56497286Y71610D02*
X57285787Y208427D01*
X55703021Y-26354D02*
X56497286Y71610D01*
X54904907Y-85226D02*
X55703021Y-26354D01*
X54104865Y-104866D02*
X54904907Y-85226D01*
X53304823Y-85226D02*
X54104865Y-104866D01*
X52506709Y-26354D02*
X53304823Y-85226D01*
X51712444Y71610D02*
X52506709Y-26354D01*
X50923943Y208427D02*
X51712444Y71610D01*
X50143106Y383770D02*
X50923943Y208427D01*
X49371812Y597216D02*
X50143106Y383770D01*
X48611921Y848250D02*
X49371812Y597216D01*
X47865263Y1136268D02*
X48611921Y848250D01*
X47133636Y1460576D02*
X47865263Y1136268D01*
X46418804Y1820392D02*
X47133636Y1460576D01*
X45722489Y2214850D02*
X46418804Y1820392D01*
X45046367Y2642999D02*
X45722489Y2214850D01*
X44392068Y3103809D02*
X45046367Y2642999D01*
X43761168Y3596168D02*
X44392068Y3103809D01*
X43155186Y4118891D02*
X43761168Y3596168D01*
X42575584Y4670719D02*
X43155186Y4118891D01*
X42023756Y5250321D02*
X42575584Y4670719D01*
X41501033Y5856303D02*
X42023756Y5250321D01*
X41008674Y6487203D02*
X41501033Y5856303D01*
X40547864Y7141502D02*
X41008674Y6487203D01*
X40119715Y7817624D02*
X40547864Y7141502D01*
X39725257Y8513939D02*
X40119715Y7817624D01*
X39365441Y9228771D02*
X39725257Y8513939D01*
X39041133Y9960398D02*
X39365441Y9228771D01*
X38753115Y10707056D02*
X39041133Y9960398D01*
X38113292Y13019078D02*
X38297222Y12200000D01*
X37976475Y13807579D02*
X38113292Y13019078D01*
X37878511Y14601844D02*
X37976475Y13807579D01*
X37819639Y15399958D02*
X37878511Y14601844D01*
X37799999Y16200000D02*
X37819639Y15399958D01*
X37819639Y17000042D02*
X37799999Y16200000D01*
X37878511Y17798156D02*
X37819639Y17000042D01*
X37976475Y18592421D02*
X37878511Y17798156D01*
X38113292Y19380922D02*
X37976475Y18592421D01*
X38297222Y20200000D02*
X38113292Y19380922D01*
X38753115Y21692944D02*
X38590268Y21200000D01*
X39041133Y22439602D02*
X38753115Y21692944D01*
X39365441Y23171229D02*
X39041133Y22439602D01*
X39725257Y23886061D02*
X39365441Y23171229D01*
X40119715Y24582376D02*
X39725257Y23886061D01*
X40547864Y25258498D02*
X40119715Y24582376D01*
X41008674Y25912797D02*
X40547864Y25258498D01*
X41501033Y26543697D02*
X41008674Y25912797D01*
X42023756Y27149679D02*
X41501033Y26543697D01*
X42575584Y27729281D02*
X42023756Y27149679D01*
X43155186Y28281109D02*
X42575584Y27729281D01*
X43761168Y28803832D02*
X43155186Y28281109D01*
X44392068Y29296191D02*
X43761168Y28803832D01*
X45046367Y29757001D02*
X44392068Y29296191D01*
X45722489Y30185150D02*
X45046367Y29757001D01*
X46418804Y30579608D02*
X45722489Y30185150D01*
X47133636Y30939424D02*
X46418804Y30579608D01*
X47865263Y31263732D02*
X47133636Y30939424D01*
X48611921Y31551750D02*
X47865263Y31263732D01*
X49371812Y31802784D02*
X48611921Y31551750D01*
X50143106Y32016230D02*
X49371812Y31802784D01*
X50923943Y32191573D02*
X50143106Y32016230D01*
X51712444Y32328390D02*
X50923943Y32191573D01*
X52506709Y32426354D02*
X51712444Y32328390D01*
X53304823Y32485226D02*
X52506709Y32426354D01*
X54104865Y32504866D02*
X53304823Y32485226D01*
X54904907Y32485226D02*
X54104865Y32504866D01*
X55703021Y32426354D02*
X54904907Y32485226D01*
X56497286Y32328390D02*
X55703021Y32426354D01*
X57285787Y32191573D02*
X56497286Y32328390D01*
X58066624Y32016230D02*
X57285787Y32191573D01*
X58837918Y31802784D02*
X58066624Y32016230D01*
X59597809Y31551750D02*
X58837918Y31802784D01*
X60344467Y31263732D02*
X59597809Y31551750D01*
X61076094Y30939424D02*
X60344467Y31263732D01*
X61790926Y30579608D02*
X61076094Y30939424D01*
X62487241Y30185150D02*
X61790926Y30579608D01*
X63163363Y29757001D02*
X62487241Y30185150D01*
X63817662Y29296191D02*
X63163363Y29757001D01*
X64448562Y28803832D02*
X63817662Y29296191D01*
X65054544Y28281109D02*
X64448562Y28803832D01*
X65634146Y27729281D02*
X65054544Y28281109D01*
X66185974Y27149679D02*
X65634146Y27729281D01*
X66708697Y26543697D02*
X66185974Y27149679D01*
X67201056Y25912797D02*
X66708697Y26543697D01*
X67661866Y25258498D02*
X67201056Y25912797D01*
X68090015Y24582376D02*
X67661866Y25258498D01*
X68484473Y23886061D02*
X68090015Y24582376D01*
X68844289Y23171229D02*
X68484473Y23886061D01*
X69168597Y22439602D02*
X68844289Y23171229D01*
X69456615Y21692944D02*
X69168597Y22439602D01*
X69707649Y20933053D02*
X69456615Y21692944D01*
X69921095Y20161759D02*
X69707649Y20933053D01*
X70096438Y19380922D02*
X69921095Y20161759D01*
X70233255Y18592421D02*
X70096438Y19380922D01*
X70331219Y17798156D02*
X70233255Y18592421D01*
X70390091Y17000042D02*
X70331219Y17798156D01*
X70409731Y16200000D02*
X70390091Y17000042D01*
X35800000Y21200000D02*
X38590268Y21200000D01*
X38297222Y20200000D02*
X35800000Y20200000D01*
X35800000Y30100000D02*
X35800000Y21200000D01*
M02*
