%TF.GenerationSoftware,KiCad,Pcbnew,8.0.4*%
%TF.CreationDate,2024-11-05T13:43:52+01:00*%
%TF.ProjectId,Nutzen,4e75747a-656e-42e6-9b69-6361645f7063,rev?*%
%TF.SameCoordinates,PX791ddc0PY78a3ca0*%
%TF.FileFunction,Copper,L1,Top*%
%TF.FilePolarity,Positive*%
%FSLAX46Y46*%
G04 Gerber Fmt 4.6, Leading zero omitted, Abs format (unit mm)*
G04 Created by KiCad (PCBNEW 8.0.4) date 2024-11-05 13:43:52*
%MOMM*%
%LPD*%
G01*
G04 APERTURE LIST*
G04 Aperture macros list*
%AMRoundRect*
0 Rectangle with rounded corners*
0 $1 Rounding radius*
0 $2 $3 $4 $5 $6 $7 $8 $9 X,Y pos of 4 corners*
0 Add a 4 corners polygon primitive as box body*
4,1,4,$2,$3,$4,$5,$6,$7,$8,$9,$2,$3,0*
0 Add four circle primitives for the rounded corners*
1,1,$1+$1,$2,$3*
1,1,$1+$1,$4,$5*
1,1,$1+$1,$6,$7*
1,1,$1+$1,$8,$9*
0 Add four rect primitives between the rounded corners*
20,1,$1+$1,$2,$3,$4,$5,0*
20,1,$1+$1,$4,$5,$6,$7,0*
20,1,$1+$1,$6,$7,$8,$9,0*
20,1,$1+$1,$8,$9,$2,$3,0*%
G04 Aperture macros list end*
%TA.AperFunction,ComponentPad*%
%ADD10RoundRect,0.250000X0.725000X-0.600000X0.725000X0.600000X-0.725000X0.600000X-0.725000X-0.600000X0*%
%TD*%
%TA.AperFunction,ComponentPad*%
%ADD11O,1.950000X1.700000*%
%TD*%
%TA.AperFunction,SMDPad,CuDef*%
%ADD12RoundRect,0.237500X0.237500X-0.300000X0.237500X0.300000X-0.237500X0.300000X-0.237500X-0.300000X0*%
%TD*%
%TA.AperFunction,SMDPad,CuDef*%
%ADD13RoundRect,0.237500X-0.250000X-0.237500X0.250000X-0.237500X0.250000X0.237500X-0.250000X0.237500X0*%
%TD*%
%TA.AperFunction,SMDPad,CuDef*%
%ADD14RoundRect,0.237500X0.250000X0.237500X-0.250000X0.237500X-0.250000X-0.237500X0.250000X-0.237500X0*%
%TD*%
%TA.AperFunction,SMDPad,CuDef*%
%ADD15RoundRect,0.237500X-0.300000X-0.237500X0.300000X-0.237500X0.300000X0.237500X-0.300000X0.237500X0*%
%TD*%
%TA.AperFunction,SMDPad,CuDef*%
%ADD16RoundRect,0.237500X-0.237500X0.250000X-0.237500X-0.250000X0.237500X-0.250000X0.237500X0.250000X0*%
%TD*%
%TA.AperFunction,SMDPad,CuDef*%
%ADD17RoundRect,0.237500X-0.237500X0.300000X-0.237500X-0.300000X0.237500X-0.300000X0.237500X0.300000X0*%
%TD*%
%TA.AperFunction,SMDPad,CuDef*%
%ADD18RoundRect,0.237500X0.300000X0.237500X-0.300000X0.237500X-0.300000X-0.237500X0.300000X-0.237500X0*%
%TD*%
%TA.AperFunction,SMDPad,CuDef*%
%ADD19RoundRect,0.150000X0.150000X-0.825000X0.150000X0.825000X-0.150000X0.825000X-0.150000X-0.825000X0*%
%TD*%
%TA.AperFunction,SMDPad,CuDef*%
%ADD20RoundRect,0.150000X-0.700000X0.150000X-0.700000X-0.150000X0.700000X-0.150000X0.700000X0.150000X0*%
%TD*%
%TA.AperFunction,SMDPad,CuDef*%
%ADD21RoundRect,0.250000X-1.150000X0.250000X-1.150000X-0.250000X1.150000X-0.250000X1.150000X0.250000X0*%
%TD*%
%TA.AperFunction,SMDPad,CuDef*%
%ADD22RoundRect,0.150000X-0.675000X-0.150000X0.675000X-0.150000X0.675000X0.150000X-0.675000X0.150000X0*%
%TD*%
%TA.AperFunction,ComponentPad*%
%ADD23R,1.000000X1.000000*%
%TD*%
%TA.AperFunction,ComponentPad*%
%ADD24O,1.000000X1.000000*%
%TD*%
%TA.AperFunction,SMDPad,CuDef*%
%ADD25RoundRect,0.237500X0.237500X-0.250000X0.237500X0.250000X-0.237500X0.250000X-0.237500X-0.250000X0*%
%TD*%
%TA.AperFunction,ViaPad*%
%ADD26C,0.700000*%
%TD*%
%TA.AperFunction,ViaPad*%
%ADD27C,0.600000*%
%TD*%
%TA.AperFunction,Conductor*%
%ADD28C,0.500000*%
%TD*%
%TA.AperFunction,Conductor*%
%ADD29C,0.400000*%
%TD*%
%TA.AperFunction,Conductor*%
%ADD30C,0.600000*%
%TD*%
%TA.AperFunction,Conductor*%
%ADD31C,0.300000*%
%TD*%
G04 APERTURE END LIST*
D10*
%TO.P,J1,1,Pin_1*%
%TO.N,GNDD*%
X5520000Y12270000D03*
D11*
%TO.P,J1,2,Pin_2*%
%TO.N,GNDA*%
X5520000Y14770000D03*
%TO.P,J1,3,Pin_3*%
%TO.N,+3.3VD*%
X5520000Y17270000D03*
%TO.P,J1,4,Pin_4*%
%TO.N,/Out2*%
X5520000Y19770000D03*
%TO.P,J1,5,Pin_5*%
%TO.N,/Out1*%
X5520000Y22270000D03*
%TO.P,J1,6,Pin_6*%
%TO.N,/Out3*%
X5520000Y24770000D03*
%TD*%
D12*
%TO.P,C1,1*%
%TO.N,GNDD*%
X17050000Y6225000D03*
%TO.P,C1,2*%
%TO.N,/Vin1+*%
X17050000Y7950000D03*
%TD*%
D13*
%TO.P,R5,1*%
%TO.N,Net-(R2-Pad2)*%
X16875000Y2100000D03*
%TO.P,R5,2*%
%TO.N,GNDD*%
X18700000Y2100000D03*
%TD*%
D14*
%TO.P,R3,1*%
%TO.N,+3.3VD*%
X18712500Y3775000D03*
%TO.P,R3,2*%
%TO.N,Net-(R2-Pad2)*%
X16887500Y3775000D03*
%TD*%
D15*
%TO.P,C5,1*%
%TO.N,GNDD*%
X18937500Y24895000D03*
%TO.P,C5,2*%
%TO.N,/Vin3+*%
X20662500Y24895000D03*
%TD*%
D13*
%TO.P,R13,1*%
%TO.N,+3.3VD*%
X13945000Y22420000D03*
%TO.P,R13,2*%
%TO.N,Net-(R13-Pad2)*%
X15770000Y22420000D03*
%TD*%
%TO.P,R10,1*%
%TO.N,/Vin2-*%
X22472500Y9815000D03*
%TO.P,R10,2*%
%TO.N,/data_in2*%
X24297500Y9815000D03*
%TD*%
D16*
%TO.P,R11,1*%
%TO.N,/Vin2+*%
X24110000Y8190000D03*
%TO.P,R11,2*%
%TO.N,GNDD*%
X24110000Y6365000D03*
%TD*%
D14*
%TO.P,R7,1*%
%TO.N,/Vin1-*%
X17025000Y11450000D03*
%TO.P,R7,2*%
%TO.N,/Out1*%
X15200000Y11450000D03*
%TD*%
D16*
%TO.P,R9,1*%
%TO.N,/Vin2+*%
X25730000Y8192500D03*
%TO.P,R9,2*%
%TO.N,Net-(R6-Pad2)*%
X25730000Y6367500D03*
%TD*%
%TO.P,R1,1*%
%TO.N,/Vin1+*%
X18650000Y7975000D03*
%TO.P,R1,2*%
%TO.N,GNDD*%
X18650000Y6150000D03*
%TD*%
D13*
%TO.P,R12,1*%
%TO.N,/Vin2-*%
X22440000Y11465000D03*
%TO.P,R12,2*%
%TO.N,/Out2*%
X24265000Y11465000D03*
%TD*%
D17*
%TO.P,C9,1*%
%TO.N,GNDD*%
X14300000Y19462500D03*
%TO.P,C9,2*%
%TO.N,+3.3VD*%
X14300000Y17737500D03*
%TD*%
D13*
%TO.P,R16,1*%
%TO.N,/Vin3-*%
X22367500Y26630000D03*
%TO.P,R16,2*%
%TO.N,/data_in3*%
X24192500Y26630000D03*
%TD*%
D14*
%TO.P,R17,1*%
%TO.N,/Vin3+*%
X20725000Y23270000D03*
%TO.P,R17,2*%
%TO.N,GNDD*%
X18900000Y23270000D03*
%TD*%
%TO.P,R14,1*%
%TO.N,Net-(R13-Pad2)*%
X15752500Y24100000D03*
%TO.P,R14,2*%
%TO.N,GNDD*%
X13927500Y24100000D03*
%TD*%
%TO.P,R15,1*%
%TO.N,/Vin3+*%
X20762500Y28180000D03*
%TO.P,R15,2*%
%TO.N,Net-(R13-Pad2)*%
X18937500Y28180000D03*
%TD*%
D16*
%TO.P,R2,1*%
%TO.N,/Vin1+*%
X14270000Y7060000D03*
%TO.P,R2,2*%
%TO.N,Net-(R2-Pad2)*%
X14270000Y5235000D03*
%TD*%
D14*
%TO.P,R4,1*%
%TO.N,/Vin1-*%
X17050000Y9675000D03*
%TO.P,R4,2*%
%TO.N,/data_in1*%
X15225000Y9675000D03*
%TD*%
D18*
%TO.P,C6,1*%
%TO.N,/Out3*%
X24130000Y24895000D03*
%TO.P,C6,2*%
%TO.N,/Vin3-*%
X22405000Y24895000D03*
%TD*%
D13*
%TO.P,R18,1*%
%TO.N,/Vin3-*%
X22380000Y23270000D03*
%TO.P,R18,2*%
%TO.N,/Out3*%
X24205000Y23270000D03*
%TD*%
D12*
%TO.P,C2,1*%
%TO.N,GNDD*%
X22485000Y6415000D03*
%TO.P,C2,2*%
%TO.N,/Vin2+*%
X22485000Y8140000D03*
%TD*%
D15*
%TO.P,C4,1*%
%TO.N,/Out1*%
X15250000Y13075000D03*
%TO.P,C4,2*%
%TO.N,/Vin1-*%
X16975000Y13075000D03*
%TD*%
D19*
%TO.P,U2,1,OUT1*%
%TO.N,/Out1*%
X16105000Y15200000D03*
%TO.P,U2,2,IN1-*%
%TO.N,/Vin1-*%
X17375000Y15200000D03*
%TO.P,U2,3,IN1+*%
%TO.N,/Vin1+*%
X18645000Y15200000D03*
%TO.P,U2,4,V+*%
%TO.N,+3.3VD*%
X19915000Y15200000D03*
%TO.P,U2,5,IN2+*%
%TO.N,/Vin2+*%
X21185000Y15200000D03*
%TO.P,U2,6,IN2-*%
%TO.N,/Vin2-*%
X22455000Y15200000D03*
%TO.P,U2,7,OUT2*%
%TO.N,/Out2*%
X23725000Y15200000D03*
%TO.P,U2,8,OUT3*%
%TO.N,/Out3*%
X23725000Y20150000D03*
%TO.P,U2,9,IN3-*%
%TO.N,/Vin3-*%
X22455000Y20150000D03*
%TO.P,U2,10,IN3+*%
%TO.N,/Vin3+*%
X21185000Y20150000D03*
%TO.P,U2,11,V-*%
%TO.N,GNDD*%
X19915000Y20150000D03*
%TO.P,U2,12,IN4+*%
%TO.N,unconnected-(U2-IN4+-Pad12)*%
X18645000Y20150000D03*
%TO.P,U2,13,IN4-*%
%TO.N,unconnected-(U2-IN4--Pad13)*%
X17375000Y20150000D03*
%TO.P,U2,14,OUT4*%
%TO.N,unconnected-(U2-OUT4-Pad14)*%
X16105000Y20150000D03*
%TD*%
D13*
%TO.P,R6,1*%
%TO.N,+3.3VD*%
X22565000Y3950000D03*
%TO.P,R6,2*%
%TO.N,Net-(R6-Pad2)*%
X24390000Y3950000D03*
%TD*%
D18*
%TO.P,C3,1*%
%TO.N,/Out2*%
X24210000Y13090000D03*
%TO.P,C3,2*%
%TO.N,/Vin2-*%
X22485000Y13090000D03*
%TD*%
D14*
%TO.P,R8,1*%
%TO.N,Net-(R6-Pad2)*%
X24397500Y2380000D03*
%TO.P,R8,2*%
%TO.N,GNDD*%
X22572500Y2380000D03*
%TD*%
D20*
%TO.P,J2,1,Pin_1*%
%TO.N,GNDD*%
X30460000Y19770000D03*
%TO.P,J2,2,Pin_2*%
%TO.N,GNDA*%
X30460000Y18520000D03*
%TO.P,J2,3,Pin_3*%
%TO.N,+3.3VD*%
X30460000Y17270000D03*
%TO.P,J2,4,Pin_4*%
%TO.N,+3.3VA*%
X30460000Y16020000D03*
%TO.P,J2,5,Pin_5*%
%TO.N,/data_in3*%
X30460000Y14770000D03*
%TO.P,J2,6,Pin_6*%
%TO.N,/data_in1*%
X30460000Y13520000D03*
%TO.P,J2,7,Pin_7*%
%TO.N,/data_in2*%
X30460000Y12270000D03*
D21*
%TO.P,J2,MP,MountPin*%
%TO.N,unconnected-(J2-MountPin-PadMP)*%
X33810000Y21620000D03*
%TO.N,unconnected-(J2-MountPin-PadMP)_1*%
X33810000Y10420000D03*
%TD*%
D16*
%TO.P,R3,1*%
%TO.N,GNDA*%
X45299730Y8920000D03*
%TO.P,R3,2*%
%TO.N,/analog_inp_3*%
X45299730Y7095000D03*
%TD*%
D17*
%TO.P,C8,1*%
%TO.N,/fil_da2*%
X55299730Y15682500D03*
%TO.P,C8,2*%
%TO.N,GNDD*%
X55299730Y13957500D03*
%TD*%
%TO.P,C9,1*%
%TO.N,/fil_da3*%
X56549730Y8670000D03*
%TO.P,C9,2*%
%TO.N,GNDD*%
X56549730Y6945000D03*
%TD*%
D12*
%TO.P,C7,1*%
%TO.N,/fil_da1*%
X55099730Y19257500D03*
%TO.P,C7,2*%
%TO.N,GNDD*%
X55099730Y20982500D03*
%TD*%
D16*
%TO.P,R2,1*%
%TO.N,GNDA*%
X44399730Y16132500D03*
%TO.P,R2,2*%
%TO.N,/analog_inp_2*%
X44399730Y14307500D03*
%TD*%
D22*
%TO.P,U3,1,VDDA*%
%TO.N,+3.3VA*%
X47649730Y10530000D03*
%TO.P,U3,2,AIP*%
%TO.N,GNDA*%
X47649730Y9260000D03*
%TO.P,U3,3,AIN*%
%TO.N,/analog_inp_3*%
X47649730Y7990000D03*
%TO.P,U3,4,GNDA*%
%TO.N,GNDA*%
X47649730Y6720000D03*
%TO.P,U3,5,GNDB*%
%TO.N,GNDD*%
X52899730Y6720000D03*
%TO.P,U3,6,ADAT*%
%TO.N,/amp_data3*%
X52899730Y7990000D03*
%TO.P,U3,7,ACLK*%
%TO.N,unconnected-(U3-ACLK-Pad7)*%
X52899730Y9260000D03*
%TO.P,U3,8,VDDB*%
%TO.N,+3.3VD*%
X52899730Y10530000D03*
%TD*%
D20*
%TO.P,J1,1,Pin_1*%
%TO.N,+3.3VA*%
X60449730Y19770000D03*
%TO.P,J1,2,Pin_2*%
%TO.N,+3.3VD*%
X60449730Y18520000D03*
%TO.P,J1,3,Pin_3*%
%TO.N,/fil_da1*%
X60449730Y17270000D03*
%TO.P,J1,4,Pin_4*%
%TO.N,/fil_da2*%
X60449730Y16020000D03*
%TO.P,J1,5,Pin_5*%
%TO.N,/fil_da3*%
X60449730Y14770000D03*
%TO.P,J1,6,Pin_6*%
%TO.N,GNDD*%
X60449730Y13520000D03*
%TO.P,J1,7,Pin_7*%
%TO.N,GNDA*%
X60449730Y12270000D03*
D21*
%TO.P,J1,MP,MountPin*%
%TO.N,unconnected-(J1-MountPin-PadMP)*%
X63799730Y21620000D03*
%TO.N,unconnected-(J1-MountPin-PadMP)_1*%
X63799730Y10420000D03*
%TD*%
D15*
%TO.P,C3,1*%
%TO.N,GNDA*%
X47924730Y26220000D03*
%TO.P,C3,2*%
%TO.N,+3.3VA*%
X49649730Y26220000D03*
%TD*%
D22*
%TO.P,U2,1,VDDA*%
%TO.N,+3.3VA*%
X46274730Y17125000D03*
%TO.P,U2,2,AIP*%
%TO.N,GNDA*%
X46274730Y15855000D03*
%TO.P,U2,3,AIN*%
%TO.N,/analog_inp_2*%
X46274730Y14585000D03*
%TO.P,U2,4,GNDA*%
%TO.N,GNDA*%
X46274730Y13315000D03*
%TO.P,U2,5,GNDB*%
%TO.N,GNDD*%
X51524730Y13315000D03*
%TO.P,U2,6,ADAT*%
%TO.N,/amp_data2*%
X51524730Y14585000D03*
%TO.P,U2,7,ACLK*%
%TO.N,unconnected-(U2-ACLK-Pad7)*%
X51524730Y15855000D03*
%TO.P,U2,8,VDDB*%
%TO.N,+3.3VD*%
X51524730Y17125000D03*
%TD*%
D23*
%TO.P,J3,1,Pin_1*%
%TO.N,unconnected-(J3-Pin_1-Pad1)*%
X52559730Y950000D03*
D24*
%TO.P,J3,2,Pin_2*%
%TO.N,unconnected-(J3-Pin_2-Pad2)*%
X53829730Y950000D03*
%TO.P,J3,3,Pin_3*%
%TO.N,unconnected-(J3-Pin_3-Pad3)*%
X55099730Y950000D03*
%TO.P,J3,4,Pin_4*%
%TO.N,unconnected-(J3-Pin_4-Pad4)*%
X56369730Y950000D03*
%TD*%
D18*
%TO.P,C6,1*%
%TO.N,GNDD*%
X56562230Y10570000D03*
%TO.P,C6,2*%
%TO.N,+3.3VD*%
X54837230Y10570000D03*
%TD*%
%TO.P,C5,1*%
%TO.N,GNDD*%
X55349730Y17420000D03*
%TO.P,C5,2*%
%TO.N,+3.3VD*%
X53624730Y17420000D03*
%TD*%
D22*
%TO.P,U1,1,VDDA*%
%TO.N,+3.3VA*%
X46274730Y23625000D03*
%TO.P,U1,2,AIP*%
%TO.N,GNDA*%
X46274730Y22355000D03*
%TO.P,U1,3,AIN*%
%TO.N,/analog_inp_1*%
X46274730Y21085000D03*
%TO.P,U1,4,GNDA*%
%TO.N,GNDA*%
X46274730Y19815000D03*
%TO.P,U1,5,GNDB*%
%TO.N,GNDD*%
X51524730Y19815000D03*
%TO.P,U1,6,ADAT*%
%TO.N,/amp_data1*%
X51524730Y21085000D03*
%TO.P,U1,7,ACLK*%
%TO.N,unconnected-(U1-ACLK-Pad7)*%
X51524730Y22355000D03*
%TO.P,U1,8,VDDB*%
%TO.N,+3.3VD*%
X51524730Y23625000D03*
%TD*%
D25*
%TO.P,R6,1*%
%TO.N,/amp_data3*%
X54949730Y6870000D03*
%TO.P,R6,2*%
%TO.N,/fil_da3*%
X54949730Y8695000D03*
%TD*%
D16*
%TO.P,R4,1*%
%TO.N,/amp_data1*%
X53499730Y21032500D03*
%TO.P,R4,2*%
%TO.N,/fil_da1*%
X53499730Y19207500D03*
%TD*%
D25*
%TO.P,R5,1*%
%TO.N,/amp_data2*%
X53699730Y13895000D03*
%TO.P,R5,2*%
%TO.N,/fil_da2*%
X53699730Y15720000D03*
%TD*%
D18*
%TO.P,C4,1*%
%TO.N,GNDD*%
X55562230Y23020000D03*
%TO.P,C4,2*%
%TO.N,+3.3VD*%
X53837230Y23020000D03*
%TD*%
D16*
%TO.P,R1,1*%
%TO.N,GNDA*%
X44099730Y22320000D03*
%TO.P,R1,2*%
%TO.N,/analog_inp_1*%
X44099730Y20495000D03*
%TD*%
D15*
%TO.P,C2,1*%
%TO.N,GNDA*%
X42674730Y17720000D03*
%TO.P,C2,2*%
%TO.N,+3.3VA*%
X44399730Y17720000D03*
%TD*%
%TO.P,C1,1*%
%TO.N,GNDA*%
X44037230Y10520000D03*
%TO.P,C1,2*%
%TO.N,+3.3VA*%
X45762230Y10520000D03*
%TD*%
D26*
%TO.N,GNDD*%
X33500000Y26200000D03*
X6600000Y29900000D03*
X20350000Y18525000D03*
X31800000Y25000000D03*
X8000000Y29900000D03*
X21450000Y2850000D03*
X21200000Y5500000D03*
X33500000Y25000000D03*
X6600000Y28700000D03*
X31800000Y26200000D03*
X8000000Y28700000D03*
%TO.N,/Out2*%
X27980000Y11560000D03*
X8500000Y8100000D03*
%TO.N,/Out3*%
X25515000Y24480000D03*
%TO.N,+3.3VD*%
X10500000Y22300000D03*
X8100000Y18890000D03*
X20325000Y16600000D03*
X28700000Y17270000D03*
%TO.N,+3.3VA*%
X28680000Y16020000D03*
%TO.N,GNDA*%
X28550000Y19350000D03*
%TO.N,/data_in1*%
X15570000Y8310000D03*
X28550000Y13360000D03*
D27*
%TO.N,/analog_inp_1*%
X42699730Y19920000D03*
%TO.N,/analog_inp_2*%
X42649730Y14720000D03*
%TO.N,/analog_inp_3*%
X45899730Y5820000D03*
%TD*%
D28*
%TO.N,GNDD*%
X21200000Y5700000D02*
X21200000Y5500000D01*
X21450000Y2850000D02*
X21920000Y2380000D01*
D29*
X19915000Y20150000D02*
X19915000Y18960000D01*
D28*
X21915000Y6415000D02*
X21200000Y5700000D01*
X21920000Y2380000D02*
X22572500Y2380000D01*
D29*
X19915000Y18960000D02*
X20350000Y18525000D01*
D28*
X22485000Y6415000D02*
X21915000Y6415000D01*
D29*
%TO.N,/Vin1+*%
X17050000Y7950000D02*
X16580000Y7950000D01*
X18645000Y15200000D02*
X18645000Y7980000D01*
X18650000Y7975000D02*
X17075000Y7975000D01*
X16580000Y7950000D02*
X15690000Y7060000D01*
X18645000Y7980000D02*
X18650000Y7975000D01*
X15690000Y7060000D02*
X14270000Y7060000D01*
X17075000Y7975000D02*
X17050000Y7950000D01*
%TO.N,/Vin2+*%
X21185000Y15200000D02*
X21000000Y15015000D01*
X24110000Y8190000D02*
X25727500Y8190000D01*
X21000000Y9220000D02*
X22080000Y8140000D01*
X22485000Y8140000D02*
X24060000Y8140000D01*
X25727500Y8190000D02*
X25730000Y8192500D01*
X21000000Y15015000D02*
X21000000Y9220000D01*
X22080000Y8140000D02*
X22485000Y8140000D01*
X24060000Y8140000D02*
X24110000Y8190000D01*
%TO.N,/Vin3+*%
X20792500Y24832500D02*
X20730000Y24895000D01*
X21185000Y20150000D02*
X21185000Y21315000D01*
X20792500Y23270000D02*
X20792500Y24832500D01*
X20792500Y21707500D02*
X20792500Y23270000D01*
X20762500Y28180000D02*
X20762500Y24927500D01*
X21185000Y21315000D02*
X20792500Y21707500D01*
X20762500Y24927500D02*
X20730000Y24895000D01*
D28*
%TO.N,/Out1*%
X16105000Y15200000D02*
X14000000Y15200000D01*
D29*
X16105000Y15200000D02*
X15250000Y14345000D01*
X15250000Y14345000D02*
X15250000Y13075000D01*
X15250000Y13075000D02*
X15250000Y11500000D01*
X15250000Y11500000D02*
X15200000Y11450000D01*
D28*
X14000000Y15200000D02*
X6930000Y22270000D01*
X6930000Y22270000D02*
X5520000Y22270000D01*
D29*
%TO.N,/Vin1-*%
X17375000Y13475000D02*
X16975000Y13075000D01*
X17375000Y15200000D02*
X17375000Y13475000D01*
X16975000Y13075000D02*
X16975000Y11500000D01*
X17025000Y9700000D02*
X17050000Y9675000D01*
X16975000Y11500000D02*
X17025000Y11450000D01*
X17025000Y11450000D02*
X17025000Y9700000D01*
%TO.N,/Out2*%
X24210000Y13890000D02*
X24210000Y13090000D01*
D28*
X4500000Y8100000D02*
X2900000Y9700000D01*
D29*
X24440000Y15200000D02*
X23725000Y15200000D01*
X23725000Y14375000D02*
X24210000Y13890000D01*
X27980000Y11660000D02*
X24440000Y15200000D01*
D28*
X4370000Y19770000D02*
X5520000Y19770000D01*
D29*
X23725000Y15200000D02*
X23725000Y14375000D01*
X27980000Y11560000D02*
X27980000Y11660000D01*
D28*
X2900000Y9700000D02*
X2900000Y18300000D01*
X2900000Y18300000D02*
X4370000Y19770000D01*
D29*
X24210000Y11520000D02*
X24265000Y11465000D01*
X24210000Y13090000D02*
X24210000Y11520000D01*
D28*
X8500000Y8100000D02*
X4500000Y8100000D01*
D29*
%TO.N,/Vin2-*%
X22485000Y13090000D02*
X22485000Y11510000D01*
X22440000Y11465000D02*
X22440000Y9847500D01*
X22485000Y11510000D02*
X22440000Y11465000D01*
X22440000Y9847500D02*
X22472500Y9815000D01*
X22455000Y13120000D02*
X22485000Y13090000D01*
X22455000Y15200000D02*
X22455000Y13120000D01*
%TO.N,/Out3*%
X24205000Y23270000D02*
X24205000Y24820000D01*
X23725000Y20150000D02*
X23725000Y22790000D01*
X23725000Y22790000D02*
X24205000Y23270000D01*
X25515000Y24480000D02*
X25100000Y24895000D01*
X24205000Y24820000D02*
X24130000Y24895000D01*
X25100000Y24895000D02*
X24130000Y24895000D01*
%TO.N,/Vin3-*%
X22455000Y20150000D02*
X22455000Y23195000D01*
X22405000Y26592500D02*
X22367500Y26630000D01*
X22380000Y24870000D02*
X22405000Y24895000D01*
X22405000Y24895000D02*
X22405000Y26592500D01*
X22380000Y23270000D02*
X22380000Y24870000D01*
X22455000Y23195000D02*
X22380000Y23270000D01*
%TO.N,+3.3VD*%
X12300000Y19100000D02*
X13662500Y17737500D01*
D28*
X8100000Y18890000D02*
X6480000Y17270000D01*
D29*
X19915000Y15200000D02*
X19915000Y8995000D01*
X19915000Y16190000D02*
X20325000Y16600000D01*
X19920000Y8990000D02*
X19920000Y4520000D01*
X19265000Y17660000D02*
X20325000Y16600000D01*
X14500000Y17737500D02*
X14577500Y17660000D01*
D28*
X6480000Y17270000D02*
X5520000Y17270000D01*
D29*
X19175000Y3775000D02*
X18712500Y3775000D01*
X14577500Y17660000D02*
X19265000Y17660000D01*
D28*
X28700000Y17270000D02*
X30460000Y17270000D01*
D29*
X22565000Y3950000D02*
X20490000Y3950000D01*
X19915000Y8995000D02*
X19920000Y8990000D01*
X13662500Y17737500D02*
X14500000Y17737500D01*
X20490000Y3950000D02*
X19920000Y4520000D01*
X12300000Y22420000D02*
X12300000Y19100000D01*
X19915000Y15200000D02*
X19915000Y16190000D01*
D28*
X10620000Y22420000D02*
X10500000Y22300000D01*
D29*
X19920000Y4520000D02*
X19175000Y3775000D01*
D28*
X13945000Y22420000D02*
X10620000Y22420000D01*
D30*
%TO.N,+3.3VA*%
X28680000Y16020000D02*
X30460000Y16020000D01*
D28*
%TO.N,GNDA*%
X28550000Y19350000D02*
X29380000Y18520000D01*
D30*
X5790000Y14500000D02*
X5520000Y14770000D01*
D28*
X29380000Y18520000D02*
X30460000Y18520000D01*
D29*
%TO.N,/data_in3*%
X25920000Y26630000D02*
X24192500Y26630000D01*
X27100000Y15600000D02*
X27100000Y25450000D01*
X27100000Y25450000D02*
X25920000Y26630000D01*
X30440000Y14750000D02*
X27950000Y14750000D01*
X30460000Y14770000D02*
X30440000Y14750000D01*
X27950000Y14750000D02*
X27100000Y15600000D01*
%TO.N,/data_in2*%
X24297500Y9815000D02*
X28005000Y9815000D01*
X28005000Y9815000D02*
X30460000Y12270000D01*
%TO.N,/data_in1*%
X15225000Y8655000D02*
X15570000Y8310000D01*
X28710000Y13520000D02*
X28550000Y13360000D01*
X15225000Y9675000D02*
X15225000Y8655000D01*
X30460000Y13520000D02*
X28710000Y13520000D01*
%TO.N,Net-(R2-Pad2)*%
X14270000Y5235000D02*
X15427500Y5235000D01*
X16887500Y2112500D02*
X16875000Y2100000D01*
X16887500Y3775000D02*
X16887500Y2112500D01*
X15427500Y5235000D02*
X16887500Y3775000D01*
%TO.N,Net-(R6-Pad2)*%
X24390000Y3950000D02*
X25730000Y5290000D01*
X24390000Y2387500D02*
X24397500Y2380000D01*
X25730000Y5290000D02*
X25730000Y6367500D01*
X24390000Y3950000D02*
X24390000Y2387500D01*
%TO.N,Net-(R13-Pad2)*%
X15770000Y24082500D02*
X15752500Y24100000D01*
X15752500Y26382500D02*
X17550000Y28180000D01*
X17550000Y28180000D02*
X18937500Y28180000D01*
X15752500Y24100000D02*
X15752500Y26382500D01*
X15770000Y22420000D02*
X15770000Y24082500D01*
%TO.N,GNDA*%
X45639730Y9260000D02*
X45299730Y8920000D01*
D31*
X46274730Y13315000D02*
X46157230Y13315000D01*
X58749730Y4320000D02*
X59399730Y4970000D01*
X48499730Y4320000D02*
X58749730Y4320000D01*
D29*
X46274730Y22355000D02*
X44134730Y22355000D01*
D31*
X59399730Y4970000D02*
X59399730Y11220000D01*
X48199730Y4620000D02*
X48499730Y4320000D01*
X60449730Y12270000D02*
X60349730Y12370000D01*
D29*
X44134730Y22355000D02*
X44099730Y22320000D01*
X47649730Y9260000D02*
X45639730Y9260000D01*
X45997230Y16132500D02*
X46274730Y15855000D01*
D31*
X59399730Y11220000D02*
X60449730Y12270000D01*
X46159730Y15970000D02*
X46274730Y15855000D01*
D29*
X44399730Y16132500D02*
X45997230Y16132500D01*
D31*
%TO.N,GNDD*%
X52633468Y6720000D02*
X52899730Y6720000D01*
X52899730Y6720000D02*
X53649730Y6720000D01*
D29*
%TO.N,/amp_data1*%
X51524730Y21085000D02*
X53447230Y21085000D01*
X53447230Y21085000D02*
X53499730Y21032500D01*
%TO.N,/amp_data2*%
X53009730Y14585000D02*
X51524730Y14585000D01*
X53699730Y13895000D02*
X53009730Y14585000D01*
%TO.N,/amp_data3*%
X54949730Y6870000D02*
X53829730Y7990000D01*
X53829730Y7990000D02*
X52899730Y7990000D01*
D31*
%TO.N,+3.3VA*%
X45772230Y10530000D02*
X45762230Y10520000D01*
D29*
X45679730Y17720000D02*
X46274730Y17125000D01*
X60449730Y19770000D02*
X59349730Y19770000D01*
X47869730Y25220000D02*
X50649730Y25220000D01*
X47649730Y10530000D02*
X45772230Y10530000D01*
X59349730Y19770000D02*
X58649730Y20470000D01*
X46274730Y17125000D02*
X47569730Y18420000D01*
X57199730Y25220000D02*
X50649730Y25220000D01*
X47569730Y18420000D02*
X47649730Y18420000D01*
X49649730Y26220000D02*
X50649730Y25220000D01*
X46274730Y23625000D02*
X47869730Y25220000D01*
X58649730Y20470000D02*
X58649730Y23770000D01*
X47649730Y10530000D02*
X47649730Y22720000D01*
D31*
X46744730Y23625000D02*
X46274730Y23625000D01*
D29*
X44399730Y17720000D02*
X45679730Y17720000D01*
X58649730Y23770000D02*
X57199730Y25220000D01*
X47649730Y22720000D02*
X46744730Y23625000D01*
%TO.N,+3.3VD*%
X53232230Y23625000D02*
X53837230Y23020000D01*
X57099730Y23620000D02*
X57099730Y20270000D01*
X52899730Y10530000D02*
X51909730Y11520000D01*
X49699730Y17920000D02*
X49699730Y23020000D01*
X53837230Y23020000D02*
X53837230Y23657500D01*
X57099730Y20270000D02*
X58799730Y18570000D01*
X49999730Y11520000D02*
X49699730Y11820000D01*
X51524730Y17125000D02*
X50494730Y17125000D01*
X54199730Y24020000D02*
X56699730Y24020000D01*
X56699730Y24020000D02*
X57099730Y23620000D01*
X49699730Y11820000D02*
X49699730Y17920000D01*
X54837230Y10570000D02*
X52939730Y10570000D01*
X50494730Y17125000D02*
X49699730Y17920000D01*
X51524730Y23625000D02*
X53232230Y23625000D01*
X50304730Y23625000D02*
X51524730Y23625000D01*
X49699730Y23020000D02*
X50304730Y23625000D01*
X53837230Y23657500D02*
X54199730Y24020000D01*
X60449730Y18520000D02*
X58849730Y18520000D01*
X51909730Y11520000D02*
X49999730Y11520000D01*
X51529730Y17120000D02*
X51524730Y17125000D01*
X53624730Y17420000D02*
X53324730Y17120000D01*
X52939730Y10570000D02*
X52899730Y10530000D01*
X53324730Y17120000D02*
X51529730Y17120000D01*
%TO.N,/analog_inp_1*%
X44689730Y21085000D02*
X44099730Y20495000D01*
X46274730Y21085000D02*
X44689730Y21085000D01*
X43274730Y20495000D02*
X42699730Y19920000D01*
X44099730Y20495000D02*
X43274730Y20495000D01*
%TO.N,/analog_inp_2*%
X43062230Y14307500D02*
X42649730Y14720000D01*
X44399730Y14307500D02*
X43062230Y14307500D01*
X44399730Y14307500D02*
X45997230Y14307500D01*
X45997230Y14307500D02*
X46274730Y14585000D01*
D31*
%TO.N,/analog_inp_3*%
X48474729Y7990000D02*
X47649730Y7990000D01*
D29*
X45899730Y5820000D02*
X45899730Y6495000D01*
X45899730Y6495000D02*
X45299730Y7095000D01*
X45299730Y7095000D02*
X46194730Y7990000D01*
X46194730Y7990000D02*
X47649730Y7990000D01*
%TO.N,/fil_da1*%
X60449730Y17270000D02*
X58821912Y17270000D01*
X53499730Y19207500D02*
X55074730Y19207500D01*
X58771912Y17320000D02*
X56909412Y19182500D01*
X56909412Y19182500D02*
X55099730Y19182500D01*
X55074730Y19207500D02*
X55099730Y19182500D01*
%TO.N,/fil_da2*%
X55362230Y15720000D02*
X53699730Y15720000D01*
X55662230Y16020000D02*
X55362230Y15720000D01*
X60449730Y16020000D02*
X55662230Y16020000D01*
%TO.N,/fil_da3*%
X56549730Y8670000D02*
X57649730Y9770000D01*
X57649730Y13970000D02*
X58449730Y14770000D01*
X56549730Y8670000D02*
X54974730Y8670000D01*
X58449730Y14770000D02*
X60449730Y14770000D01*
X54974730Y8670000D02*
X54949730Y8695000D01*
X57649730Y9770000D02*
X57649730Y13970000D01*
%TD*%
%TA.AperFunction,Conductor*%
%TO.N,GNDD*%
G36*
X33404028Y32199236D02*
G01*
X33665949Y32182069D01*
X33682005Y32179954D01*
X33935426Y32129546D01*
X33951077Y32125352D01*
X34195752Y32042296D01*
X34210730Y32036092D01*
X34442460Y31921815D01*
X34456506Y31913705D01*
X34671336Y31770161D01*
X34684205Y31760287D01*
X34878460Y31589930D01*
X34889929Y31578461D01*
X35045996Y31400500D01*
X35060286Y31384206D01*
X35070160Y31371337D01*
X35213704Y31156507D01*
X35221814Y31142461D01*
X35336091Y30910731D01*
X35342298Y30895746D01*
X35425348Y30651089D01*
X35429546Y30635421D01*
X35479952Y30382011D01*
X35482069Y30365930D01*
X35499234Y30104059D01*
X35499500Y30095949D01*
X35499500Y22274162D01*
X35479815Y22207123D01*
X35427011Y22161368D01*
X35357853Y22151424D01*
X35294297Y22180449D01*
X35287819Y22186481D01*
X35282151Y22192149D01*
X35172882Y22272793D01*
X35172880Y22272794D01*
X35044700Y22317647D01*
X35014270Y22320500D01*
X35014266Y22320500D01*
X32605734Y22320500D01*
X32605730Y22320500D01*
X32575300Y22317647D01*
X32575298Y22317647D01*
X32447119Y22272794D01*
X32447117Y22272793D01*
X32337850Y22192150D01*
X32257207Y22082883D01*
X32257206Y22082881D01*
X32212353Y21954702D01*
X32212353Y21954700D01*
X32209500Y21924270D01*
X32209500Y21315731D01*
X32212353Y21285301D01*
X32212353Y21285299D01*
X32248680Y21181486D01*
X32257207Y21157118D01*
X32337850Y21047850D01*
X32447118Y20967207D01*
X32489845Y20952256D01*
X32575299Y20922354D01*
X32605730Y20919500D01*
X32605734Y20919500D01*
X35014270Y20919500D01*
X35044699Y20922354D01*
X35044701Y20922354D01*
X35108790Y20944781D01*
X35172882Y20967207D01*
X35282150Y21047850D01*
X35282152Y21047854D01*
X35288319Y21054019D01*
X35349642Y21087504D01*
X35419334Y21082520D01*
X35475267Y21040648D01*
X35499684Y20975184D01*
X35500000Y20966338D01*
X35500000Y20251487D01*
X35499500Y20243860D01*
X35499500Y12156137D01*
X35500000Y12148511D01*
X35500000Y11251487D01*
X35499500Y11243860D01*
X35499500Y11074162D01*
X35479815Y11007123D01*
X35427011Y10961368D01*
X35357853Y10951424D01*
X35294297Y10980449D01*
X35287819Y10986481D01*
X35282151Y10992149D01*
X35265077Y11004750D01*
X35172882Y11072793D01*
X35172880Y11072794D01*
X35044700Y11117647D01*
X35014270Y11120500D01*
X35014266Y11120500D01*
X32605734Y11120500D01*
X32605730Y11120500D01*
X32575300Y11117647D01*
X32575298Y11117647D01*
X32447119Y11072794D01*
X32447117Y11072793D01*
X32337850Y10992150D01*
X32257207Y10882883D01*
X32257206Y10882881D01*
X32212353Y10754702D01*
X32212353Y10754700D01*
X32209500Y10724270D01*
X32209500Y10115731D01*
X32212353Y10085301D01*
X32212353Y10085299D01*
X32254359Y9965256D01*
X32257207Y9957118D01*
X32337850Y9847850D01*
X32447118Y9767207D01*
X32489845Y9752256D01*
X32575299Y9722354D01*
X32605730Y9719500D01*
X32605734Y9719500D01*
X35014270Y9719500D01*
X35044699Y9722354D01*
X35044701Y9722354D01*
X35108790Y9744781D01*
X35172882Y9767207D01*
X35282150Y9847850D01*
X35282152Y9847854D01*
X35287819Y9853519D01*
X35349142Y9887004D01*
X35418834Y9882020D01*
X35474767Y9840148D01*
X35499184Y9774684D01*
X35499500Y9765838D01*
X35499500Y2404052D01*
X35499234Y2395942D01*
X35482069Y2134071D01*
X35479952Y2117990D01*
X35429546Y1864580D01*
X35425348Y1848912D01*
X35342298Y1604255D01*
X35336091Y1589270D01*
X35221814Y1357540D01*
X35213704Y1343494D01*
X35070160Y1128664D01*
X35060286Y1115795D01*
X34889929Y921540D01*
X34878460Y910071D01*
X34684205Y739714D01*
X34671336Y729840D01*
X34456506Y586296D01*
X34442460Y578186D01*
X34210730Y463909D01*
X34195745Y457702D01*
X33951088Y374652D01*
X33935420Y370454D01*
X33682010Y320048D01*
X33665929Y317931D01*
X33404058Y300766D01*
X33395948Y300500D01*
X2404052Y300500D01*
X2395942Y300766D01*
X2134070Y317931D01*
X2117989Y320048D01*
X1864579Y370454D01*
X1848911Y374652D01*
X1604254Y457702D01*
X1589269Y463909D01*
X1357539Y578186D01*
X1343493Y586296D01*
X1128663Y729840D01*
X1115794Y739714D01*
X921539Y910071D01*
X910070Y921540D01*
X739713Y1115795D01*
X729839Y1128664D01*
X586295Y1343494D01*
X578185Y1357540D01*
X463908Y1589270D01*
X457704Y1604248D01*
X374648Y1848923D01*
X370453Y1864580D01*
X368063Y1876593D01*
X320046Y2117995D01*
X317931Y2134051D01*
X300764Y2395972D01*
X300500Y2404052D01*
X300500Y2612352D01*
X1149500Y2612352D01*
X1149500Y2407649D01*
X1181522Y2205466D01*
X1244781Y2010777D01*
X1283125Y1935524D01*
X1337254Y1829290D01*
X1337715Y1828387D01*
X1458028Y1662787D01*
X1602786Y1518029D01*
X1757749Y1405444D01*
X1768390Y1397713D01*
X1874801Y1343494D01*
X1950776Y1304782D01*
X1950778Y1304782D01*
X1950781Y1304780D01*
X2055137Y1270873D01*
X2145465Y1241523D01*
X2208602Y1231523D01*
X2347648Y1209500D01*
X2347649Y1209500D01*
X2552351Y1209500D01*
X2552352Y1209500D01*
X2754534Y1241523D01*
X2949219Y1304780D01*
X3131610Y1397713D01*
X3232322Y1470884D01*
X3297213Y1518029D01*
X3297215Y1518032D01*
X3297219Y1518034D01*
X3441966Y1662781D01*
X3441968Y1662785D01*
X3441971Y1662787D01*
X3511769Y1758857D01*
X3562287Y1828390D01*
X3655220Y2010781D01*
X3718477Y2205466D01*
X3750500Y2407648D01*
X3750500Y2612352D01*
X3736642Y2699849D01*
X3718477Y2814535D01*
X3658469Y2999219D01*
X3655220Y3009219D01*
X3655218Y3009222D01*
X3655218Y3009224D01*
X3609219Y3099500D01*
X3562287Y3191610D01*
X3545715Y3214420D01*
X3441971Y3357214D01*
X3297213Y3501972D01*
X3131613Y3622285D01*
X3131612Y3622286D01*
X3131610Y3622287D01*
X3074653Y3651309D01*
X2949223Y3715219D01*
X2754534Y3778478D01*
X2579995Y3806122D01*
X2552352Y3810500D01*
X2347648Y3810500D01*
X2323329Y3806649D01*
X2145465Y3778478D01*
X1950776Y3715219D01*
X1768386Y3622285D01*
X1602786Y3501972D01*
X1458028Y3357214D01*
X1337715Y3191614D01*
X1244781Y3009224D01*
X1181522Y2814535D01*
X1149500Y2612352D01*
X300500Y2612352D01*
X300500Y5537761D01*
X13594500Y5537761D01*
X13594500Y4932240D01*
X13597274Y4902651D01*
X13640884Y4778024D01*
X13719288Y4671790D01*
X13719289Y4671789D01*
X13825523Y4593385D01*
X13825524Y4593385D01*
X13825525Y4593384D01*
X13950151Y4549775D01*
X13950150Y4549775D01*
X13979740Y4547000D01*
X13979744Y4547000D01*
X14560260Y4547000D01*
X14589849Y4549775D01*
X14714475Y4593384D01*
X14820711Y4671789D01*
X14899116Y4778025D01*
X14899115Y4778025D01*
X14903624Y4784133D01*
X14959271Y4826384D01*
X15003394Y4834500D01*
X15210245Y4834500D01*
X15277284Y4814815D01*
X15297926Y4798181D01*
X16163181Y3932926D01*
X16196666Y3871603D01*
X16199500Y3845245D01*
X16199500Y3484740D01*
X16202274Y3455151D01*
X16245884Y3330524D01*
X16324288Y3224290D01*
X16324289Y3224289D01*
X16436633Y3141376D01*
X16478884Y3085729D01*
X16487000Y3041606D01*
X16487000Y2840288D01*
X16467315Y2773249D01*
X16425408Y2734759D01*
X16425501Y2734634D01*
X16424339Y2733777D01*
X16420946Y2730660D01*
X16418022Y2729115D01*
X16311789Y2650712D01*
X16311788Y2650711D01*
X16233384Y2544477D01*
X16189774Y2419850D01*
X16187000Y2390261D01*
X16187000Y1809740D01*
X16189774Y1780151D01*
X16233384Y1655524D01*
X16311788Y1549290D01*
X16311789Y1549289D01*
X16418023Y1470885D01*
X16418024Y1470885D01*
X16418025Y1470884D01*
X16542651Y1427275D01*
X16542650Y1427275D01*
X16572240Y1424500D01*
X16572244Y1424500D01*
X17177760Y1424500D01*
X17207349Y1427275D01*
X17331975Y1470884D01*
X17438211Y1549289D01*
X17516616Y1655525D01*
X17560225Y1780151D01*
X17563000Y1809744D01*
X17563000Y1820429D01*
X17912500Y1820429D01*
X17922873Y1734042D01*
X17977076Y1596593D01*
X17977079Y1596587D01*
X18066356Y1478857D01*
X18184086Y1389580D01*
X18184092Y1389577D01*
X18321541Y1335374D01*
X18407928Y1325000D01*
X18550000Y1325000D01*
X18850000Y1325000D01*
X18992072Y1325000D01*
X19078458Y1335374D01*
X19215907Y1389577D01*
X19215913Y1389580D01*
X19333643Y1478857D01*
X19422920Y1596587D01*
X19422923Y1596593D01*
X19477126Y1734042D01*
X19487500Y1820429D01*
X19487500Y1950000D01*
X18850000Y1950000D01*
X18850000Y1325000D01*
X18550000Y1325000D01*
X18550000Y1950000D01*
X17912500Y1950000D01*
X17912500Y1820429D01*
X17563000Y1820429D01*
X17563000Y2100429D01*
X21785000Y2100429D01*
X21795373Y2014042D01*
X21849576Y1876593D01*
X21849579Y1876587D01*
X21938856Y1758857D01*
X22056586Y1669580D01*
X22056592Y1669577D01*
X22194041Y1615374D01*
X22280428Y1605000D01*
X22422500Y1605000D01*
X22722500Y1605000D01*
X22864572Y1605000D01*
X22950958Y1615374D01*
X23088407Y1669577D01*
X23088413Y1669580D01*
X23206143Y1758857D01*
X23295420Y1876587D01*
X23295423Y1876593D01*
X23349626Y2014042D01*
X23360000Y2100429D01*
X23360000Y2230000D01*
X22722500Y2230000D01*
X22722500Y1605000D01*
X22422500Y1605000D01*
X22422500Y2230000D01*
X21785000Y2230000D01*
X21785000Y2100429D01*
X17563000Y2100429D01*
X17563000Y2390256D01*
X17562086Y2400000D01*
X17560225Y2419850D01*
X17516615Y2544477D01*
X17438212Y2650710D01*
X17438209Y2650712D01*
X17371631Y2699849D01*
X17338366Y2724400D01*
X17296115Y2780048D01*
X17288000Y2824170D01*
X17288000Y3041606D01*
X17307685Y3108645D01*
X17338367Y3141376D01*
X17392882Y3181610D01*
X17450711Y3224289D01*
X17529116Y3330525D01*
X17572725Y3455151D01*
X17575500Y3484744D01*
X17575500Y4065256D01*
X17574904Y4071607D01*
X17572725Y4094850D01*
X17529115Y4219477D01*
X17450711Y4325711D01*
X17450710Y4325712D01*
X17344476Y4404116D01*
X17219848Y4447726D01*
X17219849Y4447726D01*
X17190260Y4450500D01*
X17190256Y4450500D01*
X16829755Y4450500D01*
X16762716Y4470185D01*
X16742074Y4486819D01*
X15673415Y5555478D01*
X15673413Y5555480D01*
X15627750Y5581844D01*
X15582089Y5608207D01*
X15497652Y5630831D01*
X15480227Y5635500D01*
X15480226Y5635500D01*
X15003394Y5635500D01*
X14936355Y5655185D01*
X14903624Y5685867D01*
X14820711Y5798211D01*
X14820710Y5798212D01*
X14714476Y5876616D01*
X14696435Y5882929D01*
X16275000Y5882929D01*
X16285373Y5796542D01*
X16339576Y5659093D01*
X16339579Y5659087D01*
X16428856Y5541357D01*
X16546586Y5452080D01*
X16546592Y5452077D01*
X16684041Y5397874D01*
X16770428Y5387500D01*
X16900000Y5387500D01*
X16900000Y6075000D01*
X17200000Y6075000D01*
X17200000Y5387500D01*
X17329572Y5387500D01*
X17415958Y5397874D01*
X17553407Y5452077D01*
X17553413Y5452080D01*
X17671142Y5541357D01*
X17741715Y5634422D01*
X17797907Y5675946D01*
X17867629Y5680499D01*
X17928743Y5646634D01*
X17939324Y5634423D01*
X18028856Y5516357D01*
X18146586Y5427080D01*
X18146592Y5427077D01*
X18284041Y5372874D01*
X18370428Y5362500D01*
X18500000Y5362500D01*
X18500000Y6000000D01*
X17949000Y6000000D01*
X17881961Y6019685D01*
X17863559Y6040922D01*
X17861319Y6038681D01*
X17820554Y6079446D01*
X17809484Y6075316D01*
X17800638Y6075000D01*
X17200000Y6075000D01*
X16900000Y6075000D01*
X16275000Y6075000D01*
X16275000Y5882929D01*
X14696435Y5882929D01*
X14589848Y5920226D01*
X14589849Y5920226D01*
X14560260Y5923000D01*
X14560256Y5923000D01*
X13979744Y5923000D01*
X13979740Y5923000D01*
X13950150Y5920226D01*
X13825523Y5876616D01*
X13719289Y5798212D01*
X13719288Y5798211D01*
X13640884Y5691977D01*
X13597274Y5567350D01*
X13594500Y5537761D01*
X300500Y5537761D01*
X300500Y18359309D01*
X2449500Y18359309D01*
X2449500Y9640692D01*
X2473712Y9550328D01*
X2480200Y9526115D01*
X2480200Y9526114D01*
X2498077Y9495151D01*
X2539511Y9423386D01*
X4223386Y7739510D01*
X4326113Y7680201D01*
X4350321Y7673716D01*
X4350324Y7673714D01*
X4350325Y7673714D01*
X4380447Y7665643D01*
X4440691Y7649500D01*
X8140715Y7649500D01*
X8207754Y7629815D01*
X8216199Y7623877D01*
X8222370Y7619142D01*
X8222373Y7619141D01*
X8222375Y7619139D01*
X8356291Y7563670D01*
X8483280Y7546952D01*
X8499999Y7544750D01*
X8500000Y7544750D01*
X8500001Y7544750D01*
X8514977Y7546722D01*
X8643709Y7563670D01*
X8777625Y7619139D01*
X8892621Y7707379D01*
X8980861Y7822375D01*
X9036330Y7956291D01*
X9055250Y8100000D01*
X9036330Y8243709D01*
X8980861Y8377625D01*
X8892621Y8492621D01*
X8777625Y8580861D01*
X8777624Y8580862D01*
X8777622Y8580863D01*
X8643712Y8636329D01*
X8643710Y8636330D01*
X8643709Y8636330D01*
X8543865Y8649475D01*
X8500001Y8655250D01*
X8499999Y8655250D01*
X8356291Y8636330D01*
X8356287Y8636329D01*
X8222376Y8580862D01*
X8222370Y8580859D01*
X8216199Y8576123D01*
X8151030Y8550930D01*
X8140715Y8550500D01*
X4737966Y8550500D01*
X4670927Y8570185D01*
X4650285Y8586819D01*
X3386819Y9850285D01*
X3353334Y9911608D01*
X3350500Y9937966D01*
X3350500Y12913054D01*
X4245000Y12913054D01*
X4245000Y12420000D01*
X5068436Y12420000D01*
X5045000Y12332535D01*
X5045000Y12207465D01*
X5068436Y12120000D01*
X4245000Y12120000D01*
X4245000Y11626947D01*
X4255613Y11538557D01*
X4311079Y11397905D01*
X4402435Y11277436D01*
X4522904Y11186080D01*
X4663556Y11130614D01*
X4751946Y11120000D01*
X5370000Y11120000D01*
X5370000Y11818436D01*
X5457465Y11795000D01*
X5582535Y11795000D01*
X5670000Y11818436D01*
X5670000Y11120000D01*
X6288054Y11120000D01*
X6376443Y11130614D01*
X6517095Y11186080D01*
X6637564Y11277436D01*
X6728920Y11397905D01*
X6784386Y11538557D01*
X6795000Y11626947D01*
X6795000Y12120000D01*
X5971564Y12120000D01*
X5995000Y12207465D01*
X5995000Y12332535D01*
X5971564Y12420000D01*
X6795000Y12420000D01*
X6795000Y12913054D01*
X6784386Y13001444D01*
X6728920Y13142096D01*
X6637564Y13262565D01*
X6517095Y13353921D01*
X6376443Y13409387D01*
X6288054Y13420000D01*
X5670000Y13420000D01*
X5670000Y12721565D01*
X5582535Y12745000D01*
X5457465Y12745000D01*
X5370000Y12721565D01*
X5370000Y13420000D01*
X4751946Y13420000D01*
X4663556Y13409387D01*
X4522904Y13353921D01*
X4402435Y13262565D01*
X4311079Y13142096D01*
X4255613Y13001444D01*
X4245000Y12913054D01*
X3350500Y12913054D01*
X3350500Y14873470D01*
X4344500Y14873470D01*
X4344500Y14666531D01*
X4384868Y14463588D01*
X4384870Y14463580D01*
X4438889Y14333166D01*
X4464059Y14272402D01*
X4487829Y14236828D01*
X4579024Y14100343D01*
X4725342Y13954025D01*
X4725345Y13954023D01*
X4897402Y13839059D01*
X5088580Y13759870D01*
X5252246Y13727315D01*
X5291530Y13719501D01*
X5291534Y13719500D01*
X5291535Y13719500D01*
X5748466Y13719500D01*
X5748467Y13719501D01*
X5951420Y13759870D01*
X6142598Y13839059D01*
X6314655Y13954023D01*
X6460977Y14100345D01*
X6575941Y14272402D01*
X6655130Y14463580D01*
X6695500Y14666535D01*
X6695500Y14873465D01*
X6655130Y15076420D01*
X6575941Y15267598D01*
X6460977Y15439655D01*
X6460975Y15439658D01*
X6314657Y15585976D01*
X6163733Y15686819D01*
X6142598Y15700941D01*
X6126857Y15707461D01*
X5951420Y15780130D01*
X5951412Y15780132D01*
X5748469Y15820500D01*
X5748465Y15820500D01*
X5291535Y15820500D01*
X5291530Y15820500D01*
X5088587Y15780132D01*
X5088579Y15780130D01*
X4897403Y15700942D01*
X4725342Y15585976D01*
X4579024Y15439658D01*
X4464058Y15267597D01*
X4384870Y15076421D01*
X4384868Y15076413D01*
X4344500Y14873470D01*
X3350500Y14873470D01*
X3350500Y17373470D01*
X4344500Y17373470D01*
X4344500Y17166531D01*
X4384868Y16963588D01*
X4384870Y16963580D01*
X4464058Y16772404D01*
X4579024Y16600343D01*
X4725342Y16454025D01*
X4725345Y16454023D01*
X4897402Y16339059D01*
X5088580Y16259870D01*
X5291530Y16219501D01*
X5291534Y16219500D01*
X5291535Y16219500D01*
X5748466Y16219500D01*
X5748467Y16219501D01*
X5951420Y16259870D01*
X6142598Y16339059D01*
X6314655Y16454023D01*
X6460977Y16600345D01*
X6575941Y16772402D01*
X6579054Y16779920D01*
X6622888Y16834323D01*
X6647048Y16845464D01*
X6646375Y16847089D01*
X6653881Y16850200D01*
X6653887Y16850201D01*
X6756614Y16909511D01*
X8164500Y18317399D01*
X8225821Y18350882D01*
X8235978Y18352653D01*
X8243709Y18353670D01*
X8377625Y18409139D01*
X8492621Y18497379D01*
X8580861Y18612375D01*
X8636330Y18746291D01*
X8655250Y18890000D01*
X8636330Y19033709D01*
X8580861Y19167625D01*
X8492621Y19282621D01*
X8377625Y19370861D01*
X8377624Y19370862D01*
X8377622Y19370863D01*
X8243712Y19426329D01*
X8243710Y19426330D01*
X8243709Y19426330D01*
X8171854Y19435790D01*
X8100001Y19445250D01*
X8099999Y19445250D01*
X7956291Y19426330D01*
X7956287Y19426329D01*
X7822377Y19370863D01*
X7707379Y19282621D01*
X7619137Y19167623D01*
X7563669Y19033709D01*
X7563669Y19033707D01*
X7562653Y19025991D01*
X7534384Y18962096D01*
X7527396Y18954501D01*
X6574445Y18001550D01*
X6513122Y17968065D01*
X6443430Y17973049D01*
X6399083Y18001550D01*
X6314657Y18085976D01*
X6198607Y18163517D01*
X6142598Y18200941D01*
X6037493Y18244477D01*
X5951420Y18280130D01*
X5951412Y18280132D01*
X5748469Y18320500D01*
X5748465Y18320500D01*
X5291535Y18320500D01*
X5291530Y18320500D01*
X5088587Y18280132D01*
X5088579Y18280130D01*
X4897403Y18200942D01*
X4725342Y18085976D01*
X4579024Y17939658D01*
X4464058Y17767597D01*
X4384870Y17576421D01*
X4384868Y17576413D01*
X4344500Y17373470D01*
X3350500Y17373470D01*
X3350500Y18062036D01*
X3370185Y18129075D01*
X3386814Y18149713D01*
X4375423Y19138322D01*
X4436744Y19171805D01*
X4506435Y19166821D01*
X4562369Y19124949D01*
X4566194Y19119544D01*
X4579023Y19100345D01*
X4579024Y19100344D01*
X4579027Y19100340D01*
X4725342Y18954025D01*
X4725345Y18954023D01*
X4897402Y18839059D01*
X5088580Y18759870D01*
X5291530Y18719501D01*
X5291534Y18719500D01*
X5291535Y18719500D01*
X5748466Y18719500D01*
X5748467Y18719501D01*
X5951420Y18759870D01*
X6142598Y18839059D01*
X6314655Y18954023D01*
X6460977Y19100345D01*
X6575941Y19272402D01*
X6655130Y19463580D01*
X6695500Y19666535D01*
X6695500Y19873465D01*
X6655130Y20076420D01*
X6575941Y20267598D01*
X6460977Y20439655D01*
X6460976Y20439656D01*
X6460975Y20439658D01*
X6314657Y20585976D01*
X6228626Y20643459D01*
X6142598Y20700941D01*
X5951420Y20780130D01*
X5951412Y20780132D01*
X5748469Y20820500D01*
X5748465Y20820500D01*
X5291535Y20820500D01*
X5291530Y20820500D01*
X5088587Y20780132D01*
X5088579Y20780130D01*
X4897403Y20700942D01*
X4725342Y20585976D01*
X4579022Y20439656D01*
X4469411Y20275609D01*
X4415799Y20230804D01*
X4366309Y20220500D01*
X4310691Y20220500D01*
X4220325Y20196287D01*
X4220324Y20196288D01*
X4196116Y20189801D01*
X4196113Y20189800D01*
X4093386Y20130489D01*
X4093383Y20130487D01*
X2539513Y18576617D01*
X2539509Y18576611D01*
X2480201Y18473888D01*
X2480200Y18473883D01*
X2449500Y18359309D01*
X300500Y18359309D01*
X300500Y22373470D01*
X4344500Y22373470D01*
X4344500Y22166531D01*
X4373174Y22022378D01*
X4384870Y21963580D01*
X4464059Y21772402D01*
X4521541Y21686374D01*
X4579024Y21600343D01*
X4725342Y21454025D01*
X4725345Y21454023D01*
X4897402Y21339059D01*
X5088580Y21259870D01*
X5288111Y21220181D01*
X5291530Y21219501D01*
X5291534Y21219500D01*
X5291535Y21219500D01*
X5748466Y21219500D01*
X5748467Y21219501D01*
X5951420Y21259870D01*
X6142598Y21339059D01*
X6314655Y21454023D01*
X6460977Y21600345D01*
X6570589Y21764391D01*
X6624201Y21809196D01*
X6673691Y21819500D01*
X6692035Y21819500D01*
X6759074Y21799815D01*
X6779716Y21783181D01*
X13723386Y14839511D01*
X13826113Y14780201D01*
X13843653Y14775502D01*
X13843656Y14775500D01*
X13843657Y14775500D01*
X13864162Y14770006D01*
X13940691Y14749500D01*
X14806306Y14749500D01*
X14873345Y14729815D01*
X14919100Y14677011D01*
X14929044Y14607853D01*
X14913692Y14563499D01*
X14876792Y14499590D01*
X14876792Y14499589D01*
X14859248Y14434109D01*
X14849500Y14397729D01*
X14849500Y13829356D01*
X14829815Y13762317D01*
X14777011Y13716562D01*
X14766456Y13712315D01*
X14743023Y13704116D01*
X14636789Y13625712D01*
X14636788Y13625711D01*
X14558384Y13519477D01*
X14514774Y13394850D01*
X14512000Y13365261D01*
X14512000Y12784740D01*
X14514774Y12755151D01*
X14558384Y12630524D01*
X14636788Y12524290D01*
X14636789Y12524289D01*
X14743022Y12445886D01*
X14743025Y12445884D01*
X14766454Y12437686D01*
X14823230Y12396965D01*
X14848978Y12332012D01*
X14849500Y12320644D01*
X14849500Y12204356D01*
X14829815Y12137317D01*
X14777011Y12091562D01*
X14766456Y12087315D01*
X14743023Y12079116D01*
X14636789Y12000712D01*
X14636788Y12000711D01*
X14558384Y11894477D01*
X14514774Y11769850D01*
X14512000Y11740261D01*
X14512000Y11159740D01*
X14514774Y11130151D01*
X14558384Y11005524D01*
X14636788Y10899290D01*
X14636789Y10899289D01*
X14743023Y10820885D01*
X14743024Y10820885D01*
X14743025Y10820884D01*
X14867651Y10777275D01*
X14867650Y10777275D01*
X14897240Y10774500D01*
X14897244Y10774500D01*
X15502760Y10774500D01*
X15532349Y10777275D01*
X15550553Y10783645D01*
X15656975Y10820884D01*
X15763211Y10899289D01*
X15841616Y11005525D01*
X15885225Y11130151D01*
X15888000Y11159744D01*
X15888000Y11740256D01*
X15886593Y11755256D01*
X15885225Y11769850D01*
X15846808Y11879637D01*
X15841616Y11894475D01*
X15837907Y11899500D01*
X15763212Y12000710D01*
X15763209Y12000712D01*
X15738960Y12018609D01*
X15700866Y12046724D01*
X15658615Y12102372D01*
X15650500Y12146494D01*
X15650500Y12320644D01*
X15670185Y12387683D01*
X15722989Y12433438D01*
X15733546Y12437686D01*
X15756975Y12445884D01*
X15863211Y12524289D01*
X15941616Y12630525D01*
X15985225Y12755151D01*
X15988000Y12784740D01*
X15988000Y13365261D01*
X16237000Y13365261D01*
X16237000Y12784740D01*
X16239774Y12755151D01*
X16283384Y12630524D01*
X16361788Y12524290D01*
X16361789Y12524289D01*
X16468022Y12445886D01*
X16468025Y12445884D01*
X16491454Y12437686D01*
X16548230Y12396965D01*
X16573978Y12332012D01*
X16574500Y12320644D01*
X16574500Y12146494D01*
X16554815Y12079455D01*
X16524134Y12046724D01*
X16461787Y12000710D01*
X16383384Y11894477D01*
X16339774Y11769850D01*
X16337000Y11740261D01*
X16337000Y11159740D01*
X16339774Y11130151D01*
X16383384Y11005524D01*
X16461788Y10899290D01*
X16461789Y10899289D01*
X16574133Y10816376D01*
X16616384Y10760729D01*
X16624500Y10716606D01*
X16624500Y10389944D01*
X16604815Y10322905D01*
X16574134Y10290174D01*
X16486787Y10225710D01*
X16408384Y10119477D01*
X16364774Y9994850D01*
X16362000Y9965261D01*
X16362000Y9384740D01*
X16364774Y9355151D01*
X16408384Y9230524D01*
X16486788Y9124290D01*
X16486789Y9124289D01*
X16593023Y9045885D01*
X16593024Y9045885D01*
X16593025Y9045884D01*
X16717651Y9002275D01*
X16717650Y9002275D01*
X16747240Y8999500D01*
X16747244Y8999500D01*
X17352760Y8999500D01*
X17382349Y9002275D01*
X17506975Y9045884D01*
X17613211Y9124289D01*
X17691616Y9230525D01*
X17735225Y9355151D01*
X17738000Y9384744D01*
X17738000Y9965256D01*
X17735225Y9994849D01*
X17691616Y10119475D01*
X17613211Y10225711D01*
X17577836Y10251819D01*
X17506976Y10304116D01*
X17498760Y10308458D01*
X17499574Y10310000D01*
X17451767Y10344291D01*
X17426022Y10409245D01*
X17425500Y10420608D01*
X17425500Y10716606D01*
X17445185Y10783645D01*
X17475867Y10816376D01*
X17502301Y10835885D01*
X17588211Y10899289D01*
X17666616Y11005525D01*
X17710225Y11130151D01*
X17713000Y11159744D01*
X17713000Y11740256D01*
X17711593Y11755256D01*
X17710225Y11769850D01*
X17671808Y11879637D01*
X17666616Y11894475D01*
X17662907Y11899500D01*
X17588211Y12000711D01*
X17588210Y12000712D01*
X17481976Y12079116D01*
X17481977Y12079116D01*
X17458544Y12087315D01*
X17401769Y12128037D01*
X17376022Y12192990D01*
X17375500Y12204356D01*
X17375500Y12320644D01*
X17395185Y12387683D01*
X17447989Y12433438D01*
X17458546Y12437686D01*
X17481975Y12445884D01*
X17588211Y12524289D01*
X17666616Y12630525D01*
X17710225Y12755151D01*
X17713000Y12784740D01*
X17713000Y13226207D01*
X17729613Y13288207D01*
X17731389Y13291284D01*
X17748207Y13320413D01*
X17775500Y13422273D01*
X17775500Y14078457D01*
X17795185Y14145496D01*
X17811818Y14166138D01*
X17814198Y14168517D01*
X17865573Y14273607D01*
X17875500Y14341740D01*
X17875500Y16058260D01*
X17865573Y16126393D01*
X17814198Y16231483D01*
X17814196Y16231485D01*
X17814196Y16231486D01*
X17731485Y16314197D01*
X17626391Y16365574D01*
X17558261Y16375500D01*
X17558260Y16375500D01*
X17191740Y16375500D01*
X17191739Y16375500D01*
X17123608Y16365574D01*
X17018514Y16314197D01*
X16935803Y16231486D01*
X16884426Y16126392D01*
X16874500Y16058261D01*
X16874500Y14341740D01*
X16884426Y14273609D01*
X16935801Y14168518D01*
X16935802Y14168517D01*
X16938178Y14166141D01*
X16940391Y14162089D01*
X16941773Y14160153D01*
X16941539Y14159987D01*
X16971665Y14104821D01*
X16974500Y14078457D01*
X16974500Y13874500D01*
X16954815Y13807461D01*
X16902011Y13761706D01*
X16850500Y13750500D01*
X16622240Y13750500D01*
X16592650Y13747726D01*
X16468023Y13704116D01*
X16361789Y13625712D01*
X16361788Y13625711D01*
X16283384Y13519477D01*
X16239774Y13394850D01*
X16237000Y13365261D01*
X15988000Y13365261D01*
X15985225Y13394850D01*
X15941615Y13519477D01*
X15863211Y13625711D01*
X15863210Y13625712D01*
X15756976Y13704116D01*
X15756977Y13704116D01*
X15733544Y13712315D01*
X15676769Y13753037D01*
X15651022Y13817990D01*
X15650500Y13829356D01*
X15650500Y13935076D01*
X15670185Y14002115D01*
X15722989Y14047870D01*
X15792147Y14057814D01*
X15828957Y14046478D01*
X15853607Y14034427D01*
X15889496Y14029198D01*
X15921739Y14024500D01*
X15921740Y14024500D01*
X16288261Y14024500D01*
X16320504Y14029198D01*
X16356393Y14034427D01*
X16461483Y14085802D01*
X16544198Y14168517D01*
X16595573Y14273607D01*
X16605500Y14341740D01*
X16605500Y16058260D01*
X16595573Y16126393D01*
X16544198Y16231483D01*
X16544196Y16231485D01*
X16544196Y16231486D01*
X16461485Y16314197D01*
X16356391Y16365574D01*
X16288261Y16375500D01*
X16288260Y16375500D01*
X15921740Y16375500D01*
X15921739Y16375500D01*
X15853608Y16365574D01*
X15748514Y16314197D01*
X15665803Y16231486D01*
X15614426Y16126392D01*
X15604500Y16058261D01*
X15604500Y15774500D01*
X15584815Y15707461D01*
X15532011Y15661706D01*
X15480500Y15650500D01*
X14237965Y15650500D01*
X14170926Y15670185D01*
X14150284Y15686819D01*
X7537103Y22300000D01*
X9944750Y22300000D01*
X9960489Y22180449D01*
X9963670Y22156292D01*
X9963671Y22156288D01*
X10019137Y22022378D01*
X10019138Y22022376D01*
X10019139Y22022375D01*
X10107379Y21907379D01*
X10222375Y21819139D01*
X10356291Y21763670D01*
X10480821Y21747275D01*
X10499999Y21744750D01*
X10500000Y21744750D01*
X10500001Y21744750D01*
X10519179Y21747275D01*
X10643709Y21763670D01*
X10777625Y21819139D01*
X10879109Y21897011D01*
X10892620Y21907378D01*
X10903063Y21920987D01*
X10959491Y21962190D01*
X11001438Y21969500D01*
X11775500Y21969500D01*
X11842539Y21949815D01*
X11888294Y21897011D01*
X11899500Y21845500D01*
X11899500Y19152727D01*
X11899500Y19047273D01*
X11905383Y19025318D01*
X11926793Y18945411D01*
X11939932Y18922654D01*
X11979520Y18854087D01*
X13416587Y17417020D01*
X13507912Y17364293D01*
X13572791Y17346909D01*
X13632451Y17310546D01*
X13657739Y17268090D01*
X13670884Y17230525D01*
X13670884Y17230524D01*
X13749288Y17124290D01*
X13749289Y17124289D01*
X13855523Y17045885D01*
X13855524Y17045885D01*
X13855525Y17045884D01*
X13980151Y17002275D01*
X13980150Y17002275D01*
X14009740Y16999500D01*
X14009744Y16999500D01*
X14590260Y16999500D01*
X14619849Y17002275D01*
X14744475Y17045884D01*
X14850711Y17124289D01*
X14913329Y17209134D01*
X14968976Y17251384D01*
X15013099Y17259500D01*
X19047745Y17259500D01*
X19114784Y17239815D01*
X19135426Y17223181D01*
X19670926Y16687681D01*
X19704411Y16626358D01*
X19699427Y16556666D01*
X19670926Y16512319D01*
X19594522Y16435916D01*
X19594520Y16435913D01*
X19541792Y16344588D01*
X19541791Y16344585D01*
X19533146Y16312321D01*
X19501055Y16256738D01*
X19475805Y16231486D01*
X19475801Y16231482D01*
X19424426Y16126392D01*
X19414500Y16058261D01*
X19414500Y14341740D01*
X19424426Y14273609D01*
X19475801Y14168518D01*
X19475802Y14168517D01*
X19478178Y14166141D01*
X19480391Y14162089D01*
X19481773Y14160153D01*
X19481539Y14159987D01*
X19511665Y14104821D01*
X19514500Y14078457D01*
X19514500Y8942274D01*
X19515275Y8939382D01*
X19519500Y8907289D01*
X19519500Y8474809D01*
X19499815Y8407770D01*
X19447011Y8362015D01*
X19377853Y8352071D01*
X19314297Y8381096D01*
X19284824Y8424483D01*
X19283458Y8423760D01*
X19279115Y8431977D01*
X19200712Y8538210D01*
X19200709Y8538212D01*
X19149342Y8576123D01*
X19095866Y8615590D01*
X19053616Y8671238D01*
X19045500Y8715360D01*
X19045500Y14078457D01*
X19065185Y14145496D01*
X19081818Y14166138D01*
X19084198Y14168517D01*
X19135573Y14273607D01*
X19145500Y14341740D01*
X19145500Y16058260D01*
X19135573Y16126393D01*
X19084198Y16231483D01*
X19084196Y16231485D01*
X19084196Y16231486D01*
X19001485Y16314197D01*
X18896391Y16365574D01*
X18828261Y16375500D01*
X18828260Y16375500D01*
X18461740Y16375500D01*
X18461739Y16375500D01*
X18393608Y16365574D01*
X18288514Y16314197D01*
X18205803Y16231486D01*
X18154426Y16126392D01*
X18144500Y16058261D01*
X18144500Y14341740D01*
X18154426Y14273609D01*
X18205801Y14168518D01*
X18205802Y14168517D01*
X18208178Y14166141D01*
X18210391Y14162089D01*
X18211773Y14160153D01*
X18211539Y14159987D01*
X18241665Y14104821D01*
X18244500Y14078457D01*
X18244500Y8707979D01*
X18224815Y8640940D01*
X18194133Y8608209D01*
X18099289Y8538212D01*
X18099288Y8538211D01*
X18016376Y8425867D01*
X17960729Y8383616D01*
X17916606Y8375500D01*
X17795608Y8375500D01*
X17728569Y8395185D01*
X17682814Y8447989D01*
X17679460Y8456324D01*
X17679115Y8456977D01*
X17600711Y8563211D01*
X17600710Y8563212D01*
X17494476Y8641616D01*
X17369848Y8685226D01*
X17369849Y8685226D01*
X17340260Y8688000D01*
X17340256Y8688000D01*
X16759744Y8688000D01*
X16759740Y8688000D01*
X16730150Y8685226D01*
X16605523Y8641616D01*
X16499289Y8563212D01*
X16499288Y8563211D01*
X16420884Y8456977D01*
X16375745Y8327980D01*
X16339125Y8276924D01*
X16339828Y8276221D01*
X16335562Y8271956D01*
X16335023Y8271204D01*
X16334195Y8270564D01*
X16334088Y8270483D01*
X16331937Y8268331D01*
X16329678Y8267098D01*
X16327643Y8265536D01*
X16327399Y8265854D01*
X16270611Y8234850D01*
X16200920Y8239839D01*
X16144989Y8281714D01*
X16121322Y8339833D01*
X16116626Y8375500D01*
X16106330Y8453709D01*
X16062227Y8560185D01*
X16050862Y8587623D01*
X16050861Y8587624D01*
X16050861Y8587625D01*
X15962621Y8702621D01*
X15847625Y8790861D01*
X15837138Y8795205D01*
X15722976Y8842492D01*
X15668573Y8886333D01*
X15646508Y8952627D01*
X15663787Y9020326D01*
X15696791Y9056819D01*
X15788211Y9124289D01*
X15866616Y9230525D01*
X15910225Y9355151D01*
X15913000Y9384744D01*
X15913000Y9965256D01*
X15910225Y9994849D01*
X15866616Y10119475D01*
X15788211Y10225711D01*
X15752836Y10251819D01*
X15681976Y10304116D01*
X15557348Y10347726D01*
X15557349Y10347726D01*
X15527760Y10350500D01*
X15527756Y10350500D01*
X14922244Y10350500D01*
X14922240Y10350500D01*
X14892650Y10347726D01*
X14768023Y10304116D01*
X14661789Y10225712D01*
X14661788Y10225711D01*
X14583384Y10119477D01*
X14539774Y9994850D01*
X14537000Y9965261D01*
X14537000Y9384740D01*
X14539774Y9355151D01*
X14583384Y9230524D01*
X14661788Y9124290D01*
X14661789Y9124289D01*
X14774133Y9041376D01*
X14816384Y8985729D01*
X14824500Y8941606D01*
X14824500Y8707727D01*
X14824500Y8602273D01*
X14828641Y8586819D01*
X14851793Y8500411D01*
X14856291Y8492621D01*
X14904520Y8409087D01*
X14904522Y8409085D01*
X14986675Y8326932D01*
X15020160Y8265609D01*
X15021933Y8255437D01*
X15033670Y8166293D01*
X15033671Y8166288D01*
X15089137Y8032378D01*
X15089138Y8032376D01*
X15089139Y8032375D01*
X15177379Y7917379D01*
X15292375Y7829139D01*
X15292376Y7829139D01*
X15292377Y7829138D01*
X15308705Y7822375D01*
X15426291Y7773670D01*
X15540169Y7758678D01*
X15604065Y7730412D01*
X15642536Y7672087D01*
X15643367Y7602222D01*
X15611665Y7548059D01*
X15560427Y7496820D01*
X15499104Y7463334D01*
X15472745Y7460500D01*
X15003394Y7460500D01*
X14936355Y7480185D01*
X14903624Y7510867D01*
X14820711Y7623211D01*
X14820710Y7623212D01*
X14714476Y7701616D01*
X14589848Y7745226D01*
X14589849Y7745226D01*
X14560260Y7748000D01*
X14560256Y7748000D01*
X13979744Y7748000D01*
X13979740Y7748000D01*
X13950150Y7745226D01*
X13825523Y7701616D01*
X13719289Y7623212D01*
X13719288Y7623211D01*
X13640884Y7516977D01*
X13597274Y7392350D01*
X13594500Y7362761D01*
X13594500Y6757240D01*
X13597274Y6727651D01*
X13640884Y6603024D01*
X13719288Y6496790D01*
X13719289Y6496789D01*
X13825523Y6418385D01*
X13825524Y6418385D01*
X13825525Y6418384D01*
X13950151Y6374775D01*
X13950150Y6374775D01*
X13979740Y6372000D01*
X13979744Y6372000D01*
X14560260Y6372000D01*
X14589849Y6374775D01*
X14590492Y6375000D01*
X14714475Y6418384D01*
X14820711Y6496789D01*
X14899116Y6603025D01*
X14899115Y6603025D01*
X14903624Y6609133D01*
X14959271Y6651384D01*
X15003394Y6659500D01*
X15742725Y6659500D01*
X15742727Y6659500D01*
X15844588Y6686793D01*
X15935913Y6739520D01*
X16163081Y6966689D01*
X16224403Y7000173D01*
X16294094Y6995189D01*
X16350028Y6953318D01*
X16374445Y6887853D01*
X16359593Y6819580D01*
X16349566Y6804084D01*
X16339581Y6790917D01*
X16339576Y6790908D01*
X16285373Y6653459D01*
X16275000Y6567072D01*
X16275000Y6375000D01*
X17751000Y6375000D01*
X17818039Y6355315D01*
X17836440Y6334079D01*
X17838681Y6336319D01*
X17879445Y6295555D01*
X17890516Y6299684D01*
X17899362Y6300000D01*
X18500000Y6300000D01*
X18500000Y6937500D01*
X18370428Y6937500D01*
X18284041Y6927127D01*
X18146592Y6872924D01*
X18146586Y6872921D01*
X18028855Y6783643D01*
X17987397Y6728972D01*
X17931204Y6687449D01*
X17861483Y6682898D01*
X17800369Y6716764D01*
X17773240Y6758408D01*
X17760423Y6790908D01*
X17760420Y6790914D01*
X17671143Y6908644D01*
X17553413Y6997921D01*
X17553409Y6997923D01*
X17485859Y7024562D01*
X17430715Y7067468D01*
X17407523Y7133376D01*
X17423644Y7201361D01*
X17473962Y7249837D01*
X17490387Y7256954D01*
X17494475Y7258384D01*
X17600711Y7336789D01*
X17679116Y7443025D01*
X17696063Y7491456D01*
X17736785Y7548231D01*
X17801738Y7573978D01*
X17813104Y7574500D01*
X17916606Y7574500D01*
X17983645Y7554815D01*
X18016376Y7524133D01*
X18099288Y7411790D01*
X18099289Y7411789D01*
X18205523Y7333385D01*
X18205524Y7333385D01*
X18205525Y7333384D01*
X18330151Y7289775D01*
X18330150Y7289775D01*
X18359740Y7287000D01*
X18359744Y7287000D01*
X18940260Y7287000D01*
X18969849Y7289775D01*
X19094475Y7333384D01*
X19200711Y7411789D01*
X19279116Y7518025D01*
X19279116Y7518028D01*
X19283458Y7526240D01*
X19285082Y7525382D01*
X19319181Y7572923D01*
X19384133Y7598670D01*
X19452695Y7585214D01*
X19503098Y7536826D01*
X19519500Y7475192D01*
X19519500Y6824872D01*
X19499815Y6757833D01*
X19447011Y6712078D01*
X19377853Y6702134D01*
X19314297Y6731159D01*
X19296696Y6749947D01*
X19271143Y6783644D01*
X19153413Y6872921D01*
X19153407Y6872924D01*
X19015958Y6927127D01*
X18929572Y6937500D01*
X18800000Y6937500D01*
X18800000Y5362500D01*
X18929572Y5362500D01*
X19015958Y5372874D01*
X19153407Y5427077D01*
X19153413Y5427080D01*
X19271142Y5516357D01*
X19296695Y5550053D01*
X19352887Y5591577D01*
X19422608Y5596130D01*
X19483723Y5562265D01*
X19516827Y5500736D01*
X19519500Y5475129D01*
X19519500Y4737256D01*
X19499815Y4670217D01*
X19483181Y4649575D01*
X19275125Y4441520D01*
X19213802Y4408035D01*
X19146489Y4412160D01*
X19044850Y4447726D01*
X19015260Y4450500D01*
X19015256Y4450500D01*
X18409744Y4450500D01*
X18409740Y4450500D01*
X18380150Y4447726D01*
X18255523Y4404116D01*
X18149289Y4325712D01*
X18149288Y4325711D01*
X18070884Y4219477D01*
X18027274Y4094850D01*
X18024500Y4065261D01*
X18024500Y3484740D01*
X18027274Y3455151D01*
X18070884Y3330524D01*
X18149288Y3224290D01*
X18149289Y3224289D01*
X18255523Y3145885D01*
X18255524Y3145884D01*
X18366523Y3107043D01*
X18423299Y3066321D01*
X18449046Y3001368D01*
X18435589Y2932807D01*
X18387202Y2882404D01*
X18340354Y2866887D01*
X18321545Y2864629D01*
X18321543Y2864628D01*
X18184092Y2810424D01*
X18184086Y2810421D01*
X18066356Y2721144D01*
X17977079Y2603414D01*
X17977076Y2603408D01*
X17922873Y2465959D01*
X17912500Y2379572D01*
X17912500Y2250000D01*
X19487500Y2250000D01*
X19487500Y2379572D01*
X19477126Y2465959D01*
X19422923Y2603408D01*
X19422920Y2603414D01*
X19333643Y2721144D01*
X19215913Y2810421D01*
X19215907Y2810424D01*
X19078455Y2864628D01*
X19078255Y2864652D01*
X19078104Y2864717D01*
X19070745Y2866577D01*
X19071040Y2867747D01*
X19014041Y2892191D01*
X18974910Y2950075D01*
X18973286Y3019926D01*
X19009683Y3079567D01*
X19052088Y3104808D01*
X19088776Y3117646D01*
X19169475Y3145884D01*
X19275711Y3224289D01*
X19354116Y3330525D01*
X19376696Y3395057D01*
X19415198Y3448740D01*
X19415166Y3448772D01*
X19415362Y3448969D01*
X19417417Y3451833D01*
X19418262Y3452487D01*
X19420904Y3454516D01*
X19420913Y3454520D01*
X19832319Y3865928D01*
X19893642Y3899412D01*
X19963333Y3894428D01*
X20007681Y3865927D01*
X20165179Y3708429D01*
X20165189Y3708418D01*
X20169519Y3704088D01*
X20169520Y3704087D01*
X20244087Y3629520D01*
X20335413Y3576793D01*
X20437273Y3549499D01*
X20437275Y3549499D01*
X20550323Y3549499D01*
X20550339Y3549500D01*
X21828331Y3549500D01*
X21895370Y3529815D01*
X21928101Y3499133D01*
X21938721Y3484744D01*
X22001789Y3399289D01*
X22108025Y3320884D01*
X22108027Y3320884D01*
X22113457Y3316876D01*
X22155708Y3261228D01*
X22161167Y3191572D01*
X22128100Y3130022D01*
X22085316Y3101751D01*
X22056588Y3090422D01*
X22056586Y3090421D01*
X21938856Y3001144D01*
X21849579Y2883414D01*
X21849576Y2883408D01*
X21795373Y2745959D01*
X21785000Y2659572D01*
X21785000Y2530000D01*
X23360000Y2530000D01*
X23360000Y2659572D01*
X23349626Y2745959D01*
X23295423Y2883408D01*
X23295420Y2883414D01*
X23206143Y3001144D01*
X23088413Y3090421D01*
X23088409Y3090423D01*
X23049908Y3105606D01*
X22994765Y3148512D01*
X22971572Y3214420D01*
X22987693Y3282404D01*
X23021766Y3320731D01*
X23021971Y3320883D01*
X23021975Y3320884D01*
X23128211Y3399289D01*
X23206616Y3505525D01*
X23250225Y3630151D01*
X23253000Y3659744D01*
X23253000Y4240256D01*
X23253000Y4240261D01*
X23702000Y4240261D01*
X23702000Y3659740D01*
X23704774Y3630151D01*
X23748384Y3505524D01*
X23826788Y3399290D01*
X23826789Y3399289D01*
X23939133Y3316376D01*
X23981384Y3260729D01*
X23989500Y3216606D01*
X23989500Y3107860D01*
X23969815Y3040821D01*
X23939134Y3008090D01*
X23834287Y2930710D01*
X23755884Y2824477D01*
X23712274Y2699850D01*
X23709500Y2670261D01*
X23709500Y2089740D01*
X23712274Y2060151D01*
X23755884Y1935524D01*
X23834288Y1829290D01*
X23834289Y1829289D01*
X23940523Y1750885D01*
X23940524Y1750885D01*
X23940525Y1750884D01*
X24065151Y1707275D01*
X24065150Y1707275D01*
X24094740Y1704500D01*
X24094744Y1704500D01*
X24700260Y1704500D01*
X24729849Y1707275D01*
X24854475Y1750884D01*
X24960711Y1829289D01*
X25039116Y1935525D01*
X25082725Y2060151D01*
X25085500Y2089744D01*
X25085500Y2602352D01*
X31999500Y2602352D01*
X31999500Y2397649D01*
X32031522Y2195466D01*
X32094781Y2000777D01*
X32128030Y1935524D01*
X32186674Y1820429D01*
X32187715Y1818387D01*
X32308028Y1652787D01*
X32452786Y1508029D01*
X32604622Y1397716D01*
X32618390Y1387713D01*
X32705175Y1343494D01*
X32800776Y1294782D01*
X32800778Y1294782D01*
X32800781Y1294780D01*
X32905137Y1260873D01*
X32995465Y1231523D01*
X33096557Y1215512D01*
X33197648Y1199500D01*
X33197649Y1199500D01*
X33402351Y1199500D01*
X33402352Y1199500D01*
X33604534Y1231523D01*
X33799219Y1294780D01*
X33981610Y1387713D01*
X34096086Y1470884D01*
X34147213Y1508029D01*
X34147215Y1508032D01*
X34147219Y1508034D01*
X34291966Y1652781D01*
X34291968Y1652785D01*
X34291971Y1652787D01*
X34369034Y1758857D01*
X34412287Y1818390D01*
X34505220Y2000781D01*
X34568477Y2195466D01*
X34600500Y2397648D01*
X34600500Y2602352D01*
X34579548Y2734634D01*
X34568477Y2804535D01*
X34527480Y2930710D01*
X34505220Y2999219D01*
X34505218Y2999222D01*
X34505218Y2999224D01*
X34471030Y3066321D01*
X34412287Y3181610D01*
X34404556Y3192251D01*
X34291971Y3347214D01*
X34147213Y3491972D01*
X33981613Y3612285D01*
X33981612Y3612286D01*
X33981610Y3612287D01*
X33924653Y3641309D01*
X33799223Y3705219D01*
X33604534Y3768478D01*
X33429995Y3796122D01*
X33402352Y3800500D01*
X33197648Y3800500D01*
X33173329Y3796649D01*
X32995465Y3768478D01*
X32800776Y3705219D01*
X32618386Y3612285D01*
X32452786Y3491972D01*
X32308028Y3347214D01*
X32187715Y3181614D01*
X32094781Y2999224D01*
X32031522Y2804535D01*
X31999500Y2602352D01*
X25085500Y2602352D01*
X25085500Y2670256D01*
X25082725Y2699849D01*
X25075273Y2721144D01*
X25044034Y2810421D01*
X25039116Y2824475D01*
X25009481Y2864629D01*
X24960711Y2930711D01*
X24960710Y2930712D01*
X24846999Y3014634D01*
X24848150Y3016194D01*
X24806477Y3056760D01*
X24790500Y3117646D01*
X24790500Y3216606D01*
X24810185Y3283645D01*
X24840867Y3316376D01*
X24882658Y3347219D01*
X24953211Y3399289D01*
X25031616Y3505525D01*
X25075225Y3630151D01*
X25078000Y3659744D01*
X25078000Y4020245D01*
X25097685Y4087284D01*
X25114319Y4107926D01*
X25556168Y4549775D01*
X26050480Y5044087D01*
X26103207Y5135412D01*
X26130500Y5237273D01*
X26130500Y5342727D01*
X26130500Y5630831D01*
X26150185Y5697870D01*
X26180867Y5730601D01*
X26219529Y5759136D01*
X26280711Y5804289D01*
X26359116Y5910525D01*
X26402725Y6035151D01*
X26405500Y6064744D01*
X26405500Y6670256D01*
X26403949Y6686793D01*
X26402725Y6699850D01*
X26373404Y6783643D01*
X26359116Y6824475D01*
X26345105Y6843459D01*
X26280711Y6930711D01*
X26280710Y6930712D01*
X26174476Y7009116D01*
X26049848Y7052726D01*
X26049849Y7052726D01*
X26020260Y7055500D01*
X26020256Y7055500D01*
X25439744Y7055500D01*
X25439740Y7055500D01*
X25410150Y7052726D01*
X25285523Y7009116D01*
X25179289Y6930712D01*
X25179288Y6930711D01*
X25100885Y6824478D01*
X25089589Y6792197D01*
X25048866Y6735422D01*
X24983912Y6709676D01*
X24915351Y6723134D01*
X24864949Y6771522D01*
X24857193Y6787664D01*
X24820420Y6880914D01*
X24731143Y6998644D01*
X24613413Y7087921D01*
X24613407Y7087924D01*
X24475958Y7142127D01*
X24389572Y7152500D01*
X24260000Y7152500D01*
X24260000Y5577500D01*
X24389572Y5577500D01*
X24475958Y5587874D01*
X24613407Y5642077D01*
X24613413Y5642080D01*
X24731143Y5731357D01*
X24820420Y5849087D01*
X24820421Y5849089D01*
X24858120Y5944687D01*
X24901026Y5999831D01*
X24966933Y6023025D01*
X25034918Y6006905D01*
X25083395Y5956588D01*
X25090516Y5940154D01*
X25100884Y5910524D01*
X25179288Y5804290D01*
X25179289Y5804289D01*
X25279133Y5730601D01*
X25321384Y5674954D01*
X25329500Y5630831D01*
X25329500Y5507255D01*
X25309815Y5440216D01*
X25293181Y5419574D01*
X24535426Y4661819D01*
X24474103Y4628334D01*
X24447745Y4625500D01*
X24087240Y4625500D01*
X24057650Y4622726D01*
X23933023Y4579116D01*
X23826789Y4500712D01*
X23826788Y4500711D01*
X23748384Y4394477D01*
X23704774Y4269850D01*
X23702000Y4240261D01*
X23253000Y4240261D01*
X23250225Y4269849D01*
X23230677Y4325712D01*
X23219164Y4358616D01*
X23206616Y4394475D01*
X23196608Y4408035D01*
X23128211Y4500711D01*
X23128210Y4500712D01*
X23021976Y4579116D01*
X22897348Y4622726D01*
X22897349Y4622726D01*
X22867760Y4625500D01*
X22867756Y4625500D01*
X22262244Y4625500D01*
X22262240Y4625500D01*
X22232650Y4622726D01*
X22108023Y4579116D01*
X22001789Y4500712D01*
X22001788Y4500711D01*
X21928101Y4400867D01*
X21872454Y4358616D01*
X21828331Y4350500D01*
X20707254Y4350500D01*
X20640215Y4370185D01*
X20619573Y4386819D01*
X20356819Y4649574D01*
X20323334Y4710897D01*
X20320500Y4737255D01*
X20320500Y6072929D01*
X21710000Y6072929D01*
X21720373Y5986542D01*
X21774576Y5849093D01*
X21774579Y5849087D01*
X21863856Y5731357D01*
X21981586Y5642080D01*
X21981592Y5642077D01*
X22119041Y5587874D01*
X22205428Y5577500D01*
X22335000Y5577500D01*
X22635000Y5577500D01*
X22764572Y5577500D01*
X22850958Y5587874D01*
X22988407Y5642077D01*
X22988413Y5642080D01*
X23106143Y5731357D01*
X23198696Y5853407D01*
X23254888Y5894930D01*
X23324609Y5899482D01*
X23385724Y5865618D01*
X23396304Y5853407D01*
X23488856Y5731357D01*
X23606586Y5642080D01*
X23606592Y5642077D01*
X23744041Y5587874D01*
X23830428Y5577500D01*
X23960000Y5577500D01*
X23960000Y6215000D01*
X23361362Y6215000D01*
X23294323Y6234685D01*
X23273681Y6251319D01*
X23260000Y6265000D01*
X22635000Y6265000D01*
X22635000Y5577500D01*
X22335000Y5577500D01*
X22335000Y6265000D01*
X21710000Y6265000D01*
X21710000Y6072929D01*
X20320500Y6072929D01*
X20320500Y9042724D01*
X20320500Y9042727D01*
X20319723Y9045626D01*
X20315500Y9077711D01*
X20315500Y14078457D01*
X20335185Y14145496D01*
X20351818Y14166138D01*
X20354198Y14168517D01*
X20364099Y14188771D01*
X20411226Y14240353D01*
X20478760Y14258268D01*
X20545259Y14236828D01*
X20589610Y14182839D01*
X20599500Y14134311D01*
X20599500Y9272727D01*
X20599500Y9167273D01*
X20611017Y9124290D01*
X20626793Y9065411D01*
X20638219Y9045621D01*
X20679520Y8974087D01*
X20679521Y8974086D01*
X20679522Y8974085D01*
X21755179Y7898429D01*
X21755187Y7898420D01*
X21759519Y7894088D01*
X21759520Y7894087D01*
X21773180Y7880427D01*
X21806665Y7819106D01*
X21809500Y7792745D01*
X21809500Y7787240D01*
X21812274Y7757651D01*
X21855884Y7633024D01*
X21934288Y7526790D01*
X21934289Y7526789D01*
X22040521Y7448386D01*
X22040523Y7448386D01*
X22040525Y7448384D01*
X22044602Y7446958D01*
X22048463Y7444189D01*
X22048740Y7444042D01*
X22048720Y7444005D01*
X22101377Y7406239D01*
X22127127Y7341287D01*
X22113672Y7272725D01*
X22065287Y7222320D01*
X22049141Y7214562D01*
X21981588Y7187922D01*
X21981586Y7187921D01*
X21863856Y7098644D01*
X21774579Y6980914D01*
X21774576Y6980908D01*
X21720373Y6843459D01*
X21710000Y6757072D01*
X21710000Y6565000D01*
X23233638Y6565000D01*
X23300677Y6545315D01*
X23321319Y6528681D01*
X23335000Y6515000D01*
X23960000Y6515000D01*
X23960000Y7152500D01*
X23830428Y7152500D01*
X23744041Y7142127D01*
X23606592Y7087924D01*
X23606586Y7087921D01*
X23488855Y6998643D01*
X23424464Y6913730D01*
X23368272Y6872207D01*
X23298551Y6867656D01*
X23237437Y6901521D01*
X23210306Y6943166D01*
X23195420Y6980914D01*
X23106143Y7098644D01*
X22988413Y7187921D01*
X22988409Y7187923D01*
X22920859Y7214562D01*
X22865715Y7257468D01*
X22842523Y7323376D01*
X22858644Y7391361D01*
X22908962Y7439837D01*
X22925387Y7446954D01*
X22929475Y7448384D01*
X23035711Y7526789D01*
X23114116Y7633025D01*
X23122315Y7656457D01*
X23163037Y7713231D01*
X23227990Y7738978D01*
X23239356Y7739500D01*
X23413507Y7739500D01*
X23480546Y7719815D01*
X23513277Y7689133D01*
X23559288Y7626790D01*
X23559289Y7626789D01*
X23665523Y7548385D01*
X23665524Y7548385D01*
X23665525Y7548384D01*
X23790151Y7504775D01*
X23790150Y7504775D01*
X23819740Y7502000D01*
X23819744Y7502000D01*
X24400260Y7502000D01*
X24429849Y7504775D01*
X24554475Y7548384D01*
X24660711Y7626789D01*
X24739116Y7733025D01*
X24739115Y7733025D01*
X24743624Y7739133D01*
X24799271Y7781384D01*
X24843394Y7789500D01*
X24998451Y7789500D01*
X25065490Y7769815D01*
X25098221Y7739133D01*
X25179288Y7629290D01*
X25179289Y7629289D01*
X25285523Y7550885D01*
X25285524Y7550885D01*
X25285525Y7550884D01*
X25410151Y7507275D01*
X25410150Y7507275D01*
X25439740Y7504500D01*
X25439744Y7504500D01*
X26020260Y7504500D01*
X26049849Y7507275D01*
X26060114Y7510867D01*
X26174475Y7550884D01*
X26280711Y7629289D01*
X26359116Y7735525D01*
X26402725Y7860151D01*
X26405500Y7889744D01*
X26405500Y8495256D01*
X26402725Y8524849D01*
X26398049Y8538211D01*
X26375633Y8602273D01*
X26359116Y8649475D01*
X26343054Y8671238D01*
X26280711Y8755711D01*
X26280710Y8755712D01*
X26174476Y8834116D01*
X26049848Y8877726D01*
X26049849Y8877726D01*
X26020260Y8880500D01*
X26020256Y8880500D01*
X25439744Y8880500D01*
X25439740Y8880500D01*
X25410150Y8877726D01*
X25285523Y8834116D01*
X25179289Y8755712D01*
X25179288Y8755711D01*
X25095366Y8641999D01*
X25092507Y8644109D01*
X25055920Y8606498D01*
X24994998Y8590500D01*
X24843394Y8590500D01*
X24776355Y8610185D01*
X24743624Y8640867D01*
X24660711Y8753211D01*
X24660710Y8753212D01*
X24554476Y8831616D01*
X24429848Y8875226D01*
X24429849Y8875226D01*
X24400260Y8878000D01*
X24400256Y8878000D01*
X23819744Y8878000D01*
X23819740Y8878000D01*
X23790150Y8875226D01*
X23665523Y8831616D01*
X23559289Y8753212D01*
X23559288Y8753211D01*
X23480884Y8646977D01*
X23472685Y8623544D01*
X23431963Y8566769D01*
X23367010Y8541022D01*
X23355644Y8540500D01*
X23239356Y8540500D01*
X23172317Y8560185D01*
X23126562Y8612989D01*
X23122315Y8623544D01*
X23114115Y8646977D01*
X23035711Y8753211D01*
X23035710Y8753212D01*
X22929476Y8831616D01*
X22804848Y8875226D01*
X22804849Y8875226D01*
X22775260Y8878000D01*
X22775256Y8878000D01*
X22194744Y8878000D01*
X22194740Y8878000D01*
X22165150Y8875226D01*
X22165148Y8875226D01*
X22050546Y8835123D01*
X21980768Y8831560D01*
X21921910Y8864483D01*
X21436819Y9349574D01*
X21403334Y9410897D01*
X21400500Y9437255D01*
X21400500Y13380261D01*
X21747000Y13380261D01*
X21747000Y12799740D01*
X21749774Y12770151D01*
X21793384Y12645524D01*
X21871788Y12539290D01*
X21871789Y12539289D01*
X21978025Y12460884D01*
X21999813Y12453260D01*
X22001454Y12452686D01*
X22058230Y12411965D01*
X22083978Y12347012D01*
X22084500Y12335644D01*
X22084500Y12217607D01*
X22064815Y12150568D01*
X22012011Y12104813D01*
X22001457Y12100566D01*
X21983025Y12094116D01*
X21983022Y12094115D01*
X21876789Y12015712D01*
X21876788Y12015711D01*
X21798384Y11909477D01*
X21754774Y11784850D01*
X21752000Y11755261D01*
X21752000Y11174740D01*
X21754774Y11145151D01*
X21798384Y11020524D01*
X21876788Y10914290D01*
X21876789Y10914289D01*
X21989133Y10831376D01*
X22031384Y10775729D01*
X22039500Y10731606D01*
X22039500Y10524409D01*
X22019815Y10457370D01*
X21989134Y10424639D01*
X21909287Y10365710D01*
X21830884Y10259477D01*
X21787274Y10134850D01*
X21784500Y10105261D01*
X21784500Y9524740D01*
X21787274Y9495151D01*
X21830884Y9370524D01*
X21909288Y9264290D01*
X21909289Y9264289D01*
X22015523Y9185885D01*
X22015524Y9185885D01*
X22015525Y9185884D01*
X22140151Y9142275D01*
X22140150Y9142275D01*
X22169740Y9139500D01*
X22169744Y9139500D01*
X22775260Y9139500D01*
X22804849Y9142275D01*
X22929475Y9185884D01*
X23035711Y9264289D01*
X23114116Y9370525D01*
X23157725Y9495151D01*
X23160500Y9524744D01*
X23160500Y10105256D01*
X23160500Y10105261D01*
X23609500Y10105261D01*
X23609500Y9524740D01*
X23612274Y9495151D01*
X23655884Y9370524D01*
X23734288Y9264290D01*
X23734289Y9264289D01*
X23840523Y9185885D01*
X23840524Y9185885D01*
X23840525Y9185884D01*
X23965151Y9142275D01*
X23965150Y9142275D01*
X23994740Y9139500D01*
X23994744Y9139500D01*
X24600260Y9139500D01*
X24629849Y9142275D01*
X24754475Y9185884D01*
X24860711Y9264289D01*
X24934399Y9364133D01*
X24990046Y9406384D01*
X25034169Y9414500D01*
X28057725Y9414500D01*
X28057727Y9414500D01*
X28159588Y9441793D01*
X28250913Y9494520D01*
X30489574Y11733181D01*
X30550897Y11766666D01*
X30577255Y11769500D01*
X31193261Y11769500D01*
X31215971Y11772809D01*
X31261393Y11779427D01*
X31366483Y11830802D01*
X31449198Y11913517D01*
X31500573Y12018607D01*
X31510500Y12086740D01*
X31510500Y12453260D01*
X31500573Y12521393D01*
X31449198Y12626483D01*
X31449196Y12626485D01*
X31449196Y12626486D01*
X31366485Y12709197D01*
X31261391Y12760574D01*
X31193261Y12770500D01*
X31193260Y12770500D01*
X29726740Y12770500D01*
X29726739Y12770500D01*
X29658608Y12760574D01*
X29553514Y12709197D01*
X29470803Y12626486D01*
X29419426Y12521392D01*
X29409500Y12453261D01*
X29409500Y12086740D01*
X29419426Y12018609D01*
X29453695Y11948510D01*
X29465453Y11879637D01*
X29438110Y11815340D01*
X29429975Y11806369D01*
X27875426Y10251819D01*
X27814103Y10218334D01*
X27787745Y10215500D01*
X25034169Y10215500D01*
X24967130Y10235185D01*
X24934399Y10265867D01*
X24860711Y10365711D01*
X24860710Y10365712D01*
X24754476Y10444116D01*
X24629848Y10487726D01*
X24629849Y10487726D01*
X24600260Y10490500D01*
X24600256Y10490500D01*
X23994744Y10490500D01*
X23994740Y10490500D01*
X23965150Y10487726D01*
X23840523Y10444116D01*
X23734289Y10365712D01*
X23734288Y10365711D01*
X23655884Y10259477D01*
X23612274Y10134850D01*
X23609500Y10105261D01*
X23160500Y10105261D01*
X23159517Y10115734D01*
X23157725Y10134850D01*
X23125930Y10225712D01*
X23114116Y10259475D01*
X23091459Y10290174D01*
X23035711Y10365711D01*
X23035710Y10365712D01*
X22929477Y10444115D01*
X22929470Y10444119D01*
X22923542Y10446193D01*
X22866767Y10486916D01*
X22841022Y10551870D01*
X22840500Y10563233D01*
X22840500Y10731606D01*
X22860185Y10798645D01*
X22890867Y10831376D01*
X22960654Y10882881D01*
X23003211Y10914289D01*
X23081616Y11020525D01*
X23125225Y11145151D01*
X23126593Y11159740D01*
X23128000Y11174740D01*
X23128000Y11755261D01*
X23125225Y11784850D01*
X23081615Y11909477D01*
X23003211Y12015711D01*
X23003210Y12015712D01*
X22935867Y12065413D01*
X22893616Y12121060D01*
X22885500Y12165183D01*
X22885500Y12335644D01*
X22905185Y12402683D01*
X22957989Y12448438D01*
X22968546Y12452686D01*
X22991975Y12460884D01*
X23098211Y12539289D01*
X23176616Y12645525D01*
X23220225Y12770151D01*
X23221593Y12784740D01*
X23223000Y12799740D01*
X23223000Y13380261D01*
X23220225Y13409850D01*
X23196751Y13476933D01*
X23176616Y13534475D01*
X23098211Y13640711D01*
X23098210Y13640712D01*
X22991976Y13719116D01*
X22991977Y13719116D01*
X22938544Y13737813D01*
X22881768Y13778535D01*
X22856022Y13843488D01*
X22855500Y13854854D01*
X22855500Y14078457D01*
X22875185Y14145496D01*
X22891818Y14166138D01*
X22894198Y14168517D01*
X22945573Y14273607D01*
X22955500Y14341740D01*
X22955500Y16058260D01*
X22955500Y16058261D01*
X23224500Y16058261D01*
X23224500Y14341740D01*
X23234426Y14273609D01*
X23285803Y14168515D01*
X23368514Y14085804D01*
X23368515Y14085804D01*
X23368517Y14085802D01*
X23473607Y14034427D01*
X23473613Y14034427D01*
X23481259Y14032064D01*
X23532337Y14001270D01*
X23665270Y13868337D01*
X23698755Y13807014D01*
X23693771Y13737322D01*
X23651899Y13681389D01*
X23651224Y13680887D01*
X23596788Y13640711D01*
X23518384Y13534477D01*
X23474774Y13409850D01*
X23472000Y13380261D01*
X23472000Y12799740D01*
X23474774Y12770151D01*
X23518384Y12645524D01*
X23596788Y12539290D01*
X23596789Y12539289D01*
X23703025Y12460884D01*
X23724813Y12453260D01*
X23726454Y12452686D01*
X23783230Y12411965D01*
X23808978Y12347012D01*
X23809500Y12335644D01*
X23809500Y12157804D01*
X23789815Y12090765D01*
X23759135Y12058035D01*
X23701788Y12015711D01*
X23623384Y11909477D01*
X23579774Y11784850D01*
X23577000Y11755261D01*
X23577000Y11174740D01*
X23579774Y11145151D01*
X23623384Y11020524D01*
X23701788Y10914290D01*
X23701789Y10914289D01*
X23808023Y10835885D01*
X23808024Y10835885D01*
X23808025Y10835884D01*
X23932651Y10792275D01*
X23932650Y10792275D01*
X23962240Y10789500D01*
X23962244Y10789500D01*
X24567760Y10789500D01*
X24597349Y10792275D01*
X24615553Y10798645D01*
X24721975Y10835884D01*
X24828211Y10914289D01*
X24906616Y11020525D01*
X24950225Y11145151D01*
X24951593Y11159740D01*
X24953000Y11174740D01*
X24953000Y11755261D01*
X24950225Y11784850D01*
X24906615Y11909477D01*
X24828211Y12015711D01*
X24828210Y12015712D01*
X24721977Y12094115D01*
X24721975Y12094116D01*
X24693542Y12104066D01*
X24636768Y12144788D01*
X24611022Y12209741D01*
X24610500Y12221106D01*
X24610500Y12335644D01*
X24630185Y12402683D01*
X24682989Y12448438D01*
X24693546Y12452686D01*
X24716975Y12460884D01*
X24823211Y12539289D01*
X24901616Y12645525D01*
X24945225Y12770151D01*
X24946593Y12784740D01*
X24948000Y12799740D01*
X24948000Y13380261D01*
X24945225Y13409850D01*
X24921751Y13476933D01*
X24901616Y13534475D01*
X24823211Y13640711D01*
X24768094Y13681389D01*
X24716977Y13719115D01*
X24716975Y13719116D01*
X24693543Y13727316D01*
X24636769Y13768038D01*
X24611023Y13832991D01*
X24610501Y13844356D01*
X24610501Y13942726D01*
X24607687Y13953227D01*
X24583207Y14044587D01*
X24582116Y14046476D01*
X24567161Y14072379D01*
X24567159Y14072382D01*
X24530481Y14135912D01*
X24451582Y14214811D01*
X24451582Y14214812D01*
X24451572Y14214821D01*
X24261819Y14404574D01*
X24228334Y14465897D01*
X24225500Y14492255D01*
X24225500Y14548745D01*
X24245185Y14615784D01*
X24297989Y14661539D01*
X24367147Y14671483D01*
X24430703Y14642458D01*
X24437181Y14636426D01*
X27391847Y11681760D01*
X27425332Y11620437D01*
X27427106Y11577897D01*
X27424750Y11559999D01*
X27443670Y11416292D01*
X27443671Y11416288D01*
X27499137Y11282378D01*
X27499138Y11282376D01*
X27499139Y11282375D01*
X27587379Y11167379D01*
X27702375Y11079139D01*
X27702376Y11079139D01*
X27702377Y11079138D01*
X27717693Y11072794D01*
X27836291Y11023670D01*
X27961976Y11007123D01*
X27979999Y11004750D01*
X27980000Y11004750D01*
X27980001Y11004750D01*
X27998024Y11007123D01*
X28123709Y11023670D01*
X28257625Y11079139D01*
X28372621Y11167379D01*
X28460861Y11282375D01*
X28516330Y11416291D01*
X28535250Y11560000D01*
X28516330Y11703709D01*
X28478517Y11795000D01*
X28460862Y11837623D01*
X28460861Y11837624D01*
X28460861Y11837625D01*
X28372621Y11952621D01*
X28257625Y12040861D01*
X28257621Y12040863D01*
X28123201Y12096541D01*
X28082972Y12123421D01*
X26846392Y13360001D01*
X27994750Y13360001D01*
X27994750Y13360000D01*
X28013670Y13216292D01*
X28013671Y13216288D01*
X28069137Y13082378D01*
X28069138Y13082376D01*
X28069139Y13082375D01*
X28157379Y12967379D01*
X28272375Y12879139D01*
X28406291Y12823670D01*
X28533280Y12806952D01*
X28549999Y12804750D01*
X28550000Y12804750D01*
X28550001Y12804750D01*
X28564977Y12806722D01*
X28693709Y12823670D01*
X28827625Y12879139D01*
X28942621Y12967379D01*
X29022123Y13070987D01*
X29078551Y13112189D01*
X29120498Y13119500D01*
X29463456Y13119500D01*
X29530495Y13099815D01*
X29551137Y13083181D01*
X29553514Y13080804D01*
X29553515Y13080804D01*
X29553517Y13080802D01*
X29658607Y13029427D01*
X29692673Y13024464D01*
X29726739Y13019500D01*
X29726740Y13019500D01*
X31193261Y13019500D01*
X31215971Y13022809D01*
X31261393Y13029427D01*
X31366483Y13080802D01*
X31449198Y13163517D01*
X31500573Y13268607D01*
X31510500Y13336740D01*
X31510500Y13703260D01*
X31500573Y13771393D01*
X31449198Y13876483D01*
X31449196Y13876485D01*
X31449196Y13876486D01*
X31366485Y13959197D01*
X31261391Y14010574D01*
X31193261Y14020500D01*
X31193260Y14020500D01*
X29726740Y14020500D01*
X29726739Y14020500D01*
X29658608Y14010574D01*
X29553514Y13959197D01*
X29551137Y13956819D01*
X29547085Y13954607D01*
X29545153Y13953227D01*
X29544986Y13953461D01*
X29489814Y13923334D01*
X29463456Y13920500D01*
X28657273Y13920500D01*
X28632613Y13913893D01*
X28584338Y13910730D01*
X28550003Y13915250D01*
X28549999Y13915250D01*
X28406291Y13896330D01*
X28406287Y13896329D01*
X28272377Y13840863D01*
X28157379Y13752621D01*
X28069137Y13637623D01*
X28013671Y13503713D01*
X28013670Y13503709D01*
X27994750Y13360001D01*
X26846392Y13360001D01*
X24685915Y15520478D01*
X24685913Y15520480D01*
X24639505Y15547274D01*
X24594589Y15573207D01*
X24543657Y15586854D01*
X24492727Y15600500D01*
X24492726Y15600500D01*
X24349500Y15600500D01*
X24282461Y15620185D01*
X24236706Y15672989D01*
X24225500Y15724500D01*
X24225500Y16058261D01*
X24215573Y16126392D01*
X24177995Y16203260D01*
X24164198Y16231483D01*
X24164196Y16231485D01*
X24164196Y16231486D01*
X24081485Y16314197D01*
X23976391Y16365574D01*
X23908261Y16375500D01*
X23908260Y16375500D01*
X23541740Y16375500D01*
X23541739Y16375500D01*
X23473608Y16365574D01*
X23368514Y16314197D01*
X23285803Y16231486D01*
X23234426Y16126392D01*
X23224500Y16058261D01*
X22955500Y16058261D01*
X22945573Y16126393D01*
X22894198Y16231483D01*
X22894196Y16231485D01*
X22894196Y16231486D01*
X22811485Y16314197D01*
X22706391Y16365574D01*
X22638261Y16375500D01*
X22638260Y16375500D01*
X22271740Y16375500D01*
X22271739Y16375500D01*
X22203608Y16365574D01*
X22098514Y16314197D01*
X22015803Y16231486D01*
X21964426Y16126392D01*
X21954500Y16058261D01*
X21954500Y14341740D01*
X21964426Y14273609D01*
X22015801Y14168518D01*
X22015802Y14168517D01*
X22018178Y14166141D01*
X22020391Y14162089D01*
X22021773Y14160153D01*
X22021539Y14159987D01*
X22051665Y14104821D01*
X22054500Y14078457D01*
X22054500Y13833859D01*
X22034815Y13766820D01*
X21985780Y13724332D01*
X21986242Y13723459D01*
X21982477Y13721470D01*
X21982011Y13721065D01*
X21980760Y13720562D01*
X21978022Y13719115D01*
X21871789Y13640712D01*
X21871788Y13640711D01*
X21793384Y13534477D01*
X21749774Y13409850D01*
X21747000Y13380261D01*
X21400500Y13380261D01*
X21400500Y13939476D01*
X21420185Y14006515D01*
X21470039Y14050876D01*
X21541483Y14085802D01*
X21624198Y14168517D01*
X21675573Y14273607D01*
X21685500Y14341740D01*
X21685500Y16058260D01*
X21675573Y16126393D01*
X21624198Y16231483D01*
X21624196Y16231485D01*
X21624196Y16231486D01*
X21541485Y16314197D01*
X21436391Y16365574D01*
X21368261Y16375500D01*
X21368260Y16375500D01*
X21001740Y16375500D01*
X21001733Y16375499D01*
X21001002Y16375446D01*
X21000753Y16375500D01*
X20997253Y16375500D01*
X20997253Y16376258D01*
X20932715Y16390233D01*
X20883263Y16439591D01*
X20868346Y16507850D01*
X20869095Y16515277D01*
X20880250Y16600000D01*
X20861330Y16743709D01*
X20805963Y16877379D01*
X20805862Y16877623D01*
X20805861Y16877624D01*
X20805861Y16877625D01*
X20717621Y16992621D01*
X20602625Y17080861D01*
X20602624Y17080862D01*
X20602622Y17080863D01*
X20468712Y17136329D01*
X20468710Y17136330D01*
X20468709Y17136330D01*
X20420009Y17142742D01*
X20379563Y17148067D01*
X20315666Y17176334D01*
X20308068Y17183325D01*
X19510915Y17980478D01*
X19510913Y17980480D01*
X19443329Y18019500D01*
X19419589Y18033207D01*
X19368657Y18046854D01*
X19317727Y18060500D01*
X19317726Y18060500D01*
X15081475Y18060500D01*
X15014436Y18080185D01*
X14968681Y18132989D01*
X14964434Y18143544D01*
X14929115Y18244477D01*
X14850711Y18350711D01*
X14850710Y18350712D01*
X14744477Y18429115D01*
X14744475Y18429116D01*
X14740391Y18430545D01*
X14736527Y18433317D01*
X14736260Y18433458D01*
X14736279Y18433495D01*
X14683618Y18471267D01*
X14657872Y18536220D01*
X14671329Y18604781D01*
X14719717Y18655183D01*
X14735860Y18662940D01*
X14803413Y18689580D01*
X14921143Y18778857D01*
X15010420Y18896587D01*
X15010423Y18896593D01*
X15064626Y19034042D01*
X15075000Y19120429D01*
X15075000Y19312500D01*
X13525000Y19312500D01*
X13525000Y19120429D01*
X13535373Y19034042D01*
X13589576Y18896593D01*
X13589579Y18896587D01*
X13678856Y18778857D01*
X13796586Y18689580D01*
X13796592Y18689577D01*
X13864139Y18662939D01*
X13919283Y18620033D01*
X13942476Y18554125D01*
X13926355Y18486141D01*
X13876038Y18437665D01*
X13859608Y18430545D01*
X13855524Y18429116D01*
X13758273Y18357343D01*
X13692644Y18333373D01*
X13624474Y18348689D01*
X13596960Y18369433D01*
X12736819Y19229574D01*
X12703334Y19290897D01*
X12700500Y19317255D01*
X12700500Y19804572D01*
X13525000Y19804572D01*
X13525000Y19612500D01*
X14150000Y19612500D01*
X14450000Y19612500D01*
X15075000Y19612500D01*
X15075000Y19804572D01*
X15064626Y19890959D01*
X15010423Y20028408D01*
X15010420Y20028414D01*
X14921143Y20146144D01*
X14803413Y20235421D01*
X14803407Y20235424D01*
X14665958Y20289627D01*
X14579572Y20300000D01*
X14450000Y20300000D01*
X14450000Y19612500D01*
X14150000Y19612500D01*
X14150000Y20300000D01*
X14020428Y20300000D01*
X13934041Y20289627D01*
X13796592Y20235424D01*
X13796586Y20235421D01*
X13678856Y20146144D01*
X13589579Y20028414D01*
X13589576Y20028408D01*
X13535373Y19890959D01*
X13525000Y19804572D01*
X12700500Y19804572D01*
X12700500Y21008261D01*
X15604500Y21008261D01*
X15604500Y19291740D01*
X15614426Y19223609D01*
X15665803Y19118515D01*
X15748514Y19035804D01*
X15748515Y19035804D01*
X15748517Y19035802D01*
X15853607Y18984427D01*
X15887673Y18979464D01*
X15921739Y18974500D01*
X15921740Y18974500D01*
X16288261Y18974500D01*
X16313586Y18978190D01*
X16356393Y18984427D01*
X16461483Y19035802D01*
X16544198Y19118517D01*
X16595573Y19223607D01*
X16605500Y19291740D01*
X16605500Y21008260D01*
X16605500Y21008261D01*
X16874500Y21008261D01*
X16874500Y19291740D01*
X16884426Y19223609D01*
X16935803Y19118515D01*
X17018514Y19035804D01*
X17018515Y19035804D01*
X17018517Y19035802D01*
X17123607Y18984427D01*
X17157673Y18979464D01*
X17191739Y18974500D01*
X17191740Y18974500D01*
X17558261Y18974500D01*
X17583586Y18978190D01*
X17626393Y18984427D01*
X17731483Y19035802D01*
X17814198Y19118517D01*
X17865573Y19223607D01*
X17875500Y19291740D01*
X17875500Y21008260D01*
X17875500Y21008261D01*
X18144500Y21008261D01*
X18144500Y19291740D01*
X18154426Y19223609D01*
X18205803Y19118515D01*
X18288514Y19035804D01*
X18288515Y19035804D01*
X18288517Y19035802D01*
X18393607Y18984427D01*
X18427673Y18979464D01*
X18461739Y18974500D01*
X18461740Y18974500D01*
X18828261Y18974500D01*
X18853586Y18978190D01*
X18896393Y18984427D01*
X19001483Y19035802D01*
X19084198Y19118517D01*
X19114845Y19181208D01*
X19161971Y19232789D01*
X19229505Y19250704D01*
X19296004Y19229264D01*
X19340355Y19175275D01*
X19343286Y19167702D01*
X19362651Y19112359D01*
X19362653Y19112355D01*
X19443207Y19003208D01*
X19552354Y18922654D01*
X19680397Y18877851D01*
X19710779Y18875002D01*
X19710807Y18875001D01*
X19764999Y18875002D01*
X19765000Y18875002D01*
X19765000Y21425000D01*
X19764999Y21425001D01*
X19710804Y21425000D01*
X19680393Y21422149D01*
X19552354Y21377347D01*
X19443207Y21296793D01*
X19362653Y21187646D01*
X19362651Y21187641D01*
X19343286Y21132299D01*
X19302564Y21075523D01*
X19237611Y21049776D01*
X19169050Y21063233D01*
X19118647Y21111620D01*
X19114851Y21118781D01*
X19084198Y21181483D01*
X19084196Y21181485D01*
X19084196Y21181486D01*
X19001485Y21264197D01*
X18896391Y21315574D01*
X18828261Y21325500D01*
X18828260Y21325500D01*
X18461740Y21325500D01*
X18461739Y21325500D01*
X18393608Y21315574D01*
X18288514Y21264197D01*
X18205803Y21181486D01*
X18154426Y21076392D01*
X18144500Y21008261D01*
X17875500Y21008261D01*
X17865573Y21076393D01*
X17814198Y21181483D01*
X17814196Y21181485D01*
X17814196Y21181486D01*
X17731485Y21264197D01*
X17626391Y21315574D01*
X17558261Y21325500D01*
X17558260Y21325500D01*
X17191740Y21325500D01*
X17191739Y21325500D01*
X17123608Y21315574D01*
X17018514Y21264197D01*
X16935803Y21181486D01*
X16884426Y21076392D01*
X16874500Y21008261D01*
X16605500Y21008261D01*
X16595573Y21076393D01*
X16544198Y21181483D01*
X16544196Y21181485D01*
X16544196Y21181486D01*
X16461485Y21264197D01*
X16356391Y21315574D01*
X16288261Y21325500D01*
X16288260Y21325500D01*
X15921740Y21325500D01*
X15921739Y21325500D01*
X15853608Y21315574D01*
X15748514Y21264197D01*
X15665803Y21181486D01*
X15614426Y21076392D01*
X15604500Y21008261D01*
X12700500Y21008261D01*
X12700500Y21845500D01*
X12720185Y21912539D01*
X12772989Y21958294D01*
X12824500Y21969500D01*
X13245232Y21969500D01*
X13312271Y21949815D01*
X13345002Y21919134D01*
X13353677Y21907380D01*
X13381788Y21869290D01*
X13381790Y21869288D01*
X13488023Y21790885D01*
X13488024Y21790885D01*
X13488025Y21790884D01*
X13612651Y21747275D01*
X13612650Y21747275D01*
X13642240Y21744500D01*
X13642244Y21744500D01*
X14247760Y21744500D01*
X14277349Y21747275D01*
X14314363Y21760227D01*
X14401975Y21790884D01*
X14508211Y21869289D01*
X14586616Y21975525D01*
X14630225Y22100151D01*
X14633000Y22129744D01*
X14633000Y22710256D01*
X14632039Y22720500D01*
X14630225Y22739850D01*
X14594226Y22842727D01*
X14586616Y22864475D01*
X14582169Y22870500D01*
X14508211Y22970711D01*
X14508210Y22970712D01*
X14401976Y23049116D01*
X14401977Y23049116D01*
X14272672Y23094363D01*
X14215896Y23135085D01*
X14190150Y23200039D01*
X14203607Y23268600D01*
X14251995Y23319002D01*
X14298853Y23334521D01*
X14305960Y23335374D01*
X14443407Y23389577D01*
X14443413Y23389580D01*
X14561143Y23478857D01*
X14650420Y23596587D01*
X14650423Y23596593D01*
X14704626Y23734042D01*
X14715000Y23820429D01*
X14715000Y23950000D01*
X13140000Y23950000D01*
X13140000Y23820429D01*
X13150373Y23734042D01*
X13204576Y23596593D01*
X13204579Y23596587D01*
X13293856Y23478857D01*
X13411586Y23389580D01*
X13411592Y23389577D01*
X13549041Y23335374D01*
X13582213Y23331390D01*
X13646427Y23303853D01*
X13685560Y23245970D01*
X13687187Y23176119D01*
X13650792Y23116478D01*
X13608385Y23091233D01*
X13488023Y23049116D01*
X13381790Y22970713D01*
X13345002Y22920866D01*
X13289354Y22878615D01*
X13245232Y22870500D01*
X10560691Y22870500D01*
X10515268Y22858330D01*
X10499364Y22855167D01*
X10378088Y22839200D01*
X10356291Y22836330D01*
X10356290Y22836330D01*
X10356287Y22836329D01*
X10222377Y22780863D01*
X10107379Y22692621D01*
X10019137Y22577623D01*
X9963671Y22443713D01*
X9963670Y22443709D01*
X9944750Y22300000D01*
X7537103Y22300000D01*
X7206616Y22630487D01*
X7206614Y22630489D01*
X7103887Y22689799D01*
X7103884Y22689801D01*
X7078454Y22696614D01*
X7078453Y22696615D01*
X7078453Y22696614D01*
X6993828Y22719289D01*
X6989309Y22720500D01*
X6989308Y22720500D01*
X6673691Y22720500D01*
X6606652Y22740185D01*
X6570589Y22775609D01*
X6460977Y22939656D01*
X6314657Y23085976D01*
X6179747Y23176119D01*
X6142598Y23200941D01*
X5951420Y23280130D01*
X5951412Y23280132D01*
X5748469Y23320500D01*
X5748465Y23320500D01*
X5291535Y23320500D01*
X5291530Y23320500D01*
X5088587Y23280132D01*
X5088579Y23280130D01*
X4897403Y23200942D01*
X4725342Y23085976D01*
X4579024Y22939658D01*
X4464058Y22767597D01*
X4384870Y22576421D01*
X4384868Y22576413D01*
X4344500Y22373470D01*
X300500Y22373470D01*
X300500Y24873470D01*
X4344500Y24873470D01*
X4344500Y24666531D01*
X4384868Y24463588D01*
X4384870Y24463580D01*
X4464059Y24272402D01*
X4480968Y24247096D01*
X4579024Y24100343D01*
X4725342Y23954025D01*
X4725345Y23954023D01*
X4897402Y23839059D01*
X5088580Y23759870D01*
X5291530Y23719501D01*
X5291534Y23719500D01*
X5291535Y23719500D01*
X5748466Y23719500D01*
X5748467Y23719501D01*
X5951420Y23759870D01*
X6142598Y23839059D01*
X6314655Y23954023D01*
X6460977Y24100345D01*
X6575941Y24272402D01*
X6620333Y24379572D01*
X13140000Y24379572D01*
X13140000Y24250000D01*
X13777500Y24250000D01*
X14077500Y24250000D01*
X14715000Y24250000D01*
X14715000Y24379572D01*
X14713716Y24390261D01*
X15064500Y24390261D01*
X15064500Y23809740D01*
X15067274Y23780151D01*
X15110884Y23655524D01*
X15189288Y23549290D01*
X15189289Y23549289D01*
X15295519Y23470888D01*
X15295521Y23470887D01*
X15295525Y23470884D01*
X15295529Y23470883D01*
X15303436Y23466704D01*
X15353511Y23417978D01*
X15369500Y23357071D01*
X15369500Y23153395D01*
X15349815Y23086356D01*
X15319134Y23053625D01*
X15206787Y22970710D01*
X15128384Y22864477D01*
X15084774Y22739850D01*
X15082000Y22710261D01*
X15082000Y22129740D01*
X15084774Y22100151D01*
X15128384Y21975524D01*
X15206788Y21869290D01*
X15206789Y21869289D01*
X15313023Y21790885D01*
X15313024Y21790885D01*
X15313025Y21790884D01*
X15437651Y21747275D01*
X15437650Y21747275D01*
X15467240Y21744500D01*
X15467244Y21744500D01*
X16072760Y21744500D01*
X16102349Y21747275D01*
X16139363Y21760227D01*
X16226975Y21790884D01*
X16333211Y21869289D01*
X16411616Y21975525D01*
X16455225Y22100151D01*
X16458000Y22129744D01*
X16458000Y22710256D01*
X16457039Y22720500D01*
X16455225Y22739850D01*
X16419226Y22842727D01*
X16411616Y22864475D01*
X16407169Y22870500D01*
X16333212Y22970710D01*
X16333209Y22970712D01*
X16306493Y22990429D01*
X18112500Y22990429D01*
X18122873Y22904042D01*
X18177076Y22766593D01*
X18177079Y22766587D01*
X18266356Y22648857D01*
X18384086Y22559580D01*
X18384092Y22559577D01*
X18521541Y22505374D01*
X18607928Y22495000D01*
X18750000Y22495000D01*
X19050000Y22495000D01*
X19192072Y22495000D01*
X19278458Y22505374D01*
X19415907Y22559577D01*
X19415913Y22559580D01*
X19533643Y22648857D01*
X19622920Y22766587D01*
X19622923Y22766593D01*
X19677126Y22904042D01*
X19687500Y22990429D01*
X19687500Y23120000D01*
X19050000Y23120000D01*
X19050000Y22495000D01*
X18750000Y22495000D01*
X18750000Y23120000D01*
X18112500Y23120000D01*
X18112500Y22990429D01*
X16306493Y22990429D01*
X16226975Y23049116D01*
X16220866Y23053625D01*
X16178616Y23109272D01*
X16170500Y23153395D01*
X16170500Y23379522D01*
X16190185Y23446561D01*
X16220862Y23479289D01*
X16315711Y23549289D01*
X16394116Y23655525D01*
X16437725Y23780151D01*
X16440500Y23809744D01*
X16440500Y24390256D01*
X16440375Y24391587D01*
X16437725Y24419850D01*
X16399516Y24529042D01*
X16394116Y24544475D01*
X16371476Y24575151D01*
X16341750Y24615429D01*
X18100000Y24615429D01*
X18110373Y24529042D01*
X18164576Y24391593D01*
X18164579Y24391587D01*
X18253856Y24273857D01*
X18378347Y24179453D01*
X18376980Y24177652D01*
X18417354Y24136268D01*
X18431361Y24067817D01*
X18406138Y24002659D01*
X18382722Y23979387D01*
X18266357Y23891144D01*
X18177079Y23773414D01*
X18177076Y23773408D01*
X18122873Y23635959D01*
X18112500Y23549572D01*
X18112500Y23420000D01*
X18750000Y23420000D01*
X18750000Y24031138D01*
X18754070Y24045000D01*
X19050000Y24045000D01*
X19050000Y23420000D01*
X19687500Y23420000D01*
X19687500Y23549572D01*
X19677126Y23635959D01*
X19622923Y23773408D01*
X19622920Y23773414D01*
X19533643Y23891144D01*
X19444453Y23958778D01*
X19402930Y24014970D01*
X19398378Y24084692D01*
X19432243Y24145806D01*
X19473890Y24172937D01*
X19503409Y24184578D01*
X19503413Y24184580D01*
X19621143Y24273857D01*
X19710420Y24391587D01*
X19737060Y24459140D01*
X19779966Y24514284D01*
X19845874Y24537477D01*
X19913858Y24521357D01*
X19962335Y24471040D01*
X19969456Y24454607D01*
X19970885Y24450523D01*
X20049288Y24344290D01*
X20049289Y24344289D01*
X20155523Y24265885D01*
X20155524Y24265885D01*
X20155525Y24265884D01*
X20280151Y24222275D01*
X20287520Y24220665D01*
X20287218Y24219283D01*
X20344476Y24196479D01*
X20385107Y24139638D01*
X20392000Y24098871D01*
X20392000Y24030480D01*
X20372315Y23963441D01*
X20319511Y23917686D01*
X20308956Y23913439D01*
X20268023Y23899116D01*
X20161789Y23820712D01*
X20161788Y23820711D01*
X20083384Y23714477D01*
X20039774Y23589850D01*
X20037000Y23560261D01*
X20037000Y22979740D01*
X20039774Y22950151D01*
X20083384Y22825524D01*
X20161788Y22719290D01*
X20161789Y22719289D01*
X20256999Y22649021D01*
X20268025Y22640884D01*
X20308956Y22626562D01*
X20365730Y22585841D01*
X20391478Y22520888D01*
X20392000Y22509521D01*
X20392000Y21760227D01*
X20392000Y21654773D01*
X20417149Y21560913D01*
X20419295Y21552906D01*
X20422308Y21545630D01*
X20429771Y21476160D01*
X20398491Y21413683D01*
X20338399Y21378036D01*
X20268574Y21380536D01*
X20266789Y21381145D01*
X20149602Y21422150D01*
X20119207Y21425000D01*
X20065000Y21425000D01*
X20065000Y18875001D01*
X20119196Y18875001D01*
X20149606Y18877852D01*
X20277645Y18922654D01*
X20386792Y19003208D01*
X20467346Y19112355D01*
X20467347Y19112357D01*
X20486712Y19167700D01*
X20527433Y19224477D01*
X20592385Y19250225D01*
X20660947Y19236769D01*
X20711351Y19188383D01*
X20715155Y19181207D01*
X20745803Y19118515D01*
X20828514Y19035804D01*
X20828515Y19035804D01*
X20828517Y19035802D01*
X20933607Y18984427D01*
X20967673Y18979464D01*
X21001739Y18974500D01*
X21001740Y18974500D01*
X21368261Y18974500D01*
X21393586Y18978190D01*
X21436393Y18984427D01*
X21541483Y19035802D01*
X21624198Y19118517D01*
X21675573Y19223607D01*
X21685500Y19291740D01*
X21685500Y21008260D01*
X21675573Y21076393D01*
X21624198Y21181483D01*
X21624196Y21181485D01*
X21624196Y21181486D01*
X21621819Y21183863D01*
X21619606Y21187915D01*
X21618227Y21189847D01*
X21618460Y21190014D01*
X21588334Y21245186D01*
X21585500Y21271544D01*
X21585500Y21367727D01*
X21585499Y21367730D01*
X21576853Y21399999D01*
X21576853Y21400000D01*
X21558207Y21469588D01*
X21505480Y21560913D01*
X21229319Y21837074D01*
X21195834Y21898397D01*
X21193000Y21924755D01*
X21193000Y22586423D01*
X21212685Y22653462D01*
X21243364Y22686191D01*
X21288211Y22719289D01*
X21366616Y22825525D01*
X21410225Y22950151D01*
X21413000Y22979744D01*
X21413000Y23560256D01*
X21410225Y23589849D01*
X21407867Y23596587D01*
X21366615Y23714477D01*
X21288213Y23820709D01*
X21288209Y23820712D01*
X21288207Y23820714D01*
X21243366Y23853809D01*
X21201115Y23909457D01*
X21193000Y23953579D01*
X21193000Y24220648D01*
X21212685Y24287687D01*
X21243366Y24320418D01*
X21275711Y24344289D01*
X21354116Y24450525D01*
X21397725Y24575151D01*
X21400375Y24603408D01*
X21400500Y24604740D01*
X21400500Y25185261D01*
X21667000Y25185261D01*
X21667000Y24604740D01*
X21669774Y24575151D01*
X21713384Y24450524D01*
X21791788Y24344290D01*
X21791789Y24344289D01*
X21889190Y24272404D01*
X21898025Y24265884D01*
X21898027Y24265884D01*
X21906244Y24261540D01*
X21905428Y24259997D01*
X21953227Y24225717D01*
X21978977Y24160765D01*
X21979500Y24149392D01*
X21979500Y24003395D01*
X21959815Y23936356D01*
X21929134Y23903625D01*
X21816787Y23820710D01*
X21738384Y23714477D01*
X21694774Y23589850D01*
X21692000Y23560261D01*
X21692000Y22979740D01*
X21694774Y22950151D01*
X21738384Y22825524D01*
X21816788Y22719290D01*
X21816789Y22719289D01*
X21911999Y22649021D01*
X21923025Y22640884D01*
X21971457Y22623937D01*
X22028230Y22583218D01*
X22053978Y22518265D01*
X22054500Y22506897D01*
X22054500Y21271544D01*
X22034815Y21204505D01*
X22018181Y21183863D01*
X22015803Y21181486D01*
X21964426Y21076392D01*
X21954500Y21008261D01*
X21954500Y19291740D01*
X21964426Y19223609D01*
X22015803Y19118515D01*
X22098514Y19035804D01*
X22098515Y19035804D01*
X22098517Y19035802D01*
X22203607Y18984427D01*
X22237673Y18979464D01*
X22271739Y18974500D01*
X22271740Y18974500D01*
X22638261Y18974500D01*
X22663586Y18978190D01*
X22706393Y18984427D01*
X22811483Y19035802D01*
X22894198Y19118517D01*
X22945573Y19223607D01*
X22955500Y19291740D01*
X22955500Y21008260D01*
X22955500Y21008261D01*
X23224500Y21008261D01*
X23224500Y19291740D01*
X23234426Y19223609D01*
X23285803Y19118515D01*
X23368514Y19035804D01*
X23368515Y19035804D01*
X23368517Y19035802D01*
X23473607Y18984427D01*
X23507673Y18979464D01*
X23541739Y18974500D01*
X23541740Y18974500D01*
X23908261Y18974500D01*
X23933586Y18978190D01*
X23976393Y18984427D01*
X24081483Y19035802D01*
X24164198Y19118517D01*
X24215573Y19223607D01*
X24225500Y19291740D01*
X24225500Y21008260D01*
X24215573Y21076393D01*
X24164198Y21181483D01*
X24164196Y21181485D01*
X24164196Y21181486D01*
X24161819Y21183863D01*
X24159606Y21187915D01*
X24158227Y21189847D01*
X24158460Y21190014D01*
X24128334Y21245186D01*
X24125500Y21271544D01*
X24125500Y22470500D01*
X24145185Y22537539D01*
X24197989Y22583294D01*
X24249500Y22594500D01*
X24507760Y22594500D01*
X24537349Y22597275D01*
X24538001Y22597503D01*
X24661975Y22640884D01*
X24768211Y22719289D01*
X24846616Y22825525D01*
X24890225Y22950151D01*
X24893000Y22979744D01*
X24893000Y23560256D01*
X24890225Y23589849D01*
X24887867Y23596587D01*
X24846615Y23714477D01*
X24768212Y23820710D01*
X24768209Y23820712D01*
X24661975Y23899116D01*
X24655866Y23903625D01*
X24613616Y23959272D01*
X24605500Y24003395D01*
X24605500Y24180057D01*
X24625185Y24247096D01*
X24655863Y24279825D01*
X24743211Y24344289D01*
X24761568Y24369163D01*
X24817211Y24411412D01*
X24886867Y24416872D01*
X24948418Y24383807D01*
X24975898Y24342982D01*
X25034138Y24202378D01*
X25034139Y24202375D01*
X25122379Y24087379D01*
X25237375Y23999139D01*
X25371291Y23943670D01*
X25498280Y23926952D01*
X25514999Y23924750D01*
X25515000Y23924750D01*
X25515001Y23924750D01*
X25529977Y23926722D01*
X25658709Y23943670D01*
X25792625Y23999139D01*
X25907621Y24087379D01*
X25995861Y24202375D01*
X26051330Y24336291D01*
X26070250Y24480000D01*
X26051330Y24623709D01*
X25995861Y24757625D01*
X25907621Y24872621D01*
X25792625Y24960861D01*
X25792624Y24960862D01*
X25792622Y24960863D01*
X25658712Y25016329D01*
X25658710Y25016330D01*
X25658709Y25016330D01*
X25610009Y25022742D01*
X25569563Y25028067D01*
X25505666Y25056334D01*
X25498068Y25063325D01*
X25345915Y25215478D01*
X25345913Y25215480D01*
X25281147Y25252873D01*
X25254589Y25268207D01*
X25195247Y25284107D01*
X25152727Y25295500D01*
X25152726Y25295500D01*
X24916669Y25295500D01*
X24849630Y25315185D01*
X24816899Y25345867D01*
X24743211Y25445711D01*
X24743210Y25445712D01*
X24636976Y25524116D01*
X24512348Y25567726D01*
X24512349Y25567726D01*
X24482760Y25570500D01*
X24482756Y25570500D01*
X23777244Y25570500D01*
X23777240Y25570500D01*
X23747650Y25567726D01*
X23623023Y25524116D01*
X23516789Y25445712D01*
X23516788Y25445711D01*
X23438384Y25339477D01*
X23394774Y25214850D01*
X23392000Y25185261D01*
X23392000Y24604740D01*
X23394774Y24575151D01*
X23438384Y24450524D01*
X23516787Y24344292D01*
X23516789Y24344289D01*
X23623025Y24265884D01*
X23679796Y24246019D01*
X23721455Y24231441D01*
X23778231Y24190719D01*
X23803978Y24125766D01*
X23804500Y24114400D01*
X23804500Y24003395D01*
X23784815Y23936356D01*
X23754134Y23903625D01*
X23641787Y23820710D01*
X23563384Y23714477D01*
X23519774Y23589850D01*
X23517000Y23560261D01*
X23517000Y23199755D01*
X23497315Y23132716D01*
X23480681Y23112074D01*
X23404522Y23035916D01*
X23404518Y23035910D01*
X23351792Y22944588D01*
X23351793Y22944587D01*
X23324500Y22842727D01*
X23324500Y21271544D01*
X23304815Y21204505D01*
X23288181Y21183863D01*
X23285803Y21181486D01*
X23234426Y21076392D01*
X23224500Y21008261D01*
X22955500Y21008261D01*
X22945573Y21076393D01*
X22894198Y21181483D01*
X22894196Y21181485D01*
X22894196Y21181486D01*
X22891819Y21183863D01*
X22889606Y21187915D01*
X22888227Y21189847D01*
X22888460Y21190014D01*
X22858334Y21245186D01*
X22855500Y21271544D01*
X22855500Y22591959D01*
X22875185Y22658998D01*
X22905861Y22691725D01*
X22943211Y22719289D01*
X23021616Y22825525D01*
X23065225Y22950151D01*
X23068000Y22979744D01*
X23068000Y23560256D01*
X23065225Y23589849D01*
X23062867Y23596587D01*
X23021615Y23714477D01*
X22943212Y23820710D01*
X22943209Y23820712D01*
X22836975Y23899116D01*
X22830866Y23903625D01*
X22788616Y23959272D01*
X22780500Y24003395D01*
X22780500Y24131897D01*
X22800185Y24198936D01*
X22852989Y24244691D01*
X22863522Y24248930D01*
X22911975Y24265884D01*
X23018211Y24344289D01*
X23096616Y24450525D01*
X23140225Y24575151D01*
X23142875Y24603408D01*
X23143000Y24604740D01*
X23143000Y25185261D01*
X23140225Y25214850D01*
X23105278Y25314721D01*
X23096616Y25339475D01*
X23053117Y25398414D01*
X23018211Y25445711D01*
X23018210Y25445712D01*
X22911976Y25524116D01*
X22911977Y25524116D01*
X22888544Y25532315D01*
X22831769Y25573037D01*
X22806022Y25637990D01*
X22805500Y25649356D01*
X22805500Y25924282D01*
X22825185Y25991321D01*
X22855864Y26024051D01*
X22930711Y26079289D01*
X23009116Y26185525D01*
X23052725Y26310151D01*
X23055500Y26339744D01*
X23055500Y26920256D01*
X23055500Y26920261D01*
X23504500Y26920261D01*
X23504500Y26339740D01*
X23507274Y26310151D01*
X23550884Y26185524D01*
X23629288Y26079290D01*
X23629289Y26079289D01*
X23735523Y26000885D01*
X23735524Y26000885D01*
X23735525Y26000884D01*
X23860151Y25957275D01*
X23860150Y25957275D01*
X23889740Y25954500D01*
X23889744Y25954500D01*
X24495260Y25954500D01*
X24524849Y25957275D01*
X24649475Y26000884D01*
X24755711Y26079289D01*
X24829399Y26179133D01*
X24885046Y26221384D01*
X24929169Y26229500D01*
X25702745Y26229500D01*
X25769784Y26209815D01*
X25790426Y26193181D01*
X26663181Y25320426D01*
X26696666Y25259103D01*
X26699500Y25232745D01*
X26699500Y15652727D01*
X26699500Y15547273D01*
X26713146Y15496343D01*
X26726793Y15445411D01*
X26753156Y15399750D01*
X26779520Y15354087D01*
X26779521Y15354086D01*
X26779522Y15354085D01*
X27625179Y14508429D01*
X27625189Y14508418D01*
X27629519Y14504088D01*
X27629520Y14504087D01*
X27704087Y14429520D01*
X27795413Y14376793D01*
X27897274Y14349499D01*
X27897277Y14349499D01*
X28010323Y14349499D01*
X28010339Y14349500D01*
X29487605Y14349500D01*
X29543234Y14333166D01*
X29544286Y14335315D01*
X29553516Y14330803D01*
X29553517Y14330802D01*
X29658607Y14279427D01*
X29692673Y14274464D01*
X29726739Y14269500D01*
X29726740Y14269500D01*
X31193261Y14269500D01*
X31221448Y14273607D01*
X31261393Y14279427D01*
X31366483Y14330802D01*
X31449198Y14413517D01*
X31500573Y14518607D01*
X31510500Y14586740D01*
X31510500Y14953260D01*
X31500573Y15021393D01*
X31449198Y15126483D01*
X31449196Y15126485D01*
X31449196Y15126486D01*
X31366485Y15209197D01*
X31261391Y15260574D01*
X31193261Y15270500D01*
X31193260Y15270500D01*
X29726740Y15270500D01*
X29726739Y15270500D01*
X29658608Y15260574D01*
X29553514Y15209197D01*
X29531137Y15186819D01*
X29469814Y15153334D01*
X29443456Y15150500D01*
X28167254Y15150500D01*
X28100215Y15170185D01*
X28079573Y15186819D01*
X27536819Y15729574D01*
X27503334Y15790897D01*
X27500500Y15817255D01*
X27500500Y16020001D01*
X28124750Y16020001D01*
X28124750Y16020000D01*
X28143670Y15876292D01*
X28143671Y15876288D01*
X28199137Y15742378D01*
X28199138Y15742376D01*
X28199139Y15742375D01*
X28287379Y15627379D01*
X28402375Y15539139D01*
X28536291Y15483670D01*
X28663280Y15466952D01*
X28679999Y15464750D01*
X28680000Y15464750D01*
X28680001Y15464750D01*
X28715927Y15469480D01*
X28823709Y15483670D01*
X28887427Y15510063D01*
X28934876Y15519500D01*
X31193261Y15519500D01*
X31215971Y15522809D01*
X31261393Y15529427D01*
X31366483Y15580802D01*
X31449198Y15663517D01*
X31500573Y15768607D01*
X31510500Y15836740D01*
X31510500Y16203260D01*
X31500573Y16271393D01*
X31449198Y16376483D01*
X31449196Y16376485D01*
X31449196Y16376486D01*
X31366485Y16459197D01*
X31261391Y16510574D01*
X31193261Y16520500D01*
X31193260Y16520500D01*
X30525892Y16520500D01*
X28952462Y16520500D01*
X28885423Y16540185D01*
X28839668Y16592989D01*
X28829724Y16662147D01*
X28858749Y16725703D01*
X28905010Y16759061D01*
X28977623Y16789138D01*
X28977629Y16789142D01*
X28983801Y16793877D01*
X29048970Y16819070D01*
X29059285Y16819500D01*
X29547948Y16819500D01*
X29602407Y16806902D01*
X29658607Y16779427D01*
X29692673Y16774464D01*
X29726739Y16769500D01*
X29726740Y16769500D01*
X31193261Y16769500D01*
X31215971Y16772809D01*
X31261393Y16779427D01*
X31366483Y16830802D01*
X31449198Y16913517D01*
X31500573Y17018607D01*
X31510500Y17086740D01*
X31510500Y17453260D01*
X31500573Y17521393D01*
X31449198Y17626483D01*
X31449196Y17626485D01*
X31449196Y17626486D01*
X31366485Y17709197D01*
X31261391Y17760574D01*
X31193261Y17770500D01*
X31193260Y17770500D01*
X29726740Y17770500D01*
X29726739Y17770500D01*
X29658608Y17760574D01*
X29602408Y17733099D01*
X29547948Y17720500D01*
X29059285Y17720500D01*
X28992246Y17740185D01*
X28983801Y17746123D01*
X28977629Y17750859D01*
X28977623Y17750862D01*
X28843712Y17806329D01*
X28843710Y17806330D01*
X28843709Y17806330D01*
X28771854Y17815790D01*
X28700001Y17825250D01*
X28699999Y17825250D01*
X28556291Y17806330D01*
X28556287Y17806329D01*
X28422377Y17750863D01*
X28307379Y17662621D01*
X28219137Y17547623D01*
X28163671Y17413713D01*
X28163670Y17413709D01*
X28144750Y17270000D01*
X28162348Y17136329D01*
X28163670Y17126292D01*
X28163671Y17126288D01*
X28219137Y16992378D01*
X28219138Y16992376D01*
X28219139Y16992375D01*
X28307379Y16877379D01*
X28422375Y16789139D01*
X28483785Y16763703D01*
X28538186Y16719865D01*
X28560252Y16653571D01*
X28542974Y16585871D01*
X28491837Y16538260D01*
X28483784Y16534582D01*
X28402377Y16500862D01*
X28402375Y16500861D01*
X28317734Y16435913D01*
X28287379Y16412621D01*
X28199137Y16297623D01*
X28143671Y16163713D01*
X28143670Y16163709D01*
X28124750Y16020001D01*
X27500500Y16020001D01*
X27500500Y19350000D01*
X27994750Y19350000D01*
X28010645Y19229264D01*
X28013670Y19206292D01*
X28013671Y19206288D01*
X28069137Y19072378D01*
X28069138Y19072376D01*
X28069139Y19072375D01*
X28157379Y18957379D01*
X28272375Y18869139D01*
X28308719Y18854085D01*
X28406288Y18813671D01*
X28406290Y18813670D01*
X28409721Y18813219D01*
X28413995Y18812656D01*
X28477894Y18784394D01*
X28485500Y18777397D01*
X29103386Y18159511D01*
X29206113Y18100201D01*
X29230321Y18093716D01*
X29230324Y18093714D01*
X29230325Y18093714D01*
X29259200Y18085977D01*
X29320691Y18069500D01*
X29547948Y18069500D01*
X29602407Y18056902D01*
X29658607Y18029427D01*
X29692673Y18024464D01*
X29726739Y18019500D01*
X29726740Y18019500D01*
X31193261Y18019500D01*
X31215971Y18022809D01*
X31261393Y18029427D01*
X31366483Y18080802D01*
X31449198Y18163517D01*
X31500573Y18268607D01*
X31510500Y18336740D01*
X31510500Y18703260D01*
X31500573Y18771393D01*
X31449198Y18876483D01*
X31449196Y18876485D01*
X31449196Y18876486D01*
X31366484Y18959198D01*
X31327636Y18978190D01*
X31276054Y19025318D01*
X31258140Y19092853D01*
X31279582Y19159351D01*
X31333571Y19203701D01*
X31341146Y19206633D01*
X31372645Y19217655D01*
X31481792Y19298208D01*
X31562346Y19407355D01*
X31607149Y19535396D01*
X31607149Y19535400D01*
X31610000Y19565794D01*
X31610000Y19620000D01*
X29310001Y19620000D01*
X29310001Y19577111D01*
X29290316Y19510072D01*
X29237512Y19464317D01*
X29168354Y19454373D01*
X29104798Y19483398D01*
X29071440Y19529658D01*
X29034019Y19620000D01*
X29030861Y19627625D01*
X28942621Y19742621D01*
X28827625Y19830861D01*
X28827624Y19830862D01*
X28827622Y19830863D01*
X28693712Y19886329D01*
X28693710Y19886330D01*
X28693709Y19886330D01*
X28593675Y19899500D01*
X28550001Y19905250D01*
X28549999Y19905250D01*
X28406291Y19886330D01*
X28406287Y19886329D01*
X28272377Y19830863D01*
X28157379Y19742621D01*
X28069137Y19627623D01*
X28013671Y19493713D01*
X28013670Y19493709D01*
X28012313Y19483398D01*
X27994750Y19350000D01*
X27500500Y19350000D01*
X27500500Y19974207D01*
X29310000Y19974207D01*
X29310000Y19920000D01*
X30310000Y19920000D01*
X30610000Y19920000D01*
X31609999Y19920000D01*
X31609999Y19974197D01*
X31607148Y20004607D01*
X31562346Y20132646D01*
X31481792Y20241793D01*
X31372645Y20322347D01*
X31244602Y20367150D01*
X31214207Y20370000D01*
X30610000Y20370000D01*
X30610000Y19920000D01*
X30310000Y19920000D01*
X30310000Y20370000D01*
X29705803Y20370000D01*
X29675393Y20367149D01*
X29547354Y20322347D01*
X29438207Y20241793D01*
X29357653Y20132646D01*
X29312850Y20004605D01*
X29312850Y20004601D01*
X29310000Y19974207D01*
X27500500Y19974207D01*
X27500500Y25502725D01*
X27500500Y25502727D01*
X27483084Y25567725D01*
X27483084Y25567726D01*
X27473208Y25604587D01*
X27447360Y25649356D01*
X27420480Y25695913D01*
X26165913Y26950480D01*
X26120250Y26976844D01*
X26074589Y27003207D01*
X26023657Y27016854D01*
X25972727Y27030500D01*
X25972726Y27030500D01*
X24929169Y27030500D01*
X24862130Y27050185D01*
X24829399Y27080867D01*
X24755711Y27180711D01*
X24755710Y27180712D01*
X24649476Y27259116D01*
X24524848Y27302726D01*
X24524849Y27302726D01*
X24495260Y27305500D01*
X24495256Y27305500D01*
X23889744Y27305500D01*
X23889740Y27305500D01*
X23860150Y27302726D01*
X23735523Y27259116D01*
X23629289Y27180712D01*
X23629288Y27180711D01*
X23550884Y27074477D01*
X23507274Y26949850D01*
X23504500Y26920261D01*
X23055500Y26920261D01*
X23052725Y26949849D01*
X23052504Y26950480D01*
X23024504Y27030500D01*
X23009116Y27074475D01*
X22930711Y27180711D01*
X22930710Y27180712D01*
X22824476Y27259116D01*
X22699848Y27302726D01*
X22699849Y27302726D01*
X22670260Y27305500D01*
X22670256Y27305500D01*
X22064744Y27305500D01*
X22064740Y27305500D01*
X22035150Y27302726D01*
X21910523Y27259116D01*
X21804289Y27180712D01*
X21804288Y27180711D01*
X21725884Y27074477D01*
X21682274Y26949850D01*
X21679500Y26920261D01*
X21679500Y26339740D01*
X21682274Y26310151D01*
X21725884Y26185524D01*
X21804288Y26079290D01*
X21804289Y26079289D01*
X21910522Y26000886D01*
X21910527Y26000883D01*
X21921453Y25997060D01*
X21978230Y25956339D01*
X22003978Y25891387D01*
X22004500Y25880018D01*
X22004500Y25649356D01*
X21984815Y25582317D01*
X21932011Y25536562D01*
X21921456Y25532315D01*
X21898023Y25524116D01*
X21791789Y25445712D01*
X21791788Y25445711D01*
X21713384Y25339477D01*
X21669774Y25214850D01*
X21667000Y25185261D01*
X21400500Y25185261D01*
X21397725Y25214850D01*
X21362778Y25314721D01*
X21354116Y25339475D01*
X21310617Y25398414D01*
X21275712Y25445710D01*
X21275709Y25445712D01*
X21259214Y25457887D01*
X21213366Y25491724D01*
X21171115Y25547372D01*
X21163000Y25591494D01*
X21163000Y27446606D01*
X21182685Y27513645D01*
X21213367Y27546376D01*
X21230540Y27559051D01*
X21325711Y27629289D01*
X21404116Y27735525D01*
X21447725Y27860151D01*
X21450500Y27889744D01*
X21450500Y28470256D01*
X21447725Y28499849D01*
X21447504Y28500480D01*
X21404115Y28624477D01*
X21325711Y28730711D01*
X21325710Y28730712D01*
X21219476Y28809116D01*
X21094848Y28852726D01*
X21094849Y28852726D01*
X21065260Y28855500D01*
X21065256Y28855500D01*
X20459744Y28855500D01*
X20459740Y28855500D01*
X20430150Y28852726D01*
X20305523Y28809116D01*
X20199289Y28730712D01*
X20199288Y28730711D01*
X20120884Y28624477D01*
X20077274Y28499850D01*
X20074500Y28470261D01*
X20074500Y27889740D01*
X20077274Y27860151D01*
X20120884Y27735524D01*
X20199288Y27629290D01*
X20199289Y27629289D01*
X20311633Y27546376D01*
X20353884Y27490729D01*
X20362000Y27446606D01*
X20362000Y25684349D01*
X20342315Y25617310D01*
X20289511Y25571555D01*
X20278956Y25567308D01*
X20155523Y25524116D01*
X20049289Y25445712D01*
X20049288Y25445711D01*
X19970884Y25339477D01*
X19970884Y25339476D01*
X19969455Y25335392D01*
X19966684Y25331530D01*
X19966542Y25331260D01*
X19966505Y25331280D01*
X19928731Y25278617D01*
X19863777Y25252873D01*
X19795216Y25266332D01*
X19744815Y25314721D01*
X19737061Y25330861D01*
X19710423Y25398408D01*
X19710420Y25398414D01*
X19621143Y25516144D01*
X19503413Y25605421D01*
X19503407Y25605424D01*
X19365958Y25659627D01*
X19279572Y25670000D01*
X19087500Y25670000D01*
X19087500Y24133862D01*
X19067815Y24066823D01*
X19051181Y24046181D01*
X19050000Y24045000D01*
X18754070Y24045000D01*
X18769685Y24098177D01*
X18786319Y24118819D01*
X18787500Y24120000D01*
X18787500Y24745000D01*
X18100000Y24745000D01*
X18100000Y24615429D01*
X16341750Y24615429D01*
X16315712Y24650710D01*
X16203366Y24733625D01*
X16161116Y24789272D01*
X16153000Y24833395D01*
X16153000Y25174572D01*
X18100000Y25174572D01*
X18100000Y25045000D01*
X18787500Y25045000D01*
X18787500Y25670000D01*
X18595428Y25670000D01*
X18509041Y25659627D01*
X18371592Y25605424D01*
X18371586Y25605421D01*
X18253856Y25516144D01*
X18164579Y25398414D01*
X18164576Y25398408D01*
X18110373Y25260959D01*
X18100000Y25174572D01*
X16153000Y25174572D01*
X16153000Y26165245D01*
X16172685Y26232284D01*
X16189319Y26252926D01*
X17679574Y27743181D01*
X17740897Y27776666D01*
X17767255Y27779500D01*
X18200831Y27779500D01*
X18267870Y27759815D01*
X18300601Y27729133D01*
X18374288Y27629290D01*
X18374289Y27629289D01*
X18480523Y27550885D01*
X18480524Y27550885D01*
X18480525Y27550884D01*
X18605151Y27507275D01*
X18605150Y27507275D01*
X18634740Y27504500D01*
X18634744Y27504500D01*
X19240260Y27504500D01*
X19269849Y27507275D01*
X19288053Y27513645D01*
X19394475Y27550884D01*
X19500711Y27629289D01*
X19579116Y27735525D01*
X19622725Y27860151D01*
X19625500Y27889744D01*
X19625500Y28470256D01*
X19622725Y28499849D01*
X19622504Y28500480D01*
X19579115Y28624477D01*
X19500711Y28730711D01*
X19500710Y28730712D01*
X19394476Y28809116D01*
X19269848Y28852726D01*
X19269849Y28852726D01*
X19240260Y28855500D01*
X19240256Y28855500D01*
X18634744Y28855500D01*
X18634740Y28855500D01*
X18605150Y28852726D01*
X18480523Y28809116D01*
X18374289Y28730712D01*
X18374288Y28730711D01*
X18300601Y28630867D01*
X18244954Y28588616D01*
X18200831Y28580500D01*
X17497273Y28580500D01*
X17395410Y28553207D01*
X17304087Y28500480D01*
X17304084Y28500478D01*
X15432022Y26628416D01*
X15432018Y26628410D01*
X15379292Y26537088D01*
X15379293Y26537087D01*
X15352000Y26435227D01*
X15352000Y24833395D01*
X15332315Y24766356D01*
X15301634Y24733625D01*
X15189287Y24650710D01*
X15110884Y24544477D01*
X15067274Y24419850D01*
X15064500Y24390261D01*
X14713716Y24390261D01*
X14704626Y24465959D01*
X14650423Y24603408D01*
X14650420Y24603414D01*
X14561143Y24721144D01*
X14443413Y24810421D01*
X14443407Y24810424D01*
X14305958Y24864627D01*
X14219572Y24875000D01*
X14077500Y24875000D01*
X14077500Y24250000D01*
X13777500Y24250000D01*
X13777500Y24875000D01*
X13635428Y24875000D01*
X13549041Y24864627D01*
X13411592Y24810424D01*
X13411586Y24810421D01*
X13293856Y24721144D01*
X13204579Y24603414D01*
X13204576Y24603408D01*
X13150373Y24465959D01*
X13140000Y24379572D01*
X6620333Y24379572D01*
X6655130Y24463580D01*
X6695500Y24666535D01*
X6695500Y24873465D01*
X6655130Y25076420D01*
X6575941Y25267598D01*
X6460977Y25439655D01*
X6460975Y25439658D01*
X6314657Y25585976D01*
X6150118Y25695916D01*
X6142598Y25700941D01*
X5951420Y25780130D01*
X5951412Y25780132D01*
X5748469Y25820500D01*
X5748465Y25820500D01*
X5291535Y25820500D01*
X5291530Y25820500D01*
X5088587Y25780132D01*
X5088579Y25780130D01*
X4897403Y25700942D01*
X4725342Y25585976D01*
X4579024Y25439658D01*
X4464058Y25267597D01*
X4384870Y25076421D01*
X4384868Y25076413D01*
X4344500Y24873470D01*
X300500Y24873470D01*
X300500Y30095949D01*
X300763Y30104028D01*
X307208Y30202352D01*
X1099500Y30202352D01*
X1099500Y29997649D01*
X1131522Y29795466D01*
X1194781Y29600777D01*
X1287715Y29418387D01*
X1408028Y29252787D01*
X1552786Y29108029D01*
X1690420Y29008034D01*
X1718390Y28987713D01*
X1834607Y28928497D01*
X1900776Y28894782D01*
X1900778Y28894782D01*
X1900781Y28894780D01*
X2005137Y28860873D01*
X2095465Y28831523D01*
X2196557Y28815512D01*
X2297648Y28799500D01*
X2297649Y28799500D01*
X2502351Y28799500D01*
X2502352Y28799500D01*
X2704534Y28831523D01*
X2899219Y28894780D01*
X3081610Y28987713D01*
X3174590Y29055268D01*
X3247213Y29108029D01*
X3247215Y29108032D01*
X3247219Y29108034D01*
X3391966Y29252781D01*
X3391968Y29252785D01*
X3391971Y29252787D01*
X3444732Y29325410D01*
X3512287Y29418390D01*
X3605220Y29600781D01*
X3668477Y29795466D01*
X3700500Y29997648D01*
X3700500Y30102352D01*
X31999500Y30102352D01*
X31999500Y29897649D01*
X32031522Y29695466D01*
X32094781Y29500777D01*
X32187715Y29318387D01*
X32308028Y29152787D01*
X32452786Y29008029D01*
X32607749Y28895444D01*
X32618390Y28887713D01*
X32687058Y28852725D01*
X32800776Y28794782D01*
X32800778Y28794782D01*
X32800781Y28794780D01*
X32905137Y28760873D01*
X32995465Y28731523D01*
X33096557Y28715512D01*
X33197648Y28699500D01*
X33197649Y28699500D01*
X33402351Y28699500D01*
X33402352Y28699500D01*
X33604534Y28731523D01*
X33799219Y28794780D01*
X33981610Y28887713D01*
X34074590Y28955268D01*
X34147213Y29008029D01*
X34147215Y29008032D01*
X34147219Y29008034D01*
X34291966Y29152781D01*
X34291968Y29152785D01*
X34291971Y29152787D01*
X34344732Y29225410D01*
X34412287Y29318390D01*
X34505220Y29500781D01*
X34568477Y29695466D01*
X34600500Y29897648D01*
X34600500Y30102352D01*
X34568477Y30304534D01*
X34505220Y30499219D01*
X34505218Y30499222D01*
X34505218Y30499224D01*
X34454265Y30599224D01*
X34412287Y30681610D01*
X34404556Y30692251D01*
X34291971Y30847214D01*
X34147213Y30991972D01*
X33981613Y31112285D01*
X33981612Y31112286D01*
X33981610Y31112287D01*
X33908085Y31149750D01*
X33799223Y31205219D01*
X33604534Y31268478D01*
X33429995Y31296122D01*
X33402352Y31300500D01*
X33197648Y31300500D01*
X33173329Y31296649D01*
X32995465Y31268478D01*
X32800776Y31205219D01*
X32618386Y31112285D01*
X32452786Y30991972D01*
X32308028Y30847214D01*
X32187715Y30681614D01*
X32094781Y30499224D01*
X32031522Y30304535D01*
X31999500Y30102352D01*
X3700500Y30102352D01*
X3700500Y30202352D01*
X3668477Y30404534D01*
X3605220Y30599219D01*
X3605218Y30599222D01*
X3605218Y30599224D01*
X3571503Y30665393D01*
X3512287Y30781610D01*
X3504556Y30792251D01*
X3391971Y30947214D01*
X3247213Y31091972D01*
X3081613Y31212285D01*
X3081612Y31212286D01*
X3081610Y31212287D01*
X3024653Y31241309D01*
X2899223Y31305219D01*
X2704534Y31368478D01*
X2529995Y31396122D01*
X2502352Y31400500D01*
X2297648Y31400500D01*
X2273329Y31396649D01*
X2095465Y31368478D01*
X1900776Y31305219D01*
X1718386Y31212285D01*
X1552786Y31091972D01*
X1408028Y30947214D01*
X1287715Y30781614D01*
X1194781Y30599224D01*
X1131522Y30404535D01*
X1099500Y30202352D01*
X307208Y30202352D01*
X317931Y30365952D01*
X320045Y30382004D01*
X370455Y30635431D01*
X374646Y30651074D01*
X457705Y30895758D01*
X463905Y30910724D01*
X578188Y31142467D01*
X586295Y31156507D01*
X661111Y31268478D01*
X729842Y31371342D01*
X739704Y31384196D01*
X910075Y31578467D01*
X921533Y31589925D01*
X1115804Y31760296D01*
X1128658Y31770158D01*
X1343493Y31913705D01*
X1357533Y31921812D01*
X1589276Y32036095D01*
X1604242Y32042295D01*
X1848926Y32125354D01*
X1864569Y32129545D01*
X2117996Y32179955D01*
X2134048Y32182069D01*
X2395971Y32199236D01*
X2404052Y32199500D01*
X2447595Y32199500D01*
X33352405Y32199500D01*
X33395948Y32199500D01*
X33404028Y32199236D01*
G37*
%TD.AperFunction*%
%TD*%
%TA.AperFunction,Conductor*%
%TO.N,GNDD*%
G36*
X60422596Y27201301D02*
G01*
X60427344Y27197696D01*
X61278447Y26510267D01*
X66862936Y21999718D01*
X66896324Y21948448D01*
X66899730Y21922704D01*
X66899730Y10261008D01*
X66880823Y10202817D01*
X66870734Y10191004D01*
X59678324Y2998595D01*
X59623807Y2970818D01*
X59609291Y2969604D01*
X49549701Y2870981D01*
X49491327Y2889317D01*
X49454880Y2938462D01*
X49449730Y2969976D01*
X49449730Y3870500D01*
X49468637Y3928691D01*
X49518137Y3964655D01*
X49548730Y3969500D01*
X58795872Y3969500D01*
X58795874Y3969500D01*
X58885018Y3993386D01*
X58913465Y4009810D01*
X58964942Y4039530D01*
X59680200Y4754788D01*
X59726344Y4834712D01*
X59750230Y4923856D01*
X59750230Y5016144D01*
X59750230Y10724275D01*
X62199230Y10724275D01*
X62199230Y10115726D01*
X62202083Y10085306D01*
X62202085Y10085297D01*
X62246937Y9957117D01*
X62327575Y9847856D01*
X62327577Y9847854D01*
X62327580Y9847850D01*
X62327583Y9847848D01*
X62327585Y9847846D01*
X62436846Y9767208D01*
X62436847Y9767208D01*
X62436848Y9767207D01*
X62565031Y9722354D01*
X62595455Y9719501D01*
X62595457Y9719500D01*
X62595464Y9719500D01*
X65004003Y9719500D01*
X65004003Y9719501D01*
X65034429Y9722354D01*
X65162612Y9767207D01*
X65271880Y9847850D01*
X65352523Y9957118D01*
X65397376Y10085301D01*
X65400229Y10115727D01*
X65400230Y10115727D01*
X65400230Y10724273D01*
X65400229Y10724275D01*
X65397376Y10754695D01*
X65397376Y10754699D01*
X65352523Y10882882D01*
X65349865Y10886483D01*
X65271884Y10992145D01*
X65271882Y10992147D01*
X65271880Y10992150D01*
X65271876Y10992153D01*
X65271874Y10992155D01*
X65162613Y11072793D01*
X65034433Y11117645D01*
X65034424Y11117647D01*
X65004004Y11120500D01*
X65003996Y11120500D01*
X62595464Y11120500D01*
X62595455Y11120500D01*
X62565035Y11117647D01*
X62565026Y11117645D01*
X62436846Y11072793D01*
X62327585Y10992155D01*
X62327575Y10992145D01*
X62246937Y10882884D01*
X62202085Y10754704D01*
X62202083Y10754695D01*
X62199230Y10724275D01*
X59750230Y10724275D01*
X59750230Y11033811D01*
X59769137Y11092002D01*
X59779226Y11103815D01*
X60415915Y11740504D01*
X60470432Y11768281D01*
X60485919Y11769500D01*
X61182987Y11769500D01*
X61182990Y11769500D01*
X61251123Y11779427D01*
X61356213Y11830802D01*
X61438928Y11913517D01*
X61490303Y12018607D01*
X61500230Y12086740D01*
X61500230Y12453260D01*
X61490303Y12521393D01*
X61438928Y12626483D01*
X61356213Y12709198D01*
X61263593Y12754477D01*
X61219619Y12797021D01*
X61209049Y12857286D01*
X61235921Y12912254D01*
X61274376Y12936863D01*
X61362377Y12967656D01*
X61471520Y13048208D01*
X61471522Y13048210D01*
X61552075Y13157353D01*
X61596879Y13285399D01*
X61599729Y13315789D01*
X61599730Y13315790D01*
X61599730Y13369999D01*
X61599729Y13370000D01*
X59299732Y13370000D01*
X59299731Y13369999D01*
X59299731Y13315797D01*
X59302580Y13285400D01*
X59302580Y13285398D01*
X59347384Y13157353D01*
X59427937Y13048210D01*
X59427939Y13048208D01*
X59537082Y12967656D01*
X59625083Y12936863D01*
X59673764Y12899797D01*
X59691361Y12841197D01*
X59671153Y12783445D01*
X59635867Y12754477D01*
X59543247Y12709198D01*
X59460531Y12626482D01*
X59409157Y12521396D01*
X59409157Y12521393D01*
X59399230Y12453260D01*
X59399230Y12086740D01*
X59405848Y12041318D01*
X59409157Y12018605D01*
X59460531Y11913519D01*
X59465299Y11906841D01*
X59463763Y11905745D01*
X59486822Y11860488D01*
X59477251Y11800056D01*
X59459045Y11774998D01*
X59119259Y11435212D01*
X59078961Y11365415D01*
X59078962Y11365414D01*
X59073118Y11355293D01*
X59073116Y11355290D01*
X59073116Y11355288D01*
X59053057Y11280424D01*
X59049230Y11266143D01*
X59049230Y5156190D01*
X59030323Y5097999D01*
X59020234Y5086186D01*
X58633544Y4699496D01*
X58579027Y4671719D01*
X58563540Y4670500D01*
X49548730Y4670500D01*
X49490539Y4689407D01*
X49454575Y4738907D01*
X49449730Y4769500D01*
X49449730Y6569999D01*
X51774731Y6569999D01*
X51774731Y6515797D01*
X51777580Y6485400D01*
X51777580Y6485398D01*
X51822384Y6357353D01*
X51902937Y6248210D01*
X51902939Y6248208D01*
X52012082Y6167655D01*
X52140128Y6122851D01*
X52170519Y6120001D01*
X52749728Y6120001D01*
X52749730Y6120002D01*
X52749730Y6569999D01*
X53049730Y6569999D01*
X53049730Y6120002D01*
X53049731Y6120001D01*
X53628933Y6120001D01*
X53659330Y6122851D01*
X53659332Y6122851D01*
X53787377Y6167655D01*
X53896520Y6248208D01*
X53896522Y6248210D01*
X53977075Y6357353D01*
X54021879Y6485399D01*
X54024729Y6515789D01*
X54024730Y6515790D01*
X54024730Y6569999D01*
X54024729Y6570000D01*
X53049731Y6570000D01*
X53049730Y6569999D01*
X52749730Y6569999D01*
X52749729Y6570000D01*
X51774732Y6570000D01*
X51774731Y6569999D01*
X49449730Y6569999D01*
X49449730Y6924212D01*
X51774730Y6924212D01*
X51774730Y6870001D01*
X51774731Y6870000D01*
X54024728Y6870000D01*
X54024729Y6870001D01*
X54024729Y6924204D01*
X54021879Y6954601D01*
X54021878Y6954607D01*
X54016118Y6971069D01*
X54014745Y7032239D01*
X54049589Y7082534D01*
X54107341Y7102742D01*
X54165941Y7085145D01*
X54179566Y7073771D01*
X54245234Y7008103D01*
X54273011Y6953586D01*
X54274230Y6938099D01*
X54274230Y6567234D01*
X54277004Y6537656D01*
X54277006Y6537648D01*
X54320614Y6413024D01*
X54379294Y6333515D01*
X54399019Y6306789D01*
X54399022Y6306787D01*
X54399023Y6306786D01*
X54505253Y6228385D01*
X54505254Y6228385D01*
X54505255Y6228384D01*
X54629881Y6184775D01*
X54657171Y6182216D01*
X54659463Y6182001D01*
X54659468Y6182000D01*
X54659474Y6182000D01*
X55239992Y6182000D01*
X55239995Y6182001D01*
X55269579Y6184775D01*
X55394205Y6228384D01*
X55500441Y6306789D01*
X55578846Y6413025D01*
X55607107Y6493792D01*
X55644170Y6542469D01*
X55702771Y6560066D01*
X55760523Y6539858D01*
X55792647Y6497410D01*
X55839306Y6379093D01*
X55839309Y6379088D01*
X55928584Y6261361D01*
X55928590Y6261355D01*
X56046317Y6172080D01*
X56046321Y6172077D01*
X56183771Y6117874D01*
X56270147Y6107501D01*
X56270154Y6107500D01*
X56399729Y6107500D01*
X56399730Y6107501D01*
X56399730Y6794999D01*
X56699730Y6794999D01*
X56699730Y6107501D01*
X56699731Y6107500D01*
X56829306Y6107500D01*
X56829312Y6107501D01*
X56915688Y6117874D01*
X57053138Y6172077D01*
X57053142Y6172080D01*
X57170869Y6261355D01*
X57170875Y6261361D01*
X57260150Y6379088D01*
X57260153Y6379092D01*
X57314356Y6516542D01*
X57324729Y6602918D01*
X57324730Y6602924D01*
X57324730Y6794999D01*
X57324729Y6795000D01*
X56699731Y6795000D01*
X56699730Y6794999D01*
X56399730Y6794999D01*
X56399730Y6996000D01*
X56418637Y7054191D01*
X56468137Y7090155D01*
X56498730Y7095000D01*
X57324729Y7095000D01*
X57324730Y7095001D01*
X57324730Y7287077D01*
X57324729Y7287083D01*
X57314356Y7373459D01*
X57260153Y7510909D01*
X57260150Y7510913D01*
X57170875Y7628640D01*
X57170869Y7628646D01*
X57053142Y7717921D01*
X57053138Y7717924D01*
X56923066Y7769218D01*
X56875869Y7808155D01*
X56860572Y7867397D01*
X56883018Y7924316D01*
X56926683Y7954758D01*
X56994205Y7978384D01*
X57100441Y8056789D01*
X57178846Y8163025D01*
X57222455Y8287651D01*
X57225230Y8317244D01*
X57225230Y8738100D01*
X57244137Y8796291D01*
X57254220Y8808098D01*
X57970210Y9524087D01*
X58022937Y9615412D01*
X58050230Y9717273D01*
X58050230Y9822727D01*
X58050230Y13763099D01*
X58069137Y13821290D01*
X58079226Y13833103D01*
X58586627Y14340504D01*
X58641144Y14368281D01*
X58656631Y14369500D01*
X59463542Y14369500D01*
X59521733Y14350593D01*
X59533539Y14340510D01*
X59543247Y14330802D01*
X59635866Y14285524D01*
X59679840Y14242981D01*
X59690410Y14182715D01*
X59663538Y14127747D01*
X59625084Y14103139D01*
X59537084Y14072347D01*
X59427939Y13991793D01*
X59427937Y13991791D01*
X59347384Y13882648D01*
X59302580Y13754602D01*
X59299730Y13724212D01*
X59299730Y13670001D01*
X59299731Y13670000D01*
X61599728Y13670000D01*
X61599729Y13670001D01*
X61599729Y13724204D01*
X61596879Y13754601D01*
X61596879Y13754603D01*
X61552075Y13882648D01*
X61471522Y13991791D01*
X61471520Y13991793D01*
X61362375Y14072347D01*
X61274375Y14103139D01*
X61225695Y14140204D01*
X61208098Y14198804D01*
X61228306Y14256556D01*
X61263590Y14285522D01*
X61356213Y14330802D01*
X61438928Y14413517D01*
X61490303Y14518607D01*
X61500230Y14586740D01*
X61500230Y14953260D01*
X61490303Y15021393D01*
X61488931Y15024199D01*
X61462442Y15078384D01*
X61438928Y15126483D01*
X61356213Y15209198D01*
X61356211Y15209199D01*
X61251125Y15260573D01*
X61223869Y15264544D01*
X61182990Y15270500D01*
X59716470Y15270500D01*
X59682403Y15265537D01*
X59648334Y15260573D01*
X59543248Y15209199D01*
X59543247Y15209199D01*
X59543247Y15209198D01*
X59533543Y15199495D01*
X59479029Y15171719D01*
X59463542Y15170500D01*
X58502457Y15170500D01*
X58397003Y15170500D01*
X58345832Y15156789D01*
X58295137Y15143206D01*
X58203821Y15090484D01*
X57329246Y14215909D01*
X57276523Y14124589D01*
X57276522Y14124589D01*
X57276523Y14124588D01*
X57249230Y14022727D01*
X57249230Y11378131D01*
X57230323Y11319940D01*
X57180823Y11283976D01*
X57119637Y11283976D01*
X57113911Y11286033D01*
X56990685Y11334628D01*
X56904312Y11345000D01*
X56712231Y11345000D01*
X56712230Y11344999D01*
X56712230Y9795001D01*
X56712231Y9795000D01*
X56869329Y9795000D01*
X56927520Y9776093D01*
X56963484Y9726593D01*
X56963484Y9665407D01*
X56939333Y9625996D01*
X56750333Y9436996D01*
X56695816Y9409219D01*
X56680329Y9408000D01*
X56259463Y9408000D01*
X56229885Y9405226D01*
X56229877Y9405224D01*
X56105253Y9361616D01*
X55999023Y9283215D01*
X55999015Y9283207D01*
X55920615Y9176979D01*
X55920612Y9176973D01*
X55906556Y9136802D01*
X55869490Y9088121D01*
X55813112Y9070500D01*
X55677600Y9070500D01*
X55619409Y9089407D01*
X55584156Y9136801D01*
X55578846Y9151975D01*
X55578844Y9151979D01*
X55500444Y9258207D01*
X55500443Y9258208D01*
X55500441Y9258211D01*
X55500436Y9258215D01*
X55394206Y9336616D01*
X55269582Y9380224D01*
X55269581Y9380225D01*
X55269579Y9380225D01*
X55269577Y9380226D01*
X55269574Y9380226D01*
X55239996Y9383000D01*
X55239986Y9383000D01*
X54659474Y9383000D01*
X54659463Y9383000D01*
X54629885Y9380226D01*
X54629877Y9380224D01*
X54505253Y9336616D01*
X54399023Y9258215D01*
X54399015Y9258207D01*
X54320614Y9151977D01*
X54277006Y9027353D01*
X54277004Y9027345D01*
X54274230Y8997767D01*
X54274230Y8392234D01*
X54277567Y8356654D01*
X54274634Y8356379D01*
X54269723Y8307245D01*
X54229013Y8261568D01*
X54169230Y8248543D01*
X54113209Y8273145D01*
X54109091Y8277032D01*
X54075643Y8310480D01*
X54075640Y8310482D01*
X54075638Y8310484D01*
X53984321Y8363206D01*
X53984323Y8363206D01*
X53944800Y8373796D01*
X53882457Y8390500D01*
X53882455Y8390500D01*
X53860918Y8390500D01*
X53802727Y8409407D01*
X53790920Y8419491D01*
X53781213Y8429198D01*
X53781211Y8429199D01*
X53676125Y8480573D01*
X53648869Y8484544D01*
X53607990Y8490500D01*
X52191470Y8490500D01*
X52157403Y8485537D01*
X52123334Y8480573D01*
X52018248Y8429199D01*
X51935531Y8346482D01*
X51884157Y8241396D01*
X51884157Y8241393D01*
X51874230Y8173260D01*
X51874230Y7806740D01*
X51879697Y7769218D01*
X51884157Y7738605D01*
X51935531Y7633519D01*
X51935532Y7633517D01*
X52018247Y7550802D01*
X52071090Y7524969D01*
X52130244Y7496050D01*
X52129462Y7494451D01*
X52171685Y7464705D01*
X52191438Y7406796D01*
X52173381Y7348336D01*
X52125147Y7311909D01*
X52012084Y7272347D01*
X51902939Y7191793D01*
X51902937Y7191791D01*
X51822384Y7082648D01*
X51777580Y6954602D01*
X51774730Y6924212D01*
X49449730Y6924212D01*
X49449730Y9443260D01*
X51874230Y9443260D01*
X51874230Y9076740D01*
X51880848Y9031318D01*
X51884157Y9008605D01*
X51935531Y8903519D01*
X51935532Y8903517D01*
X52018247Y8820802D01*
X52068385Y8796291D01*
X52123334Y8769428D01*
X52123335Y8769428D01*
X52123337Y8769427D01*
X52191470Y8759500D01*
X52191473Y8759500D01*
X53607987Y8759500D01*
X53607990Y8759500D01*
X53676123Y8769427D01*
X53781213Y8820802D01*
X53863928Y8903517D01*
X53915303Y9008607D01*
X53925230Y9076740D01*
X53925230Y9443260D01*
X53915303Y9511393D01*
X53909097Y9524087D01*
X53890213Y9562715D01*
X53863928Y9616483D01*
X53781213Y9699198D01*
X53744236Y9717275D01*
X53676125Y9750573D01*
X53648869Y9754544D01*
X53607990Y9760500D01*
X52191470Y9760500D01*
X52157403Y9755537D01*
X52123334Y9750573D01*
X52018248Y9699199D01*
X51935531Y9616482D01*
X51884157Y9511396D01*
X51884157Y9511393D01*
X51874230Y9443260D01*
X49449730Y9443260D01*
X49449730Y11264600D01*
X49468637Y11322791D01*
X49518137Y11358755D01*
X49579323Y11358755D01*
X49618731Y11334606D01*
X49753817Y11199520D01*
X49753819Y11199519D01*
X49753821Y11199517D01*
X49845138Y11146795D01*
X49845136Y11146795D01*
X49845140Y11146794D01*
X49845142Y11146793D01*
X49947003Y11119500D01*
X51702829Y11119500D01*
X51761020Y11100593D01*
X51772833Y11090504D01*
X51899118Y10964219D01*
X51926895Y10909702D01*
X51918055Y10850735D01*
X51884157Y10781396D01*
X51884157Y10781393D01*
X51874230Y10713260D01*
X51874230Y10346740D01*
X51880848Y10301318D01*
X51884157Y10278605D01*
X51921208Y10202817D01*
X51935532Y10173517D01*
X52018247Y10090802D01*
X52067770Y10066592D01*
X52123334Y10039428D01*
X52123335Y10039428D01*
X52123337Y10039427D01*
X52191470Y10029500D01*
X52191473Y10029500D01*
X53607987Y10029500D01*
X53607990Y10029500D01*
X53676123Y10039427D01*
X53781213Y10090802D01*
X53815936Y10125525D01*
X53830916Y10140504D01*
X53885433Y10168281D01*
X53900919Y10169500D01*
X54063181Y10169500D01*
X54121372Y10150593D01*
X54142836Y10129288D01*
X54216483Y10029500D01*
X54224019Y10019289D01*
X54224022Y10019287D01*
X54224023Y10019286D01*
X54330253Y9940885D01*
X54330254Y9940885D01*
X54330255Y9940884D01*
X54454881Y9897275D01*
X54482171Y9894716D01*
X54484463Y9894501D01*
X54484468Y9894500D01*
X54484474Y9894500D01*
X55189992Y9894500D01*
X55189995Y9894501D01*
X55219579Y9897275D01*
X55344205Y9940884D01*
X55450441Y10019289D01*
X55528846Y10125525D01*
X55552472Y10193046D01*
X55589535Y10241723D01*
X55648136Y10259320D01*
X55705888Y10239112D01*
X55738012Y10196664D01*
X55789306Y10066592D01*
X55789309Y10066588D01*
X55878584Y9948861D01*
X55878590Y9948855D01*
X55996317Y9859580D01*
X55996321Y9859577D01*
X56133771Y9805374D01*
X56220147Y9795001D01*
X56220154Y9795000D01*
X56412229Y9795000D01*
X56412230Y9795001D01*
X56412230Y11344999D01*
X56412229Y11345000D01*
X56220147Y11345000D01*
X56133771Y11334627D01*
X55996321Y11280424D01*
X55996317Y11280421D01*
X55878590Y11191146D01*
X55878584Y11191140D01*
X55789309Y11073413D01*
X55789306Y11073408D01*
X55738012Y10943337D01*
X55699075Y10896140D01*
X55639833Y10880843D01*
X55582914Y10903290D01*
X55552472Y10946956D01*
X55528846Y11014475D01*
X55528844Y11014477D01*
X55528844Y11014479D01*
X55450444Y11120707D01*
X55450443Y11120708D01*
X55450441Y11120711D01*
X55415101Y11146793D01*
X55344206Y11199116D01*
X55219582Y11242724D01*
X55219581Y11242725D01*
X55219579Y11242725D01*
X55219577Y11242726D01*
X55219574Y11242726D01*
X55189996Y11245500D01*
X55189986Y11245500D01*
X54484474Y11245500D01*
X54484463Y11245500D01*
X54454885Y11242726D01*
X54454877Y11242724D01*
X54330253Y11199116D01*
X54224023Y11120715D01*
X54224015Y11120707D01*
X54142836Y11010712D01*
X54093069Y10975119D01*
X54063181Y10970500D01*
X53801454Y10970500D01*
X53757974Y10980559D01*
X53676125Y11020573D01*
X53648869Y11024544D01*
X53607990Y11030500D01*
X53607987Y11030500D01*
X53006631Y11030500D01*
X52948440Y11049407D01*
X52936627Y11059496D01*
X52560911Y11435212D01*
X52155643Y11840480D01*
X52155640Y11840482D01*
X52155639Y11840483D01*
X52155638Y11840484D01*
X52064321Y11893206D01*
X52064323Y11893206D01*
X52024800Y11903796D01*
X51962457Y11920500D01*
X51962455Y11920500D01*
X50206631Y11920500D01*
X50148440Y11939407D01*
X50136627Y11949496D01*
X50129226Y11956897D01*
X50101449Y12011414D01*
X50100230Y12026901D01*
X50100230Y13164999D01*
X50399731Y13164999D01*
X50399731Y13110797D01*
X50402580Y13080400D01*
X50402580Y13080398D01*
X50447384Y12952353D01*
X50527937Y12843210D01*
X50527939Y12843208D01*
X50637082Y12762655D01*
X50765128Y12717851D01*
X50795519Y12715001D01*
X51374728Y12715001D01*
X51374730Y12715002D01*
X51374730Y13164999D01*
X51674730Y13164999D01*
X51674730Y12715002D01*
X51674731Y12715001D01*
X52253933Y12715001D01*
X52284330Y12717851D01*
X52284332Y12717851D01*
X52412377Y12762655D01*
X52521520Y12843208D01*
X52521522Y12843210D01*
X52602075Y12952353D01*
X52646879Y13080399D01*
X52649729Y13110789D01*
X52649730Y13110790D01*
X52649730Y13164999D01*
X52649729Y13165000D01*
X51674731Y13165000D01*
X51674730Y13164999D01*
X51374730Y13164999D01*
X51374729Y13165000D01*
X50399732Y13165000D01*
X50399731Y13164999D01*
X50100230Y13164999D01*
X50100230Y13519212D01*
X50399730Y13519212D01*
X50399730Y13465001D01*
X50399731Y13465000D01*
X52649728Y13465000D01*
X52649729Y13465001D01*
X52649729Y13519204D01*
X52646879Y13549601D01*
X52646879Y13549603D01*
X52602075Y13677648D01*
X52521522Y13786791D01*
X52521520Y13786793D01*
X52412375Y13867347D01*
X52299312Y13906909D01*
X52250632Y13943974D01*
X52233035Y14002574D01*
X52253243Y14060326D01*
X52294981Y14089485D01*
X52294216Y14091050D01*
X52327866Y14107501D01*
X52406213Y14145802D01*
X52415916Y14155506D01*
X52470431Y14183281D01*
X52485918Y14184500D01*
X52802829Y14184500D01*
X52861020Y14165593D01*
X52872833Y14155504D01*
X52995234Y14033103D01*
X53023011Y13978586D01*
X53024230Y13963099D01*
X53024230Y13592234D01*
X53027004Y13562656D01*
X53027006Y13562648D01*
X53070614Y13438024D01*
X53120818Y13370000D01*
X53149019Y13331789D01*
X53149022Y13331787D01*
X53149023Y13331786D01*
X53255253Y13253385D01*
X53255254Y13253385D01*
X53255255Y13253384D01*
X53379881Y13209775D01*
X53407171Y13207216D01*
X53409463Y13207001D01*
X53409468Y13207000D01*
X53409474Y13207000D01*
X53989992Y13207000D01*
X53989995Y13207001D01*
X54019579Y13209775D01*
X54144205Y13253384D01*
X54250441Y13331789D01*
X54328846Y13438025D01*
X54354789Y13512168D01*
X54391854Y13560846D01*
X54450454Y13578443D01*
X54508206Y13558235D01*
X54540330Y13515787D01*
X54589306Y13391592D01*
X54589309Y13391588D01*
X54678584Y13273861D01*
X54678590Y13273855D01*
X54796317Y13184580D01*
X54796321Y13184577D01*
X54933771Y13130374D01*
X55020147Y13120001D01*
X55020154Y13120000D01*
X55149729Y13120000D01*
X55149730Y13120001D01*
X55149730Y13807499D01*
X55449730Y13807499D01*
X55449730Y13120001D01*
X55449731Y13120000D01*
X55579306Y13120000D01*
X55579312Y13120001D01*
X55665688Y13130374D01*
X55803138Y13184577D01*
X55803142Y13184580D01*
X55920869Y13273855D01*
X55920875Y13273861D01*
X56010150Y13391588D01*
X56010153Y13391592D01*
X56064356Y13529042D01*
X56074729Y13615418D01*
X56074730Y13615424D01*
X56074730Y13807499D01*
X56074729Y13807500D01*
X55449731Y13807500D01*
X55449730Y13807499D01*
X55149730Y13807499D01*
X55149730Y14008500D01*
X55168637Y14066691D01*
X55218137Y14102655D01*
X55248730Y14107500D01*
X56074729Y14107500D01*
X56074730Y14107501D01*
X56074730Y14299577D01*
X56074729Y14299583D01*
X56064356Y14385959D01*
X56010153Y14523409D01*
X56010150Y14523413D01*
X55920875Y14641140D01*
X55920869Y14641146D01*
X55803142Y14730421D01*
X55803138Y14730424D01*
X55673066Y14781718D01*
X55625869Y14820655D01*
X55610572Y14879897D01*
X55633018Y14936816D01*
X55676683Y14967258D01*
X55744205Y14990884D01*
X55748650Y14994164D01*
X55776198Y15014496D01*
X55850441Y15069289D01*
X55928846Y15175525D01*
X55972455Y15300151D01*
X55975230Y15329744D01*
X55975230Y15520500D01*
X55994137Y15578691D01*
X56043637Y15614655D01*
X56074230Y15619500D01*
X59463542Y15619500D01*
X59521733Y15600593D01*
X59533539Y15590510D01*
X59543247Y15580802D01*
X59597015Y15554517D01*
X59648334Y15529428D01*
X59648335Y15529428D01*
X59648337Y15529427D01*
X59716470Y15519500D01*
X59716473Y15519500D01*
X61182987Y15519500D01*
X61182990Y15519500D01*
X61251123Y15529427D01*
X61356213Y15580802D01*
X61438928Y15663517D01*
X61490303Y15768607D01*
X61500230Y15836740D01*
X61500230Y16203260D01*
X61490303Y16271393D01*
X61479154Y16294198D01*
X61438928Y16376482D01*
X61438928Y16376483D01*
X61356213Y16459198D01*
X61356211Y16459199D01*
X61251125Y16510573D01*
X61223869Y16514544D01*
X61182990Y16520500D01*
X59716470Y16520500D01*
X59682403Y16515537D01*
X59648334Y16510573D01*
X59543248Y16459199D01*
X59543247Y16459199D01*
X59543247Y16459198D01*
X59533543Y16449495D01*
X59479029Y16421719D01*
X59463542Y16420500D01*
X55603018Y16420500D01*
X55603018Y16420708D01*
X55592304Y16420508D01*
X55592299Y16420392D01*
X55590539Y16420475D01*
X55590313Y16420470D01*
X55589995Y16420500D01*
X55589986Y16420500D01*
X55009474Y16420500D01*
X55009463Y16420500D01*
X54979885Y16417726D01*
X54979877Y16417724D01*
X54855253Y16374116D01*
X54749023Y16295715D01*
X54749015Y16295707D01*
X54670615Y16189479D01*
X54670614Y16189476D01*
X54669678Y16186800D01*
X54668116Y16184749D01*
X54667148Y16182917D01*
X54666843Y16183078D01*
X54632611Y16138121D01*
X54576234Y16120500D01*
X54418347Y16120500D01*
X54360156Y16139407D01*
X54330818Y16173244D01*
X54328845Y16176977D01*
X54250444Y16283207D01*
X54250443Y16283208D01*
X54250441Y16283211D01*
X54250436Y16283215D01*
X54144206Y16361616D01*
X54019582Y16405224D01*
X54019581Y16405225D01*
X54019579Y16405225D01*
X54019577Y16405226D01*
X54019574Y16405226D01*
X53989996Y16408000D01*
X53989986Y16408000D01*
X53409474Y16408000D01*
X53409463Y16408000D01*
X53379885Y16405226D01*
X53379877Y16405224D01*
X53255253Y16361616D01*
X53149023Y16283215D01*
X53149015Y16283207D01*
X53070614Y16176977D01*
X53027006Y16052353D01*
X53027004Y16052345D01*
X53024230Y16022767D01*
X53024230Y15417234D01*
X53027004Y15387656D01*
X53027006Y15387648D01*
X53070614Y15263024D01*
X53117500Y15199496D01*
X53149019Y15156789D01*
X53149022Y15156787D01*
X53153431Y15152378D01*
X53181208Y15097861D01*
X53171637Y15037429D01*
X53128372Y14994164D01*
X53068901Y14984746D01*
X53068889Y14984653D01*
X53068577Y14984694D01*
X53067940Y14984593D01*
X53065645Y14985081D01*
X53062457Y14985500D01*
X53062456Y14985500D01*
X52485918Y14985500D01*
X52427727Y15004407D01*
X52415920Y15014491D01*
X52406213Y15024198D01*
X52390252Y15032001D01*
X52301125Y15075573D01*
X52273869Y15079544D01*
X52232990Y15085500D01*
X50816470Y15085500D01*
X50782403Y15080537D01*
X50748334Y15075573D01*
X50643248Y15024199D01*
X50560531Y14941482D01*
X50509157Y14836396D01*
X50509157Y14836393D01*
X50499230Y14768260D01*
X50499230Y14401740D01*
X50504105Y14368281D01*
X50509157Y14333605D01*
X50553461Y14242981D01*
X50560532Y14228517D01*
X50643247Y14145802D01*
X50704997Y14115615D01*
X50755244Y14091050D01*
X50754462Y14089451D01*
X50796685Y14059705D01*
X50816438Y14001796D01*
X50798381Y13943336D01*
X50750147Y13906909D01*
X50637084Y13867347D01*
X50527939Y13786793D01*
X50527937Y13786791D01*
X50447384Y13677648D01*
X50402580Y13549602D01*
X50399730Y13519212D01*
X50100230Y13519212D01*
X50100230Y16038260D01*
X50499230Y16038260D01*
X50499230Y15671740D01*
X50505848Y15626318D01*
X50509157Y15603605D01*
X50545421Y15529427D01*
X50560532Y15498517D01*
X50643247Y15415802D01*
X50697015Y15389517D01*
X50748334Y15364428D01*
X50748335Y15364428D01*
X50748337Y15364427D01*
X50816470Y15354500D01*
X50816473Y15354500D01*
X52232987Y15354500D01*
X52232990Y15354500D01*
X52301123Y15364427D01*
X52406213Y15415802D01*
X52488928Y15498517D01*
X52540303Y15603607D01*
X52550230Y15671740D01*
X52550230Y16038260D01*
X52540303Y16106393D01*
X52488928Y16211483D01*
X52406213Y16294198D01*
X52403110Y16295715D01*
X52301125Y16345573D01*
X52273869Y16349544D01*
X52232990Y16355500D01*
X50816470Y16355500D01*
X50782403Y16350537D01*
X50748334Y16345573D01*
X50643248Y16294199D01*
X50560531Y16211482D01*
X50509157Y16106396D01*
X50509157Y16106393D01*
X50499230Y16038260D01*
X50100230Y16038260D01*
X50100230Y16718834D01*
X50119137Y16777025D01*
X50168637Y16812989D01*
X50229823Y16812989D01*
X50248730Y16804571D01*
X50248815Y16804522D01*
X50248817Y16804520D01*
X50292279Y16779427D01*
X50340142Y16751793D01*
X50442003Y16724500D01*
X50547457Y16724500D01*
X50563542Y16724500D01*
X50621733Y16705593D01*
X50633539Y16695510D01*
X50643247Y16685802D01*
X50697015Y16659517D01*
X50748334Y16634428D01*
X50748335Y16634428D01*
X50748337Y16634427D01*
X50816470Y16624500D01*
X50816473Y16624500D01*
X52232987Y16624500D01*
X52232990Y16624500D01*
X52301123Y16634427D01*
X52406213Y16685802D01*
X52410916Y16690506D01*
X52465431Y16718281D01*
X52480918Y16719500D01*
X53377456Y16719500D01*
X53377457Y16719500D01*
X53458172Y16741127D01*
X53483794Y16744500D01*
X53977492Y16744500D01*
X53977495Y16744501D01*
X54007079Y16747275D01*
X54131705Y16790884D01*
X54237941Y16869289D01*
X54316346Y16975525D01*
X54339972Y17043046D01*
X54377035Y17091723D01*
X54435636Y17109320D01*
X54493388Y17089112D01*
X54525512Y17046664D01*
X54576806Y16916592D01*
X54576809Y16916588D01*
X54666084Y16798861D01*
X54666090Y16798855D01*
X54783817Y16709580D01*
X54783821Y16709577D01*
X54921271Y16655374D01*
X55007647Y16645001D01*
X55007654Y16645000D01*
X55199729Y16645000D01*
X55199730Y16645001D01*
X55199730Y17269999D01*
X55499730Y17269999D01*
X55499730Y16645001D01*
X55499731Y16645000D01*
X55691806Y16645000D01*
X55691812Y16645001D01*
X55778188Y16655374D01*
X55915638Y16709577D01*
X55915642Y16709580D01*
X56033369Y16798855D01*
X56033375Y16798861D01*
X56122650Y16916588D01*
X56122653Y16916592D01*
X56176856Y17054042D01*
X56187229Y17140418D01*
X56187230Y17140424D01*
X56187230Y17269999D01*
X56187229Y17270000D01*
X55499731Y17270000D01*
X55499730Y17269999D01*
X55199730Y17269999D01*
X55199730Y18194999D01*
X55499730Y18194999D01*
X55499730Y17570001D01*
X55499731Y17570000D01*
X56187229Y17570000D01*
X56187230Y17570001D01*
X56187230Y17699577D01*
X56187229Y17699583D01*
X56176856Y17785959D01*
X56122653Y17923409D01*
X56122650Y17923413D01*
X56033375Y18041140D01*
X56033369Y18041146D01*
X55915642Y18130421D01*
X55915638Y18130424D01*
X55778188Y18184627D01*
X55691812Y18195000D01*
X55499731Y18195000D01*
X55499730Y18194999D01*
X55199730Y18194999D01*
X55199729Y18195000D01*
X55007647Y18195000D01*
X54921271Y18184627D01*
X54783821Y18130424D01*
X54783817Y18130421D01*
X54666090Y18041146D01*
X54666084Y18041140D01*
X54576809Y17923413D01*
X54576806Y17923408D01*
X54525512Y17793337D01*
X54486575Y17746140D01*
X54427333Y17730843D01*
X54370414Y17753290D01*
X54339972Y17796956D01*
X54316346Y17864475D01*
X54316344Y17864477D01*
X54316344Y17864479D01*
X54237944Y17970707D01*
X54237943Y17970708D01*
X54237941Y17970711D01*
X54237936Y17970715D01*
X54131706Y18049116D01*
X54007082Y18092724D01*
X54007081Y18092725D01*
X54007079Y18092725D01*
X54007077Y18092726D01*
X54007074Y18092726D01*
X53977496Y18095500D01*
X53977486Y18095500D01*
X53271974Y18095500D01*
X53271963Y18095500D01*
X53242385Y18092726D01*
X53242377Y18092724D01*
X53117753Y18049116D01*
X53011523Y17970715D01*
X53011515Y17970707D01*
X52933114Y17864477D01*
X52889506Y17739853D01*
X52889504Y17739845D01*
X52886730Y17710267D01*
X52886730Y17619500D01*
X52867823Y17561309D01*
X52818323Y17525345D01*
X52787730Y17520500D01*
X52490918Y17520500D01*
X52432727Y17539407D01*
X52420920Y17549491D01*
X52406213Y17564198D01*
X52394343Y17570001D01*
X52301125Y17615573D01*
X52273869Y17619544D01*
X52232990Y17625500D01*
X50816470Y17625500D01*
X50775590Y17619544D01*
X50748335Y17615573D01*
X50709815Y17596742D01*
X50692427Y17588241D01*
X50631847Y17579670D01*
X50578944Y17607179D01*
X50129226Y18056898D01*
X50101449Y18111414D01*
X50100230Y18126901D01*
X50100230Y19664999D01*
X50399731Y19664999D01*
X50399731Y19610797D01*
X50402580Y19580400D01*
X50402580Y19580398D01*
X50447384Y19452353D01*
X50527937Y19343210D01*
X50527939Y19343208D01*
X50637082Y19262655D01*
X50765128Y19217851D01*
X50795519Y19215001D01*
X51374728Y19215001D01*
X51374730Y19215002D01*
X51374730Y19664999D01*
X51674730Y19664999D01*
X51674730Y19215002D01*
X51674731Y19215001D01*
X52253933Y19215001D01*
X52284330Y19217851D01*
X52284332Y19217851D01*
X52412377Y19262655D01*
X52521520Y19343208D01*
X52521522Y19343210D01*
X52602074Y19452353D01*
X52631785Y19537261D01*
X52661567Y19576378D01*
X52653913Y19587426D01*
X52649730Y19615898D01*
X52649730Y19664999D01*
X52649729Y19665000D01*
X51674731Y19665000D01*
X51674730Y19664999D01*
X51374730Y19664999D01*
X51374729Y19665000D01*
X50399732Y19665000D01*
X50399731Y19664999D01*
X50100230Y19664999D01*
X50100230Y22538260D01*
X50499230Y22538260D01*
X50499230Y22171740D01*
X50505848Y22126318D01*
X50509157Y22103605D01*
X50559945Y21999718D01*
X50560532Y21998517D01*
X50643247Y21915802D01*
X50697015Y21889517D01*
X50748334Y21864428D01*
X50748335Y21864428D01*
X50748337Y21864427D01*
X50816470Y21854500D01*
X50816473Y21854500D01*
X52232987Y21854500D01*
X52232990Y21854500D01*
X52301123Y21864427D01*
X52406213Y21915802D01*
X52488928Y21998517D01*
X52540303Y22103607D01*
X52550230Y22171740D01*
X52550230Y22538260D01*
X52540303Y22606393D01*
X52488928Y22711483D01*
X52406213Y22794198D01*
X52406211Y22794199D01*
X52301125Y22845573D01*
X52273869Y22849544D01*
X52232990Y22855500D01*
X50816470Y22855500D01*
X50782403Y22850537D01*
X50748334Y22845573D01*
X50643248Y22794199D01*
X50560531Y22711482D01*
X50509157Y22606396D01*
X50504659Y22575524D01*
X50499230Y22538260D01*
X50100230Y22538260D01*
X50100230Y22813099D01*
X50119137Y22871290D01*
X50129226Y22883103D01*
X50441627Y23195504D01*
X50496144Y23223281D01*
X50511631Y23224500D01*
X50563542Y23224500D01*
X50621733Y23205593D01*
X50633539Y23195510D01*
X50643247Y23185802D01*
X50697015Y23159517D01*
X50748334Y23134428D01*
X50748335Y23134428D01*
X50748337Y23134427D01*
X50816470Y23124500D01*
X50816473Y23124500D01*
X52232987Y23124500D01*
X52232990Y23124500D01*
X52301123Y23134427D01*
X52406213Y23185802D01*
X52415916Y23195506D01*
X52470431Y23223281D01*
X52485918Y23224500D01*
X53000230Y23224500D01*
X53058421Y23205593D01*
X53094385Y23156093D01*
X53099230Y23125500D01*
X53099230Y22729734D01*
X53102004Y22700156D01*
X53102006Y22700148D01*
X53145614Y22575524D01*
X53189108Y22516592D01*
X53224019Y22469289D01*
X53224022Y22469287D01*
X53224023Y22469286D01*
X53330253Y22390885D01*
X53330254Y22390885D01*
X53330255Y22390884D01*
X53454881Y22347275D01*
X53482171Y22344716D01*
X53484463Y22344501D01*
X53484468Y22344500D01*
X53484474Y22344500D01*
X54189992Y22344500D01*
X54189995Y22344501D01*
X54219579Y22347275D01*
X54344205Y22390884D01*
X54450441Y22469289D01*
X54528846Y22575525D01*
X54552472Y22643046D01*
X54589535Y22691723D01*
X54648136Y22709320D01*
X54705888Y22689112D01*
X54738012Y22646664D01*
X54789306Y22516592D01*
X54789309Y22516588D01*
X54878584Y22398861D01*
X54878590Y22398855D01*
X54996317Y22309580D01*
X54996321Y22309577D01*
X55133771Y22255374D01*
X55220147Y22245001D01*
X55220154Y22245000D01*
X55412229Y22245000D01*
X55412230Y22245001D01*
X55412230Y22869999D01*
X55712230Y22869999D01*
X55712230Y22245001D01*
X55712231Y22245000D01*
X55904306Y22245000D01*
X55904312Y22245001D01*
X55990688Y22255374D01*
X56128138Y22309577D01*
X56128142Y22309580D01*
X56245869Y22398855D01*
X56245875Y22398861D01*
X56335150Y22516588D01*
X56335153Y22516592D01*
X56389356Y22654042D01*
X56399729Y22740418D01*
X56399730Y22740424D01*
X56399730Y22869999D01*
X56399729Y22870000D01*
X55712231Y22870000D01*
X55712230Y22869999D01*
X55412230Y22869999D01*
X55412230Y23071000D01*
X55431137Y23129191D01*
X55480637Y23165155D01*
X55511230Y23170000D01*
X56399729Y23170000D01*
X56399730Y23170001D01*
X56399730Y23299577D01*
X56399729Y23299583D01*
X56389356Y23385959D01*
X56350622Y23484181D01*
X56346863Y23545251D01*
X56379718Y23596866D01*
X56436637Y23619313D01*
X56442719Y23619500D01*
X56492829Y23619500D01*
X56551020Y23600593D01*
X56562833Y23590504D01*
X56670234Y23483103D01*
X56698011Y23428586D01*
X56699230Y23413099D01*
X56699230Y20322727D01*
X56699230Y20217273D01*
X56710279Y20176037D01*
X56726524Y20115408D01*
X56779246Y20024092D01*
X56779248Y20024090D01*
X56779250Y20024087D01*
X57053588Y19749749D01*
X57081364Y19695234D01*
X57071793Y19634802D01*
X57028528Y19591537D01*
X56968096Y19581966D01*
X56965004Y19582623D01*
X56962139Y19583000D01*
X56962138Y19583000D01*
X55862592Y19583000D01*
X55804401Y19601907D01*
X55769148Y19649302D01*
X55728845Y19764477D01*
X55650444Y19870707D01*
X55650443Y19870708D01*
X55650441Y19870711D01*
X55650436Y19870715D01*
X55544206Y19949116D01*
X55476687Y19972742D01*
X55428007Y20009807D01*
X55410410Y20068408D01*
X55430618Y20126160D01*
X55473066Y20158284D01*
X55603143Y20209580D01*
X55720869Y20298855D01*
X55720875Y20298861D01*
X55810150Y20416588D01*
X55810153Y20416592D01*
X55864356Y20554042D01*
X55874729Y20640418D01*
X55874730Y20640424D01*
X55874730Y20832499D01*
X55874729Y20832500D01*
X55048730Y20832500D01*
X54990539Y20851407D01*
X54954575Y20900907D01*
X54949730Y20931500D01*
X54949730Y21819999D01*
X55249730Y21819999D01*
X55249730Y21132501D01*
X55249731Y21132500D01*
X55874729Y21132500D01*
X55874730Y21132501D01*
X55874730Y21324577D01*
X55874729Y21324583D01*
X55864356Y21410959D01*
X55810153Y21548409D01*
X55810150Y21548413D01*
X55720875Y21666140D01*
X55720869Y21666146D01*
X55603142Y21755421D01*
X55603138Y21755424D01*
X55465688Y21809627D01*
X55379312Y21820000D01*
X55249731Y21820000D01*
X55249730Y21819999D01*
X54949730Y21819999D01*
X54949729Y21820000D01*
X54820147Y21820000D01*
X54733771Y21809627D01*
X54596321Y21755424D01*
X54596317Y21755421D01*
X54478590Y21666146D01*
X54478584Y21666140D01*
X54389309Y21548413D01*
X54389306Y21548408D01*
X54338012Y21418337D01*
X54299075Y21371140D01*
X54239833Y21355843D01*
X54182914Y21378290D01*
X54152472Y21421956D01*
X54128846Y21489475D01*
X54128844Y21489477D01*
X54128844Y21489479D01*
X54050444Y21595707D01*
X54050443Y21595708D01*
X54050441Y21595711D01*
X54050436Y21595715D01*
X53944206Y21674116D01*
X53819582Y21717724D01*
X53819581Y21717725D01*
X53819579Y21717725D01*
X53819577Y21717726D01*
X53819574Y21717726D01*
X53789996Y21720500D01*
X53789986Y21720500D01*
X53209474Y21720500D01*
X53209463Y21720500D01*
X53179885Y21717726D01*
X53179877Y21717724D01*
X53055253Y21674116D01*
X52949023Y21595715D01*
X52949014Y21595706D01*
X52897357Y21525712D01*
X52847590Y21490119D01*
X52817702Y21485500D01*
X52485918Y21485500D01*
X52427727Y21504407D01*
X52415920Y21514491D01*
X52406213Y21524198D01*
X52403116Y21525712D01*
X52301125Y21575573D01*
X52273869Y21579544D01*
X52232990Y21585500D01*
X50816470Y21585500D01*
X50782403Y21580537D01*
X50748334Y21575573D01*
X50643248Y21524199D01*
X50560531Y21441482D01*
X50509157Y21336396D01*
X50509157Y21336393D01*
X50499230Y21268260D01*
X50499230Y20901740D01*
X50505848Y20856318D01*
X50509157Y20833605D01*
X50559932Y20729744D01*
X50560532Y20728517D01*
X50643247Y20645802D01*
X50699712Y20618198D01*
X50755244Y20591050D01*
X50754462Y20589451D01*
X50796685Y20559705D01*
X50816438Y20501796D01*
X50798381Y20443336D01*
X50750147Y20406909D01*
X50637084Y20367347D01*
X50527939Y20286793D01*
X50527937Y20286791D01*
X50447384Y20177648D01*
X50402580Y20049602D01*
X50399730Y20019212D01*
X50399730Y19965001D01*
X50399731Y19965000D01*
X52649728Y19965000D01*
X52649729Y19965001D01*
X52649729Y20019204D01*
X52646879Y20049601D01*
X52646879Y20049603D01*
X52602075Y20177648D01*
X52521522Y20286791D01*
X52521520Y20286793D01*
X52412375Y20367347D01*
X52299312Y20406909D01*
X52250632Y20443974D01*
X52233035Y20502574D01*
X52253243Y20560326D01*
X52294981Y20589485D01*
X52294216Y20591050D01*
X52326631Y20606897D01*
X52406213Y20645802D01*
X52415916Y20655506D01*
X52470431Y20683281D01*
X52485918Y20684500D01*
X52762238Y20684500D01*
X52820429Y20665593D01*
X52855682Y20618198D01*
X52870614Y20575524D01*
X52925028Y20501796D01*
X52949019Y20469289D01*
X52949022Y20469287D01*
X52949023Y20469286D01*
X53055253Y20390885D01*
X53055254Y20390885D01*
X53055255Y20390884D01*
X53179881Y20347275D01*
X53207171Y20344716D01*
X53209463Y20344501D01*
X53209468Y20344500D01*
X53209474Y20344500D01*
X53789992Y20344500D01*
X53789995Y20344501D01*
X53819579Y20347275D01*
X53944205Y20390884D01*
X54050441Y20469289D01*
X54128846Y20575525D01*
X54139603Y20606267D01*
X54176665Y20654945D01*
X54235265Y20672543D01*
X54293018Y20652336D01*
X54327863Y20602042D01*
X54331339Y20585374D01*
X54335102Y20554045D01*
X54389306Y20416592D01*
X54389309Y20416588D01*
X54478584Y20298861D01*
X54478590Y20298855D01*
X54596317Y20209580D01*
X54596321Y20209577D01*
X54726393Y20158283D01*
X54773590Y20119347D01*
X54788887Y20060104D01*
X54766441Y20003185D01*
X54722772Y19972742D01*
X54655253Y19949116D01*
X54549023Y19870715D01*
X54549015Y19870707D01*
X54470614Y19764477D01*
X54470614Y19764476D01*
X54439060Y19674302D01*
X54401994Y19625621D01*
X54345616Y19608000D01*
X54218347Y19608000D01*
X54160156Y19626907D01*
X54130818Y19660744D01*
X54128845Y19664477D01*
X54050444Y19770707D01*
X54050443Y19770708D01*
X54050441Y19770711D01*
X54050436Y19770715D01*
X53944206Y19849116D01*
X53819582Y19892724D01*
X53819581Y19892725D01*
X53819579Y19892725D01*
X53819577Y19892726D01*
X53819574Y19892726D01*
X53789996Y19895500D01*
X53789986Y19895500D01*
X53209474Y19895500D01*
X53209463Y19895500D01*
X53179885Y19892726D01*
X53179877Y19892724D01*
X53055253Y19849116D01*
X52949023Y19770715D01*
X52949015Y19770707D01*
X52870614Y19664477D01*
X52842174Y19583200D01*
X52812392Y19544086D01*
X52820047Y19533037D01*
X52824230Y19504564D01*
X52824230Y18904734D01*
X52827004Y18875156D01*
X52827006Y18875148D01*
X52870614Y18750524D01*
X52949015Y18644294D01*
X52949019Y18644289D01*
X52949022Y18644287D01*
X52949023Y18644286D01*
X53055253Y18565885D01*
X53055254Y18565885D01*
X53055255Y18565884D01*
X53179881Y18522275D01*
X53207171Y18519716D01*
X53209463Y18519501D01*
X53209468Y18519500D01*
X53209474Y18519500D01*
X53789992Y18519500D01*
X53789995Y18519501D01*
X53819579Y18522275D01*
X53944205Y18565884D01*
X54050441Y18644289D01*
X54128846Y18750525D01*
X54128846Y18750528D01*
X54130818Y18754256D01*
X54174723Y18796870D01*
X54218347Y18807000D01*
X54381113Y18807000D01*
X54439304Y18788093D01*
X54468642Y18754256D01*
X54470614Y18750524D01*
X54549015Y18644294D01*
X54549019Y18644289D01*
X54549022Y18644287D01*
X54549023Y18644286D01*
X54655253Y18565885D01*
X54655254Y18565885D01*
X54655255Y18565884D01*
X54779881Y18522275D01*
X54807171Y18519716D01*
X54809463Y18519501D01*
X54809468Y18519500D01*
X54809474Y18519500D01*
X55389992Y18519500D01*
X55389995Y18519501D01*
X55419579Y18522275D01*
X55544205Y18565884D01*
X55650441Y18644289D01*
X55693961Y18703257D01*
X55722399Y18741788D01*
X55772167Y18777381D01*
X55802054Y18782000D01*
X56702511Y18782000D01*
X56760702Y18763093D01*
X56772515Y18753004D01*
X58501430Y17024090D01*
X58501432Y17024087D01*
X58575999Y16949520D01*
X58667325Y16896793D01*
X58769185Y16869500D01*
X59463542Y16869500D01*
X59521733Y16850593D01*
X59533539Y16840510D01*
X59543247Y16830802D01*
X59596904Y16804571D01*
X59648334Y16779428D01*
X59648335Y16779428D01*
X59648337Y16779427D01*
X59716470Y16769500D01*
X59716473Y16769500D01*
X61182987Y16769500D01*
X61182990Y16769500D01*
X61251123Y16779427D01*
X61356213Y16830802D01*
X61438928Y16913517D01*
X61490303Y17018607D01*
X61500230Y17086740D01*
X61500230Y17453260D01*
X61490303Y17521393D01*
X61476564Y17549496D01*
X61448365Y17607179D01*
X61438928Y17626483D01*
X61356213Y17709198D01*
X61354026Y17710267D01*
X61251125Y17760573D01*
X61223869Y17764544D01*
X61182990Y17770500D01*
X59716470Y17770500D01*
X59682403Y17765537D01*
X59648334Y17760573D01*
X59543248Y17709199D01*
X59543247Y17709199D01*
X59543247Y17709198D01*
X59533543Y17699495D01*
X59479029Y17671719D01*
X59463542Y17670500D01*
X59028812Y17670500D01*
X58970621Y17689407D01*
X58958808Y17699496D01*
X58705553Y17952751D01*
X58677776Y18007268D01*
X58687347Y18067700D01*
X58730612Y18110965D01*
X58791044Y18120536D01*
X58794143Y18119877D01*
X58797002Y18119501D01*
X58797003Y18119500D01*
X59463542Y18119500D01*
X59521733Y18100593D01*
X59533539Y18090510D01*
X59543247Y18080802D01*
X59570048Y18067700D01*
X59648334Y18029428D01*
X59648335Y18029428D01*
X59648337Y18029427D01*
X59716470Y18019500D01*
X59716473Y18019500D01*
X61182987Y18019500D01*
X61182990Y18019500D01*
X61251123Y18029427D01*
X61356213Y18080802D01*
X61438928Y18163517D01*
X61490303Y18268607D01*
X61500230Y18336740D01*
X61500230Y18703260D01*
X61490303Y18771393D01*
X61438928Y18876483D01*
X61356213Y18959198D01*
X61356211Y18959199D01*
X61251125Y19010573D01*
X61223869Y19014544D01*
X61182990Y19020500D01*
X59716470Y19020500D01*
X59682403Y19015537D01*
X59648334Y19010573D01*
X59543248Y18959199D01*
X59543247Y18959199D01*
X59543247Y18959198D01*
X59533543Y18949495D01*
X59479029Y18921719D01*
X59463542Y18920500D01*
X59056631Y18920500D01*
X58998440Y18939407D01*
X58986627Y18949496D01*
X57529226Y20406897D01*
X57501449Y20461414D01*
X57500230Y20476901D01*
X57500230Y23672726D01*
X57490434Y23709286D01*
X57472937Y23774587D01*
X57445143Y23822727D01*
X57420210Y23865913D01*
X57345644Y23940480D01*
X56945643Y24340480D01*
X56945638Y24340484D01*
X56854321Y24393206D01*
X56854323Y24393206D01*
X56814800Y24403796D01*
X56752457Y24420500D01*
X54147003Y24420500D01*
X54045143Y24393207D01*
X54045142Y24393207D01*
X54045140Y24393206D01*
X54045139Y24393206D01*
X53953817Y24340481D01*
X53583003Y23969667D01*
X53528487Y23941890D01*
X53468055Y23951461D01*
X53463500Y23953935D01*
X53386821Y23998206D01*
X53386823Y23998206D01*
X53347300Y24008796D01*
X53284957Y24025500D01*
X53284955Y24025500D01*
X52485918Y24025500D01*
X52427727Y24044407D01*
X52415920Y24054491D01*
X52406213Y24064198D01*
X52406211Y24064199D01*
X52301125Y24115573D01*
X52273869Y24119544D01*
X52232990Y24125500D01*
X50816470Y24125500D01*
X50782403Y24120537D01*
X50748334Y24115573D01*
X50643248Y24064199D01*
X50643247Y24064199D01*
X50643247Y24064198D01*
X50633543Y24054495D01*
X50579029Y24026719D01*
X50563542Y24025500D01*
X50357457Y24025500D01*
X50252003Y24025500D01*
X50189659Y24008796D01*
X50150137Y23998206D01*
X50058821Y23945484D01*
X50058816Y23945480D01*
X49618733Y23505397D01*
X49564217Y23477620D01*
X49503785Y23487191D01*
X49460520Y23530456D01*
X49449730Y23575401D01*
X49449730Y24720500D01*
X49468637Y24778691D01*
X49518137Y24814655D01*
X49548730Y24819500D01*
X50590924Y24819500D01*
X50590940Y24819499D01*
X50597003Y24819499D01*
X50708520Y24819499D01*
X50708536Y24819500D01*
X56992829Y24819500D01*
X57051020Y24800593D01*
X57062833Y24790504D01*
X58220234Y23633104D01*
X58248011Y23578587D01*
X58249230Y23563100D01*
X58249230Y20522727D01*
X58249230Y20417273D01*
X58267985Y20347277D01*
X58276524Y20315408D01*
X58329246Y20224092D01*
X58329247Y20224091D01*
X58329248Y20224090D01*
X58329250Y20224087D01*
X58682622Y19870715D01*
X59029249Y19524088D01*
X59029250Y19524087D01*
X59029249Y19524087D01*
X59100984Y19452353D01*
X59103817Y19449520D01*
X59195143Y19396793D01*
X59297003Y19369500D01*
X59402456Y19369500D01*
X59463542Y19369500D01*
X59521733Y19350593D01*
X59533539Y19340510D01*
X59543247Y19330802D01*
X59597015Y19304517D01*
X59648334Y19279428D01*
X59648335Y19279428D01*
X59648337Y19279427D01*
X59716470Y19269500D01*
X59716473Y19269500D01*
X61182987Y19269500D01*
X61182990Y19269500D01*
X61251123Y19279427D01*
X61356213Y19330802D01*
X61438928Y19413517D01*
X61490303Y19518607D01*
X61500230Y19586740D01*
X61500230Y19953260D01*
X61490303Y20021393D01*
X61471378Y20060104D01*
X61444340Y20115412D01*
X61438928Y20126483D01*
X61356213Y20209198D01*
X61354787Y20209895D01*
X61251125Y20260573D01*
X61223869Y20264544D01*
X61182990Y20270500D01*
X59716470Y20270500D01*
X59682403Y20265537D01*
X59648334Y20260573D01*
X59562204Y20218466D01*
X59501622Y20209895D01*
X59448720Y20237403D01*
X59079226Y20606897D01*
X59051449Y20661414D01*
X59050230Y20676901D01*
X59050230Y21924275D01*
X62199230Y21924275D01*
X62199230Y21315726D01*
X62202083Y21285306D01*
X62202085Y21285297D01*
X62246937Y21157117D01*
X62327575Y21047856D01*
X62327577Y21047854D01*
X62327580Y21047850D01*
X62327583Y21047848D01*
X62327585Y21047846D01*
X62436846Y20967208D01*
X62436847Y20967208D01*
X62436848Y20967207D01*
X62565031Y20922354D01*
X62595455Y20919501D01*
X62595457Y20919500D01*
X62595464Y20919500D01*
X65004003Y20919500D01*
X65004003Y20919501D01*
X65034429Y20922354D01*
X65162612Y20967207D01*
X65271880Y21047850D01*
X65352523Y21157118D01*
X65397376Y21285301D01*
X65400229Y21315727D01*
X65400230Y21315727D01*
X65400230Y21924273D01*
X65400229Y21924275D01*
X65397376Y21954695D01*
X65397376Y21954699D01*
X65352523Y22082882D01*
X65337227Y22103607D01*
X65271884Y22192145D01*
X65271882Y22192147D01*
X65271880Y22192150D01*
X65271876Y22192153D01*
X65271874Y22192155D01*
X65162613Y22272793D01*
X65034433Y22317645D01*
X65034424Y22317647D01*
X65004004Y22320500D01*
X65003996Y22320500D01*
X62595464Y22320500D01*
X62595455Y22320500D01*
X62565035Y22317647D01*
X62565026Y22317645D01*
X62436846Y22272793D01*
X62327585Y22192155D01*
X62327575Y22192145D01*
X62246937Y22082884D01*
X62202085Y21954704D01*
X62202083Y21954695D01*
X62199230Y21924275D01*
X59050230Y21924275D01*
X59050230Y23709286D01*
X59050231Y23709299D01*
X59050231Y23822728D01*
X59050230Y23822730D01*
X59022937Y23924587D01*
X59007421Y23951461D01*
X58998292Y23967273D01*
X58970210Y24015913D01*
X58895643Y24090480D01*
X58895640Y24090482D01*
X57445643Y25540480D01*
X57445640Y25540482D01*
X57445638Y25540484D01*
X57354321Y25593206D01*
X57354323Y25593206D01*
X57314800Y25603796D01*
X57252457Y25620500D01*
X57252455Y25620500D01*
X50856629Y25620500D01*
X50798438Y25639407D01*
X50786625Y25649497D01*
X50416726Y26019397D01*
X50388949Y26073913D01*
X50387730Y26089400D01*
X50387730Y26510262D01*
X50387729Y26510267D01*
X50384955Y26539845D01*
X50384955Y26539849D01*
X50341346Y26664475D01*
X50307733Y26710019D01*
X50262944Y26770707D01*
X50262943Y26770708D01*
X50262941Y26770711D01*
X50262936Y26770715D01*
X50156706Y26849116D01*
X50032082Y26892724D01*
X50032081Y26892725D01*
X50032079Y26892725D01*
X50032077Y26892726D01*
X50032074Y26892726D01*
X50002496Y26895500D01*
X50002486Y26895500D01*
X49548730Y26895500D01*
X49490539Y26914407D01*
X49454575Y26963907D01*
X49449730Y26994500D01*
X49449730Y27021900D01*
X49468637Y27080091D01*
X49518137Y27116055D01*
X49547825Y27120896D01*
X60364235Y27219676D01*
X60422596Y27201301D01*
G37*
%TD.AperFunction*%
%TD*%
%TA.AperFunction,Conductor*%
%TO.N,GNDA*%
G36*
X49156025Y27513807D02*
G01*
X49193733Y27465622D01*
X49199730Y27431688D01*
X49199730Y26938882D01*
X49180823Y26880691D01*
X49146991Y26851355D01*
X49142752Y26849115D01*
X49036523Y26770715D01*
X49036515Y26770707D01*
X48958114Y26664477D01*
X48934488Y26596958D01*
X48897422Y26548277D01*
X48838822Y26530681D01*
X48781070Y26550890D01*
X48748947Y26593337D01*
X48697653Y26723409D01*
X48697650Y26723413D01*
X48608375Y26841140D01*
X48608369Y26841146D01*
X48490642Y26930421D01*
X48490638Y26930424D01*
X48353188Y26984627D01*
X48266812Y26995000D01*
X48074731Y26995000D01*
X48074730Y26994999D01*
X48074730Y26169000D01*
X48055823Y26110809D01*
X48006323Y26074845D01*
X47975730Y26070000D01*
X47087231Y26070000D01*
X47087230Y26069999D01*
X47087230Y25940418D01*
X47097603Y25854042D01*
X47151806Y25716592D01*
X47151809Y25716588D01*
X47241084Y25598861D01*
X47241090Y25598855D01*
X47358817Y25509580D01*
X47386292Y25498745D01*
X47433489Y25459809D01*
X47448787Y25400567D01*
X47426341Y25343647D01*
X47419978Y25336643D01*
X46237833Y24154496D01*
X46183316Y24126719D01*
X46167829Y24125500D01*
X45566470Y24125500D01*
X45532403Y24120537D01*
X45498334Y24115573D01*
X45393248Y24064199D01*
X45310531Y23981482D01*
X45259157Y23876396D01*
X45254622Y23845270D01*
X45249230Y23808260D01*
X45249230Y23441740D01*
X45250941Y23430000D01*
X45259157Y23373605D01*
X45292486Y23305430D01*
X45310532Y23268517D01*
X45393247Y23185802D01*
X45416186Y23174588D01*
X45505244Y23131050D01*
X45504462Y23129451D01*
X45546685Y23099705D01*
X45566438Y23041796D01*
X45548381Y22983336D01*
X45500147Y22946909D01*
X45387084Y22907347D01*
X45277939Y22826793D01*
X45277937Y22826791D01*
X45197384Y22717648D01*
X45152580Y22589602D01*
X45149730Y22559212D01*
X45149730Y22505001D01*
X45149731Y22505000D01*
X46325730Y22505000D01*
X46383921Y22486093D01*
X46419885Y22436593D01*
X46424730Y22406000D01*
X46424730Y22304000D01*
X46405823Y22245809D01*
X46356323Y22209845D01*
X46325730Y22205000D01*
X45149732Y22205000D01*
X45149731Y22204999D01*
X45149731Y22150797D01*
X45152580Y22120400D01*
X45152580Y22120398D01*
X45197384Y21992353D01*
X45277937Y21883210D01*
X45277939Y21883208D01*
X45387082Y21802655D01*
X45500146Y21763093D01*
X45548827Y21726027D01*
X45566424Y21667427D01*
X45546216Y21609675D01*
X45504480Y21580512D01*
X45505244Y21578950D01*
X45393248Y21524199D01*
X45393247Y21524199D01*
X45393247Y21524198D01*
X45383543Y21514495D01*
X45329029Y21486719D01*
X45313542Y21485500D01*
X44750397Y21485500D01*
X44692206Y21504407D01*
X44656242Y21553907D01*
X44656242Y21615093D01*
X44690578Y21663384D01*
X44720869Y21686355D01*
X44720875Y21686361D01*
X44810150Y21804088D01*
X44810153Y21804092D01*
X44864356Y21941542D01*
X44874729Y22027918D01*
X44874730Y22027924D01*
X44874730Y22169999D01*
X44874729Y22170000D01*
X44249731Y22170000D01*
X44249730Y22169999D01*
X44249730Y21532501D01*
X44249731Y21532500D01*
X44331830Y21532500D01*
X44390021Y21513593D01*
X44425985Y21464093D01*
X44425985Y21402907D01*
X44401833Y21363496D01*
X44250332Y21211996D01*
X44195816Y21184219D01*
X44180329Y21183000D01*
X43809463Y21183000D01*
X43779885Y21180226D01*
X43779877Y21180224D01*
X43655253Y21136616D01*
X43549023Y21058215D01*
X43549015Y21058207D01*
X43470614Y20951977D01*
X43468642Y20948244D01*
X43424737Y20905630D01*
X43381113Y20895500D01*
X43327457Y20895500D01*
X43222003Y20895500D01*
X43163942Y20879943D01*
X43120137Y20868206D01*
X43028821Y20815484D01*
X43028816Y20815480D01*
X42654225Y20440890D01*
X42612114Y20415904D01*
X42489677Y20379953D01*
X42489672Y20379951D01*
X42368603Y20302145D01*
X42274352Y20193372D01*
X42214564Y20062457D01*
X42194083Y19920003D01*
X42194083Y19919998D01*
X42214564Y19777544D01*
X42265962Y19665000D01*
X42274353Y19646627D01*
X42332074Y19580013D01*
X42368603Y19537856D01*
X42489672Y19460050D01*
X42489677Y19460047D01*
X42549373Y19442519D01*
X42627765Y19419501D01*
X42627766Y19419501D01*
X42627769Y19419500D01*
X42627771Y19419500D01*
X42771689Y19419500D01*
X42771691Y19419500D01*
X42909783Y19460047D01*
X43030858Y19537857D01*
X43125107Y19646627D01*
X43133497Y19664999D01*
X45149731Y19664999D01*
X45149731Y19610797D01*
X45152580Y19580400D01*
X45152580Y19580398D01*
X45197384Y19452353D01*
X45277937Y19343210D01*
X45277939Y19343208D01*
X45387082Y19262655D01*
X45515128Y19217851D01*
X45545519Y19215001D01*
X46124728Y19215001D01*
X46124730Y19215002D01*
X46124730Y19664999D01*
X46124729Y19665000D01*
X45149732Y19665000D01*
X45149731Y19664999D01*
X43133497Y19664999D01*
X43184895Y19777543D01*
X43190487Y19816441D01*
X43217481Y19871346D01*
X43218336Y19872215D01*
X43352555Y20006433D01*
X43407067Y20034207D01*
X43467499Y20024636D01*
X43502209Y19995214D01*
X43549014Y19931795D01*
X43549015Y19931794D01*
X43549019Y19931789D01*
X43549022Y19931787D01*
X43549023Y19931786D01*
X43655253Y19853385D01*
X43655254Y19853385D01*
X43655255Y19853384D01*
X43779881Y19809775D01*
X43807171Y19807216D01*
X43809463Y19807001D01*
X43809468Y19807000D01*
X43809474Y19807000D01*
X44389992Y19807000D01*
X44389995Y19807001D01*
X44419579Y19809775D01*
X44544205Y19853384D01*
X44650441Y19931789D01*
X44728846Y20038025D01*
X44772455Y20162651D01*
X44775230Y20192244D01*
X44775230Y20563099D01*
X44794137Y20621290D01*
X44804226Y20633103D01*
X44826627Y20655504D01*
X44881144Y20683281D01*
X44896631Y20684500D01*
X45313542Y20684500D01*
X45371733Y20665593D01*
X45383539Y20655510D01*
X45393247Y20645802D01*
X45453713Y20616242D01*
X45505244Y20591050D01*
X45504462Y20589451D01*
X45546685Y20559705D01*
X45566438Y20501796D01*
X45548381Y20443336D01*
X45500147Y20406909D01*
X45387084Y20367347D01*
X45277939Y20286793D01*
X45277937Y20286791D01*
X45197384Y20177648D01*
X45152580Y20049602D01*
X45149730Y20019212D01*
X45149730Y19965001D01*
X45149731Y19965000D01*
X46325730Y19965000D01*
X46383921Y19946093D01*
X46419885Y19896593D01*
X46424730Y19866000D01*
X46424730Y19215002D01*
X46424731Y19215001D01*
X47003933Y19215001D01*
X47034330Y19217851D01*
X47034336Y19217852D01*
X47117532Y19246963D01*
X47178702Y19248336D01*
X47228997Y19213492D01*
X47249205Y19155741D01*
X47249230Y19153519D01*
X47249230Y18706901D01*
X47230323Y18648710D01*
X47220234Y18636897D01*
X46344733Y17761397D01*
X46290216Y17733620D01*
X46229784Y17743191D01*
X46204728Y17761395D01*
X45925643Y18040480D01*
X45925640Y18040482D01*
X45925638Y18040484D01*
X45834321Y18093206D01*
X45834323Y18093206D01*
X45794800Y18103796D01*
X45732457Y18120500D01*
X45732455Y18120500D01*
X45173779Y18120500D01*
X45115588Y18139407D01*
X45094124Y18160712D01*
X45012944Y18270707D01*
X45012943Y18270708D01*
X45012941Y18270711D01*
X44978627Y18296036D01*
X44906706Y18349116D01*
X44782082Y18392724D01*
X44782081Y18392725D01*
X44782079Y18392725D01*
X44782077Y18392726D01*
X44782074Y18392726D01*
X44752496Y18395500D01*
X44752486Y18395500D01*
X44046974Y18395500D01*
X44046963Y18395500D01*
X44017385Y18392726D01*
X44017377Y18392724D01*
X43892753Y18349116D01*
X43786523Y18270715D01*
X43786515Y18270707D01*
X43708114Y18164477D01*
X43684488Y18096958D01*
X43647422Y18048277D01*
X43588822Y18030681D01*
X43531070Y18050890D01*
X43498947Y18093337D01*
X43447653Y18223409D01*
X43447650Y18223413D01*
X43358375Y18341140D01*
X43358369Y18341146D01*
X43240642Y18430421D01*
X43240638Y18430424D01*
X43103188Y18484627D01*
X43016812Y18495000D01*
X42824731Y18495000D01*
X42824730Y18494999D01*
X42824730Y16945001D01*
X42824731Y16945000D01*
X43016806Y16945000D01*
X43016812Y16945001D01*
X43103188Y16955374D01*
X43240638Y17009577D01*
X43240642Y17009580D01*
X43358369Y17098855D01*
X43358375Y17098861D01*
X43447650Y17216587D01*
X43498946Y17346664D01*
X43537883Y17393861D01*
X43597125Y17409158D01*
X43654045Y17386712D01*
X43684488Y17343043D01*
X43708114Y17275524D01*
X43785497Y17170674D01*
X43786519Y17169289D01*
X43786522Y17169287D01*
X43786523Y17169286D01*
X43892751Y17090886D01*
X43892753Y17090886D01*
X43892755Y17090884D01*
X43959800Y17067424D01*
X44008478Y17030360D01*
X44026075Y16971760D01*
X44005867Y16914008D01*
X43963420Y16881884D01*
X43896319Y16855423D01*
X43896317Y16855421D01*
X43778590Y16766146D01*
X43778584Y16766140D01*
X43689309Y16648413D01*
X43689306Y16648409D01*
X43635103Y16510959D01*
X43624730Y16424583D01*
X43624730Y16282501D01*
X43624731Y16282500D01*
X44450730Y16282500D01*
X44508921Y16263593D01*
X44544885Y16214093D01*
X44549730Y16183500D01*
X44549730Y15345001D01*
X44549731Y15345000D01*
X44679306Y15345000D01*
X44679312Y15345001D01*
X44765688Y15355374D01*
X44903138Y15409577D01*
X44903142Y15409580D01*
X45020869Y15498855D01*
X45020877Y15498863D01*
X45029021Y15509602D01*
X45079246Y15544546D01*
X45140419Y15543294D01*
X45189173Y15506325D01*
X45195434Y15496043D01*
X45197382Y15492357D01*
X45277937Y15383210D01*
X45277939Y15383208D01*
X45387082Y15302655D01*
X45500146Y15263093D01*
X45548827Y15226027D01*
X45566424Y15167427D01*
X45546216Y15109675D01*
X45504480Y15080512D01*
X45505244Y15078950D01*
X45393248Y15024199D01*
X45310531Y14941482D01*
X45259157Y14836396D01*
X45252795Y14792726D01*
X45225695Y14737869D01*
X45171527Y14709418D01*
X45154829Y14708000D01*
X45118347Y14708000D01*
X45060156Y14726907D01*
X45030818Y14760744D01*
X45028845Y14764477D01*
X44950444Y14870707D01*
X44950443Y14870708D01*
X44950441Y14870711D01*
X44942122Y14876851D01*
X44844206Y14949116D01*
X44719582Y14992724D01*
X44719581Y14992725D01*
X44719579Y14992725D01*
X44719577Y14992726D01*
X44719574Y14992726D01*
X44689996Y14995500D01*
X44689986Y14995500D01*
X44109474Y14995500D01*
X44109463Y14995500D01*
X44079885Y14992726D01*
X44079877Y14992724D01*
X43955253Y14949116D01*
X43849023Y14870715D01*
X43849015Y14870707D01*
X43770614Y14764477D01*
X43768642Y14760744D01*
X43724737Y14718130D01*
X43681113Y14708000D01*
X43269131Y14708000D01*
X43210940Y14726907D01*
X43199127Y14736996D01*
X43168474Y14767649D01*
X43140697Y14822166D01*
X43140509Y14823406D01*
X43134895Y14862457D01*
X43131127Y14870707D01*
X43075108Y14993371D01*
X43075107Y14993372D01*
X43075107Y14993373D01*
X42980858Y15102143D01*
X42980857Y15102144D01*
X42980856Y15102145D01*
X42859787Y15179951D01*
X42859784Y15179953D01*
X42859783Y15179953D01*
X42859780Y15179954D01*
X42721694Y15220500D01*
X42721691Y15220500D01*
X42577769Y15220500D01*
X42577765Y15220500D01*
X42439679Y15179954D01*
X42439672Y15179951D01*
X42318603Y15102145D01*
X42224352Y14993372D01*
X42164564Y14862457D01*
X42144083Y14720003D01*
X42144083Y14719998D01*
X42164564Y14577544D01*
X42213613Y14470144D01*
X42224353Y14446627D01*
X42308446Y14349578D01*
X42318603Y14337856D01*
X42433633Y14263931D01*
X42439677Y14260047D01*
X42546140Y14228787D01*
X42562113Y14224097D01*
X42604225Y14199111D01*
X42816316Y13987021D01*
X42816321Y13987017D01*
X42907638Y13934295D01*
X42907636Y13934295D01*
X42907640Y13934294D01*
X42907642Y13934293D01*
X43009503Y13907000D01*
X43681113Y13907000D01*
X43739304Y13888093D01*
X43768642Y13854256D01*
X43770614Y13850524D01*
X43839148Y13757664D01*
X43849019Y13744289D01*
X43849022Y13744287D01*
X43849023Y13744286D01*
X43955253Y13665885D01*
X43955254Y13665885D01*
X43955255Y13665884D01*
X44079881Y13622275D01*
X44107171Y13619716D01*
X44109463Y13619501D01*
X44109468Y13619500D01*
X44109474Y13619500D01*
X44689992Y13619500D01*
X44689995Y13619501D01*
X44719579Y13622275D01*
X44844205Y13665884D01*
X44950441Y13744289D01*
X45028846Y13850525D01*
X45028846Y13850528D01*
X45030818Y13854256D01*
X45074723Y13896870D01*
X45118347Y13907000D01*
X45170547Y13907000D01*
X45228738Y13888093D01*
X45264702Y13838593D01*
X45264702Y13777407D01*
X45250202Y13749211D01*
X45197384Y13677648D01*
X45152580Y13549602D01*
X45149730Y13519212D01*
X45149730Y13465001D01*
X45149731Y13465000D01*
X46325730Y13465000D01*
X46383921Y13446093D01*
X46419885Y13396593D01*
X46424730Y13366000D01*
X46424730Y12715002D01*
X46424731Y12715001D01*
X47003933Y12715001D01*
X47034330Y12717851D01*
X47034336Y12717852D01*
X47117532Y12746963D01*
X47178702Y12748336D01*
X47228997Y12713492D01*
X47249205Y12655741D01*
X47249230Y12653519D01*
X47249230Y11129500D01*
X47230323Y11071309D01*
X47180823Y11035345D01*
X47150230Y11030500D01*
X46941470Y11030500D01*
X46907403Y11025537D01*
X46873334Y11020573D01*
X46768248Y10969199D01*
X46768247Y10969199D01*
X46768247Y10969198D01*
X46758543Y10959495D01*
X46704029Y10931719D01*
X46688542Y10930500D01*
X46528898Y10930500D01*
X46470707Y10949407D01*
X46449245Y10970709D01*
X46375441Y11070711D01*
X46364920Y11078476D01*
X46269206Y11149116D01*
X46144582Y11192724D01*
X46144581Y11192725D01*
X46144579Y11192725D01*
X46144577Y11192726D01*
X46144574Y11192726D01*
X46114996Y11195500D01*
X46114986Y11195500D01*
X45409474Y11195500D01*
X45409463Y11195500D01*
X45379885Y11192726D01*
X45379877Y11192724D01*
X45255253Y11149116D01*
X45149023Y11070715D01*
X45149015Y11070707D01*
X45070614Y10964477D01*
X45046988Y10896958D01*
X45009922Y10848277D01*
X44951322Y10830681D01*
X44893570Y10850890D01*
X44861447Y10893337D01*
X44810153Y11023409D01*
X44810150Y11023413D01*
X44720875Y11141140D01*
X44720869Y11141146D01*
X44603142Y11230421D01*
X44603138Y11230424D01*
X44465688Y11284627D01*
X44379312Y11295000D01*
X44187231Y11295000D01*
X44187230Y11294999D01*
X44187230Y9745001D01*
X44187231Y9745000D01*
X44379306Y9745000D01*
X44379312Y9745001D01*
X44465688Y9755374D01*
X44603138Y9809577D01*
X44603142Y9809580D01*
X44720869Y9898855D01*
X44720875Y9898861D01*
X44810150Y10016587D01*
X44861446Y10146664D01*
X44900383Y10193861D01*
X44959625Y10209158D01*
X45016545Y10186712D01*
X45046988Y10143043D01*
X45070614Y10075524D01*
X45149015Y9969294D01*
X45149019Y9969289D01*
X45149022Y9969287D01*
X45149023Y9969286D01*
X45261224Y9886478D01*
X45259241Y9883793D01*
X45291923Y9850112D01*
X45300584Y9789542D01*
X45271989Y9735450D01*
X45217060Y9708497D01*
X45203047Y9707500D01*
X45020147Y9707500D01*
X44933771Y9697127D01*
X44796321Y9642924D01*
X44796317Y9642921D01*
X44678590Y9553646D01*
X44678584Y9553640D01*
X44589309Y9435913D01*
X44589306Y9435909D01*
X44535103Y9298459D01*
X44524730Y9212083D01*
X44524730Y9070001D01*
X44524731Y9070000D01*
X46074729Y9070000D01*
X46074730Y9070001D01*
X46074730Y9212077D01*
X46074729Y9212083D01*
X46064356Y9298459D01*
X46010153Y9435909D01*
X46010150Y9435913D01*
X45920875Y9553640D01*
X45920869Y9553646D01*
X45803143Y9642921D01*
X45776563Y9653402D01*
X45729366Y9692339D01*
X45714069Y9751581D01*
X45736515Y9808501D01*
X45788131Y9841356D01*
X45812882Y9844500D01*
X46114992Y9844500D01*
X46114995Y9844501D01*
X46144579Y9847275D01*
X46269205Y9890884D01*
X46375441Y9969289D01*
X46453846Y10075525D01*
X46453848Y10075533D01*
X46454497Y10076757D01*
X46455409Y10077643D01*
X46458252Y10081494D01*
X46458891Y10081023D01*
X46498403Y10119371D01*
X46542026Y10129500D01*
X46688542Y10129500D01*
X46746733Y10110593D01*
X46758539Y10100510D01*
X46768247Y10090802D01*
X46796977Y10076757D01*
X46880244Y10036050D01*
X46879462Y10034451D01*
X46921685Y10004705D01*
X46941438Y9946796D01*
X46923381Y9888336D01*
X46875147Y9851909D01*
X46762084Y9812347D01*
X46652939Y9731793D01*
X46652937Y9731791D01*
X46572384Y9622648D01*
X46527580Y9494602D01*
X46524730Y9464212D01*
X46524730Y9410001D01*
X46524731Y9410000D01*
X48774728Y9410000D01*
X48774729Y9410001D01*
X48774729Y9464204D01*
X48771879Y9494601D01*
X48771879Y9494603D01*
X48727075Y9622648D01*
X48646522Y9731791D01*
X48646520Y9731793D01*
X48537375Y9812347D01*
X48424312Y9851909D01*
X48375632Y9888974D01*
X48358035Y9947574D01*
X48378243Y10005326D01*
X48419981Y10034485D01*
X48419216Y10036050D01*
X48463182Y10057544D01*
X48531213Y10090802D01*
X48613928Y10173517D01*
X48665303Y10278607D01*
X48675230Y10346740D01*
X48675230Y10713260D01*
X48665303Y10781393D01*
X48663165Y10785766D01*
X48634110Y10845200D01*
X48613928Y10886483D01*
X48531213Y10969198D01*
X48521879Y10973761D01*
X48426125Y11020573D01*
X48398869Y11024544D01*
X48357990Y11030500D01*
X48357987Y11030500D01*
X48149230Y11030500D01*
X48091039Y11049407D01*
X48055075Y11098907D01*
X48050230Y11129500D01*
X48050230Y22772728D01*
X48049869Y22774075D01*
X48049869Y22774074D01*
X48049866Y22774087D01*
X48022937Y22874588D01*
X48022935Y22874591D01*
X48022935Y22874593D01*
X47970213Y22965909D01*
X47970212Y22965910D01*
X47970211Y22965911D01*
X47970210Y22965913D01*
X47329226Y23606897D01*
X47301449Y23661414D01*
X47300230Y23676901D01*
X47300230Y23808257D01*
X47299933Y23810298D01*
X47290303Y23876393D01*
X47256403Y23945736D01*
X47247832Y24006317D01*
X47275341Y24059220D01*
X48006627Y24790504D01*
X48061143Y24818281D01*
X48076630Y24819500D01*
X49100730Y24819500D01*
X49158921Y24800593D01*
X49194885Y24751093D01*
X49199730Y24720500D01*
X49199730Y3374697D01*
X49180823Y3316506D01*
X49131323Y3280542D01*
X49102598Y3275715D01*
X46199922Y3220948D01*
X46141385Y3238754D01*
X46119306Y3259932D01*
X42966669Y7397767D01*
X44624230Y7397767D01*
X44624230Y6792234D01*
X44627004Y6762656D01*
X44627006Y6762648D01*
X44670614Y6638024D01*
X44726971Y6561663D01*
X44749019Y6531789D01*
X44749022Y6531787D01*
X44749023Y6531786D01*
X44855253Y6453385D01*
X44855254Y6453385D01*
X44855255Y6453384D01*
X44979881Y6409775D01*
X45007171Y6407216D01*
X45009463Y6407001D01*
X45009468Y6407000D01*
X45009474Y6407000D01*
X45380329Y6407000D01*
X45438520Y6388093D01*
X45450333Y6378004D01*
X45470234Y6358103D01*
X45498011Y6303586D01*
X45499230Y6288099D01*
X45499230Y6159008D01*
X45480323Y6100817D01*
X45475051Y6094179D01*
X45474353Y6093374D01*
X45414564Y5962457D01*
X45394083Y5820003D01*
X45394083Y5819998D01*
X45414564Y5677544D01*
X45431602Y5640237D01*
X45474353Y5546627D01*
X45556190Y5452181D01*
X45568603Y5437856D01*
X45689672Y5360050D01*
X45689677Y5360047D01*
X45796133Y5328789D01*
X45827765Y5319501D01*
X45827766Y5319501D01*
X45827769Y5319500D01*
X45827771Y5319500D01*
X45971689Y5319500D01*
X45971691Y5319500D01*
X46109783Y5360047D01*
X46230858Y5437857D01*
X46325107Y5546627D01*
X46384895Y5677543D01*
X46405377Y5820000D01*
X46384895Y5962457D01*
X46325107Y6093373D01*
X46324409Y6094179D01*
X46324062Y6094999D01*
X46321279Y6099330D01*
X46322028Y6099812D01*
X46300593Y6150539D01*
X46300230Y6159008D01*
X46300230Y6547726D01*
X46300230Y6547727D01*
X46294262Y6569999D01*
X46524731Y6569999D01*
X46524731Y6515797D01*
X46527580Y6485400D01*
X46527580Y6485398D01*
X46572384Y6357353D01*
X46652937Y6248210D01*
X46652939Y6248208D01*
X46762082Y6167655D01*
X46890128Y6122851D01*
X46920519Y6120001D01*
X47499728Y6120001D01*
X47499730Y6120002D01*
X47499730Y6569999D01*
X47799730Y6569999D01*
X47799730Y6120002D01*
X47799731Y6120001D01*
X48378933Y6120001D01*
X48409330Y6122851D01*
X48409332Y6122851D01*
X48537377Y6167655D01*
X48646520Y6248208D01*
X48646522Y6248210D01*
X48727075Y6357353D01*
X48771879Y6485399D01*
X48774729Y6515789D01*
X48774730Y6515790D01*
X48774730Y6569999D01*
X48774729Y6570000D01*
X47799731Y6570000D01*
X47799730Y6569999D01*
X47499730Y6569999D01*
X47499729Y6570000D01*
X46524732Y6570000D01*
X46524731Y6569999D01*
X46294262Y6569999D01*
X46272937Y6649587D01*
X46272937Y6649588D01*
X46272937Y6649589D01*
X46220213Y6740909D01*
X46220209Y6740914D01*
X46004226Y6956898D01*
X45976449Y7011414D01*
X45975230Y7026901D01*
X45975230Y7163099D01*
X45994137Y7221290D01*
X46004226Y7233103D01*
X46331627Y7560504D01*
X46386144Y7588281D01*
X46401631Y7589500D01*
X46688542Y7589500D01*
X46746733Y7570593D01*
X46758539Y7560510D01*
X46768247Y7550802D01*
X46808655Y7531048D01*
X46880244Y7496050D01*
X46879462Y7494451D01*
X46921685Y7464705D01*
X46941438Y7406796D01*
X46923381Y7348336D01*
X46875147Y7311909D01*
X46762084Y7272347D01*
X46652939Y7191793D01*
X46652937Y7191791D01*
X46572384Y7082648D01*
X46527580Y6954602D01*
X46524730Y6924212D01*
X46524730Y6870001D01*
X46524731Y6870000D01*
X48774728Y6870000D01*
X48774729Y6870001D01*
X48774729Y6924204D01*
X48771879Y6954601D01*
X48771879Y6954603D01*
X48727075Y7082648D01*
X48646522Y7191791D01*
X48646520Y7191793D01*
X48537375Y7272347D01*
X48424312Y7311909D01*
X48375632Y7348974D01*
X48358035Y7407574D01*
X48378243Y7465326D01*
X48419981Y7494485D01*
X48419216Y7496050D01*
X48451604Y7511885D01*
X48531213Y7550802D01*
X48613928Y7633517D01*
X48622538Y7651131D01*
X48661978Y7693387D01*
X48689941Y7709531D01*
X48755198Y7774788D01*
X48801343Y7854712D01*
X48825229Y7943856D01*
X48825229Y8036144D01*
X48801343Y8125288D01*
X48755198Y8205212D01*
X48689941Y8270469D01*
X48689938Y8270471D01*
X48689937Y8270472D01*
X48661975Y8286617D01*
X48622539Y8328869D01*
X48613928Y8346483D01*
X48531213Y8429198D01*
X48458095Y8464943D01*
X48419216Y8483950D01*
X48419996Y8485548D01*
X48377767Y8515305D01*
X48358020Y8573216D01*
X48376084Y8631674D01*
X48424313Y8668093D01*
X48537377Y8707656D01*
X48646520Y8788208D01*
X48646522Y8788210D01*
X48727075Y8897353D01*
X48771879Y9025399D01*
X48774729Y9055789D01*
X48774730Y9055790D01*
X48774730Y9109999D01*
X48774729Y9110000D01*
X46524732Y9110000D01*
X46524731Y9109999D01*
X46524731Y9055797D01*
X46527580Y9025400D01*
X46527580Y9025398D01*
X46572384Y8897353D01*
X46652937Y8788210D01*
X46652939Y8788208D01*
X46762082Y8707655D01*
X46875146Y8668093D01*
X46923827Y8631027D01*
X46941424Y8572427D01*
X46921216Y8514675D01*
X46879480Y8485512D01*
X46880244Y8483950D01*
X46768248Y8429199D01*
X46768247Y8429199D01*
X46768247Y8429198D01*
X46758543Y8419495D01*
X46704029Y8391719D01*
X46688542Y8390500D01*
X46150254Y8390500D01*
X46092063Y8409407D01*
X46056099Y8458907D01*
X46056099Y8520093D01*
X46058156Y8525817D01*
X46064356Y8541542D01*
X46074729Y8627918D01*
X46074730Y8627924D01*
X46074730Y8769999D01*
X46074729Y8770000D01*
X45449731Y8770000D01*
X45449730Y8769999D01*
X45449730Y8132501D01*
X45449731Y8132500D01*
X45531829Y8132500D01*
X45590020Y8113593D01*
X45625984Y8064093D01*
X45625984Y8002907D01*
X45601833Y7963496D01*
X45450333Y7811996D01*
X45395816Y7784219D01*
X45380329Y7783000D01*
X45009463Y7783000D01*
X44979885Y7780226D01*
X44979877Y7780224D01*
X44855253Y7736616D01*
X44749023Y7658215D01*
X44749015Y7658207D01*
X44670614Y7551977D01*
X44627006Y7427353D01*
X44627004Y7427345D01*
X44624230Y7397767D01*
X42966669Y7397767D01*
X42158869Y8458005D01*
X42144577Y8484170D01*
X42133484Y8514675D01*
X42040639Y8769999D01*
X44524730Y8769999D01*
X44524730Y8627918D01*
X44535103Y8541542D01*
X44589306Y8404092D01*
X44589309Y8404088D01*
X44678584Y8286361D01*
X44678590Y8286355D01*
X44796317Y8197080D01*
X44796321Y8197077D01*
X44933771Y8142874D01*
X45020147Y8132501D01*
X45020154Y8132500D01*
X45149729Y8132500D01*
X45149730Y8132501D01*
X45149730Y8769999D01*
X45149729Y8770000D01*
X44524731Y8770000D01*
X44524730Y8769999D01*
X42040639Y8769999D01*
X41458821Y10369999D01*
X43199730Y10369999D01*
X43199730Y10240418D01*
X43210103Y10154042D01*
X43264306Y10016592D01*
X43264309Y10016588D01*
X43353584Y9898861D01*
X43353590Y9898855D01*
X43471317Y9809580D01*
X43471321Y9809577D01*
X43608771Y9755374D01*
X43695147Y9745001D01*
X43695154Y9745000D01*
X43887229Y9745000D01*
X43887230Y9745001D01*
X43887230Y10369999D01*
X43887229Y10370000D01*
X43199731Y10370000D01*
X43199730Y10369999D01*
X41458821Y10369999D01*
X41302609Y10799583D01*
X43199730Y10799583D01*
X43199730Y10670001D01*
X43199731Y10670000D01*
X43887229Y10670000D01*
X43887230Y10670001D01*
X43887230Y11294999D01*
X43887229Y11295000D01*
X43695147Y11295000D01*
X43608771Y11284627D01*
X43471321Y11230424D01*
X43471317Y11230421D01*
X43353590Y11141146D01*
X43353584Y11141140D01*
X43264309Y11023413D01*
X43264306Y11023409D01*
X43210103Y10885959D01*
X43199730Y10799583D01*
X41302609Y10799583D01*
X41155690Y11203610D01*
X41149730Y11237443D01*
X41149730Y13164999D01*
X45149731Y13164999D01*
X45149731Y13110797D01*
X45152580Y13080400D01*
X45152580Y13080398D01*
X45197384Y12952353D01*
X45277937Y12843210D01*
X45277939Y12843208D01*
X45387082Y12762655D01*
X45515128Y12717851D01*
X45545519Y12715001D01*
X46124728Y12715001D01*
X46124730Y12715002D01*
X46124730Y13164999D01*
X46124729Y13165000D01*
X45149732Y13165000D01*
X45149731Y13164999D01*
X41149730Y13164999D01*
X41149730Y15982499D01*
X43624730Y15982499D01*
X43624730Y15840418D01*
X43635103Y15754042D01*
X43689306Y15616592D01*
X43689309Y15616588D01*
X43778584Y15498861D01*
X43778590Y15498855D01*
X43896317Y15409580D01*
X43896321Y15409577D01*
X44033771Y15355374D01*
X44120147Y15345001D01*
X44120154Y15345000D01*
X44249729Y15345000D01*
X44249730Y15345001D01*
X44249730Y15982499D01*
X44249729Y15982500D01*
X43624731Y15982500D01*
X43624730Y15982499D01*
X41149730Y15982499D01*
X41149730Y17569999D01*
X41837230Y17569999D01*
X41837230Y17440418D01*
X41847603Y17354042D01*
X41901806Y17216592D01*
X41901809Y17216588D01*
X41991084Y17098861D01*
X41991090Y17098855D01*
X42108817Y17009580D01*
X42108821Y17009577D01*
X42246271Y16955374D01*
X42332647Y16945001D01*
X42332654Y16945000D01*
X42524729Y16945000D01*
X42524730Y16945001D01*
X42524730Y17569999D01*
X42524729Y17570000D01*
X41837231Y17570000D01*
X41837230Y17569999D01*
X41149730Y17569999D01*
X41149730Y17999583D01*
X41837230Y17999583D01*
X41837230Y17870001D01*
X41837231Y17870000D01*
X42524729Y17870000D01*
X42524730Y17870001D01*
X42524730Y18494999D01*
X42524729Y18495000D01*
X42332647Y18495000D01*
X42246271Y18484627D01*
X42108821Y18430424D01*
X42108817Y18430421D01*
X41991090Y18341146D01*
X41991084Y18341140D01*
X41901809Y18223413D01*
X41901806Y18223409D01*
X41847603Y18085959D01*
X41837230Y17999583D01*
X41149730Y17999583D01*
X41149730Y19702557D01*
X41155690Y19736390D01*
X41213946Y19896593D01*
X42040638Y22169999D01*
X43324730Y22169999D01*
X43324730Y22027918D01*
X43335103Y21941542D01*
X43389306Y21804092D01*
X43389309Y21804088D01*
X43478584Y21686361D01*
X43478590Y21686355D01*
X43596317Y21597080D01*
X43596321Y21597077D01*
X43733771Y21542874D01*
X43820147Y21532501D01*
X43820154Y21532500D01*
X43949729Y21532500D01*
X43949730Y21532501D01*
X43949730Y22169999D01*
X43949729Y22170000D01*
X43324731Y22170000D01*
X43324730Y22169999D01*
X42040638Y22169999D01*
X42141791Y22448170D01*
X42166552Y22486021D01*
X42298917Y22612083D01*
X43324730Y22612083D01*
X43324730Y22470001D01*
X43324731Y22470000D01*
X43949729Y22470000D01*
X43949730Y22470001D01*
X43949730Y23107499D01*
X44249730Y23107499D01*
X44249730Y22470001D01*
X44249731Y22470000D01*
X44874729Y22470000D01*
X44874730Y22470001D01*
X44874730Y22612077D01*
X44874729Y22612083D01*
X44864356Y22698459D01*
X44810153Y22835909D01*
X44810150Y22835913D01*
X44720875Y22953640D01*
X44720869Y22953646D01*
X44603142Y23042921D01*
X44603138Y23042924D01*
X44465688Y23097127D01*
X44379312Y23107500D01*
X44249731Y23107500D01*
X44249730Y23107499D01*
X43949730Y23107499D01*
X43949729Y23107500D01*
X43820147Y23107500D01*
X43733771Y23097127D01*
X43596321Y23042924D01*
X43596317Y23042921D01*
X43478590Y22953646D01*
X43478584Y22953640D01*
X43389309Y22835913D01*
X43389306Y22835909D01*
X43335103Y22698459D01*
X43324730Y22612083D01*
X42298917Y22612083D01*
X46380792Y26499583D01*
X47087230Y26499583D01*
X47087230Y26370001D01*
X47087231Y26370000D01*
X47774729Y26370000D01*
X47774730Y26370001D01*
X47774730Y26994999D01*
X47774729Y26995000D01*
X47582647Y26995000D01*
X47496271Y26984627D01*
X47358821Y26930424D01*
X47358817Y26930421D01*
X47241090Y26841146D01*
X47241084Y26841140D01*
X47151809Y26723413D01*
X47151806Y26723409D01*
X47097603Y26585959D01*
X47087230Y26499583D01*
X46380792Y26499583D01*
X47372529Y27444095D01*
X47427706Y27470534D01*
X47437264Y27471341D01*
X49097198Y27530625D01*
X49156025Y27513807D01*
G37*
%TD.AperFunction*%
%TD*%
M02*
