%TF.GenerationSoftware,KiCad,Pcbnew,8.0.4*%
%TF.CreationDate,2024-11-05T13:43:53+01:00*%
%TF.ProjectId,Nutzen,4e75747a-656e-42e6-9b69-6361645f7063,rev?*%
%TF.SameCoordinates,PX791ddc0PY78a3ca0*%
%TF.FileFunction,Soldermask,Top*%
%TF.FilePolarity,Negative*%
%FSLAX46Y46*%
G04 Gerber Fmt 4.6, Leading zero omitted, Abs format (unit mm)*
G04 Created by KiCad (PCBNEW 8.0.4) date 2024-11-05 13:43:53*
%MOMM*%
%LPD*%
G01*
G04 APERTURE LIST*
G04 Aperture macros list*
%AMRoundRect*
0 Rectangle with rounded corners*
0 $1 Rounding radius*
0 $2 $3 $4 $5 $6 $7 $8 $9 X,Y pos of 4 corners*
0 Add a 4 corners polygon primitive as box body*
4,1,4,$2,$3,$4,$5,$6,$7,$8,$9,$2,$3,0*
0 Add four circle primitives for the rounded corners*
1,1,$1+$1,$2,$3*
1,1,$1+$1,$4,$5*
1,1,$1+$1,$6,$7*
1,1,$1+$1,$8,$9*
0 Add four rect primitives between the rounded corners*
20,1,$1+$1,$2,$3,$4,$5,0*
20,1,$1+$1,$4,$5,$6,$7,0*
20,1,$1+$1,$6,$7,$8,$9,0*
20,1,$1+$1,$8,$9,$2,$3,0*%
G04 Aperture macros list end*
%ADD10RoundRect,0.250000X0.725000X-0.600000X0.725000X0.600000X-0.725000X0.600000X-0.725000X-0.600000X0*%
%ADD11O,1.950000X1.700000*%
%ADD12RoundRect,0.237500X0.237500X-0.300000X0.237500X0.300000X-0.237500X0.300000X-0.237500X-0.300000X0*%
%ADD13RoundRect,0.237500X-0.250000X-0.237500X0.250000X-0.237500X0.250000X0.237500X-0.250000X0.237500X0*%
%ADD14RoundRect,0.237500X0.250000X0.237500X-0.250000X0.237500X-0.250000X-0.237500X0.250000X-0.237500X0*%
%ADD15RoundRect,0.237500X-0.300000X-0.237500X0.300000X-0.237500X0.300000X0.237500X-0.300000X0.237500X0*%
%ADD16C,2.100000*%
%ADD17RoundRect,0.237500X-0.237500X0.250000X-0.237500X-0.250000X0.237500X-0.250000X0.237500X0.250000X0*%
%ADD18RoundRect,0.237500X-0.237500X0.300000X-0.237500X-0.300000X0.237500X-0.300000X0.237500X0.300000X0*%
%ADD19RoundRect,0.237500X0.300000X0.237500X-0.300000X0.237500X-0.300000X-0.237500X0.300000X-0.237500X0*%
%ADD20RoundRect,0.150000X0.150000X-0.825000X0.150000X0.825000X-0.150000X0.825000X-0.150000X-0.825000X0*%
%ADD21RoundRect,0.150000X-0.700000X0.150000X-0.700000X-0.150000X0.700000X-0.150000X0.700000X0.150000X0*%
%ADD22RoundRect,0.250000X-1.150000X0.250000X-1.150000X-0.250000X1.150000X-0.250000X1.150000X0.250000X0*%
%ADD23RoundRect,0.150000X-0.675000X-0.150000X0.675000X-0.150000X0.675000X0.150000X-0.675000X0.150000X0*%
%ADD24R,1.000000X1.000000*%
%ADD25O,1.000000X1.000000*%
%ADD26C,3.000000*%
%ADD27RoundRect,0.237500X0.237500X-0.250000X0.237500X0.250000X-0.237500X0.250000X-0.237500X-0.250000X0*%
G04 APERTURE END LIST*
D10*
%TO.C,J1*%
X5520000Y12270000D03*
D11*
X5520000Y14770000D03*
X5520000Y17270000D03*
X5520000Y19770000D03*
X5520000Y22270000D03*
X5520000Y24770000D03*
%TD*%
D12*
%TO.C,C1*%
X17050000Y6225000D03*
X17050000Y7950000D03*
%TD*%
D13*
%TO.C,R5*%
X16875000Y2100000D03*
X18700000Y2100000D03*
%TD*%
D14*
%TO.C,R3*%
X18712500Y3775000D03*
X16887500Y3775000D03*
%TD*%
D15*
%TO.C,C5*%
X18937500Y24895000D03*
X20662500Y24895000D03*
%TD*%
D16*
%TO.C,M2*%
X33300000Y30000000D03*
%TD*%
D13*
%TO.C,R13*%
X13945000Y22420000D03*
X15770000Y22420000D03*
%TD*%
%TO.C,R10*%
X22472500Y9815000D03*
X24297500Y9815000D03*
%TD*%
D17*
%TO.C,R11*%
X24110000Y8190000D03*
X24110000Y6365000D03*
%TD*%
D14*
%TO.C,R7*%
X17025000Y11450000D03*
X15200000Y11450000D03*
%TD*%
D16*
%TO.C,M4*%
X33300000Y2500000D03*
%TD*%
D17*
%TO.C,R9*%
X25730000Y8192500D03*
X25730000Y6367500D03*
%TD*%
%TO.C,R1*%
X18650000Y7975000D03*
X18650000Y6150000D03*
%TD*%
D13*
%TO.C,R12*%
X22440000Y11465000D03*
X24265000Y11465000D03*
%TD*%
D18*
%TO.C,C9*%
X14300000Y19462500D03*
X14300000Y17737500D03*
%TD*%
D13*
%TO.C,R16*%
X22367500Y26630000D03*
X24192500Y26630000D03*
%TD*%
D16*
%TO.C,M1*%
X2400000Y30100000D03*
%TD*%
D14*
%TO.C,R17*%
X20725000Y23270000D03*
X18900000Y23270000D03*
%TD*%
%TO.C,R14*%
X15752500Y24100000D03*
X13927500Y24100000D03*
%TD*%
%TO.C,R15*%
X20762500Y28180000D03*
X18937500Y28180000D03*
%TD*%
D17*
%TO.C,R2*%
X14270000Y7060000D03*
X14270000Y5235000D03*
%TD*%
D14*
%TO.C,R4*%
X17050000Y9675000D03*
X15225000Y9675000D03*
%TD*%
D19*
%TO.C,C6*%
X24130000Y24895000D03*
X22405000Y24895000D03*
%TD*%
D13*
%TO.C,R18*%
X22380000Y23270000D03*
X24205000Y23270000D03*
%TD*%
D12*
%TO.C,C2*%
X22485000Y6415000D03*
X22485000Y8140000D03*
%TD*%
D16*
%TO.C,M3*%
X2450000Y2510000D03*
%TD*%
D15*
%TO.C,C4*%
X15250000Y13075000D03*
X16975000Y13075000D03*
%TD*%
D20*
%TO.C,U2*%
X16105000Y15200000D03*
X17375000Y15200000D03*
X18645000Y15200000D03*
X19915000Y15200000D03*
X21185000Y15200000D03*
X22455000Y15200000D03*
X23725000Y15200000D03*
X23725000Y20150000D03*
X22455000Y20150000D03*
X21185000Y20150000D03*
X19915000Y20150000D03*
X18645000Y20150000D03*
X17375000Y20150000D03*
X16105000Y20150000D03*
%TD*%
D13*
%TO.C,R6*%
X22565000Y3950000D03*
X24390000Y3950000D03*
%TD*%
D19*
%TO.C,C3*%
X24210000Y13090000D03*
X22485000Y13090000D03*
%TD*%
D14*
%TO.C,R8*%
X24397500Y2380000D03*
X22572500Y2380000D03*
%TD*%
D21*
%TO.C,J2*%
X30460000Y19770000D03*
X30460000Y18520000D03*
X30460000Y17270000D03*
X30460000Y16020000D03*
X30460000Y14770000D03*
X30460000Y13520000D03*
X30460000Y12270000D03*
D22*
X33810000Y21620000D03*
X33810000Y10420000D03*
%TD*%
D17*
%TO.C,R3*%
X45299730Y8920000D03*
X45299730Y7095000D03*
%TD*%
D18*
%TO.C,C8*%
X55299730Y15682500D03*
X55299730Y13957500D03*
%TD*%
%TO.C,C9*%
X56549730Y8670000D03*
X56549730Y6945000D03*
%TD*%
D12*
%TO.C,C7*%
X55099730Y19257500D03*
X55099730Y20982500D03*
%TD*%
D17*
%TO.C,R2*%
X44399730Y16132500D03*
X44399730Y14307500D03*
%TD*%
D23*
%TO.C,U3*%
X47649730Y10530000D03*
X47649730Y9260000D03*
X47649730Y7990000D03*
X47649730Y6720000D03*
X52899730Y6720000D03*
X52899730Y7990000D03*
X52899730Y9260000D03*
X52899730Y10530000D03*
%TD*%
D21*
%TO.C,J1*%
X60449730Y19770000D03*
X60449730Y18520000D03*
X60449730Y17270000D03*
X60449730Y16020000D03*
X60449730Y14770000D03*
X60449730Y13520000D03*
X60449730Y12270000D03*
D22*
X63799730Y21620000D03*
X63799730Y10420000D03*
%TD*%
D15*
%TO.C,C3*%
X47924730Y26220000D03*
X49649730Y26220000D03*
%TD*%
D23*
%TO.C,U2*%
X46274730Y17125000D03*
X46274730Y15855000D03*
X46274730Y14585000D03*
X46274730Y13315000D03*
X51524730Y13315000D03*
X51524730Y14585000D03*
X51524730Y15855000D03*
X51524730Y17125000D03*
%TD*%
D24*
%TO.C,J3*%
X52559730Y950000D03*
D25*
X53829730Y950000D03*
X55099730Y950000D03*
X56369730Y950000D03*
%TD*%
D19*
%TO.C,C6*%
X56562230Y10570000D03*
X54837230Y10570000D03*
%TD*%
D26*
%TO.C,REF\u002A\u002A*%
X54129730Y30460000D03*
%TD*%
D19*
%TO.C,C5*%
X55349730Y17420000D03*
X53624730Y17420000D03*
%TD*%
D23*
%TO.C,U1*%
X46274730Y23625000D03*
X46274730Y22355000D03*
X46274730Y21085000D03*
X46274730Y19815000D03*
X51524730Y19815000D03*
X51524730Y21085000D03*
X51524730Y22355000D03*
X51524730Y23625000D03*
%TD*%
D27*
%TO.C,R6*%
X54949730Y6870000D03*
X54949730Y8695000D03*
%TD*%
D17*
%TO.C,R4*%
X53499730Y21032500D03*
X53499730Y19207500D03*
%TD*%
D27*
%TO.C,R5*%
X53699730Y13895000D03*
X53699730Y15720000D03*
%TD*%
D19*
%TO.C,C4*%
X55562230Y23020000D03*
X53837230Y23020000D03*
%TD*%
D17*
%TO.C,R1*%
X44099730Y22320000D03*
X44099730Y20495000D03*
%TD*%
D15*
%TO.C,C2*%
X42674730Y17720000D03*
X44399730Y17720000D03*
%TD*%
%TO.C,C1*%
X44037230Y10520000D03*
X45762230Y10520000D03*
%TD*%
M02*
