%TF.GenerationSoftware,KiCad,Pcbnew,8.0.4*%
%TF.CreationDate,2024-11-05T13:43:52+01:00*%
%TF.ProjectId,Nutzen,4e75747a-656e-42e6-9b69-6361645f7063,rev?*%
%TF.SameCoordinates,PX791ddc0PY78a3ca0*%
%TF.FileFunction,Legend,Top*%
%TF.FilePolarity,Positive*%
%FSLAX46Y46*%
G04 Gerber Fmt 4.6, Leading zero omitted, Abs format (unit mm)*
G04 Created by KiCad (PCBNEW 8.0.4) date 2024-11-05 13:43:52*
%MOMM*%
%LPD*%
G01*
G04 APERTURE LIST*
%ADD10C,0.150000*%
%ADD11C,0.175000*%
%ADD12C,0.200000*%
%ADD13C,0.120000*%
G04 APERTURE END LIST*
D10*
X28298684Y30255233D02*
X28432017Y30255233D01*
X28432017Y30255233D02*
X28498684Y30221900D01*
X28498684Y30221900D02*
X28565350Y30155233D01*
X28565350Y30155233D02*
X28598684Y30021900D01*
X28598684Y30021900D02*
X28598684Y29788566D01*
X28598684Y29788566D02*
X28565350Y29655233D01*
X28565350Y29655233D02*
X28498684Y29588566D01*
X28498684Y29588566D02*
X28432017Y29555233D01*
X28432017Y29555233D02*
X28298684Y29555233D01*
X28298684Y29555233D02*
X28232017Y29588566D01*
X28232017Y29588566D02*
X28165350Y29655233D01*
X28165350Y29655233D02*
X28132017Y29788566D01*
X28132017Y29788566D02*
X28132017Y30021900D01*
X28132017Y30021900D02*
X28165350Y30155233D01*
X28165350Y30155233D02*
X28232017Y30221900D01*
X28232017Y30221900D02*
X28298684Y30255233D01*
X29798683Y30221900D02*
X29732016Y30255233D01*
X29732016Y30255233D02*
X29632016Y30255233D01*
X29632016Y30255233D02*
X29532016Y30221900D01*
X29532016Y30221900D02*
X29465350Y30155233D01*
X29465350Y30155233D02*
X29432016Y30088566D01*
X29432016Y30088566D02*
X29398683Y29955233D01*
X29398683Y29955233D02*
X29398683Y29855233D01*
X29398683Y29855233D02*
X29432016Y29721900D01*
X29432016Y29721900D02*
X29465350Y29655233D01*
X29465350Y29655233D02*
X29532016Y29588566D01*
X29532016Y29588566D02*
X29632016Y29555233D01*
X29632016Y29555233D02*
X29698683Y29555233D01*
X29698683Y29555233D02*
X29798683Y29588566D01*
X29798683Y29588566D02*
X29832016Y29621900D01*
X29832016Y29621900D02*
X29832016Y29855233D01*
X29832016Y29855233D02*
X29698683Y29855233D01*
X30132016Y29555233D02*
X30132016Y30255233D01*
X30132016Y30255233D02*
X30298683Y30255233D01*
X30298683Y30255233D02*
X30398683Y30221900D01*
X30398683Y30221900D02*
X30465350Y30155233D01*
X30465350Y30155233D02*
X30498683Y30088566D01*
X30498683Y30088566D02*
X30532016Y29955233D01*
X30532016Y29955233D02*
X30532016Y29855233D01*
X30532016Y29855233D02*
X30498683Y29721900D01*
X30498683Y29721900D02*
X30465350Y29655233D01*
X30465350Y29655233D02*
X30398683Y29588566D01*
X30398683Y29588566D02*
X30298683Y29555233D01*
X30298683Y29555233D02*
X30132016Y29555233D01*
X28298684Y29128272D02*
X28432017Y29128272D01*
X28432017Y29128272D02*
X28498684Y29094939D01*
X28498684Y29094939D02*
X28565350Y29028272D01*
X28565350Y29028272D02*
X28598684Y28894939D01*
X28598684Y28894939D02*
X28598684Y28661605D01*
X28598684Y28661605D02*
X28565350Y28528272D01*
X28565350Y28528272D02*
X28498684Y28461605D01*
X28498684Y28461605D02*
X28432017Y28428272D01*
X28432017Y28428272D02*
X28298684Y28428272D01*
X28298684Y28428272D02*
X28232017Y28461605D01*
X28232017Y28461605D02*
X28165350Y28528272D01*
X28165350Y28528272D02*
X28132017Y28661605D01*
X28132017Y28661605D02*
X28132017Y28894939D01*
X28132017Y28894939D02*
X28165350Y29028272D01*
X28165350Y29028272D02*
X28232017Y29094939D01*
X28232017Y29094939D02*
X28298684Y29128272D01*
X29798683Y29094939D02*
X29732016Y29128272D01*
X29732016Y29128272D02*
X29632016Y29128272D01*
X29632016Y29128272D02*
X29532016Y29094939D01*
X29532016Y29094939D02*
X29465350Y29028272D01*
X29465350Y29028272D02*
X29432016Y28961605D01*
X29432016Y28961605D02*
X29398683Y28828272D01*
X29398683Y28828272D02*
X29398683Y28728272D01*
X29398683Y28728272D02*
X29432016Y28594939D01*
X29432016Y28594939D02*
X29465350Y28528272D01*
X29465350Y28528272D02*
X29532016Y28461605D01*
X29532016Y28461605D02*
X29632016Y28428272D01*
X29632016Y28428272D02*
X29698683Y28428272D01*
X29698683Y28428272D02*
X29798683Y28461605D01*
X29798683Y28461605D02*
X29832016Y28494939D01*
X29832016Y28494939D02*
X29832016Y28728272D01*
X29832016Y28728272D02*
X29698683Y28728272D01*
X30098683Y28628272D02*
X30432016Y28628272D01*
X30032016Y28428272D02*
X30265350Y29128272D01*
X30265350Y29128272D02*
X30498683Y28428272D01*
X28298684Y28001311D02*
X28432017Y28001311D01*
X28432017Y28001311D02*
X28498684Y27967978D01*
X28498684Y27967978D02*
X28565350Y27901311D01*
X28565350Y27901311D02*
X28598684Y27767978D01*
X28598684Y27767978D02*
X28598684Y27534644D01*
X28598684Y27534644D02*
X28565350Y27401311D01*
X28565350Y27401311D02*
X28498684Y27334644D01*
X28498684Y27334644D02*
X28432017Y27301311D01*
X28432017Y27301311D02*
X28298684Y27301311D01*
X28298684Y27301311D02*
X28232017Y27334644D01*
X28232017Y27334644D02*
X28165350Y27401311D01*
X28165350Y27401311D02*
X28132017Y27534644D01*
X28132017Y27534644D02*
X28132017Y27767978D01*
X28132017Y27767978D02*
X28165350Y27901311D01*
X28165350Y27901311D02*
X28232017Y27967978D01*
X28232017Y27967978D02*
X28298684Y28001311D01*
X29332016Y28001311D02*
X29565350Y27301311D01*
X29565350Y27301311D02*
X29798683Y28001311D01*
X30032016Y27301311D02*
X30032016Y28001311D01*
X30032016Y28001311D02*
X30198683Y28001311D01*
X30198683Y28001311D02*
X30298683Y27967978D01*
X30298683Y27967978D02*
X30365350Y27901311D01*
X30365350Y27901311D02*
X30398683Y27834644D01*
X30398683Y27834644D02*
X30432016Y27701311D01*
X30432016Y27701311D02*
X30432016Y27601311D01*
X30432016Y27601311D02*
X30398683Y27467978D01*
X30398683Y27467978D02*
X30365350Y27401311D01*
X30365350Y27401311D02*
X30298683Y27334644D01*
X30298683Y27334644D02*
X30198683Y27301311D01*
X30198683Y27301311D02*
X30032016Y27301311D01*
X28298684Y26874350D02*
X28432017Y26874350D01*
X28432017Y26874350D02*
X28498684Y26841017D01*
X28498684Y26841017D02*
X28565350Y26774350D01*
X28565350Y26774350D02*
X28598684Y26641017D01*
X28598684Y26641017D02*
X28598684Y26407683D01*
X28598684Y26407683D02*
X28565350Y26274350D01*
X28565350Y26274350D02*
X28498684Y26207683D01*
X28498684Y26207683D02*
X28432017Y26174350D01*
X28432017Y26174350D02*
X28298684Y26174350D01*
X28298684Y26174350D02*
X28232017Y26207683D01*
X28232017Y26207683D02*
X28165350Y26274350D01*
X28165350Y26274350D02*
X28132017Y26407683D01*
X28132017Y26407683D02*
X28132017Y26641017D01*
X28132017Y26641017D02*
X28165350Y26774350D01*
X28165350Y26774350D02*
X28232017Y26841017D01*
X28232017Y26841017D02*
X28298684Y26874350D01*
X29332016Y26874350D02*
X29565350Y26174350D01*
X29565350Y26174350D02*
X29798683Y26874350D01*
X29998683Y26374350D02*
X30332016Y26374350D01*
X29932016Y26174350D02*
X30165350Y26874350D01*
X30165350Y26874350D02*
X30398683Y26174350D01*
X28165350Y25047389D02*
X28165350Y25747389D01*
X29032016Y25047389D02*
X29032016Y25747389D01*
X29032016Y25747389D02*
X29198683Y25747389D01*
X29198683Y25747389D02*
X29298683Y25714056D01*
X29298683Y25714056D02*
X29365350Y25647389D01*
X29365350Y25647389D02*
X29398683Y25580722D01*
X29398683Y25580722D02*
X29432016Y25447389D01*
X29432016Y25447389D02*
X29432016Y25347389D01*
X29432016Y25347389D02*
X29398683Y25214056D01*
X29398683Y25214056D02*
X29365350Y25147389D01*
X29365350Y25147389D02*
X29298683Y25080722D01*
X29298683Y25080722D02*
X29198683Y25047389D01*
X29198683Y25047389D02*
X29032016Y25047389D01*
X29665350Y25747389D02*
X30098683Y25747389D01*
X30098683Y25747389D02*
X29865350Y25480722D01*
X29865350Y25480722D02*
X29965350Y25480722D01*
X29965350Y25480722D02*
X30032016Y25447389D01*
X30032016Y25447389D02*
X30065350Y25414056D01*
X30065350Y25414056D02*
X30098683Y25347389D01*
X30098683Y25347389D02*
X30098683Y25180722D01*
X30098683Y25180722D02*
X30065350Y25114056D01*
X30065350Y25114056D02*
X30032016Y25080722D01*
X30032016Y25080722D02*
X29965350Y25047389D01*
X29965350Y25047389D02*
X29765350Y25047389D01*
X29765350Y25047389D02*
X29698683Y25080722D01*
X29698683Y25080722D02*
X29665350Y25114056D01*
X28165350Y23920428D02*
X28165350Y24620428D01*
X29032016Y23920428D02*
X29032016Y24620428D01*
X29032016Y24620428D02*
X29198683Y24620428D01*
X29198683Y24620428D02*
X29298683Y24587095D01*
X29298683Y24587095D02*
X29365350Y24520428D01*
X29365350Y24520428D02*
X29398683Y24453761D01*
X29398683Y24453761D02*
X29432016Y24320428D01*
X29432016Y24320428D02*
X29432016Y24220428D01*
X29432016Y24220428D02*
X29398683Y24087095D01*
X29398683Y24087095D02*
X29365350Y24020428D01*
X29365350Y24020428D02*
X29298683Y23953761D01*
X29298683Y23953761D02*
X29198683Y23920428D01*
X29198683Y23920428D02*
X29032016Y23920428D01*
X30098683Y23920428D02*
X29698683Y23920428D01*
X29898683Y23920428D02*
X29898683Y24620428D01*
X29898683Y24620428D02*
X29832016Y24520428D01*
X29832016Y24520428D02*
X29765350Y24453761D01*
X29765350Y24453761D02*
X29698683Y24420428D01*
X28165350Y22793467D02*
X28165350Y23493467D01*
X29032016Y22793467D02*
X29032016Y23493467D01*
X29032016Y23493467D02*
X29198683Y23493467D01*
X29198683Y23493467D02*
X29298683Y23460134D01*
X29298683Y23460134D02*
X29365350Y23393467D01*
X29365350Y23393467D02*
X29398683Y23326800D01*
X29398683Y23326800D02*
X29432016Y23193467D01*
X29432016Y23193467D02*
X29432016Y23093467D01*
X29432016Y23093467D02*
X29398683Y22960134D01*
X29398683Y22960134D02*
X29365350Y22893467D01*
X29365350Y22893467D02*
X29298683Y22826800D01*
X29298683Y22826800D02*
X29198683Y22793467D01*
X29198683Y22793467D02*
X29032016Y22793467D01*
X29698683Y23426800D02*
X29732016Y23460134D01*
X29732016Y23460134D02*
X29798683Y23493467D01*
X29798683Y23493467D02*
X29965350Y23493467D01*
X29965350Y23493467D02*
X30032016Y23460134D01*
X30032016Y23460134D02*
X30065350Y23426800D01*
X30065350Y23426800D02*
X30098683Y23360134D01*
X30098683Y23360134D02*
X30098683Y23293467D01*
X30098683Y23293467D02*
X30065350Y23193467D01*
X30065350Y23193467D02*
X29665350Y22793467D01*
X29665350Y22793467D02*
X30098683Y22793467D01*
X598684Y24863077D02*
X732017Y24863077D01*
X732017Y24863077D02*
X798684Y24829744D01*
X798684Y24829744D02*
X865350Y24763077D01*
X865350Y24763077D02*
X898684Y24629744D01*
X898684Y24629744D02*
X898684Y24396410D01*
X898684Y24396410D02*
X865350Y24263077D01*
X865350Y24263077D02*
X798684Y24196410D01*
X798684Y24196410D02*
X732017Y24163077D01*
X732017Y24163077D02*
X598684Y24163077D01*
X598684Y24163077D02*
X532017Y24196410D01*
X532017Y24196410D02*
X465350Y24263077D01*
X465350Y24263077D02*
X432017Y24396410D01*
X432017Y24396410D02*
X432017Y24629744D01*
X432017Y24629744D02*
X465350Y24763077D01*
X465350Y24763077D02*
X532017Y24829744D01*
X532017Y24829744D02*
X598684Y24863077D01*
X1732016Y24163077D02*
X1732016Y24863077D01*
X1732016Y24863077D02*
X1898683Y24863077D01*
X1898683Y24863077D02*
X1998683Y24829744D01*
X1998683Y24829744D02*
X2065350Y24763077D01*
X2065350Y24763077D02*
X2098683Y24696410D01*
X2098683Y24696410D02*
X2132016Y24563077D01*
X2132016Y24563077D02*
X2132016Y24463077D01*
X2132016Y24463077D02*
X2098683Y24329744D01*
X2098683Y24329744D02*
X2065350Y24263077D01*
X2065350Y24263077D02*
X1998683Y24196410D01*
X1998683Y24196410D02*
X1898683Y24163077D01*
X1898683Y24163077D02*
X1732016Y24163077D01*
X2365350Y24863077D02*
X2798683Y24863077D01*
X2798683Y24863077D02*
X2565350Y24596410D01*
X2565350Y24596410D02*
X2665350Y24596410D01*
X2665350Y24596410D02*
X2732016Y24563077D01*
X2732016Y24563077D02*
X2765350Y24529744D01*
X2765350Y24529744D02*
X2798683Y24463077D01*
X2798683Y24463077D02*
X2798683Y24296410D01*
X2798683Y24296410D02*
X2765350Y24229744D01*
X2765350Y24229744D02*
X2732016Y24196410D01*
X2732016Y24196410D02*
X2665350Y24163077D01*
X2665350Y24163077D02*
X2465350Y24163077D01*
X2465350Y24163077D02*
X2398683Y24196410D01*
X2398683Y24196410D02*
X2365350Y24229744D01*
X598684Y22609155D02*
X732017Y22609155D01*
X732017Y22609155D02*
X798684Y22575822D01*
X798684Y22575822D02*
X865350Y22509155D01*
X865350Y22509155D02*
X898684Y22375822D01*
X898684Y22375822D02*
X898684Y22142488D01*
X898684Y22142488D02*
X865350Y22009155D01*
X865350Y22009155D02*
X798684Y21942488D01*
X798684Y21942488D02*
X732017Y21909155D01*
X732017Y21909155D02*
X598684Y21909155D01*
X598684Y21909155D02*
X532017Y21942488D01*
X532017Y21942488D02*
X465350Y22009155D01*
X465350Y22009155D02*
X432017Y22142488D01*
X432017Y22142488D02*
X432017Y22375822D01*
X432017Y22375822D02*
X465350Y22509155D01*
X465350Y22509155D02*
X532017Y22575822D01*
X532017Y22575822D02*
X598684Y22609155D01*
X1732016Y21909155D02*
X1732016Y22609155D01*
X1732016Y22609155D02*
X1898683Y22609155D01*
X1898683Y22609155D02*
X1998683Y22575822D01*
X1998683Y22575822D02*
X2065350Y22509155D01*
X2065350Y22509155D02*
X2098683Y22442488D01*
X2098683Y22442488D02*
X2132016Y22309155D01*
X2132016Y22309155D02*
X2132016Y22209155D01*
X2132016Y22209155D02*
X2098683Y22075822D01*
X2098683Y22075822D02*
X2065350Y22009155D01*
X2065350Y22009155D02*
X1998683Y21942488D01*
X1998683Y21942488D02*
X1898683Y21909155D01*
X1898683Y21909155D02*
X1732016Y21909155D01*
X2798683Y21909155D02*
X2398683Y21909155D01*
X2598683Y21909155D02*
X2598683Y22609155D01*
X2598683Y22609155D02*
X2532016Y22509155D01*
X2532016Y22509155D02*
X2465350Y22442488D01*
X2465350Y22442488D02*
X2398683Y22409155D01*
X598684Y20355233D02*
X732017Y20355233D01*
X732017Y20355233D02*
X798684Y20321900D01*
X798684Y20321900D02*
X865350Y20255233D01*
X865350Y20255233D02*
X898684Y20121900D01*
X898684Y20121900D02*
X898684Y19888566D01*
X898684Y19888566D02*
X865350Y19755233D01*
X865350Y19755233D02*
X798684Y19688566D01*
X798684Y19688566D02*
X732017Y19655233D01*
X732017Y19655233D02*
X598684Y19655233D01*
X598684Y19655233D02*
X532017Y19688566D01*
X532017Y19688566D02*
X465350Y19755233D01*
X465350Y19755233D02*
X432017Y19888566D01*
X432017Y19888566D02*
X432017Y20121900D01*
X432017Y20121900D02*
X465350Y20255233D01*
X465350Y20255233D02*
X532017Y20321900D01*
X532017Y20321900D02*
X598684Y20355233D01*
X1732016Y19655233D02*
X1732016Y20355233D01*
X1732016Y20355233D02*
X1898683Y20355233D01*
X1898683Y20355233D02*
X1998683Y20321900D01*
X1998683Y20321900D02*
X2065350Y20255233D01*
X2065350Y20255233D02*
X2098683Y20188566D01*
X2098683Y20188566D02*
X2132016Y20055233D01*
X2132016Y20055233D02*
X2132016Y19955233D01*
X2132016Y19955233D02*
X2098683Y19821900D01*
X2098683Y19821900D02*
X2065350Y19755233D01*
X2065350Y19755233D02*
X1998683Y19688566D01*
X1998683Y19688566D02*
X1898683Y19655233D01*
X1898683Y19655233D02*
X1732016Y19655233D01*
X2398683Y20288566D02*
X2432016Y20321900D01*
X2432016Y20321900D02*
X2498683Y20355233D01*
X2498683Y20355233D02*
X2665350Y20355233D01*
X2665350Y20355233D02*
X2732016Y20321900D01*
X2732016Y20321900D02*
X2765350Y20288566D01*
X2765350Y20288566D02*
X2798683Y20221900D01*
X2798683Y20221900D02*
X2798683Y20155233D01*
X2798683Y20155233D02*
X2765350Y20055233D01*
X2765350Y20055233D02*
X2365350Y19655233D01*
X2365350Y19655233D02*
X2798683Y19655233D01*
X465350Y17401311D02*
X465350Y18101311D01*
X1232016Y18101311D02*
X1465350Y17401311D01*
X1465350Y17401311D02*
X1698683Y18101311D01*
X1932016Y17401311D02*
X1932016Y18101311D01*
X1932016Y18101311D02*
X2098683Y18101311D01*
X2098683Y18101311D02*
X2198683Y18067978D01*
X2198683Y18067978D02*
X2265350Y18001311D01*
X2265350Y18001311D02*
X2298683Y17934644D01*
X2298683Y17934644D02*
X2332016Y17801311D01*
X2332016Y17801311D02*
X2332016Y17701311D01*
X2332016Y17701311D02*
X2298683Y17567978D01*
X2298683Y17567978D02*
X2265350Y17501311D01*
X2265350Y17501311D02*
X2198683Y17434644D01*
X2198683Y17434644D02*
X2098683Y17401311D01*
X2098683Y17401311D02*
X1932016Y17401311D01*
X465350Y15147389D02*
X465350Y15847389D01*
X1232016Y15847389D02*
X1465350Y15147389D01*
X1465350Y15147389D02*
X1698683Y15847389D01*
X1932016Y15147389D02*
X1932016Y15847389D01*
X1932016Y15847389D02*
X2198683Y15847389D01*
X2198683Y15847389D02*
X2265350Y15814056D01*
X2265350Y15814056D02*
X2298683Y15780722D01*
X2298683Y15780722D02*
X2332016Y15714056D01*
X2332016Y15714056D02*
X2332016Y15614056D01*
X2332016Y15614056D02*
X2298683Y15547389D01*
X2298683Y15547389D02*
X2265350Y15514056D01*
X2265350Y15514056D02*
X2198683Y15480722D01*
X2198683Y15480722D02*
X1932016Y15480722D01*
X465350Y12893467D02*
X465350Y13593467D01*
X1698683Y13560134D02*
X1632016Y13593467D01*
X1632016Y13593467D02*
X1532016Y13593467D01*
X1532016Y13593467D02*
X1432016Y13560134D01*
X1432016Y13560134D02*
X1365350Y13493467D01*
X1365350Y13493467D02*
X1332016Y13426800D01*
X1332016Y13426800D02*
X1298683Y13293467D01*
X1298683Y13293467D02*
X1298683Y13193467D01*
X1298683Y13193467D02*
X1332016Y13060134D01*
X1332016Y13060134D02*
X1365350Y12993467D01*
X1365350Y12993467D02*
X1432016Y12926800D01*
X1432016Y12926800D02*
X1532016Y12893467D01*
X1532016Y12893467D02*
X1598683Y12893467D01*
X1598683Y12893467D02*
X1698683Y12926800D01*
X1698683Y12926800D02*
X1732016Y12960134D01*
X1732016Y12960134D02*
X1732016Y13193467D01*
X1732016Y13193467D02*
X1598683Y13193467D01*
X2032016Y12893467D02*
X2032016Y13593467D01*
X2032016Y13593467D02*
X2198683Y13593467D01*
X2198683Y13593467D02*
X2298683Y13560134D01*
X2298683Y13560134D02*
X2365350Y13493467D01*
X2365350Y13493467D02*
X2398683Y13426800D01*
X2398683Y13426800D02*
X2432016Y13293467D01*
X2432016Y13293467D02*
X2432016Y13193467D01*
X2432016Y13193467D02*
X2398683Y13060134D01*
X2398683Y13060134D02*
X2365350Y12993467D01*
X2365350Y12993467D02*
X2298683Y12926800D01*
X2298683Y12926800D02*
X2198683Y12893467D01*
X2198683Y12893467D02*
X2032016Y12893467D01*
D11*
X66081527Y19303494D02*
X66081527Y20003494D01*
X66848193Y20003494D02*
X67081527Y19303494D01*
X67081527Y19303494D02*
X67314860Y20003494D01*
X67514860Y19503494D02*
X67848193Y19503494D01*
X67448193Y19303494D02*
X67681527Y20003494D01*
X67681527Y20003494D02*
X67914860Y19303494D01*
X66081527Y18176533D02*
X66081527Y18876533D01*
X66848193Y18876533D02*
X67081527Y18176533D01*
X67081527Y18176533D02*
X67314860Y18876533D01*
X67548193Y18176533D02*
X67548193Y18876533D01*
X67548193Y18876533D02*
X67714860Y18876533D01*
X67714860Y18876533D02*
X67814860Y18843200D01*
X67814860Y18843200D02*
X67881527Y18776533D01*
X67881527Y18776533D02*
X67914860Y18709866D01*
X67914860Y18709866D02*
X67948193Y18576533D01*
X67948193Y18576533D02*
X67948193Y18476533D01*
X67948193Y18476533D02*
X67914860Y18343200D01*
X67914860Y18343200D02*
X67881527Y18276533D01*
X67881527Y18276533D02*
X67814860Y18209866D01*
X67814860Y18209866D02*
X67714860Y18176533D01*
X67714860Y18176533D02*
X67548193Y18176533D01*
X66214861Y17749572D02*
X66348194Y17749572D01*
X66348194Y17749572D02*
X66414861Y17716239D01*
X66414861Y17716239D02*
X66481527Y17649572D01*
X66481527Y17649572D02*
X66514861Y17516239D01*
X66514861Y17516239D02*
X66514861Y17282905D01*
X66514861Y17282905D02*
X66481527Y17149572D01*
X66481527Y17149572D02*
X66414861Y17082905D01*
X66414861Y17082905D02*
X66348194Y17049572D01*
X66348194Y17049572D02*
X66214861Y17049572D01*
X66214861Y17049572D02*
X66148194Y17082905D01*
X66148194Y17082905D02*
X66081527Y17149572D01*
X66081527Y17149572D02*
X66048194Y17282905D01*
X66048194Y17282905D02*
X66048194Y17516239D01*
X66048194Y17516239D02*
X66081527Y17649572D01*
X66081527Y17649572D02*
X66148194Y17716239D01*
X66148194Y17716239D02*
X66214861Y17749572D01*
X67348193Y17049572D02*
X67348193Y17749572D01*
X67348193Y17749572D02*
X67514860Y17749572D01*
X67514860Y17749572D02*
X67614860Y17716239D01*
X67614860Y17716239D02*
X67681527Y17649572D01*
X67681527Y17649572D02*
X67714860Y17582905D01*
X67714860Y17582905D02*
X67748193Y17449572D01*
X67748193Y17449572D02*
X67748193Y17349572D01*
X67748193Y17349572D02*
X67714860Y17216239D01*
X67714860Y17216239D02*
X67681527Y17149572D01*
X67681527Y17149572D02*
X67614860Y17082905D01*
X67614860Y17082905D02*
X67514860Y17049572D01*
X67514860Y17049572D02*
X67348193Y17049572D01*
X68414860Y17049572D02*
X68014860Y17049572D01*
X68214860Y17049572D02*
X68214860Y17749572D01*
X68214860Y17749572D02*
X68148193Y17649572D01*
X68148193Y17649572D02*
X68081527Y17582905D01*
X68081527Y17582905D02*
X68014860Y17549572D01*
X66214861Y16622611D02*
X66348194Y16622611D01*
X66348194Y16622611D02*
X66414861Y16589278D01*
X66414861Y16589278D02*
X66481527Y16522611D01*
X66481527Y16522611D02*
X66514861Y16389278D01*
X66514861Y16389278D02*
X66514861Y16155944D01*
X66514861Y16155944D02*
X66481527Y16022611D01*
X66481527Y16022611D02*
X66414861Y15955944D01*
X66414861Y15955944D02*
X66348194Y15922611D01*
X66348194Y15922611D02*
X66214861Y15922611D01*
X66214861Y15922611D02*
X66148194Y15955944D01*
X66148194Y15955944D02*
X66081527Y16022611D01*
X66081527Y16022611D02*
X66048194Y16155944D01*
X66048194Y16155944D02*
X66048194Y16389278D01*
X66048194Y16389278D02*
X66081527Y16522611D01*
X66081527Y16522611D02*
X66148194Y16589278D01*
X66148194Y16589278D02*
X66214861Y16622611D01*
X67348193Y15922611D02*
X67348193Y16622611D01*
X67348193Y16622611D02*
X67514860Y16622611D01*
X67514860Y16622611D02*
X67614860Y16589278D01*
X67614860Y16589278D02*
X67681527Y16522611D01*
X67681527Y16522611D02*
X67714860Y16455944D01*
X67714860Y16455944D02*
X67748193Y16322611D01*
X67748193Y16322611D02*
X67748193Y16222611D01*
X67748193Y16222611D02*
X67714860Y16089278D01*
X67714860Y16089278D02*
X67681527Y16022611D01*
X67681527Y16022611D02*
X67614860Y15955944D01*
X67614860Y15955944D02*
X67514860Y15922611D01*
X67514860Y15922611D02*
X67348193Y15922611D01*
X68014860Y16555944D02*
X68048193Y16589278D01*
X68048193Y16589278D02*
X68114860Y16622611D01*
X68114860Y16622611D02*
X68281527Y16622611D01*
X68281527Y16622611D02*
X68348193Y16589278D01*
X68348193Y16589278D02*
X68381527Y16555944D01*
X68381527Y16555944D02*
X68414860Y16489278D01*
X68414860Y16489278D02*
X68414860Y16422611D01*
X68414860Y16422611D02*
X68381527Y16322611D01*
X68381527Y16322611D02*
X67981527Y15922611D01*
X67981527Y15922611D02*
X68414860Y15922611D01*
X66214861Y15495650D02*
X66348194Y15495650D01*
X66348194Y15495650D02*
X66414861Y15462317D01*
X66414861Y15462317D02*
X66481527Y15395650D01*
X66481527Y15395650D02*
X66514861Y15262317D01*
X66514861Y15262317D02*
X66514861Y15028983D01*
X66514861Y15028983D02*
X66481527Y14895650D01*
X66481527Y14895650D02*
X66414861Y14828983D01*
X66414861Y14828983D02*
X66348194Y14795650D01*
X66348194Y14795650D02*
X66214861Y14795650D01*
X66214861Y14795650D02*
X66148194Y14828983D01*
X66148194Y14828983D02*
X66081527Y14895650D01*
X66081527Y14895650D02*
X66048194Y15028983D01*
X66048194Y15028983D02*
X66048194Y15262317D01*
X66048194Y15262317D02*
X66081527Y15395650D01*
X66081527Y15395650D02*
X66148194Y15462317D01*
X66148194Y15462317D02*
X66214861Y15495650D01*
X67348193Y14795650D02*
X67348193Y15495650D01*
X67348193Y15495650D02*
X67514860Y15495650D01*
X67514860Y15495650D02*
X67614860Y15462317D01*
X67614860Y15462317D02*
X67681527Y15395650D01*
X67681527Y15395650D02*
X67714860Y15328983D01*
X67714860Y15328983D02*
X67748193Y15195650D01*
X67748193Y15195650D02*
X67748193Y15095650D01*
X67748193Y15095650D02*
X67714860Y14962317D01*
X67714860Y14962317D02*
X67681527Y14895650D01*
X67681527Y14895650D02*
X67614860Y14828983D01*
X67614860Y14828983D02*
X67514860Y14795650D01*
X67514860Y14795650D02*
X67348193Y14795650D01*
X67981527Y15495650D02*
X68414860Y15495650D01*
X68414860Y15495650D02*
X68181527Y15228983D01*
X68181527Y15228983D02*
X68281527Y15228983D01*
X68281527Y15228983D02*
X68348193Y15195650D01*
X68348193Y15195650D02*
X68381527Y15162317D01*
X68381527Y15162317D02*
X68414860Y15095650D01*
X68414860Y15095650D02*
X68414860Y14928983D01*
X68414860Y14928983D02*
X68381527Y14862317D01*
X68381527Y14862317D02*
X68348193Y14828983D01*
X68348193Y14828983D02*
X68281527Y14795650D01*
X68281527Y14795650D02*
X68081527Y14795650D01*
X68081527Y14795650D02*
X68014860Y14828983D01*
X68014860Y14828983D02*
X67981527Y14862317D01*
X66214861Y14368689D02*
X66348194Y14368689D01*
X66348194Y14368689D02*
X66414861Y14335356D01*
X66414861Y14335356D02*
X66481527Y14268689D01*
X66481527Y14268689D02*
X66514861Y14135356D01*
X66514861Y14135356D02*
X66514861Y13902022D01*
X66514861Y13902022D02*
X66481527Y13768689D01*
X66481527Y13768689D02*
X66414861Y13702022D01*
X66414861Y13702022D02*
X66348194Y13668689D01*
X66348194Y13668689D02*
X66214861Y13668689D01*
X66214861Y13668689D02*
X66148194Y13702022D01*
X66148194Y13702022D02*
X66081527Y13768689D01*
X66081527Y13768689D02*
X66048194Y13902022D01*
X66048194Y13902022D02*
X66048194Y14135356D01*
X66048194Y14135356D02*
X66081527Y14268689D01*
X66081527Y14268689D02*
X66148194Y14335356D01*
X66148194Y14335356D02*
X66214861Y14368689D01*
X67348193Y13668689D02*
X67348193Y14368689D01*
X67348193Y14368689D02*
X67514860Y14368689D01*
X67514860Y14368689D02*
X67614860Y14335356D01*
X67614860Y14335356D02*
X67681527Y14268689D01*
X67681527Y14268689D02*
X67714860Y14202022D01*
X67714860Y14202022D02*
X67748193Y14068689D01*
X67748193Y14068689D02*
X67748193Y13968689D01*
X67748193Y13968689D02*
X67714860Y13835356D01*
X67714860Y13835356D02*
X67681527Y13768689D01*
X67681527Y13768689D02*
X67614860Y13702022D01*
X67614860Y13702022D02*
X67514860Y13668689D01*
X67514860Y13668689D02*
X67348193Y13668689D01*
X68348193Y13668689D02*
X68348193Y14035356D01*
X68348193Y14035356D02*
X68314860Y14102022D01*
X68314860Y14102022D02*
X68248193Y14135356D01*
X68248193Y14135356D02*
X68114860Y14135356D01*
X68114860Y14135356D02*
X68048193Y14102022D01*
X68348193Y13702022D02*
X68281527Y13668689D01*
X68281527Y13668689D02*
X68114860Y13668689D01*
X68114860Y13668689D02*
X68048193Y13702022D01*
X68048193Y13702022D02*
X68014860Y13768689D01*
X68014860Y13768689D02*
X68014860Y13835356D01*
X68014860Y13835356D02*
X68048193Y13902022D01*
X68048193Y13902022D02*
X68114860Y13935356D01*
X68114860Y13935356D02*
X68281527Y13935356D01*
X68281527Y13935356D02*
X68348193Y13968689D01*
X68614860Y14368689D02*
X69048193Y14368689D01*
X69048193Y14368689D02*
X68814860Y14102022D01*
X68814860Y14102022D02*
X68914860Y14102022D01*
X68914860Y14102022D02*
X68981526Y14068689D01*
X68981526Y14068689D02*
X69014860Y14035356D01*
X69014860Y14035356D02*
X69048193Y13968689D01*
X69048193Y13968689D02*
X69048193Y13802022D01*
X69048193Y13802022D02*
X69014860Y13735356D01*
X69014860Y13735356D02*
X68981526Y13702022D01*
X68981526Y13702022D02*
X68914860Y13668689D01*
X68914860Y13668689D02*
X68714860Y13668689D01*
X68714860Y13668689D02*
X68648193Y13702022D01*
X68648193Y13702022D02*
X68614860Y13735356D01*
X66214861Y13241728D02*
X66348194Y13241728D01*
X66348194Y13241728D02*
X66414861Y13208395D01*
X66414861Y13208395D02*
X66481527Y13141728D01*
X66481527Y13141728D02*
X66514861Y13008395D01*
X66514861Y13008395D02*
X66514861Y12775061D01*
X66514861Y12775061D02*
X66481527Y12641728D01*
X66481527Y12641728D02*
X66414861Y12575061D01*
X66414861Y12575061D02*
X66348194Y12541728D01*
X66348194Y12541728D02*
X66214861Y12541728D01*
X66214861Y12541728D02*
X66148194Y12575061D01*
X66148194Y12575061D02*
X66081527Y12641728D01*
X66081527Y12641728D02*
X66048194Y12775061D01*
X66048194Y12775061D02*
X66048194Y13008395D01*
X66048194Y13008395D02*
X66081527Y13141728D01*
X66081527Y13141728D02*
X66148194Y13208395D01*
X66148194Y13208395D02*
X66214861Y13241728D01*
X67714860Y13208395D02*
X67648193Y13241728D01*
X67648193Y13241728D02*
X67548193Y13241728D01*
X67548193Y13241728D02*
X67448193Y13208395D01*
X67448193Y13208395D02*
X67381527Y13141728D01*
X67381527Y13141728D02*
X67348193Y13075061D01*
X67348193Y13075061D02*
X67314860Y12941728D01*
X67314860Y12941728D02*
X67314860Y12841728D01*
X67314860Y12841728D02*
X67348193Y12708395D01*
X67348193Y12708395D02*
X67381527Y12641728D01*
X67381527Y12641728D02*
X67448193Y12575061D01*
X67448193Y12575061D02*
X67548193Y12541728D01*
X67548193Y12541728D02*
X67614860Y12541728D01*
X67614860Y12541728D02*
X67714860Y12575061D01*
X67714860Y12575061D02*
X67748193Y12608395D01*
X67748193Y12608395D02*
X67748193Y12841728D01*
X67748193Y12841728D02*
X67614860Y12841728D01*
X68048193Y12541728D02*
X68048193Y13241728D01*
X68048193Y13241728D02*
X68214860Y13241728D01*
X68214860Y13241728D02*
X68314860Y13208395D01*
X68314860Y13208395D02*
X68381527Y13141728D01*
X68381527Y13141728D02*
X68414860Y13075061D01*
X68414860Y13075061D02*
X68448193Y12941728D01*
X68448193Y12941728D02*
X68448193Y12841728D01*
X68448193Y12841728D02*
X68414860Y12708395D01*
X68414860Y12708395D02*
X68381527Y12641728D01*
X68381527Y12641728D02*
X68314860Y12575061D01*
X68314860Y12575061D02*
X68214860Y12541728D01*
X68214860Y12541728D02*
X68048193Y12541728D01*
X66081527Y11414767D02*
X66081527Y12114767D01*
X67314860Y12081434D02*
X67248193Y12114767D01*
X67248193Y12114767D02*
X67148193Y12114767D01*
X67148193Y12114767D02*
X67048193Y12081434D01*
X67048193Y12081434D02*
X66981527Y12014767D01*
X66981527Y12014767D02*
X66948193Y11948100D01*
X66948193Y11948100D02*
X66914860Y11814767D01*
X66914860Y11814767D02*
X66914860Y11714767D01*
X66914860Y11714767D02*
X66948193Y11581434D01*
X66948193Y11581434D02*
X66981527Y11514767D01*
X66981527Y11514767D02*
X67048193Y11448100D01*
X67048193Y11448100D02*
X67148193Y11414767D01*
X67148193Y11414767D02*
X67214860Y11414767D01*
X67214860Y11414767D02*
X67314860Y11448100D01*
X67314860Y11448100D02*
X67348193Y11481434D01*
X67348193Y11481434D02*
X67348193Y11714767D01*
X67348193Y11714767D02*
X67214860Y11714767D01*
X67614860Y11614767D02*
X67948193Y11614767D01*
X67548193Y11414767D02*
X67781527Y12114767D01*
X67781527Y12114767D02*
X68014860Y11414767D01*
D12*
X58471784Y4866260D02*
X58471784Y5666260D01*
X58471784Y5666260D02*
X58776546Y5666260D01*
X58776546Y5666260D02*
X58852736Y5628165D01*
X58852736Y5628165D02*
X58890831Y5590070D01*
X58890831Y5590070D02*
X58928927Y5513879D01*
X58928927Y5513879D02*
X58928927Y5399594D01*
X58928927Y5399594D02*
X58890831Y5323403D01*
X58890831Y5323403D02*
X58852736Y5285308D01*
X58852736Y5285308D02*
X58776546Y5247213D01*
X58776546Y5247213D02*
X58471784Y5247213D01*
X59386069Y4866260D02*
X59309879Y4904355D01*
X59309879Y4904355D02*
X59271784Y4980546D01*
X59271784Y4980546D02*
X59271784Y5666260D01*
X60033689Y4866260D02*
X60033689Y5285308D01*
X60033689Y5285308D02*
X59995594Y5361498D01*
X59995594Y5361498D02*
X59919403Y5399594D01*
X59919403Y5399594D02*
X59767022Y5399594D01*
X59767022Y5399594D02*
X59690832Y5361498D01*
X60033689Y4904355D02*
X59957498Y4866260D01*
X59957498Y4866260D02*
X59767022Y4866260D01*
X59767022Y4866260D02*
X59690832Y4904355D01*
X59690832Y4904355D02*
X59652736Y4980546D01*
X59652736Y4980546D02*
X59652736Y5056736D01*
X59652736Y5056736D02*
X59690832Y5132927D01*
X59690832Y5132927D02*
X59767022Y5171022D01*
X59767022Y5171022D02*
X59957498Y5171022D01*
X59957498Y5171022D02*
X60033689Y5209117D01*
X60300356Y5399594D02*
X60605118Y5399594D01*
X60414642Y5666260D02*
X60414642Y4980546D01*
X60414642Y4980546D02*
X60452737Y4904355D01*
X60452737Y4904355D02*
X60528927Y4866260D01*
X60528927Y4866260D02*
X60605118Y4866260D01*
X60757499Y5399594D02*
X61062261Y5399594D01*
X60871785Y5666260D02*
X60871785Y4980546D01*
X60871785Y4980546D02*
X60909880Y4904355D01*
X60909880Y4904355D02*
X60986070Y4866260D01*
X60986070Y4866260D02*
X61062261Y4866260D01*
X61633690Y4904355D02*
X61557499Y4866260D01*
X61557499Y4866260D02*
X61405118Y4866260D01*
X61405118Y4866260D02*
X61328928Y4904355D01*
X61328928Y4904355D02*
X61290832Y4980546D01*
X61290832Y4980546D02*
X61290832Y5285308D01*
X61290832Y5285308D02*
X61328928Y5361498D01*
X61328928Y5361498D02*
X61405118Y5399594D01*
X61405118Y5399594D02*
X61557499Y5399594D01*
X61557499Y5399594D02*
X61633690Y5361498D01*
X61633690Y5361498D02*
X61671785Y5285308D01*
X61671785Y5285308D02*
X61671785Y5209117D01*
X61671785Y5209117D02*
X61290832Y5132927D01*
X62547975Y5399594D02*
X62738451Y4866260D01*
X62738451Y4866260D02*
X62928928Y5399594D01*
X63652737Y4866260D02*
X63195594Y4866260D01*
X63424166Y4866260D02*
X63424166Y5666260D01*
X63424166Y5666260D02*
X63347975Y5551975D01*
X63347975Y5551975D02*
X63271785Y5475784D01*
X63271785Y5475784D02*
X63195594Y5437689D01*
X63995595Y4942451D02*
X64033690Y4904355D01*
X64033690Y4904355D02*
X63995595Y4866260D01*
X63995595Y4866260D02*
X63957499Y4904355D01*
X63957499Y4904355D02*
X63995595Y4942451D01*
X63995595Y4942451D02*
X63995595Y4866260D01*
X64528928Y5666260D02*
X64605118Y5666260D01*
X64605118Y5666260D02*
X64681309Y5628165D01*
X64681309Y5628165D02*
X64719404Y5590070D01*
X64719404Y5590070D02*
X64757499Y5513879D01*
X64757499Y5513879D02*
X64795594Y5361498D01*
X64795594Y5361498D02*
X64795594Y5171022D01*
X64795594Y5171022D02*
X64757499Y5018641D01*
X64757499Y5018641D02*
X64719404Y4942451D01*
X64719404Y4942451D02*
X64681309Y4904355D01*
X64681309Y4904355D02*
X64605118Y4866260D01*
X64605118Y4866260D02*
X64528928Y4866260D01*
X64528928Y4866260D02*
X64452737Y4904355D01*
X64452737Y4904355D02*
X64414642Y4942451D01*
X64414642Y4942451D02*
X64376547Y5018641D01*
X64376547Y5018641D02*
X64338451Y5171022D01*
X64338451Y5171022D02*
X64338451Y5361498D01*
X64338451Y5361498D02*
X64376547Y5513879D01*
X64376547Y5513879D02*
X64414642Y5590070D01*
X64414642Y5590070D02*
X64452737Y5628165D01*
X64452737Y5628165D02*
X64528928Y5666260D01*
X58471784Y3997353D02*
X58738450Y3997353D01*
X58852736Y3578305D02*
X58471784Y3578305D01*
X58471784Y3578305D02*
X58471784Y4378305D01*
X58471784Y4378305D02*
X58852736Y4378305D01*
X59157498Y3616400D02*
X59271784Y3578305D01*
X59271784Y3578305D02*
X59462260Y3578305D01*
X59462260Y3578305D02*
X59538451Y3616400D01*
X59538451Y3616400D02*
X59576546Y3654496D01*
X59576546Y3654496D02*
X59614641Y3730686D01*
X59614641Y3730686D02*
X59614641Y3806877D01*
X59614641Y3806877D02*
X59576546Y3883067D01*
X59576546Y3883067D02*
X59538451Y3921162D01*
X59538451Y3921162D02*
X59462260Y3959258D01*
X59462260Y3959258D02*
X59309879Y3997353D01*
X59309879Y3997353D02*
X59233689Y4035448D01*
X59233689Y4035448D02*
X59195594Y4073543D01*
X59195594Y4073543D02*
X59157498Y4149734D01*
X59157498Y4149734D02*
X59157498Y4225924D01*
X59157498Y4225924D02*
X59195594Y4302115D01*
X59195594Y4302115D02*
X59233689Y4340210D01*
X59233689Y4340210D02*
X59309879Y4378305D01*
X59309879Y4378305D02*
X59500356Y4378305D01*
X59500356Y4378305D02*
X59614641Y4340210D01*
X59843213Y4378305D02*
X60300356Y4378305D01*
X60071784Y3578305D02*
X60071784Y4378305D01*
X61633690Y3578305D02*
X61367023Y3959258D01*
X61176547Y3578305D02*
X61176547Y4378305D01*
X61176547Y4378305D02*
X61481309Y4378305D01*
X61481309Y4378305D02*
X61557499Y4340210D01*
X61557499Y4340210D02*
X61595594Y4302115D01*
X61595594Y4302115D02*
X61633690Y4225924D01*
X61633690Y4225924D02*
X61633690Y4111639D01*
X61633690Y4111639D02*
X61595594Y4035448D01*
X61595594Y4035448D02*
X61557499Y3997353D01*
X61557499Y3997353D02*
X61481309Y3959258D01*
X61481309Y3959258D02*
X61176547Y3959258D01*
X61976547Y4378305D02*
X61976547Y3730686D01*
X61976547Y3730686D02*
X62014642Y3654496D01*
X62014642Y3654496D02*
X62052737Y3616400D01*
X62052737Y3616400D02*
X62128928Y3578305D01*
X62128928Y3578305D02*
X62281309Y3578305D01*
X62281309Y3578305D02*
X62357499Y3616400D01*
X62357499Y3616400D02*
X62395594Y3654496D01*
X62395594Y3654496D02*
X62433690Y3730686D01*
X62433690Y3730686D02*
X62433690Y4378305D01*
X63081308Y3997353D02*
X63195594Y3959258D01*
X63195594Y3959258D02*
X63233689Y3921162D01*
X63233689Y3921162D02*
X63271785Y3844972D01*
X63271785Y3844972D02*
X63271785Y3730686D01*
X63271785Y3730686D02*
X63233689Y3654496D01*
X63233689Y3654496D02*
X63195594Y3616400D01*
X63195594Y3616400D02*
X63119404Y3578305D01*
X63119404Y3578305D02*
X62814642Y3578305D01*
X62814642Y3578305D02*
X62814642Y4378305D01*
X62814642Y4378305D02*
X63081308Y4378305D01*
X63081308Y4378305D02*
X63157499Y4340210D01*
X63157499Y4340210D02*
X63195594Y4302115D01*
X63195594Y4302115D02*
X63233689Y4225924D01*
X63233689Y4225924D02*
X63233689Y4149734D01*
X63233689Y4149734D02*
X63195594Y4073543D01*
X63195594Y4073543D02*
X63157499Y4035448D01*
X63157499Y4035448D02*
X63081308Y3997353D01*
X63081308Y3997353D02*
X62814642Y3997353D01*
D13*
%TO.C,J1*%
X3810000Y27380000D02*
X3810000Y9660000D01*
X3810000Y9660000D02*
X7830000Y9660000D01*
X4310000Y26880000D02*
X5520000Y26880000D01*
X4310000Y10160000D02*
X4310000Y26880000D01*
X5520000Y26880000D02*
X5520000Y27380000D01*
X5520000Y10160000D02*
X4310000Y10160000D01*
X5520000Y9660000D02*
X5520000Y10160000D01*
X5630000Y9360000D02*
X8130000Y9360000D01*
X6330000Y27380000D02*
X6330000Y26380000D01*
X6330000Y26380000D02*
X7830000Y26380000D01*
X6330000Y10660000D02*
X7830000Y10660000D01*
X6330000Y9660000D02*
X6330000Y10660000D01*
X7830000Y27380000D02*
X3810000Y27380000D01*
X7830000Y9660000D02*
X7830000Y27380000D01*
X8130000Y9360000D02*
X8130000Y11860000D01*
%TO.C,C1*%
X16540000Y6941233D02*
X16540000Y7233767D01*
X17560000Y6941233D02*
X17560000Y7233767D01*
%TO.C,R5*%
X17532776Y2622500D02*
X18042224Y2622500D01*
X17532776Y1577500D02*
X18042224Y1577500D01*
%TO.C,R3*%
X18054724Y4297500D02*
X17545276Y4297500D01*
X18054724Y3252500D02*
X17545276Y3252500D01*
%TO.C,C5*%
X19653733Y25405000D02*
X19946267Y25405000D01*
X19653733Y24385000D02*
X19946267Y24385000D01*
%TO.C,R13*%
X14602776Y22942500D02*
X15112224Y22942500D01*
X14602776Y21897500D02*
X15112224Y21897500D01*
%TO.C,R10*%
X23130276Y10337500D02*
X23639724Y10337500D01*
X23130276Y9292500D02*
X23639724Y9292500D01*
%TO.C,R11*%
X23587500Y7532224D02*
X23587500Y7022776D01*
X24632500Y7532224D02*
X24632500Y7022776D01*
%TO.C,R7*%
X16367224Y11972500D02*
X15857776Y11972500D01*
X16367224Y10927500D02*
X15857776Y10927500D01*
%TO.C,R9*%
X25207500Y7534724D02*
X25207500Y7025276D01*
X26252500Y7534724D02*
X26252500Y7025276D01*
%TO.C,R1*%
X18127500Y7317224D02*
X18127500Y6807776D01*
X19172500Y7317224D02*
X19172500Y6807776D01*
%TO.C,R12*%
X23097776Y11987500D02*
X23607224Y11987500D01*
X23097776Y10942500D02*
X23607224Y10942500D01*
%TO.C,C9*%
X13790000Y18746267D02*
X13790000Y18453733D01*
X14810000Y18746267D02*
X14810000Y18453733D01*
%TO.C,R16*%
X23025276Y27152500D02*
X23534724Y27152500D01*
X23025276Y26107500D02*
X23534724Y26107500D01*
%TO.C,R17*%
X20067224Y23792500D02*
X19557776Y23792500D01*
X20067224Y22747500D02*
X19557776Y22747500D01*
%TO.C,R14*%
X15094724Y24622500D02*
X14585276Y24622500D01*
X15094724Y23577500D02*
X14585276Y23577500D01*
%TO.C,R15*%
X20104724Y28702500D02*
X19595276Y28702500D01*
X20104724Y27657500D02*
X19595276Y27657500D01*
%TO.C,R2*%
X13747500Y6402224D02*
X13747500Y5892776D01*
X14792500Y6402224D02*
X14792500Y5892776D01*
%TO.C,R4*%
X16392224Y10197500D02*
X15882776Y10197500D01*
X16392224Y9152500D02*
X15882776Y9152500D01*
%TO.C,C6*%
X23413767Y25405000D02*
X23121233Y25405000D01*
X23413767Y24385000D02*
X23121233Y24385000D01*
%TO.C,R18*%
X23037776Y23792500D02*
X23547224Y23792500D01*
X23037776Y22747500D02*
X23547224Y22747500D01*
%TO.C,C2*%
X21975000Y7131233D02*
X21975000Y7423767D01*
X22995000Y7131233D02*
X22995000Y7423767D01*
%TO.C,C4*%
X15966233Y13585000D02*
X16258767Y13585000D01*
X15966233Y12565000D02*
X16258767Y12565000D01*
%TO.C,U2*%
X15480000Y17675000D02*
X15480000Y19625000D01*
X15480000Y17675000D02*
X15480000Y15725000D01*
X24350000Y17675000D02*
X24350000Y19625000D01*
X24350000Y17675000D02*
X24350000Y15725000D01*
X15545000Y14975000D02*
X15215000Y14735000D01*
X15215000Y15215000D01*
X15545000Y14975000D01*
G36*
X15545000Y14975000D02*
G01*
X15215000Y14735000D01*
X15215000Y15215000D01*
X15545000Y14975000D01*
G37*
%TO.C,R6*%
X23222776Y4472500D02*
X23732224Y4472500D01*
X23222776Y3427500D02*
X23732224Y3427500D01*
%TO.C,C3*%
X23493767Y13600000D02*
X23201233Y13600000D01*
X23493767Y12580000D02*
X23201233Y12580000D01*
%TO.C,R8*%
X23739724Y2902500D02*
X23230276Y2902500D01*
X23739724Y1857500D02*
X23230276Y1857500D01*
%TO.C,J2*%
X30550000Y22130000D02*
X30550000Y20330000D01*
X30550000Y20330000D02*
X29610000Y20330000D01*
X30550000Y9910000D02*
X30550000Y11710000D01*
X32150000Y22130000D02*
X30550000Y22130000D01*
X32150000Y9910000D02*
X30550000Y9910000D01*
X35020000Y20860000D02*
X35020000Y11180000D01*
%TO.C,R3*%
X44777230Y8262224D02*
X44777230Y7752776D01*
X45822230Y8262224D02*
X45822230Y7752776D01*
%TO.C,C8*%
X54789730Y14966267D02*
X54789730Y14673733D01*
X55809730Y14966267D02*
X55809730Y14673733D01*
%TO.C,C9*%
X56039730Y7953767D02*
X56039730Y7661233D01*
X57059730Y7953767D02*
X57059730Y7661233D01*
%TO.C,C7*%
X54589730Y19973733D02*
X54589730Y20266267D01*
X55609730Y19973733D02*
X55609730Y20266267D01*
%TO.C,R2*%
X43877230Y15474724D02*
X43877230Y14965276D01*
X44922230Y15474724D02*
X44922230Y14965276D01*
%TO.C,U3*%
X50274730Y11185000D02*
X48324730Y11185000D01*
X50274730Y11185000D02*
X52224730Y11185000D01*
X50274730Y6065000D02*
X48324730Y6065000D01*
X50274730Y6065000D02*
X52224730Y6065000D01*
X47574730Y11090000D02*
X47334730Y11420000D01*
X47814730Y11420000D01*
X47574730Y11090000D01*
G36*
X47574730Y11090000D02*
G01*
X47334730Y11420000D01*
X47814730Y11420000D01*
X47574730Y11090000D01*
G37*
%TO.C,J1*%
X60539730Y22130000D02*
X60539730Y20330000D01*
X60539730Y20330000D02*
X59599730Y20330000D01*
X60539730Y9910000D02*
X60539730Y11710000D01*
X62139730Y22130000D02*
X60539730Y22130000D01*
X62139730Y9910000D02*
X60539730Y9910000D01*
X65009730Y20860000D02*
X65009730Y11180000D01*
%TO.C,C3*%
X48640963Y26730000D02*
X48933497Y26730000D01*
X48640963Y25710000D02*
X48933497Y25710000D01*
%TO.C,U2*%
X48899730Y17780000D02*
X46949730Y17780000D01*
X48899730Y17780000D02*
X50849730Y17780000D01*
X48899730Y12660000D02*
X46949730Y12660000D01*
X48899730Y12660000D02*
X50849730Y12660000D01*
X46199730Y17685000D02*
X45959730Y18015000D01*
X46439730Y18015000D01*
X46199730Y17685000D01*
G36*
X46199730Y17685000D02*
G01*
X45959730Y18015000D01*
X46439730Y18015000D01*
X46199730Y17685000D01*
G37*
%TO.C,J3*%
X51799730Y-160000D02*
X51799730Y950000D01*
X52559730Y-160000D02*
X51799730Y-160000D01*
X53319730Y2060000D02*
X57064730Y2060000D01*
X53319730Y1513471D02*
X53319730Y2060000D01*
X53319730Y-160000D02*
X53319730Y386529D01*
X53319730Y-160000D02*
X57064730Y-160000D01*
X57064730Y1257530D02*
X57064730Y2060000D01*
X57064730Y-160000D02*
X57064730Y642470D01*
%TO.C,C6*%
X55845997Y11080000D02*
X55553463Y11080000D01*
X55845997Y10060000D02*
X55553463Y10060000D01*
%TO.C,C5*%
X54633497Y17930000D02*
X54340963Y17930000D01*
X54633497Y16910000D02*
X54340963Y16910000D01*
%TO.C,U1*%
X48899730Y24280000D02*
X46949730Y24280000D01*
X48899730Y24280000D02*
X50849730Y24280000D01*
X48899730Y19160000D02*
X46949730Y19160000D01*
X48899730Y19160000D02*
X50849730Y19160000D01*
X46199730Y24185000D02*
X45959730Y24515000D01*
X46439730Y24515000D01*
X46199730Y24185000D01*
G36*
X46199730Y24185000D02*
G01*
X45959730Y24515000D01*
X46439730Y24515000D01*
X46199730Y24185000D01*
G37*
%TO.C,R6*%
X54427230Y7527776D02*
X54427230Y8037224D01*
X55472230Y7527776D02*
X55472230Y8037224D01*
%TO.C,R4*%
X52977230Y20374724D02*
X52977230Y19865276D01*
X54022230Y20374724D02*
X54022230Y19865276D01*
%TO.C,R5*%
X53177230Y14552776D02*
X53177230Y15062224D01*
X54222230Y14552776D02*
X54222230Y15062224D01*
%TO.C,C4*%
X54845997Y23530000D02*
X54553463Y23530000D01*
X54845997Y22510000D02*
X54553463Y22510000D01*
%TO.C,R1*%
X43577230Y21662224D02*
X43577230Y21152776D01*
X44622230Y21662224D02*
X44622230Y21152776D01*
%TO.C,C2*%
X43390963Y18230000D02*
X43683497Y18230000D01*
X43390963Y17210000D02*
X43683497Y17210000D01*
%TO.C,C1*%
X44753463Y11030000D02*
X45045997Y11030000D01*
X44753463Y10010000D02*
X45045997Y10010000D01*
%TD*%
M02*
