%TF.GenerationSoftware,KiCad,Pcbnew,(7.0.0)*%
%TF.CreationDate,2024-02-08T18:30:53+01:00*%
%TF.ProjectId,AbuDhabi_ElectronBeam,41627544-6861-4626-995f-456c65637472,rev?*%
%TF.SameCoordinates,PXa6e49c0PYcef2840*%
%TF.FileFunction,Soldermask,Top*%
%TF.FilePolarity,Negative*%
%FSLAX46Y46*%
G04 Gerber Fmt 4.6, Leading zero omitted, Abs format (unit mm)*
G04 Created by KiCad (PCBNEW (7.0.0)) date 2024-02-08 18:30:53*
%MOMM*%
%LPD*%
G01*
G04 APERTURE LIST*
G04 Aperture macros list*
%AMRoundRect*
0 Rectangle with rounded corners*
0 $1 Rounding radius*
0 $2 $3 $4 $5 $6 $7 $8 $9 X,Y pos of 4 corners*
0 Add a 4 corners polygon primitive as box body*
4,1,4,$2,$3,$4,$5,$6,$7,$8,$9,$2,$3,0*
0 Add four circle primitives for the rounded corners*
1,1,$1+$1,$2,$3*
1,1,$1+$1,$4,$5*
1,1,$1+$1,$6,$7*
1,1,$1+$1,$8,$9*
0 Add four rect primitives between the rounded corners*
20,1,$1+$1,$2,$3,$4,$5,0*
20,1,$1+$1,$4,$5,$6,$7,0*
20,1,$1+$1,$6,$7,$8,$9,0*
20,1,$1+$1,$8,$9,$2,$3,0*%
G04 Aperture macros list end*
%ADD10RoundRect,0.250000X0.600000X0.750000X-0.600000X0.750000X-0.600000X-0.750000X0.600000X-0.750000X0*%
%ADD11O,1.700000X2.000000*%
%ADD12R,1.905000X2.000000*%
%ADD13O,1.905000X2.000000*%
%ADD14RoundRect,0.200000X0.200000X0.275000X-0.200000X0.275000X-0.200000X-0.275000X0.200000X-0.275000X0*%
%ADD15RoundRect,0.250000X0.600000X0.725000X-0.600000X0.725000X-0.600000X-0.725000X0.600000X-0.725000X0*%
%ADD16O,1.700000X1.950000*%
%ADD17RoundRect,0.237500X0.287500X0.237500X-0.287500X0.237500X-0.287500X-0.237500X0.287500X-0.237500X0*%
%ADD18RoundRect,0.237500X-0.287500X-0.237500X0.287500X-0.237500X0.287500X0.237500X-0.287500X0.237500X0*%
%ADD19RoundRect,0.225000X0.250000X-0.225000X0.250000X0.225000X-0.250000X0.225000X-0.250000X-0.225000X0*%
%ADD20RoundRect,0.237500X-0.250000X-0.237500X0.250000X-0.237500X0.250000X0.237500X-0.250000X0.237500X0*%
%ADD21RoundRect,0.225000X-0.250000X0.225000X-0.250000X-0.225000X0.250000X-0.225000X0.250000X0.225000X0*%
%ADD22RoundRect,0.150000X-0.825000X-0.150000X0.825000X-0.150000X0.825000X0.150000X-0.825000X0.150000X0*%
%ADD23RoundRect,0.218750X0.218750X0.256250X-0.218750X0.256250X-0.218750X-0.256250X0.218750X-0.256250X0*%
%ADD24C,2.100000*%
%ADD25RoundRect,0.200000X-0.200000X-0.275000X0.200000X-0.275000X0.200000X0.275000X-0.200000X0.275000X0*%
%ADD26RoundRect,0.237500X0.250000X0.237500X-0.250000X0.237500X-0.250000X-0.237500X0.250000X-0.237500X0*%
%ADD27RoundRect,0.218750X-0.218750X-0.256250X0.218750X-0.256250X0.218750X0.256250X-0.218750X0.256250X0*%
%ADD28R,1.700000X1.700000*%
%ADD29O,1.700000X1.700000*%
%ADD30RoundRect,0.237500X0.237500X-0.287500X0.237500X0.287500X-0.237500X0.287500X-0.237500X-0.287500X0*%
%ADD31RoundRect,0.200000X-0.275000X0.200000X-0.275000X-0.200000X0.275000X-0.200000X0.275000X0.200000X0*%
%ADD32RoundRect,0.143300X-0.943700X-0.253700X0.943700X-0.253700X0.943700X0.253700X-0.943700X0.253700X0*%
%ADD33C,3.200000*%
%ADD34O,1.727200X1.727200*%
%ADD35R,1.727200X1.727200*%
G04 APERTURE END LIST*
D10*
%TO.C,J19*%
X20000000Y129500000D03*
D11*
X17499999Y129499999D03*
%TD*%
D12*
%TO.C,U2*%
X52419999Y129499999D03*
D13*
X54959999Y129499999D03*
X57499999Y129499999D03*
%TD*%
D14*
%TO.C,R13*%
X99975000Y64187000D03*
X98325000Y64187000D03*
%TD*%
D15*
%TO.C,J12*%
X100000000Y129500000D03*
D16*
X97499999Y129499999D03*
X94999999Y129499999D03*
X92499999Y129499999D03*
%TD*%
D17*
%TO.C,D7*%
X34250000Y132000000D03*
X32500000Y132000000D03*
%TD*%
D14*
%TO.C,R6*%
X90981500Y99343500D03*
X89331500Y99343500D03*
%TD*%
D18*
%TO.C,D6*%
X95156500Y99343500D03*
X96906500Y99343500D03*
%TD*%
D19*
%TO.C,C5*%
X82525000Y89047000D03*
X82525000Y90597000D03*
%TD*%
D17*
%TO.C,D3*%
X80000000Y46687000D03*
X78250000Y46687000D03*
%TD*%
D20*
%TO.C,R4*%
X11744000Y51843500D03*
X13569000Y51843500D03*
%TD*%
D21*
%TO.C,C1*%
X82525000Y95597000D03*
X82525000Y94047000D03*
%TD*%
D22*
%TO.C,U3*%
X87525000Y91132000D03*
X87525000Y89862000D03*
X87525000Y88592000D03*
X87525000Y87322000D03*
X87525000Y86052000D03*
X87525000Y84782000D03*
X87525000Y83512000D03*
X87525000Y82242000D03*
X92475000Y82242000D03*
X92475000Y83512000D03*
X92475000Y84782000D03*
X92475000Y86052000D03*
X92475000Y87322000D03*
X92475000Y88592000D03*
X92475000Y89862000D03*
X92475000Y91132000D03*
%TD*%
D23*
%TO.C,D11*%
X78262500Y63552000D03*
X76687500Y63552000D03*
%TD*%
D24*
%TO.C,REF\u002A\u002A*%
X5000000Y140000000D03*
%TD*%
D20*
%TO.C,R3*%
X84087500Y46687000D03*
X85912500Y46687000D03*
%TD*%
D25*
%TO.C,R14*%
X97500000Y74187000D03*
X99150000Y74187000D03*
%TD*%
%TO.C,R9*%
X82656500Y74343500D03*
X84306500Y74343500D03*
%TD*%
D26*
%TO.C,R1*%
X35950000Y129500000D03*
X34125000Y129500000D03*
%TD*%
D14*
%TO.C,R8*%
X100825000Y84500000D03*
X99175000Y84500000D03*
%TD*%
D27*
%TO.C,D5*%
X73581500Y94343500D03*
X75156500Y94343500D03*
%TD*%
D25*
%TO.C,R11*%
X81650000Y63552000D03*
X83300000Y63552000D03*
%TD*%
D23*
%TO.C,D10*%
X80944000Y59343500D03*
X79369000Y59343500D03*
%TD*%
D24*
%TO.C,REF\u002A\u002A*%
X125000000Y5000000D03*
%TD*%
D28*
%TO.C,J2*%
X117696499Y129343499D03*
D29*
X115156499Y129343499D03*
X112616499Y129343499D03*
%TD*%
D24*
%TO.C,REF\u002A\u002A*%
X125000000Y140000000D03*
%TD*%
D19*
%TO.C,C2*%
X92500000Y92950000D03*
X92500000Y94500000D03*
%TD*%
D18*
%TO.C,D1*%
X39125000Y129500000D03*
X40875000Y129500000D03*
%TD*%
D25*
%TO.C,R12*%
X81650000Y69187000D03*
X83300000Y69187000D03*
%TD*%
%TO.C,R10*%
X84331500Y59343500D03*
X85981500Y59343500D03*
%TD*%
D28*
%TO.C,J3*%
X12656499Y41803499D03*
D29*
X12656499Y44343499D03*
X12656499Y46883499D03*
%TD*%
D19*
%TO.C,C6*%
X92475000Y70277000D03*
X92475000Y71827000D03*
%TD*%
D28*
%TO.C,J1*%
X109999999Y51606999D03*
D29*
X109999999Y54146999D03*
X109999999Y56686999D03*
X109999999Y59226999D03*
%TD*%
D23*
%TO.C,D9*%
X78444000Y74343500D03*
X76869000Y74343500D03*
%TD*%
D17*
%TO.C,D4*%
X9406500Y51843500D03*
X7656500Y51843500D03*
%TD*%
D14*
%TO.C,R7*%
X103350000Y89822000D03*
X101700000Y89822000D03*
%TD*%
D30*
%TO.C,D2*%
X10000000Y132000000D03*
X10000000Y133750000D03*
%TD*%
D31*
%TO.C,R2*%
X10000000Y129500000D03*
X10000000Y127850000D03*
%TD*%
D21*
%TO.C,C4*%
X82525000Y80597000D03*
X82525000Y79047000D03*
%TD*%
D32*
%TO.C,U4*%
X87525000Y66092000D03*
X87525000Y64822000D03*
X87525000Y63552000D03*
X87525000Y62282000D03*
X92475000Y62282000D03*
X92475000Y63552000D03*
X92475000Y64822000D03*
X92475000Y66092000D03*
%TD*%
D31*
%TO.C,R17*%
X104975000Y61877000D03*
X104975000Y60227000D03*
%TD*%
D14*
%TO.C,R5*%
X75981500Y89343500D03*
X74331500Y89343500D03*
%TD*%
%TO.C,R16*%
X99125000Y68552000D03*
X97475000Y68552000D03*
%TD*%
D25*
%TO.C,R15*%
X98350000Y56687000D03*
X100000000Y56687000D03*
%TD*%
D24*
%TO.C,REF\u002A\u002A*%
X5000000Y5000000D03*
%TD*%
D21*
%TO.C,C3*%
X82525000Y85597000D03*
X82525000Y84047000D03*
%TD*%
D15*
%TO.C,J13*%
X80000000Y129500000D03*
D16*
X77499999Y129499999D03*
X74999999Y129499999D03*
X72499999Y129499999D03*
%TD*%
D28*
%TO.C,J16*%
X109897999Y86646999D03*
D29*
X109897999Y89186999D03*
%TD*%
D28*
%TO.C,J18*%
X10156499Y31843499D03*
D29*
X10156499Y29303499D03*
X10156499Y26763499D03*
X10156499Y24223499D03*
%TD*%
D33*
%TO.C,A3*%
X19876500Y21793500D03*
X68136500Y23063500D03*
D34*
X19876499Y35763499D03*
D33*
X24956500Y73863500D03*
X52896500Y73863500D03*
X68136500Y97993500D03*
X19876500Y104343500D03*
D34*
X19876499Y43383499D03*
X19876499Y45923499D03*
X47816499Y73990499D03*
X68136499Y101803499D03*
X68136499Y104343499D03*
X19876499Y58623499D03*
X19876499Y61163499D03*
X19876499Y63703499D03*
X19876499Y66243499D03*
X19876499Y68783499D03*
X19876499Y71323499D03*
X19876499Y73863499D03*
X19876499Y76403499D03*
X19876499Y81483499D03*
X19876499Y84023499D03*
X19876499Y86563499D03*
X19876499Y89103499D03*
X19876499Y91643499D03*
X19876499Y94183499D03*
X19876499Y96723499D03*
X19876499Y99263499D03*
X68136499Y31699499D03*
X68136499Y71323499D03*
X68136499Y68783499D03*
X68136499Y66243499D03*
X68136499Y63703499D03*
X68136499Y61163499D03*
X68136499Y58623499D03*
X68136499Y56083499D03*
X68136499Y53543499D03*
X68136499Y49479499D03*
X68136499Y46939499D03*
X68136499Y44399499D03*
X68136499Y41859499D03*
X68136499Y39319499D03*
X68136499Y36779499D03*
X68136499Y76403499D03*
X68136499Y78943499D03*
X68136499Y81483499D03*
X68136499Y84023499D03*
X68136499Y86563499D03*
X68136499Y89103499D03*
X68136499Y91643499D03*
X68136499Y94183499D03*
X65596499Y101803499D03*
X65596499Y104343499D03*
X63056499Y101803499D03*
X63056499Y104343499D03*
X60516499Y101803499D03*
X60516499Y104343499D03*
X57976499Y101803499D03*
X57976499Y104343499D03*
X55436499Y101803499D03*
X55436499Y104343499D03*
X52896499Y101803499D03*
X52896499Y104343499D03*
X50356499Y101803499D03*
X50356499Y104343499D03*
X47816499Y101803499D03*
X47816499Y104343499D03*
X45276499Y101803499D03*
X45276499Y104343499D03*
X42736499Y101803499D03*
X42736499Y104343499D03*
X40196499Y101803499D03*
X40196499Y104343499D03*
X37656499Y101803499D03*
X37656499Y104343499D03*
X35116499Y101803499D03*
X35116499Y104343499D03*
X32576499Y101803499D03*
X32576499Y104343499D03*
X30036499Y101803499D03*
X30036499Y104343499D03*
X27496499Y101803499D03*
X27496499Y104343499D03*
D35*
X68136499Y34239499D03*
X19876499Y48463499D03*
X19876499Y51003499D03*
X42736499Y73990499D03*
X24956499Y101803499D03*
X24956499Y104343499D03*
D34*
X19876499Y38303499D03*
X47816499Y71450499D03*
X45276499Y73990499D03*
X19876499Y40843499D03*
X42736499Y71450499D03*
X45276499Y71450499D03*
X68136499Y26619499D03*
X68136499Y29159499D03*
X19876499Y53543499D03*
%TD*%
M02*
